<svg width="338" height="115" viewBox="0 0 338 115" fill="none" xmlns="http://www.w3.org/2000/svg">
<g id="Component 1">
<g id="Rectangle 10" filter="url(#filter0_d_65_12)">
<rect x="8" y="4" width="321.184" height="98.891" rx="16" fill="#D9D9D9" fill-opacity="0.2" shape-rendering="crispEdges"/>
</g>
<g id="Desenhado para funcionar individualmente ou em conjunto.">
<path d="M43.4205 37.3688H38.2642V22.8233H43.4631C44.9261 22.8233 46.1856 23.1145 47.2415 23.6969C48.2973 24.2746 49.1094 25.1055 49.6776 26.1898C50.2505 27.2741 50.5369 28.5714 50.5369 30.0818C50.5369 31.597 50.2505 32.8991 49.6776 33.9881C49.1094 35.0771 48.2926 35.9128 47.2273 36.4952C46.1667 37.0776 44.8977 37.3688 43.4205 37.3688ZM41.3395 34.7338H43.2926C44.2017 34.7338 44.9664 34.5728 45.5866 34.2509C46.2116 33.9242 46.6804 33.4199 46.9929 32.7381C47.3101 32.0515 47.4688 31.1661 47.4688 30.0818C47.4688 29.007 47.3101 28.1287 46.9929 27.4469C46.6804 26.7651 46.214 26.2632 45.5938 25.9412C44.9735 25.6192 44.2088 25.4583 43.2997 25.4583H41.3395V34.7338ZM57.7298 37.5818C56.6076 37.5818 55.6417 37.3546 54.832 36.9C54.0271 36.4407 53.4068 35.7921 52.9712 34.954C52.5356 34.1112 52.3178 33.1145 52.3178 31.9639C52.3178 30.8418 52.5356 29.8569 52.9712 29.0094C53.4068 28.1619 54.02 27.5013 54.8107 27.0279C55.6062 26.5544 56.5389 26.3176 57.609 26.3176C58.3287 26.3176 58.9987 26.4336 59.619 26.6656C60.244 26.8929 60.7885 27.2362 61.2525 27.6955C61.7212 28.1548 62.0858 28.7324 62.3462 29.4284C62.6067 30.1197 62.7369 30.9294 62.7369 31.8574V32.6884H53.5252V30.8134H59.8888C59.8888 30.3778 59.7942 29.9919 59.6048 29.6557C59.4154 29.3195 59.1526 29.0567 58.8164 28.8674C58.485 28.6732 58.0991 28.5762 57.6587 28.5762C57.1995 28.5762 56.7923 28.6827 56.4371 28.8958C56.0868 29.1041 55.8121 29.3858 55.6133 29.7409C55.4144 30.0913 55.3126 30.4819 55.3079 30.9128V32.6955C55.3079 33.2353 55.4073 33.7016 55.6062 34.0946C55.8098 34.4876 56.0962 34.7906 56.4656 35.0037C56.8349 35.2168 57.2728 35.3233 57.7795 35.3233C58.1156 35.3233 58.4234 35.276 58.7028 35.1813C58.9821 35.0866 59.2212 34.9445 59.4201 34.7551C59.619 34.5657 59.7705 34.3337 59.8746 34.0591L62.6729 34.2438C62.5309 34.9161 62.2397 35.5032 61.7994 36.0051C61.3638 36.5023 60.8003 36.8906 60.109 37.1699C59.4225 37.4445 58.6294 37.5818 57.7298 37.5818ZM73.788 29.5705L71.0181 29.7409C70.9708 29.5042 70.869 29.2911 70.7127 29.1017C70.5565 28.9076 70.3505 28.7537 70.0948 28.6401C69.8439 28.5217 69.5432 28.4625 69.1928 28.4625C68.7241 28.4625 68.3287 28.562 68.0067 28.7608C67.6848 28.9549 67.5238 29.2154 67.5238 29.5421C67.5238 29.8025 67.628 30.0227 67.8363 30.2026C68.0446 30.3825 68.4021 30.5269 68.9087 30.6358L70.8832 31.0335C71.9438 31.2513 72.7345 31.6017 73.2553 32.0847C73.7762 32.5676 74.0366 33.2021 74.0366 33.9881C74.0366 34.7031 73.8259 35.3304 73.4045 35.8702C72.9878 36.41 72.4149 36.8314 71.6857 37.1344C70.9613 37.4327 70.1256 37.5818 69.1786 37.5818C67.7345 37.5818 66.5839 37.2812 65.7269 36.6799C64.8746 36.0738 64.3751 35.2499 64.2283 34.2083L67.2042 34.052C67.2942 34.4924 67.512 34.8285 67.8576 35.0605C68.2032 35.2878 68.646 35.4014 69.1857 35.4014C69.716 35.4014 70.1422 35.2996 70.4641 35.096C70.7908 34.8877 70.9566 34.6202 70.9613 34.2935C70.9566 34.0189 70.8406 33.794 70.6133 33.6188C70.386 33.4389 70.0356 33.3015 69.5621 33.2068L67.6729 32.8304C66.6076 32.6174 65.8145 32.248 65.2937 31.7225C64.7776 31.1969 64.5195 30.5269 64.5195 29.7125C64.5195 29.0118 64.7089 28.4081 65.0877 27.9014C65.4712 27.3948 66.0086 27.0042 66.6999 26.7296C67.396 26.4549 68.2103 26.3176 69.1431 26.3176C70.521 26.3176 71.6052 26.6088 72.396 27.1912C73.1914 27.7736 73.6554 28.5667 73.788 29.5705ZM80.9134 37.5818C79.7912 37.5818 78.8253 37.3546 78.0156 36.9C77.2107 36.4407 76.5904 35.7921 76.1548 34.954C75.7192 34.1112 75.5014 33.1145 75.5014 31.9639C75.5014 30.8418 75.7192 29.8569 76.1548 29.0094C76.5904 28.1619 77.2036 27.5013 77.9943 27.0279C78.7898 26.5544 79.7225 26.3176 80.7926 26.3176C81.5123 26.3176 82.1823 26.4336 82.8026 26.6656C83.4276 26.8929 83.9721 27.2362 84.4361 27.6955C84.9048 28.1548 85.2694 28.7324 85.5298 29.4284C85.7902 30.1197 85.9205 30.9294 85.9205 31.8574V32.6884H76.7088V30.8134H83.0724C83.0724 30.3778 82.9777 29.9919 82.7884 29.6557C82.599 29.3195 82.3362 29.0567 82 28.8674C81.6686 28.6732 81.2827 28.5762 80.8423 28.5762C80.383 28.5762 79.9759 28.6827 79.6207 28.8958C79.2704 29.1041 78.9957 29.3858 78.7969 29.7409C78.598 30.0913 78.4962 30.4819 78.4915 30.9128V32.6955C78.4915 33.2353 78.5909 33.7016 78.7898 34.0946C78.9934 34.4876 79.2798 34.7906 79.6491 35.0037C80.0185 35.2168 80.4564 35.3233 80.9631 35.3233C81.2992 35.3233 81.607 35.276 81.8864 35.1813C82.1657 35.0866 82.4048 34.9445 82.6037 34.7551C82.8026 34.5657 82.9541 34.3337 83.0582 34.0591L85.8565 34.2438C85.7145 34.9161 85.4233 35.5032 84.983 36.0051C84.5473 36.5023 83.9839 36.8906 83.2926 37.1699C82.6061 37.4445 81.813 37.5818 80.9134 37.5818ZM90.9205 31.062V37.3688H87.8949V26.4597H90.7784V28.3844H90.9062C91.1477 27.7499 91.5526 27.248 92.1207 26.8787C92.6889 26.5047 93.3778 26.3176 94.1875 26.3176C94.9451 26.3176 95.6056 26.4834 96.169 26.8148C96.7325 27.1462 97.1705 27.6197 97.483 28.2353C97.7955 28.846 97.9517 29.5752 97.9517 30.4228V37.3688H94.9261V30.9625C94.9309 30.2949 94.7604 29.7741 94.4148 29.4C94.0691 29.0212 93.5933 28.8318 92.9872 28.8318C92.58 28.8318 92.2202 28.9194 91.9077 29.0946C91.5999 29.2698 91.3584 29.5255 91.1832 29.8617C91.0128 30.1931 90.9252 30.5932 90.9205 31.062ZM103.362 31.062V37.3688H100.336V22.8233H103.277V28.3844H103.404C103.651 27.7405 104.048 27.2362 104.598 26.8716C105.147 26.5023 105.836 26.3176 106.664 26.3176C107.422 26.3176 108.083 26.4834 108.646 26.8148C109.214 27.1415 109.654 27.6126 109.967 28.2281C110.284 28.8389 110.44 29.5705 110.436 30.4228V37.3688H107.41V30.9625C107.415 30.2902 107.244 29.767 106.899 29.3929C106.558 29.0189 106.08 28.8318 105.464 28.8318C105.052 28.8318 104.688 28.9194 104.37 29.0946C104.058 29.2698 103.812 29.5255 103.632 29.8617C103.457 30.1931 103.367 30.5932 103.362 31.062ZM115.928 37.5747C115.232 37.5747 114.611 37.454 114.067 37.2125C113.522 36.9663 113.091 36.6041 112.774 36.1259C112.462 35.6429 112.305 35.0416 112.305 34.3219C112.305 33.7158 112.417 33.2068 112.639 32.7949C112.862 32.383 113.165 32.0515 113.548 31.8006C113.932 31.5496 114.367 31.3603 114.855 31.2324C115.348 31.1046 115.864 31.0146 116.403 30.9625C117.038 30.8962 117.549 30.8347 117.938 30.7779C118.326 30.7163 118.607 30.6264 118.783 30.508C118.958 30.3896 119.045 30.2144 119.045 29.9824V29.9398C119.045 29.49 118.903 29.142 118.619 28.8958C118.34 28.6496 117.942 28.5264 117.426 28.5264C116.882 28.5264 116.448 28.6472 116.126 28.8887C115.804 29.1254 115.591 29.4237 115.487 29.7835L112.689 29.5563C112.831 28.8934 113.11 28.3205 113.527 27.8375C113.944 27.3498 114.481 26.9758 115.139 26.7154C115.802 26.4502 116.569 26.3176 117.44 26.3176C118.046 26.3176 118.626 26.3887 119.18 26.5307C119.739 26.6728 120.234 26.8929 120.665 27.1912C121.1 27.4895 121.444 27.873 121.695 28.3418C121.946 28.8058 122.071 29.3621 122.071 30.0108V37.3688H119.202V35.856H119.116C118.941 36.1969 118.707 36.4976 118.413 36.758C118.12 37.0137 117.767 37.2149 117.355 37.3617C116.943 37.5037 116.467 37.5747 115.928 37.5747ZM116.794 35.4867C117.239 35.4867 117.632 35.3991 117.973 35.2239C118.314 35.044 118.581 34.8025 118.776 34.4995C118.97 34.1964 119.067 33.8531 119.067 33.4696V32.312C118.972 32.3735 118.842 32.4303 118.676 32.4824C118.515 32.5298 118.333 32.5747 118.129 32.6174C117.926 32.6552 117.722 32.6907 117.518 32.7239C117.315 32.7523 117.13 32.7783 116.964 32.802C116.609 32.8541 116.299 32.937 116.034 33.0506C115.769 33.1642 115.563 33.3181 115.416 33.5122C115.269 33.7016 115.196 33.9384 115.196 34.2225C115.196 34.6344 115.345 34.9493 115.643 35.1671C115.946 35.3801 116.33 35.4867 116.794 35.4867ZM128.438 37.5463C127.61 37.5463 126.859 37.3333 126.187 36.9071C125.519 36.4763 124.989 35.8442 124.596 35.0108C124.208 34.1728 124.013 33.1453 124.013 31.9284C124.013 30.6784 124.215 29.6391 124.617 28.8105C125.02 27.9772 125.555 27.3546 126.222 26.9426C126.895 26.526 127.631 26.3176 128.431 26.3176C129.042 26.3176 129.551 26.4218 129.958 26.6301C130.37 26.8337 130.701 27.0894 130.952 27.3972C131.208 27.7002 131.402 27.9985 131.535 28.2921H131.627V22.8233H134.646V37.3688H131.663V35.6216H131.535C131.393 35.9246 131.192 36.2253 130.931 36.5236C130.675 36.8172 130.342 37.061 129.93 37.2551C129.522 37.4493 129.025 37.5463 128.438 37.5463ZM129.397 35.1387C129.885 35.1387 130.297 35.0061 130.633 34.7409C130.974 34.471 131.234 34.0946 131.414 33.6117C131.599 33.1287 131.691 32.5629 131.691 31.9142C131.691 31.2656 131.601 30.7021 131.421 30.2239C131.241 29.7457 130.981 29.3763 130.64 29.1159C130.299 28.8555 129.885 28.7253 129.397 28.7253C128.9 28.7253 128.481 28.8603 128.14 29.1301C127.799 29.4 127.541 29.7741 127.366 30.2523C127.191 30.7305 127.103 31.2845 127.103 31.9142C127.103 32.5487 127.191 33.1098 127.366 33.5975C127.546 34.0804 127.804 34.4592 128.14 34.7338C128.481 35.0037 128.9 35.1387 129.397 35.1387ZM142.062 37.5818C140.959 37.5818 140.005 37.3475 139.2 36.8787C138.4 36.4052 137.782 35.7471 137.346 34.9043C136.911 34.0567 136.693 33.0743 136.693 31.9568C136.693 30.8299 136.911 29.8451 137.346 29.0023C137.782 28.1548 138.4 27.4966 139.2 27.0279C140.005 26.5544 140.959 26.3176 142.062 26.3176C143.165 26.3176 144.117 26.5544 144.917 27.0279C145.722 27.4966 146.342 28.1548 146.778 29.0023C147.214 29.8451 147.431 30.8299 147.431 31.9568C147.431 33.0743 147.214 34.0567 146.778 34.9043C146.342 35.7471 145.722 36.4052 144.917 36.8787C144.117 37.3475 143.165 37.5818 142.062 37.5818ZM142.076 35.2381C142.578 35.2381 142.997 35.096 143.333 34.812C143.67 34.5231 143.923 34.1301 144.093 33.633C144.269 33.1358 144.356 32.57 144.356 31.9355C144.356 31.3011 144.269 30.7353 144.093 30.2381C143.923 29.7409 143.67 29.3479 143.333 29.0591C142.997 28.7703 142.578 28.6259 142.076 28.6259C141.57 28.6259 141.144 28.7703 140.798 29.0591C140.457 29.3479 140.199 29.7409 140.024 30.2381C139.853 30.7353 139.768 31.3011 139.768 31.9355C139.768 32.57 139.853 33.1358 140.024 33.633C140.199 34.1301 140.457 34.5231 140.798 34.812C141.144 35.096 141.57 35.2381 142.076 35.2381ZM154.028 41.4597V26.4597H157.011V28.2921H157.146C157.278 27.9985 157.47 27.7002 157.721 27.3972C157.977 27.0894 158.308 26.8337 158.715 26.6301C159.127 26.4218 159.638 26.3176 160.249 26.3176C161.045 26.3176 161.779 26.526 162.451 26.9426C163.123 27.3546 163.661 27.9772 164.063 28.8105C164.466 29.6391 164.667 30.6784 164.667 31.9284C164.667 33.1453 164.47 34.1728 164.077 35.0108C163.689 35.8442 163.159 36.4763 162.487 36.9071C161.819 37.3333 161.071 37.5463 160.242 37.5463C159.655 37.5463 159.156 37.4493 158.744 37.2551C158.336 37.061 158.003 36.8172 157.742 36.5236C157.482 36.2253 157.283 35.9246 157.146 35.6216H157.053V41.4597H154.028ZM156.989 31.9142C156.989 32.5629 157.079 33.1287 157.259 33.6117C157.439 34.0946 157.7 34.471 158.04 34.7409C158.381 35.0061 158.796 35.1387 159.283 35.1387C159.776 35.1387 160.192 35.0037 160.533 34.7338C160.874 34.4592 161.132 34.0804 161.308 33.5975C161.487 33.1098 161.577 32.5487 161.577 31.9142C161.577 31.2845 161.49 30.7305 161.315 30.2523C161.139 29.7741 160.881 29.4 160.54 29.1301C160.2 28.8603 159.781 28.7253 159.283 28.7253C158.791 28.7253 158.374 28.8555 158.033 29.1159C157.697 29.3763 157.439 29.7457 157.259 30.2239C157.079 30.7021 156.989 31.2656 156.989 31.9142ZM169.795 37.5747C169.099 37.5747 168.478 37.454 167.934 37.2125C167.389 36.9663 166.959 36.6041 166.641 36.1259C166.329 35.6429 166.173 35.0416 166.173 34.3219C166.173 33.7158 166.284 33.2068 166.506 32.7949C166.729 32.383 167.032 32.0515 167.415 31.8006C167.799 31.5496 168.235 31.3603 168.722 31.2324C169.215 31.1046 169.731 31.0146 170.271 30.9625C170.905 30.8962 171.416 30.8347 171.805 30.7779C172.193 30.7163 172.475 30.6264 172.65 30.508C172.825 30.3896 172.913 30.2144 172.913 29.9824V29.9398C172.913 29.49 172.771 29.142 172.487 28.8958C172.207 28.6496 171.809 28.5264 171.293 28.5264C170.749 28.5264 170.316 28.6472 169.994 28.8887C169.672 29.1254 169.459 29.4237 169.354 29.7835L166.556 29.5563C166.698 28.8934 166.978 28.3205 167.394 27.8375C167.811 27.3498 168.348 26.9758 169.006 26.7154C169.669 26.4502 170.436 26.3176 171.308 26.3176C171.914 26.3176 172.494 26.3887 173.048 26.5307C173.606 26.6728 174.101 26.8929 174.532 27.1912C174.968 27.4895 175.311 27.873 175.562 28.3418C175.813 28.8058 175.938 29.3621 175.938 30.0108V37.3688H173.069V35.856H172.984C172.808 36.1969 172.574 36.4976 172.281 36.758C171.987 37.0137 171.634 37.2149 171.222 37.3617C170.81 37.5037 170.335 37.5747 169.795 37.5747ZM170.661 35.4867C171.106 35.4867 171.499 35.3991 171.84 35.2239C172.181 35.044 172.449 34.8025 172.643 34.4995C172.837 34.1964 172.934 33.8531 172.934 33.4696V32.312C172.839 32.3735 172.709 32.4303 172.543 32.4824C172.382 32.5298 172.2 32.5747 171.996 32.6174C171.793 32.6552 171.589 32.6907 171.386 32.7239C171.182 32.7523 170.997 32.7783 170.832 32.802C170.477 32.8541 170.166 32.937 169.901 33.0506C169.636 33.1642 169.43 33.3181 169.283 33.5122C169.137 33.7016 169.063 33.9384 169.063 34.2225C169.063 34.6344 169.212 34.9493 169.511 35.1671C169.814 35.3801 170.197 35.4867 170.661 35.4867ZM178.286 37.3688V26.4597H181.219V28.3631H181.332C181.531 27.686 181.865 27.1746 182.334 26.829C182.803 26.4786 183.342 26.3034 183.953 26.3034C184.105 26.3034 184.268 26.3129 184.443 26.3318C184.618 26.3508 184.772 26.3768 184.905 26.41V29.0946C184.763 29.052 184.566 29.0141 184.315 28.981C184.064 28.9478 183.835 28.9313 183.626 28.9313C183.181 28.9313 182.784 29.0283 182.433 29.2225C182.088 29.4119 181.813 29.677 181.609 30.0179C181.411 30.3588 181.311 30.7518 181.311 31.1969V37.3688H178.286ZM189.267 37.5747C188.571 37.5747 187.951 37.454 187.407 37.2125C186.862 36.9663 186.431 36.6041 186.114 36.1259C185.801 35.6429 185.645 35.0416 185.645 34.3219C185.645 33.7158 185.757 33.2068 185.979 32.7949C186.202 32.383 186.505 32.0515 186.888 31.8006C187.272 31.5496 187.707 31.3603 188.195 31.2324C188.687 31.1046 189.203 31.0146 189.743 30.9625C190.378 30.8962 190.889 30.8347 191.277 30.7779C191.666 30.7163 191.947 30.6264 192.123 30.508C192.298 30.3896 192.385 30.2144 192.385 29.9824V29.9398C192.385 29.49 192.243 29.142 191.959 28.8958C191.68 28.6496 191.282 28.5264 190.766 28.5264C190.221 28.5264 189.788 28.6472 189.466 28.8887C189.144 29.1254 188.931 29.4237 188.827 29.7835L186.029 29.5563C186.171 28.8934 186.45 28.3205 186.867 27.8375C187.283 27.3498 187.821 26.9758 188.479 26.7154C189.142 26.4502 189.909 26.3176 190.78 26.3176C191.386 26.3176 191.966 26.3887 192.52 26.5307C193.079 26.6728 193.574 26.8929 194.005 27.1912C194.44 27.4895 194.783 27.873 195.034 28.3418C195.285 28.8058 195.411 29.3621 195.411 30.0108V37.3688H192.542V35.856H192.456C192.281 36.1969 192.047 36.4976 191.753 36.758C191.46 37.0137 191.107 37.2149 190.695 37.3617C190.283 37.5037 189.807 37.5747 189.267 37.5747ZM190.134 35.4867C190.579 35.4867 190.972 35.3991 191.313 35.2239C191.654 35.044 191.921 34.8025 192.115 34.4995C192.31 34.1964 192.407 33.8531 192.407 33.4696V32.312C192.312 32.3735 192.182 32.4303 192.016 32.4824C191.855 32.5298 191.673 32.5747 191.469 32.6174C191.266 32.6552 191.062 32.6907 190.858 32.7239C190.655 32.7523 190.47 32.7783 190.304 32.802C189.949 32.8541 189.639 32.937 189.374 33.0506C189.109 33.1642 188.903 33.3181 188.756 33.5122C188.609 33.7016 188.536 33.9384 188.536 34.2225C188.536 34.6344 188.685 34.9493 188.983 35.1671C189.286 35.3801 189.67 35.4867 190.134 35.4867ZM208.254 26.4597V28.7324H201.521V26.4597H208.254ZM203.062 37.3688V25.6713C203.062 24.8806 203.216 24.2248 203.523 23.704C203.836 23.1832 204.262 22.7925 204.802 22.5321C205.342 22.2717 205.955 22.1415 206.641 22.1415C207.105 22.1415 207.529 22.177 207.913 22.248C208.301 22.3191 208.59 22.383 208.779 22.4398L208.239 24.7125C208.121 24.6746 207.974 24.6391 207.799 24.606C207.629 24.5728 207.453 24.5563 207.273 24.5563C206.828 24.5563 206.518 24.6604 206.343 24.8688C206.168 25.0724 206.08 25.3588 206.08 25.7281V37.3688H203.062ZM217.098 32.7239V26.4597H220.123V37.3688H217.218V35.3872H217.105C216.859 36.0264 216.449 36.5402 215.876 36.9284C215.308 37.3167 214.614 37.5108 213.795 37.5108C213.066 37.5108 212.424 37.3451 211.87 37.0137C211.316 36.6822 210.883 36.2111 210.571 35.6003C210.263 34.9895 210.107 34.258 210.102 33.4057V26.4597H213.127V32.8659C213.132 33.5099 213.305 34.0189 213.646 34.3929C213.987 34.767 214.444 34.954 215.017 34.954C215.381 34.954 215.722 34.8711 216.039 34.7054C216.357 34.535 216.612 34.284 216.806 33.9526C217.005 33.6211 217.102 33.2116 217.098 32.7239ZM225.569 31.062V37.3688H222.543V26.4597H225.427V28.3844H225.555C225.796 27.7499 226.201 27.248 226.769 26.8787C227.337 26.5047 228.026 26.3176 228.836 26.3176C229.594 26.3176 230.254 26.4834 230.817 26.8148C231.381 27.1462 231.819 27.6197 232.131 28.2353C232.444 28.846 232.6 29.5752 232.6 30.4228V37.3688H229.575V30.9625C229.579 30.2949 229.409 29.7741 229.063 29.4C228.718 29.0212 228.242 28.8318 227.636 28.8318C227.228 28.8318 226.869 28.9194 226.556 29.0946C226.248 29.2698 226.007 29.5255 225.832 29.8617C225.661 30.1931 225.574 30.5932 225.569 31.062ZM239.914 37.5818C238.796 37.5818 237.835 37.3451 237.03 36.8716C236.23 36.3934 235.614 35.7305 235.184 34.883C234.757 34.0354 234.544 33.0601 234.544 31.9568C234.544 30.8394 234.76 29.8593 235.191 29.0165C235.626 28.169 236.244 27.5085 237.044 27.035C237.845 26.5567 238.796 26.3176 239.9 26.3176C240.851 26.3176 241.685 26.4905 242.4 26.8361C243.114 27.1817 243.68 27.6671 244.097 28.2921C244.514 28.9171 244.743 29.651 244.786 30.4938H241.931C241.85 29.9493 241.637 29.5113 241.292 29.1799C240.951 28.8437 240.503 28.6756 239.949 28.6756C239.48 28.6756 239.071 28.8034 238.721 29.0591C238.375 29.3101 238.105 29.677 237.911 30.16C237.717 30.6429 237.62 31.2277 237.62 31.9142C237.62 32.6103 237.714 33.2021 237.904 33.6898C238.098 34.1775 238.37 34.5492 238.721 34.8049C239.071 35.0605 239.48 35.1884 239.949 35.1884C240.295 35.1884 240.605 35.1174 240.88 34.9753C241.159 34.8333 241.389 34.6273 241.569 34.3574C241.753 34.0828 241.874 33.7537 241.931 33.3702H244.786C244.739 34.2035 244.511 34.9374 244.104 35.5719C243.702 36.2016 243.145 36.6941 242.435 37.0492C241.725 37.4043 240.884 37.5818 239.914 37.5818ZM246.723 37.3688V26.4597H249.749V37.3688H246.723ZM248.243 25.0534C247.793 25.0534 247.407 24.9043 247.085 24.606C246.768 24.303 246.609 23.9407 246.609 23.5193C246.609 23.1027 246.768 22.7452 247.085 22.4469C247.407 22.1439 247.793 21.9924 248.243 21.9924C248.693 21.9924 249.076 22.1439 249.393 22.4469C249.715 22.7452 249.876 23.1027 249.876 23.5193C249.876 23.9407 249.715 24.303 249.393 24.606C249.076 24.9043 248.693 25.0534 248.243 25.0534ZM257.101 37.5818C255.998 37.5818 255.044 37.3475 254.239 36.8787C253.439 36.4052 252.821 35.7471 252.385 34.9043C251.95 34.0567 251.732 33.0743 251.732 31.9568C251.732 30.8299 251.95 29.8451 252.385 29.0023C252.821 28.1548 253.439 27.4966 254.239 27.0279C255.044 26.5544 255.998 26.3176 257.101 26.3176C258.204 26.3176 259.156 26.5544 259.956 27.0279C260.761 27.4966 261.382 28.1548 261.817 29.0023C262.253 29.8451 262.471 30.8299 262.471 31.9568C262.471 33.0743 262.253 34.0567 261.817 34.9043C261.382 35.7471 260.761 36.4052 259.956 36.8787C259.156 37.3475 258.204 37.5818 257.101 37.5818ZM257.115 35.2381C257.617 35.2381 258.036 35.096 258.373 34.812C258.709 34.5231 258.962 34.1301 259.132 33.633C259.308 33.1358 259.395 32.57 259.395 31.9355C259.395 31.3011 259.308 30.7353 259.132 30.2381C258.962 29.7409 258.709 29.3479 258.373 29.0591C258.036 28.7703 257.617 28.6259 257.115 28.6259C256.609 28.6259 256.183 28.7703 255.837 29.0591C255.496 29.3479 255.238 29.7409 255.063 30.2381C254.892 30.7353 254.807 31.3011 254.807 31.9355C254.807 32.57 254.892 33.1358 255.063 33.633C255.238 34.1301 255.496 34.5231 255.837 34.812C256.183 35.096 256.609 35.2381 257.115 35.2381ZM267.463 31.062V37.3688H264.438V26.4597H267.321V28.3844H267.449C267.691 27.7499 268.096 27.248 268.664 26.8787C269.232 26.5047 269.921 26.3176 270.73 26.3176C271.488 26.3176 272.149 26.4834 272.712 26.8148C273.275 27.1462 273.713 27.6197 274.026 28.2353C274.338 28.846 274.495 29.5752 274.495 30.4228V37.3688H271.469V30.9625C271.474 30.2949 271.303 29.7741 270.958 29.4C270.612 29.0212 270.136 28.8318 269.53 28.8318C269.123 28.8318 268.763 28.9194 268.451 29.0946C268.143 29.2698 267.901 29.5255 267.726 29.8617C267.556 30.1931 267.468 30.5932 267.463 31.062ZM279.99 37.5747C279.294 37.5747 278.674 37.454 278.129 37.2125C277.585 36.9663 277.154 36.6041 276.837 36.1259C276.524 35.6429 276.368 35.0416 276.368 34.3219C276.368 33.7158 276.479 33.2068 276.702 32.7949C276.924 32.383 277.227 32.0515 277.611 31.8006C277.994 31.5496 278.43 31.3603 278.918 31.2324C279.41 31.1046 279.926 31.0146 280.466 30.9625C281.1 30.8962 281.612 30.8347 282 30.7779C282.388 30.7163 282.67 30.6264 282.845 30.508C283.02 30.3896 283.108 30.2144 283.108 29.9824V29.9398C283.108 29.49 282.966 29.142 282.682 28.8958C282.402 28.6496 282.005 28.5264 281.489 28.5264C280.944 28.5264 280.511 28.6472 280.189 28.8887C279.867 29.1254 279.654 29.4237 279.55 29.7835L276.751 29.5563C276.893 28.8934 277.173 28.3205 277.589 27.8375C278.006 27.3498 278.544 26.9758 279.202 26.7154C279.865 26.4502 280.632 26.3176 281.503 26.3176C282.109 26.3176 282.689 26.3887 283.243 26.5307C283.802 26.6728 284.296 26.8929 284.727 27.1912C285.163 27.4895 285.506 27.873 285.757 28.3418C286.008 28.8058 286.134 29.3621 286.134 30.0108V37.3688H283.264V35.856H283.179C283.004 36.1969 282.769 36.4976 282.476 36.758C282.182 37.0137 281.83 37.2149 281.418 37.3617C281.006 37.5037 280.53 37.5747 279.99 37.5747ZM280.857 35.4867C281.302 35.4867 281.695 35.3991 282.036 35.2239C282.376 35.044 282.644 34.8025 282.838 34.4995C283.032 34.1964 283.129 33.8531 283.129 33.4696V32.312C283.035 32.3735 282.904 32.4303 282.739 32.4824C282.578 32.5298 282.395 32.5747 282.192 32.6174C281.988 32.6552 281.785 32.6907 281.581 32.7239C281.377 32.7523 281.193 32.7783 281.027 32.802C280.672 32.8541 280.362 32.937 280.097 33.0506C279.831 33.1642 279.625 33.3181 279.479 33.5122C279.332 33.7016 279.259 33.9384 279.259 34.2225C279.259 34.6344 279.408 34.9493 279.706 35.1671C280.009 35.3801 280.393 35.4867 280.857 35.4867ZM288.481 37.3688V26.4597H291.414V28.3631H291.528C291.727 27.686 292.06 27.1746 292.529 26.829C292.998 26.4786 293.538 26.3034 294.148 26.3034C294.3 26.3034 294.463 26.3129 294.638 26.3318C294.814 26.3508 294.968 26.3768 295.1 26.41V29.0946C294.958 29.052 294.762 29.0141 294.511 28.981C294.26 28.9478 294.03 28.9313 293.822 28.9313C293.377 28.9313 292.979 29.0283 292.629 29.2225C292.283 29.4119 292.008 29.677 291.805 30.0179C291.606 30.3588 291.506 30.7518 291.506 31.1969V37.3688H288.481Z" fill="#6DC135"/>
<path d="M38.4276 60.3688V49.4597H40.5511V60.3688H38.4276ZM39.5 47.7764C39.1307 47.7764 38.8134 47.6533 38.5483 47.4071C38.2879 47.1562 38.1577 46.8579 38.1577 46.5122C38.1577 46.1619 38.2879 45.8636 38.5483 45.6174C38.8134 45.3664 39.1307 45.2409 39.5 45.2409C39.8693 45.2409 40.1842 45.3664 40.4446 45.6174C40.7098 45.8636 40.8423 46.1619 40.8423 46.5122C40.8423 46.8579 40.7098 47.1562 40.4446 47.4071C40.1842 47.6533 39.8693 47.7764 39.5 47.7764ZM45.5316 53.8915V60.3688H43.408V49.4597H45.4464V51.2353H45.5813C45.8323 50.6576 46.2253 50.1936 46.7603 49.8432C47.3001 49.4928 47.9795 49.3176 48.7987 49.3176C49.542 49.3176 50.1931 49.4739 50.7518 49.7864C51.3105 50.0942 51.7437 50.5534 52.0515 51.1642C52.3593 51.775 52.5131 52.5302 52.5131 53.4299V60.3688H50.3896V53.6855C50.3896 52.8948 50.1836 52.2769 49.7717 51.8318C49.3597 51.382 48.7939 51.1571 48.0742 51.1571C47.5818 51.1571 47.1438 51.2637 46.7603 51.4767C46.3815 51.6898 46.0808 52.0023 45.8583 52.4142C45.6405 52.8214 45.5316 53.3139 45.5316 53.8915ZM59.445 60.5818C58.5643 60.5818 57.7783 60.3569 57.087 59.9071C56.4004 59.4526 55.8607 58.8063 55.4677 57.9682C55.0794 57.1254 54.8853 56.1145 54.8853 54.9355C54.8853 53.7566 55.0818 52.748 55.4748 51.91C55.8725 51.0719 56.417 50.4303 57.1083 49.9853C57.7996 49.5402 58.5832 49.3176 59.4592 49.3176C60.1362 49.3176 60.6808 49.4313 61.0927 49.6585C61.5094 49.8811 61.8313 50.1415 62.0586 50.4398C62.2906 50.7381 62.4705 51.0009 62.5984 51.2281H62.7262V45.8233H64.8498V60.3688H62.7759V58.6713H62.5984C62.4705 58.9033 62.2859 59.1685 62.0444 59.4668C61.8076 59.7651 61.4809 60.0255 61.0643 60.248C60.6476 60.4706 60.1078 60.5818 59.445 60.5818ZM59.9137 58.7708C60.5245 58.7708 61.0406 58.6098 61.462 58.2878C61.8881 57.9611 62.2101 57.5089 62.4279 56.9313C62.6504 56.3536 62.7617 55.6813 62.7617 54.9142C62.7617 54.1567 62.6528 53.4938 62.435 52.9256C62.2172 52.3574 61.8976 51.9147 61.4762 51.5975C61.0548 51.2802 60.534 51.1216 59.9137 51.1216C59.2745 51.1216 58.7418 51.2873 58.3157 51.6188C57.8896 51.9502 57.5676 52.4024 57.3498 52.9753C57.1367 53.5482 57.0302 54.1945 57.0302 54.9142C57.0302 55.6434 57.1391 56.2992 57.3569 56.8816C57.5747 57.4639 57.8967 57.9256 58.3228 58.2665C58.7537 58.6027 59.284 58.7708 59.9137 58.7708ZM67.8807 60.3688V49.4597H70.0043V60.3688H67.8807ZM68.9531 47.7764C68.5838 47.7764 68.2666 47.6533 68.0014 47.4071C67.741 47.1562 67.6108 46.8579 67.6108 46.5122C67.6108 46.1619 67.741 45.8636 68.0014 45.6174C68.2666 45.3664 68.5838 45.2409 68.9531 45.2409C69.3224 45.2409 69.6373 45.3664 69.8977 45.6174C70.1629 45.8636 70.2955 46.1619 70.2955 46.5122C70.2955 46.8579 70.1629 47.1562 69.8977 47.4071C69.6373 47.6533 69.3224 47.7764 68.9531 47.7764ZM82.1935 49.4597L78.2376 60.3688H75.9648L72.0018 49.4597H74.2816L77.0444 57.8546H77.158L79.9137 49.4597H82.1935ZM84.1893 60.3688V49.4597H86.3129V60.3688H84.1893ZM85.2617 47.7764C84.8924 47.7764 84.5752 47.6533 84.31 47.4071C84.0496 47.1562 83.9194 46.8579 83.9194 46.5122C83.9194 46.1619 84.0496 45.8636 84.31 45.6174C84.5752 45.3664 84.8924 45.2409 85.2617 45.2409C85.631 45.2409 85.9459 45.3664 86.2063 45.6174C86.4715 45.8636 86.604 46.1619 86.604 46.5122C86.604 46.8579 86.4715 47.1562 86.2063 47.4071C85.9459 47.6533 85.631 47.7764 85.2617 47.7764ZM93.2536 60.5818C92.3729 60.5818 91.5869 60.3569 90.8956 59.9071C90.209 59.4526 89.6693 58.8063 89.2763 57.9682C88.888 57.1254 88.6939 56.1145 88.6939 54.9355C88.6939 53.7566 88.8904 52.748 89.2834 51.91C89.6811 51.0719 90.2256 50.4303 90.9169 49.9853C91.6082 49.5402 92.3918 49.3176 93.2678 49.3176C93.9448 49.3176 94.4893 49.4313 94.9013 49.6585C95.3179 49.8811 95.6399 50.1415 95.8672 50.4398C96.0992 50.7381 96.2791 51.0009 96.407 51.2281H96.5348V45.8233H98.6584V60.3688H96.5845V58.6713H96.407C96.2791 58.9033 96.0945 59.1685 95.853 59.4668C95.6162 59.7651 95.2895 60.0255 94.8729 60.248C94.4562 60.4706 93.9164 60.5818 93.2536 60.5818ZM93.7223 58.7708C94.3331 58.7708 94.8492 58.6098 95.2706 58.2878C95.6967 57.9611 96.0187 57.5089 96.2365 56.9313C96.459 56.3536 96.5703 55.6813 96.5703 54.9142C96.5703 54.1567 96.4614 53.4938 96.2436 52.9256C96.0258 52.3574 95.7062 51.9147 95.2848 51.5975C94.8634 51.2802 94.3426 51.1216 93.7223 51.1216C93.0831 51.1216 92.5504 51.2873 92.1243 51.6188C91.6982 51.9502 91.3762 52.4024 91.1584 52.9753C90.9453 53.5482 90.8388 54.1945 90.8388 54.9142C90.8388 55.6434 90.9477 56.2992 91.1655 56.8816C91.3833 57.4639 91.7053 57.9256 92.1314 58.2665C92.5623 58.6027 93.0926 58.7708 93.7223 58.7708ZM108.6 55.8446V49.4597H110.73V60.3688H108.642V58.4796H108.529C108.278 59.062 107.875 59.5473 107.321 59.9355C106.772 60.3191 106.088 60.5108 105.269 60.5108C104.568 60.5108 103.948 60.3569 103.408 60.0492C102.873 59.7367 102.452 59.275 102.144 58.6642C101.841 58.0534 101.689 57.2982 101.689 56.3986V49.4597H103.813V56.1429C103.813 56.8863 104.019 57.4781 104.431 57.9185C104.843 58.3588 105.378 58.579 106.036 58.579C106.434 58.579 106.829 58.4796 107.222 58.2807C107.62 58.0818 107.949 57.7812 108.209 57.3787C108.474 56.9763 108.605 56.4649 108.6 55.8446ZM116.759 60.6103C116.067 60.6103 115.442 60.4824 114.884 60.2267C114.325 59.9663 113.882 59.5899 113.555 59.0975C113.233 58.605 113.072 58.0014 113.072 57.2864C113.072 56.6709 113.191 56.1642 113.428 55.7665C113.664 55.3688 113.984 55.0539 114.386 54.8219C114.789 54.5899 115.239 54.4147 115.736 54.2963C116.233 54.178 116.74 54.088 117.256 54.0264C117.909 53.9507 118.439 53.8891 118.847 53.8418C119.254 53.7897 119.55 53.7068 119.734 53.5932C119.919 53.4796 120.011 53.2949 120.011 53.0392V52.9895C120.011 52.3692 119.836 51.8887 119.486 51.5478C119.14 51.2068 118.624 51.0364 117.938 51.0364C117.223 51.0364 116.659 51.195 116.247 51.5122C115.84 51.8247 115.558 52.1728 115.402 52.5563L113.406 52.1017C113.643 51.4389 113.989 50.9038 114.443 50.4966C114.902 50.0847 115.43 49.7864 116.027 49.6017C116.624 49.4123 117.251 49.3176 117.909 49.3176C118.345 49.3176 118.806 49.3697 119.294 49.4739C119.786 49.5733 120.246 49.758 120.672 50.0279C121.103 50.2978 121.455 50.6836 121.73 51.1855C122.005 51.6827 122.142 52.329 122.142 53.1245V60.3688H120.068V58.8773H119.983C119.846 59.1519 119.64 59.4218 119.365 59.687C119.09 59.9521 118.738 60.1723 118.307 60.3475C117.876 60.5227 117.36 60.6103 116.759 60.6103ZM117.22 58.9057C117.807 58.9057 118.309 58.7897 118.726 58.5577C119.147 58.3257 119.467 58.0227 119.685 57.6486C119.907 57.2698 120.018 56.865 120.018 56.4341V55.0279C119.943 55.1036 119.796 55.1746 119.578 55.2409C119.365 55.3025 119.121 55.3569 118.847 55.4043C118.572 55.4469 118.304 55.4871 118.044 55.525C117.784 55.5582 117.566 55.5866 117.391 55.6103C116.979 55.6623 116.602 55.7499 116.261 55.873C115.925 55.9961 115.655 56.1737 115.452 56.4057C115.253 56.633 115.153 56.936 115.153 57.3148C115.153 57.8404 115.348 58.2381 115.736 58.508C116.124 58.7731 116.619 58.9057 117.22 58.9057ZM127.094 45.8233V60.3688H124.971V45.8233H127.094ZM129.951 60.3688V49.4597H131.989V51.2353H132.124C132.352 50.6339 132.723 50.1652 133.239 49.829C133.755 49.4881 134.373 49.3176 135.093 49.3176C135.822 49.3176 136.433 49.4881 136.925 49.829C137.423 50.1699 137.79 50.6387 138.026 51.2353H138.14C138.4 50.6529 138.815 50.1888 139.383 49.8432C139.951 49.4928 140.628 49.3176 141.414 49.3176C142.404 49.3176 143.211 49.6278 143.836 50.248C144.466 50.8683 144.781 51.8034 144.781 53.0534V60.3688H142.657V53.2523C142.657 52.5137 142.456 51.9786 142.053 51.6472C141.651 51.3157 141.17 51.15 140.612 51.15C139.92 51.15 139.383 51.3631 138.999 51.7892C138.616 52.2106 138.424 52.7528 138.424 53.4156V60.3688H136.308V53.1174C136.308 52.5255 136.123 52.0496 135.754 51.6898C135.384 51.3299 134.904 51.15 134.312 51.15C133.909 51.15 133.538 51.2566 133.197 51.4696C132.861 51.678 132.588 51.9692 132.38 52.3432C132.176 52.7173 132.075 53.1505 132.075 53.6429V60.3688H129.951ZM152.328 60.5889C151.254 60.5889 150.328 60.3593 149.551 59.9C148.78 59.436 148.183 58.785 147.762 57.9469C147.345 57.1041 147.137 56.1169 147.137 54.9853C147.137 53.8678 147.345 52.883 147.762 52.0307C148.183 51.1784 148.77 50.5132 149.523 50.035C150.281 49.5567 151.166 49.3176 152.179 49.3176C152.795 49.3176 153.391 49.4194 153.969 49.623C154.547 49.8266 155.065 50.1462 155.525 50.5818C155.984 51.0174 156.346 51.5833 156.611 52.2793C156.876 52.9706 157.009 53.811 157.009 54.8006V55.5534H148.337V53.9625H154.928C154.928 53.4038 154.814 52.909 154.587 52.4781C154.36 52.0425 154.04 51.6993 153.628 51.4483C153.221 51.1974 152.743 51.0719 152.194 51.0719C151.597 51.0719 151.076 51.2187 150.631 51.5122C150.191 51.8011 149.85 52.1799 149.608 52.6486C149.372 53.1126 149.253 53.6169 149.253 54.1614V55.4043C149.253 56.1335 149.381 56.7537 149.637 57.2651C149.897 57.7764 150.259 58.1671 150.723 58.437C151.187 58.7021 151.73 58.8347 152.35 58.8347C152.752 58.8347 153.119 58.7779 153.451 58.6642C153.782 58.5459 154.069 58.3707 154.31 58.1387C154.551 57.9067 154.736 57.6202 154.864 57.2793L156.874 57.6415C156.713 58.2334 156.424 58.7518 156.007 59.1969C155.596 59.6372 155.077 59.9805 154.452 60.2267C153.832 60.4682 153.124 60.5889 152.328 60.5889ZM161.489 53.8915V60.3688H159.365V49.4597H161.403V51.2353H161.538C161.789 50.6576 162.182 50.1936 162.717 49.8432C163.257 49.4928 163.937 49.3176 164.756 49.3176C165.499 49.3176 166.15 49.4739 166.709 49.7864C167.268 50.0942 167.701 50.5534 168.009 51.1642C168.316 51.775 168.47 52.5302 168.47 53.4299V60.3688H166.347V53.6855C166.347 52.8948 166.141 52.2769 165.729 51.8318C165.317 51.382 164.751 51.1571 164.031 51.1571C163.539 51.1571 163.101 51.2637 162.717 51.4767C162.339 51.6898 162.038 52.0023 161.815 52.4142C161.598 52.8214 161.489 53.3139 161.489 53.8915ZM176.411 49.4597V51.1642H170.452V49.4597H176.411ZM172.05 46.846H174.173V57.1656C174.173 57.5776 174.235 57.8877 174.358 58.096C174.481 58.2996 174.64 58.4393 174.834 58.5151C175.033 58.5861 175.248 58.6216 175.48 58.6216C175.651 58.6216 175.8 58.6098 175.928 58.5861C176.055 58.5624 176.155 58.5435 176.226 58.5293L176.609 60.2835C176.486 60.3309 176.311 60.3782 176.084 60.4256C175.857 60.4777 175.572 60.5061 175.232 60.5108C174.673 60.5203 174.152 60.4209 173.669 60.2125C173.186 60.0042 172.795 59.6822 172.497 59.2466C172.199 58.811 172.05 58.2641 172.05 57.606V46.846ZM183.344 60.5889C182.269 60.5889 181.344 60.3593 180.567 59.9C179.795 59.436 179.199 58.785 178.777 57.9469C178.361 57.1041 178.152 56.1169 178.152 54.9853C178.152 53.8678 178.361 52.883 178.777 52.0307C179.199 51.1784 179.786 50.5132 180.539 50.035C181.296 49.5567 182.182 49.3176 183.195 49.3176C183.81 49.3176 184.407 49.4194 184.985 49.623C185.562 49.8266 186.081 50.1462 186.54 50.5818C186.999 51.0174 187.362 51.5833 187.627 52.2793C187.892 52.9706 188.025 53.811 188.025 54.8006V55.5534H179.353V53.9625H185.944C185.944 53.4038 185.83 52.909 185.603 52.4781C185.375 52.0425 185.056 51.6993 184.644 51.4483C184.237 51.1974 183.758 51.0719 183.209 51.0719C182.613 51.0719 182.092 51.2187 181.647 51.5122C181.206 51.8011 180.865 52.1799 180.624 52.6486C180.387 53.1126 180.269 53.6169 180.269 54.1614V55.4043C180.269 56.1335 180.397 56.7537 180.652 57.2651C180.913 57.7764 181.275 58.1671 181.739 58.437C182.203 58.7021 182.745 58.8347 183.365 58.8347C183.768 58.8347 184.135 58.7779 184.466 58.6642C184.798 58.5459 185.084 58.3707 185.326 58.1387C185.567 57.9067 185.752 57.6202 185.88 57.2793L187.89 57.6415C187.729 58.2334 187.44 58.7518 187.023 59.1969C186.611 59.6372 186.093 59.9805 185.468 60.2267C184.847 60.4682 184.14 60.5889 183.344 60.5889ZM200.269 60.5889C199.246 60.5889 198.354 60.3546 197.591 59.8858C196.829 59.4171 196.237 58.7613 195.816 57.9185C195.394 57.0757 195.184 56.0908 195.184 54.9639C195.184 53.8323 195.394 52.8427 195.816 51.9952C196.237 51.1477 196.829 50.4895 197.591 50.0208C198.354 49.552 199.246 49.3176 200.269 49.3176C201.292 49.3176 202.184 49.552 202.946 50.0208C203.709 50.4895 204.301 51.1477 204.722 51.9952C205.143 52.8427 205.354 53.8323 205.354 54.9639C205.354 56.0908 205.143 57.0757 204.722 57.9185C204.301 58.7613 203.709 59.4171 202.946 59.8858C202.184 60.3546 201.292 60.5889 200.269 60.5889ZM200.276 58.8063C200.939 58.8063 201.488 58.6311 201.924 58.2807C202.359 57.9303 202.681 57.4639 202.89 56.8816C203.103 56.2992 203.209 55.6576 203.209 54.9568C203.209 54.2608 203.103 53.6216 202.89 53.0392C202.681 52.4521 202.359 51.981 201.924 51.6259C201.488 51.2708 200.939 51.0932 200.276 51.0932C199.608 51.0932 199.054 51.2708 198.614 51.6259C198.178 51.981 197.854 52.4521 197.641 53.0392C197.433 53.6216 197.328 54.2608 197.328 54.9568C197.328 55.6576 197.433 56.2992 197.641 56.8816C197.854 57.4639 198.178 57.9303 198.614 58.2807C199.054 58.6311 199.608 58.8063 200.276 58.8063ZM214.635 55.8446V49.4597H216.766V60.3688H214.678V58.4796H214.564C214.313 59.062 213.911 59.5473 213.357 59.9355C212.807 60.3191 212.123 60.5108 211.304 60.5108C210.603 60.5108 209.983 60.3569 209.443 60.0492C208.908 59.7367 208.487 59.275 208.179 58.6642C207.876 58.0534 207.724 57.2982 207.724 56.3986V49.4597H209.848V56.1429C209.848 56.8863 210.054 57.4781 210.466 57.9185C210.878 58.3588 211.413 58.579 212.071 58.579C212.469 58.579 212.864 58.4796 213.257 58.2807C213.655 58.0818 213.984 57.7812 214.244 57.3787C214.509 56.9763 214.64 56.4649 214.635 55.8446ZM229.614 60.5889C228.539 60.5889 227.613 60.3593 226.837 59.9C226.065 59.436 225.468 58.785 225.047 57.9469C224.63 57.1041 224.422 56.1169 224.422 54.9853C224.422 53.8678 224.63 52.883 225.047 52.0307C225.468 51.1784 226.055 50.5132 226.808 50.035C227.566 49.5567 228.451 49.3176 229.464 49.3176C230.08 49.3176 230.677 49.4194 231.254 49.623C231.832 49.8266 232.35 50.1462 232.81 50.5818C233.269 51.0174 233.631 51.5833 233.896 52.2793C234.161 52.9706 234.294 53.811 234.294 54.8006V55.5534H225.622V53.9625H232.213C232.213 53.4038 232.099 52.909 231.872 52.4781C231.645 52.0425 231.325 51.6993 230.913 51.4483C230.506 51.1974 230.028 51.0719 229.479 51.0719C228.882 51.0719 228.361 51.2187 227.916 51.5122C227.476 51.8011 227.135 52.1799 226.893 52.6486C226.657 53.1126 226.538 53.6169 226.538 54.1614V55.4043C226.538 56.1335 226.666 56.7537 226.922 57.2651C227.182 57.7764 227.545 58.1671 228.009 58.437C228.473 58.7021 229.015 58.8347 229.635 58.8347C230.037 58.8347 230.404 58.7779 230.736 58.6642C231.067 58.5459 231.354 58.3707 231.595 58.1387C231.837 57.9067 232.021 57.6202 232.149 57.2793L234.159 57.6415C233.998 58.2334 233.709 58.7518 233.293 59.1969C232.881 59.6372 232.362 59.9805 231.737 60.2267C231.117 60.4682 230.409 60.5889 229.614 60.5889ZM236.65 60.3688V49.4597H238.689V51.2353H238.824C239.051 50.6339 239.422 50.1652 239.939 49.829C240.455 49.4881 241.073 49.3176 241.792 49.3176C242.521 49.3176 243.132 49.4881 243.625 49.829C244.122 50.1699 244.489 50.6387 244.725 51.2353H244.839C245.1 50.6529 245.514 50.1888 246.082 49.8432C246.65 49.4928 247.327 49.3176 248.113 49.3176C249.103 49.3176 249.91 49.6278 250.535 50.248C251.165 50.8683 251.48 51.8034 251.48 53.0534V60.3688H249.356V53.2523C249.356 52.5137 249.155 51.9786 248.752 51.6472C248.35 51.3157 247.869 51.15 247.311 51.15C246.619 51.15 246.082 51.3631 245.699 51.7892C245.315 52.2106 245.123 52.7528 245.123 53.4156V60.3688H243.007V53.1174C243.007 52.5255 242.822 52.0496 242.453 51.6898C242.083 51.3299 241.603 51.15 241.011 51.15C240.609 51.15 240.237 51.2566 239.896 51.4696C239.56 51.678 239.288 51.9692 239.079 52.3432C238.876 52.7173 238.774 53.1505 238.774 53.6429V60.3688H236.65ZM43.0227 83.5889C41.9669 83.5889 41.0578 83.3498 40.2955 82.8716C39.5379 82.3887 38.9555 81.7234 38.5483 80.8759C38.1411 80.0283 37.9375 79.0577 37.9375 77.9639C37.9375 76.856 38.1458 75.8782 38.5625 75.0307C38.9792 74.1784 39.5663 73.5132 40.3239 73.035C41.0814 72.5567 41.974 72.3176 43.0014 72.3176C43.83 72.3176 44.5687 72.4715 45.2173 72.7793C45.866 73.0823 46.3892 73.5085 46.7869 74.0577C47.1894 74.6069 47.4285 75.2485 47.5043 75.9824H45.4375C45.3239 75.471 45.0634 75.0307 44.6562 74.6614C44.2538 74.2921 43.714 74.1074 43.0369 74.1074C42.4451 74.1074 41.9266 74.2637 41.4815 74.5762C41.0412 74.8839 40.6979 75.3243 40.4517 75.8972C40.2055 76.4654 40.0824 77.1377 40.0824 77.9142C40.0824 78.7097 40.2031 79.3962 40.4446 79.9739C40.6861 80.5515 41.027 80.999 41.4673 81.3162C41.9124 81.6335 42.4356 81.7921 43.0369 81.7921C43.4394 81.7921 43.804 81.7187 44.1307 81.5719C44.4621 81.4204 44.7391 81.2049 44.9616 80.9256C45.1889 80.6462 45.3475 80.3101 45.4375 79.9171H47.5043C47.4285 80.6226 47.1989 81.2523 46.8153 81.8063C46.4318 82.3603 45.9181 82.7959 45.2741 83.1131C44.6349 83.4303 43.8845 83.5889 43.0227 83.5889ZM54.3704 83.5889C53.3477 83.5889 52.4551 83.3546 51.6928 82.8858C50.9305 82.4171 50.3387 81.7613 49.9173 80.9185C49.4959 80.0757 49.2852 79.0908 49.2852 77.9639C49.2852 76.8323 49.4959 75.8427 49.9173 74.9952C50.3387 74.1477 50.9305 73.4895 51.6928 73.0208C52.4551 72.552 53.3477 72.3176 54.3704 72.3176C55.3931 72.3176 56.2856 72.552 57.0479 73.0208C57.8103 73.4895 58.4021 74.1477 58.8235 74.9952C59.2449 75.8427 59.4556 76.8323 59.4556 77.9639C59.4556 79.0908 59.2449 80.0757 58.8235 80.9185C58.4021 81.7613 57.8103 82.4171 57.0479 82.8858C56.2856 83.3546 55.3931 83.5889 54.3704 83.5889ZM54.3775 81.8063C55.0404 81.8063 55.5896 81.6311 56.0252 81.2807C56.4608 80.9303 56.7828 80.4639 56.9911 79.8816C57.2042 79.2992 57.3107 78.6576 57.3107 77.9568C57.3107 77.2608 57.2042 76.6216 56.9911 76.0392C56.7828 75.4521 56.4608 74.981 56.0252 74.6259C55.5896 74.2708 55.0404 74.0932 54.3775 74.0932C53.7099 74.0932 53.1559 74.2708 52.7156 74.6259C52.2799 74.981 51.9556 75.4521 51.7425 76.0392C51.5342 76.6216 51.43 77.2608 51.43 77.9568C51.43 78.6576 51.5342 79.2992 51.7425 79.8816C51.9556 80.4639 52.2799 80.9303 52.7156 81.2807C53.1559 81.6311 53.7099 81.8063 54.3775 81.8063ZM63.9496 76.8915V83.3688H61.826V72.4597H63.8643V74.2353H63.9993C64.2502 73.6576 64.6432 73.1936 65.1783 72.8432C65.718 72.4928 66.3975 72.3176 67.2166 72.3176C67.96 72.3176 68.611 72.4739 69.1697 72.7864C69.7285 73.0942 70.1617 73.5534 70.4695 74.1642C70.7772 74.775 70.9311 75.5302 70.9311 76.4299V83.3688H68.8075V76.6855C68.8075 75.8948 68.6016 75.2769 68.1896 74.8318C67.7777 74.382 67.2119 74.1571 66.4922 74.1571C65.9998 74.1571 65.5618 74.2637 65.1783 74.4767C64.7995 74.6898 64.4988 75.0023 64.2763 75.4142C64.0585 75.8214 63.9496 76.3139 63.9496 76.8915ZM73.7791 72.4597H75.9027V84.079C75.9027 84.8082 75.7701 85.4237 75.505 85.9256C75.2446 86.4275 74.8563 86.8086 74.3402 87.0691C73.8288 87.3295 73.1967 87.4597 72.4439 87.4597C72.3681 87.4597 72.2971 87.4597 72.2308 87.4597C72.1598 87.4597 72.0864 87.4573 72.0107 87.4526V85.6273C72.0769 85.6273 72.1361 85.6273 72.1882 85.6273C72.2356 85.6273 72.29 85.6273 72.3516 85.6273C72.8535 85.6273 73.2157 85.4924 73.4382 85.2225C73.6655 84.9573 73.7791 84.5714 73.7791 84.0648V72.4597ZM74.8303 70.7764C74.4609 70.7764 74.1437 70.6533 73.8786 70.4071C73.6181 70.1562 73.4879 69.8579 73.4879 69.5122C73.4879 69.1619 73.6181 68.8636 73.8786 68.6174C74.1437 68.3664 74.4609 68.2409 74.8303 68.2409C75.1996 68.2409 75.5144 68.3664 75.7749 68.6174C76.04 68.8636 76.1726 69.1619 76.1726 69.5122C76.1726 69.8579 76.04 70.1562 75.7749 70.4071C75.5144 70.6533 75.1996 70.7764 74.8303 70.7764ZM85.6701 78.8446V72.4597H87.8008V83.3688H85.7127V81.4796H85.5991C85.3481 82.062 84.9457 82.5473 84.3917 82.9355C83.8424 83.3191 83.1583 83.5108 82.3391 83.5108C81.6384 83.5108 81.0181 83.3569 80.4783 83.0492C79.9433 82.7367 79.5219 82.275 79.2141 81.6642C78.9111 81.0534 78.7596 80.2982 78.7596 79.3986V72.4597H80.8832V79.1429C80.8832 79.8863 81.0891 80.4781 81.5011 80.9185C81.913 81.3588 82.448 81.579 83.1062 81.579C83.5039 81.579 83.8993 81.4796 84.2923 81.2807C84.69 81.0818 85.0191 80.7812 85.2795 80.3787C85.5446 79.9763 85.6748 79.4649 85.6701 78.8446ZM92.7777 76.8915V83.3688H90.6541V72.4597H92.6925V74.2353H92.8274C93.0784 73.6576 93.4714 73.1936 94.0064 72.8432C94.5462 72.4928 95.2256 72.3176 96.0447 72.3176C96.7881 72.3176 97.4392 72.4739 97.9979 72.7864C98.5566 73.0942 98.9898 73.5534 99.2976 74.1642C99.6054 74.775 99.7592 75.5302 99.7592 76.4299V83.3688H97.6357V76.6855C97.6357 75.8948 97.4297 75.2769 97.0178 74.8318C96.6058 74.382 96.04 74.1571 95.3203 74.1571C94.8279 74.1571 94.3899 74.2637 94.0064 74.4767C93.6276 74.6898 93.3269 75.0023 93.1044 75.4142C92.8866 75.8214 92.7777 76.3139 92.7777 76.8915ZM107.7 72.4597V74.1642H101.741V72.4597H107.7ZM103.339 69.846H105.462V80.1656C105.462 80.5776 105.524 80.8877 105.647 81.096C105.77 81.2996 105.929 81.4393 106.123 81.5151C106.322 81.5861 106.537 81.6216 106.769 81.6216C106.94 81.6216 107.089 81.6098 107.217 81.5861C107.344 81.5624 107.444 81.5435 107.515 81.5293L107.898 83.2835C107.775 83.3309 107.6 83.3782 107.373 83.4256C107.146 83.4777 106.862 83.5061 106.521 83.5108C105.962 83.5203 105.441 83.4209 104.958 83.2125C104.475 83.0042 104.085 82.6822 103.786 82.2466C103.488 81.811 103.339 81.2641 103.339 80.606V69.846ZM114.527 83.5889C113.504 83.5889 112.611 83.3546 111.849 82.8858C111.087 82.4171 110.495 81.7613 110.074 80.9185C109.652 80.0757 109.441 79.0908 109.441 77.9639C109.441 76.8323 109.652 75.8427 110.074 74.9952C110.495 74.1477 111.087 73.4895 111.849 73.0208C112.611 72.552 113.504 72.3176 114.527 72.3176C115.549 72.3176 116.442 72.552 117.204 73.0208C117.967 73.4895 118.558 74.1477 118.98 74.9952C119.401 75.8427 119.612 76.8323 119.612 77.9639C119.612 79.0908 119.401 80.0757 118.98 80.9185C118.558 81.7613 117.967 82.4171 117.204 82.8858C116.442 83.3546 115.549 83.5889 114.527 83.5889ZM114.534 81.8063C115.197 81.8063 115.746 81.6311 116.181 81.2807C116.617 80.9303 116.939 80.4639 117.147 79.8816C117.36 79.2992 117.467 78.6576 117.467 77.9568C117.467 77.2608 117.36 76.6216 117.147 76.0392C116.939 75.4521 116.617 74.981 116.181 74.6259C115.746 74.2708 115.197 74.0932 114.534 74.0932C113.866 74.0932 113.312 74.2708 112.872 74.6259C112.436 74.981 112.112 75.4521 111.899 76.0392C111.69 76.6216 111.586 77.2608 111.586 77.9568C111.586 78.6576 111.69 79.2992 111.899 79.8816C112.112 80.4639 112.436 80.9303 112.872 81.2807C113.312 81.6311 113.866 81.8063 114.534 81.8063ZM123.381 83.5037C122.993 83.5037 122.659 83.3664 122.38 83.0918C122.101 82.8124 121.961 82.4763 121.961 82.0833C121.961 81.695 122.101 81.3636 122.38 81.0889C122.659 80.8096 122.993 80.6699 123.381 80.6699C123.77 80.6699 124.103 80.8096 124.383 81.0889C124.662 81.3636 124.802 81.695 124.802 82.0833C124.802 82.3437 124.736 82.5828 124.603 82.8006C124.475 83.0137 124.305 83.1841 124.092 83.312C123.879 83.4398 123.642 83.5037 123.381 83.5037Z" fill="black"/>
</g>
</g>
<defs>
<filter id="filter0_d_65_12" x="0" y="0" width="337.184" height="114.891" filterUnits="userSpaceOnUse" color-interpolation-filters="sRGB">
<feFlood flood-opacity="0" result="BackgroundImageFix"/>
<feColorMatrix in="SourceAlpha" type="matrix" values="0 0 0 0 0 0 0 0 0 0 0 0 0 0 0 0 0 0 127 0" result="hardAlpha"/>
<feMorphology radius="2" operator="erode" in="SourceAlpha" result="effect1_dropShadow_65_12"/>
<feOffset dy="4"/>
<feGaussianBlur stdDeviation="5"/>
<feComposite in2="hardAlpha" operator="out"/>
<feColorMatrix type="matrix" values="0 0 0 0 0 0 0 0 0 0 0 0 0 0 0 0 0 0 0.25 0"/>
<feBlend mode="normal" in2="BackgroundImageFix" result="effect1_dropShadow_65_12"/>
<feBlend mode="normal" in="BackgroundImageFix" in2="effect1_dropShadow_65_12" result="BackgroundImageFix"/>
<feBlend mode="normal" in="SourceGraphic" in2="BackgroundImageFix" result="shape"/>
</filter>
</defs>
</svg>
