<svg width="338" height="115" viewBox="0 0 338 115" fill="none" xmlns="http://www.w3.org/2000/svg">
<g id="Group 13">
<g id="Rectangle 9" filter="url(#filter0_d_67_14)">
<rect x="8" y="4" width="321.184" height="98.891" rx="16" fill="#D9D9D9" fill-opacity="0.2" shape-rendering="crispEdges"/>
</g>
<g id="Group 12">
<g id="Expanda o seu neg&#195;&#179;cio com um conjunto de ferramentas de pagamento.">
<path d="M31.2642 35.6783V21.1329H41.0654V23.6684H34.3395V27.1343H40.5611V29.6698H34.3395V33.1428H41.0938V35.6783H31.2642ZM45.9819 24.7693L47.9847 28.5832L50.0373 24.7693H53.141L49.9805 30.2238L53.2262 35.6783H50.1367L47.9847 31.907L45.8683 35.6783H42.7433L45.9819 30.2238L42.8569 24.7693H45.9819ZM54.9379 39.7693V24.7693H57.9208V26.6016H58.0558C58.1883 26.3081 58.3801 26.0098 58.6311 25.7068C58.8867 25.399 59.2182 25.1433 59.6254 24.9397C60.0373 24.7314 60.5487 24.6272 61.1595 24.6272C61.9549 24.6272 62.6888 24.8355 63.3612 25.2522C64.0335 25.6641 64.5709 26.2868 64.9734 27.1201C65.3758 27.9487 65.5771 28.988 65.5771 30.238C65.5771 31.4549 65.3806 32.4823 64.9876 33.3204C64.5993 34.1537 64.069 34.7858 63.3967 35.2167C62.7291 35.6428 61.981 35.8559 61.1524 35.8559C60.5652 35.8559 60.0657 35.7588 59.6538 35.5647C59.2466 35.3706 58.9128 35.1267 58.6524 34.8332C58.3919 34.5349 58.1931 34.2342 58.0558 33.9312H57.9634V39.7693H54.9379ZM57.8995 30.2238C57.8995 30.8725 57.9895 31.4383 58.1694 31.9212C58.3493 32.4042 58.6097 32.7806 58.9507 33.0505C59.2916 33.3157 59.7059 33.4482 60.1936 33.4482C60.686 33.4482 61.1026 33.3133 61.4436 33.0434C61.7845 32.7688 62.0425 32.39 62.2177 31.907C62.3976 31.4193 62.4876 30.8583 62.4876 30.2238C62.4876 29.5941 62.4 29.0401 62.2248 28.5619C62.0496 28.0836 61.7916 27.7096 61.4507 27.4397C61.1097 27.1698 60.6907 27.0349 60.1936 27.0349C59.7011 27.0349 59.2845 27.1651 58.9436 27.4255C58.6074 27.6859 58.3493 28.0552 58.1694 28.5335C57.9895 29.0117 57.8995 29.5751 57.8995 30.2238ZM70.7049 35.8843C70.0089 35.8843 69.3886 35.7636 68.8441 35.5221C68.2996 35.2759 67.8687 34.9137 67.5515 34.4354C67.239 33.9525 67.0828 33.3512 67.0828 32.6315C67.0828 32.0254 67.194 31.5164 67.4166 31.1045C67.6391 30.6925 67.9421 30.3611 68.3257 30.1102C68.7092 29.8592 69.1448 29.6698 69.6325 29.542C70.1249 29.4141 70.641 29.3242 71.1808 29.2721C71.8152 29.2058 72.3266 29.1443 72.7149 29.0874C73.1031 29.0259 73.3848 28.9359 73.56 28.8175C73.7352 28.6992 73.8228 28.524 73.8228 28.292V28.2494C73.8228 27.7996 73.6808 27.4515 73.3967 27.2053C73.1173 26.9591 72.7196 26.836 72.2035 26.836C71.659 26.836 71.2257 26.9568 70.9038 27.1982C70.5818 27.435 70.3687 27.7333 70.2646 28.0931L67.4663 27.8658C67.6083 27.203 67.8877 26.63 68.3043 26.1471C68.721 25.6594 69.2584 25.2854 69.9166 25.0249C70.5794 24.7598 71.3465 24.6272 72.2177 24.6272C72.8238 24.6272 73.4038 24.6982 73.9578 24.8403C74.5165 24.9823 75.0113 25.2025 75.4421 25.5008C75.8777 25.7991 76.221 26.1826 76.472 26.6514C76.7229 27.1154 76.8484 27.6717 76.8484 28.3204V35.6783H73.9791V34.1656H73.8938C73.7186 34.5065 73.4843 34.8071 73.1907 35.0675C72.8972 35.3232 72.5444 35.5245 72.1325 35.6712C71.7205 35.8133 71.2447 35.8843 70.7049 35.8843ZM71.5714 33.7962C72.0165 33.7962 72.4095 33.7086 72.7504 33.5335C73.0913 33.3535 73.3588 33.1121 73.5529 32.809C73.7471 32.506 73.8441 32.1627 73.8441 31.7792V30.6215C73.7494 30.6831 73.6192 30.7399 73.4535 30.792C73.2925 30.8393 73.1102 30.8843 72.9066 30.9269C72.703 30.9648 72.4994 31.0003 72.2958 31.0335C72.0922 31.0619 71.9076 31.0879 71.7418 31.1116C71.3867 31.1637 71.0766 31.2465 70.8114 31.3602C70.5463 31.4738 70.3403 31.6277 70.1936 31.8218C70.0468 32.0112 69.9734 32.2479 69.9734 32.532C69.9734 32.944 70.1225 33.2588 70.4208 33.4766C70.7239 33.6897 71.1074 33.7962 71.5714 33.7962ZM82.2213 29.3715V35.6783H79.1957V24.7693H82.0792V26.694H82.207C82.4485 26.0595 82.8534 25.5576 83.4215 25.1883C83.9897 24.8142 84.6786 24.6272 85.4883 24.6272C86.2459 24.6272 86.9064 24.7929 87.4698 25.1244C88.0333 25.4558 88.4713 25.9293 88.7838 26.5448C89.0963 27.1556 89.2525 27.8848 89.2525 28.7323V35.6783H86.2269V29.2721C86.2317 28.6045 86.0612 28.0836 85.7156 27.7096C85.3699 27.3308 84.8941 27.1414 84.288 27.1414C83.8808 27.1414 83.521 27.229 83.2085 27.4042C82.9007 27.5794 82.6592 27.8351 82.484 28.1712C82.3136 28.5027 82.226 28.9028 82.2213 29.3715ZM95.657 35.8559C94.8284 35.8559 94.0779 35.6428 93.4056 35.2167C92.7379 34.7858 92.2076 34.1537 91.8146 33.3204C91.4264 32.4823 91.2323 31.4549 91.2323 30.238C91.2323 28.988 91.4335 27.9487 91.836 27.1201C92.2384 26.2868 92.7735 25.6641 93.4411 25.2522C94.1134 24.8355 94.8497 24.6272 95.6499 24.6272C96.2607 24.6272 96.7697 24.7314 97.1769 24.9397C97.5888 25.1433 97.9202 25.399 98.1712 25.7068C98.4269 26.0098 98.621 26.3081 98.7536 26.6016H98.8459V21.1329H101.864V35.6783H98.8814V33.9312H98.7536C98.6115 34.2342 98.4103 34.5349 98.1499 34.8332C97.8942 35.1267 97.5604 35.3706 97.1485 35.5647C96.7413 35.7588 96.2441 35.8559 95.657 35.8559ZM96.6158 33.4482C97.1035 33.4482 97.5154 33.3157 97.8516 33.0505C98.1925 32.7806 98.4529 32.4042 98.6328 31.9212C98.8175 31.4383 98.9098 30.8725 98.9098 30.2238C98.9098 29.5751 98.8199 29.0117 98.6399 28.5335C98.46 28.0552 98.1996 27.6859 97.8587 27.4255C97.5178 27.1651 97.1035 27.0349 96.6158 27.0349C96.1186 27.0349 95.6996 27.1698 95.3587 27.4397C95.0178 27.7096 94.7597 28.0836 94.5845 28.5619C94.4093 29.0401 94.3217 29.5941 94.3217 30.2238C94.3217 30.8583 94.4093 31.4193 94.5845 31.907C94.7645 32.39 95.0225 32.7688 95.3587 33.0434C95.6996 33.3133 96.1186 33.4482 96.6158 33.4482ZM107.463 35.8843C106.767 35.8843 106.146 35.7636 105.602 35.5221C105.057 35.2759 104.627 34.9137 104.309 34.4354C103.997 33.9525 103.841 33.3512 103.841 32.6315C103.841 32.0254 103.952 31.5164 104.174 31.1045C104.397 30.6925 104.7 30.3611 105.083 30.1102C105.467 29.8592 105.903 29.6698 106.39 29.542C106.883 29.4141 107.399 29.3242 107.939 29.2721C108.573 29.2058 109.084 29.1443 109.473 29.0874C109.861 29.0259 110.143 28.9359 110.318 28.8175C110.493 28.6992 110.581 28.524 110.581 28.292V28.2494C110.581 27.7996 110.439 27.4515 110.154 27.2053C109.875 26.9591 109.477 26.836 108.961 26.836C108.417 26.836 107.984 26.9568 107.662 27.1982C107.34 27.435 107.127 27.7333 107.022 28.0931L104.224 27.8658C104.366 27.203 104.645 26.63 105.062 26.1471C105.479 25.6594 106.016 25.2854 106.674 25.0249C107.337 24.7598 108.104 24.6272 108.976 24.6272C109.582 24.6272 110.162 24.6982 110.716 24.8403C111.274 24.9823 111.769 25.2025 112.2 25.5008C112.636 25.7991 112.979 26.1826 113.23 26.6514C113.481 27.1154 113.606 27.6717 113.606 28.3204V35.6783H110.737V34.1656H110.652C110.476 34.5065 110.242 34.8071 109.949 35.0675C109.655 35.3232 109.302 35.5245 108.89 35.6712C108.478 35.8133 108.003 35.8843 107.463 35.8843ZM108.329 33.7962C108.774 33.7962 109.167 33.7086 109.508 33.5335C109.849 33.3535 110.117 33.1121 110.311 32.809C110.505 32.506 110.602 32.1627 110.602 31.7792V30.6215C110.507 30.6831 110.377 30.7399 110.211 30.792C110.05 30.8393 109.868 30.8843 109.664 30.9269C109.461 30.9648 109.257 31.0003 109.054 31.0335C108.85 31.0619 108.665 31.0879 108.5 31.1116C108.145 31.1637 107.834 31.2465 107.569 31.3602C107.304 31.4738 107.098 31.6277 106.951 31.8218C106.805 32.0112 106.731 32.2479 106.731 32.532C106.731 32.944 106.88 33.2588 107.179 33.4766C107.482 33.6897 107.865 33.7962 108.329 33.7962ZM125.511 35.8914C124.408 35.8914 123.454 35.657 122.649 35.1883C121.849 34.7148 121.231 34.0567 120.795 33.2139C120.36 32.3663 120.142 31.3838 120.142 30.2664C120.142 29.1395 120.36 28.1547 120.795 27.3119C121.231 26.4643 121.849 25.8062 122.649 25.3374C123.454 24.864 124.408 24.6272 125.511 24.6272C126.615 24.6272 127.566 24.864 128.366 25.3374C129.171 25.8062 129.792 26.4643 130.227 27.3119C130.663 28.1547 130.881 29.1395 130.881 30.2664C130.881 31.3838 130.663 32.3663 130.227 33.2139C129.792 34.0567 129.171 34.7148 128.366 35.1883C127.566 35.657 126.615 35.8914 125.511 35.8914ZM125.526 33.5477C126.027 33.5477 126.447 33.4056 126.783 33.1215C127.119 32.8327 127.372 32.4397 127.543 31.9425C127.718 31.4454 127.805 30.8796 127.805 30.2451C127.805 29.6106 127.718 29.0448 127.543 28.5477C127.372 28.0505 127.119 27.6575 126.783 27.3687C126.447 27.0799 126.027 26.9354 125.526 26.9354C125.019 26.9354 124.593 27.0799 124.247 27.3687C123.906 27.6575 123.648 28.0505 123.473 28.5477C123.303 29.0448 123.217 29.6106 123.217 30.2451C123.217 30.8796 123.303 31.4454 123.473 31.9425C123.648 32.4397 123.906 32.8327 124.247 33.1215C124.593 33.4056 125.019 33.5477 125.526 33.5477ZM146.554 27.88L143.784 28.0505C143.736 27.8138 143.635 27.6007 143.478 27.4113C143.322 27.2172 143.116 27.0633 142.86 26.9497C142.61 26.8313 142.309 26.7721 141.958 26.7721C141.49 26.7721 141.094 26.8715 140.772 27.0704C140.45 27.2645 140.289 27.5249 140.289 27.8516C140.289 28.1121 140.394 28.3322 140.602 28.5122C140.81 28.6921 141.168 28.8365 141.674 28.9454L143.649 29.3431C144.709 29.5609 145.5 29.9113 146.021 30.3943C146.542 30.8772 146.802 31.5117 146.802 32.2977C146.802 33.0126 146.592 33.64 146.17 34.1798C145.753 34.7195 145.181 35.1409 144.451 35.444C143.727 35.7423 142.891 35.8914 141.944 35.8914C140.5 35.8914 139.35 35.5908 138.493 34.9894C137.64 34.3834 137.141 33.5595 136.994 32.5178L139.97 32.3616C140.06 32.8019 140.278 33.1381 140.623 33.3701C140.969 33.5974 141.412 33.711 141.951 33.711C142.482 33.711 142.908 33.6092 143.23 33.4056C143.556 33.1973 143.722 32.9298 143.727 32.6031C143.722 32.3284 143.606 32.1035 143.379 31.9283C143.152 31.7484 142.801 31.6111 142.328 31.5164L140.439 31.14C139.373 30.9269 138.58 30.5576 138.059 30.032C137.543 29.5065 137.285 28.8365 137.285 28.0221C137.285 27.3213 137.475 26.7176 137.853 26.211C138.237 25.7044 138.774 25.3138 139.466 25.0391C140.162 24.7645 140.976 24.6272 141.909 24.6272C143.287 24.6272 144.371 24.9184 145.162 25.5008C145.957 26.0832 146.421 26.8763 146.554 27.88ZM153.679 35.8914C152.557 35.8914 151.591 35.6641 150.781 35.2096C149.976 34.7503 149.356 34.1016 148.92 33.2636C148.485 32.4208 148.267 31.4241 148.267 30.2735C148.267 29.1514 148.485 28.1665 148.92 27.319C149.356 26.4714 149.969 25.8109 150.76 25.3374C151.555 24.864 152.488 24.6272 153.558 24.6272C154.278 24.6272 154.948 24.7432 155.568 24.9752C156.193 25.2025 156.738 25.5458 157.202 26.005C157.67 26.4643 158.035 27.042 158.295 27.738C158.556 28.4293 158.686 29.239 158.686 30.167V30.9979H149.474V29.1229H155.838C155.838 28.6873 155.743 28.3015 155.554 27.9653C155.365 27.6291 155.102 27.3663 154.766 27.1769C154.434 26.9828 154.048 26.8857 153.608 26.8857C153.149 26.8857 152.741 26.9923 152.386 27.2053C152.036 27.4137 151.761 27.6954 151.563 28.0505C151.364 28.4009 151.262 28.7915 151.257 29.2224V31.005C151.257 31.5448 151.357 32.0112 151.555 32.4042C151.759 32.7972 152.045 33.1002 152.415 33.3133C152.784 33.5264 153.222 33.6329 153.729 33.6329C154.065 33.6329 154.373 33.5855 154.652 33.4908C154.931 33.3961 155.17 33.2541 155.369 33.0647C155.568 32.8753 155.72 32.6433 155.824 32.3687L158.622 32.5533C158.48 33.2257 158.189 33.8128 157.749 34.3147C157.313 34.8119 156.75 35.2001 156.058 35.4795C155.372 35.7541 154.579 35.8914 153.679 35.8914ZM167.656 31.0335V24.7693H170.682V35.6783H167.777V33.6968H167.663C167.417 34.336 167.008 34.8497 166.435 35.238C165.866 35.6263 165.173 35.8204 164.354 35.8204C163.625 35.8204 162.983 35.6547 162.429 35.3232C161.875 34.9918 161.442 34.5207 161.129 33.9099C160.822 33.2991 160.665 32.5675 160.661 31.7153V24.7693H163.686V31.1755C163.691 31.8194 163.864 32.3284 164.205 32.7025C164.545 33.0765 165.002 33.2636 165.575 33.2636C165.94 33.2636 166.281 33.1807 166.598 33.015C166.915 32.8445 167.171 32.5936 167.365 32.2622C167.564 31.9307 167.661 31.5211 167.656 31.0335ZM180.756 29.3715V35.6783H177.731V24.7693H180.614V26.694H180.742C180.984 26.0595 181.389 25.5576 181.957 25.1883C182.525 24.8142 183.214 24.6272 184.023 24.6272C184.781 24.6272 185.442 24.7929 186.005 25.1244C186.568 25.4558 187.006 25.9293 187.319 26.5448C187.631 27.1556 187.788 27.8848 187.788 28.7323V35.6783H184.762V29.2721C184.767 28.6045 184.596 28.0836 184.251 27.7096C183.905 27.3308 183.429 27.1414 182.823 27.1414C182.416 27.1414 182.056 27.229 181.744 27.4042C181.436 27.5794 181.194 27.8351 181.019 28.1712C180.849 28.5027 180.761 28.9028 180.756 29.3715ZM195.144 35.8914C194.022 35.8914 193.056 35.6641 192.246 35.2096C191.441 34.7503 190.821 34.1016 190.385 33.2636C189.95 32.4208 189.732 31.4241 189.732 30.2735C189.732 29.1514 189.95 28.1665 190.385 27.319C190.821 26.4714 191.434 25.8109 192.225 25.3374C193.02 24.864 193.953 24.6272 195.023 24.6272C195.743 24.6272 196.413 24.7432 197.033 24.9752C197.658 25.2025 198.203 25.5458 198.667 26.005C199.135 26.4643 199.5 27.042 199.76 27.738C200.021 28.4293 200.151 29.239 200.151 30.167V30.9979H190.939V29.1229H197.303C197.303 28.6873 197.208 28.3015 197.019 27.9653C196.829 27.6291 196.567 27.3663 196.23 27.1769C195.899 26.9828 195.513 26.8857 195.073 26.8857C194.614 26.8857 194.206 26.9923 193.851 27.2053C193.501 27.4137 193.226 27.6954 193.027 28.0505C192.828 28.4009 192.727 28.7915 192.722 29.2224V31.005C192.722 31.5448 192.821 32.0112 193.02 32.4042C193.224 32.7972 193.51 33.1002 193.88 33.3133C194.249 33.5264 194.687 33.6329 195.194 33.6329C195.53 33.6329 195.837 33.5855 196.117 33.4908C196.396 33.3961 196.635 33.2541 196.834 33.0647C197.033 32.8753 197.185 32.6433 197.289 32.3687L200.087 32.5533C199.945 33.2257 199.654 33.8128 199.213 34.3147C198.778 34.8119 198.214 35.2001 197.523 35.4795C196.837 35.7541 196.043 35.8914 195.144 35.8914ZM207.04 39.9965C206.06 39.9965 205.22 39.8616 204.519 39.5917C203.823 39.3265 203.269 38.9643 202.857 38.505C202.445 38.0458 202.177 37.5297 202.054 36.9568L204.853 36.5803C204.938 36.7981 205.073 37.0017 205.257 37.1911C205.442 37.3805 205.686 37.532 205.989 37.6457C206.297 37.764 206.671 37.8232 207.111 37.8232C207.769 37.8232 208.311 37.6622 208.738 37.3403C209.168 37.023 209.384 36.4904 209.384 35.7423V33.7465H209.256C209.123 34.0496 208.925 34.336 208.659 34.6059C208.394 34.8758 208.053 35.096 207.637 35.2664C207.22 35.4369 206.723 35.5221 206.145 35.5221C205.326 35.5221 204.58 35.3327 203.908 34.9539C203.24 34.5704 202.708 33.9856 202.31 33.1997C201.917 32.4089 201.721 31.4099 201.721 30.2025C201.721 28.9667 201.922 27.9345 202.324 27.1059C202.727 26.2773 203.262 25.657 203.929 25.2451C204.602 24.8332 205.338 24.6272 206.138 24.6272C206.749 24.6272 207.26 24.7314 207.672 24.9397C208.084 25.1433 208.416 25.399 208.667 25.7068C208.922 26.0098 209.119 26.3081 209.256 26.6016H209.37V24.7693H212.374V35.7849C212.374 36.7129 212.147 37.4894 211.692 38.1144C211.238 38.7394 210.608 39.2082 209.803 39.5207C209.003 39.8379 208.082 39.9965 207.04 39.9965ZM207.104 33.2494C207.592 33.2494 208.004 33.1286 208.34 32.8872C208.681 32.6409 208.941 32.2906 209.121 31.836C209.306 31.3767 209.398 30.8275 209.398 30.1883C209.398 29.5491 209.308 28.9951 209.128 28.5264C208.948 28.0529 208.688 27.6859 208.347 27.4255C208.006 27.1651 207.592 27.0349 207.104 27.0349C206.607 27.0349 206.188 27.1698 205.847 27.4397C205.506 27.7049 205.248 28.0742 205.073 28.5477C204.898 29.0211 204.81 29.568 204.81 30.1883C204.81 30.818 204.898 31.3625 205.073 31.8218C205.253 32.2764 205.511 32.6291 205.847 32.88C206.188 33.1263 206.607 33.2494 207.104 33.2494ZM219.711 35.8914C218.607 35.8914 217.653 35.657 216.848 35.1883C216.048 34.7148 215.43 34.0567 214.995 33.2139C214.559 32.3663 214.341 31.3838 214.341 30.2664C214.341 29.1395 214.559 28.1547 214.995 27.3119C215.43 26.4643 216.048 25.8062 216.848 25.3374C217.653 24.864 218.607 24.6272 219.711 24.6272C220.814 24.6272 221.766 24.864 222.566 25.3374C223.371 25.8062 223.991 26.4643 224.427 27.3119C224.862 28.1547 225.08 29.1395 225.08 30.2664C225.08 31.3838 224.862 32.3663 224.427 33.2139C223.991 34.0567 223.371 34.7148 222.566 35.1883C221.766 35.657 220.814 35.8914 219.711 35.8914ZM219.725 33.5477C220.227 33.5477 220.646 33.4056 220.982 33.1215C221.318 32.8327 221.571 32.4397 221.742 31.9425C221.917 31.4454 222.005 30.8796 222.005 30.2451C222.005 29.6106 221.917 29.0448 221.742 28.5477C221.571 28.0505 221.318 27.6575 220.982 27.3687C220.646 27.0799 220.227 26.9354 219.725 26.9354C219.218 26.9354 218.792 27.0799 218.446 27.3687C218.105 27.6575 217.847 28.0505 217.672 28.5477C217.502 29.0448 217.417 29.6106 217.417 30.2451C217.417 30.8796 217.502 31.4454 217.672 31.9425C217.847 32.4397 218.105 32.8327 218.446 33.1215C218.792 33.4056 219.218 33.5477 219.725 33.5477ZM218.624 23.363L220.13 20.1315H222.928L220.762 23.363H218.624ZM231.976 35.8914C230.859 35.8914 229.898 35.6547 229.093 35.1812C228.293 34.703 227.677 34.0401 227.246 33.1925C226.82 32.345 226.607 31.3696 226.607 30.2664C226.607 29.149 226.822 28.1689 227.253 27.3261C227.689 26.4785 228.307 25.818 229.107 25.3445C229.907 24.8663 230.859 24.6272 231.962 24.6272C232.914 24.6272 233.747 24.8 234.462 25.1457C235.177 25.4913 235.743 25.9766 236.159 26.6016C236.576 27.2266 236.806 27.9605 236.848 28.8033H233.993C233.913 28.2588 233.7 27.8209 233.354 27.4894C233.013 27.1532 232.566 26.9852 232.012 26.9852C231.543 26.9852 231.133 27.113 230.783 27.3687C230.437 27.6196 230.168 27.9866 229.973 28.4695C229.779 28.9525 229.682 29.5372 229.682 30.2238C229.682 30.9198 229.777 31.5117 229.966 31.9994C230.16 32.4871 230.433 32.8587 230.783 33.1144C231.133 33.3701 231.543 33.4979 232.012 33.4979C232.357 33.4979 232.668 33.4269 232.942 33.2849C233.221 33.1428 233.451 32.9369 233.631 32.667C233.816 32.3924 233.936 32.0633 233.993 31.6798H236.848C236.801 32.5131 236.574 33.247 236.167 33.8815C235.764 34.5112 235.208 35.0036 234.498 35.3587C233.787 35.7139 232.947 35.8914 231.976 35.8914ZM238.786 35.6783V24.7693H241.811V35.6783H238.786ZM240.305 23.363C239.856 23.363 239.47 23.2139 239.148 22.9156C238.831 22.6125 238.672 22.2503 238.672 21.8289C238.672 21.4122 238.831 21.0548 239.148 20.7565C239.47 20.4534 239.856 20.3019 240.305 20.3019C240.755 20.3019 241.139 20.4534 241.456 20.7565C241.778 21.0548 241.939 21.4122 241.939 21.8289C241.939 22.2503 241.778 22.6125 241.456 22.9156C241.139 23.2139 240.755 23.363 240.305 23.363ZM249.164 35.8914C248.061 35.8914 247.106 35.657 246.302 35.1883C245.501 34.7148 244.883 34.0567 244.448 33.2139C244.012 32.3663 243.794 31.3838 243.794 30.2664C243.794 29.1395 244.012 28.1547 244.448 27.3119C244.883 26.4643 245.501 25.8062 246.302 25.3374C247.106 24.864 248.061 24.6272 249.164 24.6272C250.267 24.6272 251.219 24.864 252.019 25.3374C252.824 25.8062 253.444 26.4643 253.88 27.3119C254.315 28.1547 254.533 29.1395 254.533 30.2664C254.533 31.3838 254.315 32.3663 253.88 33.2139C253.444 34.0567 252.824 34.7148 252.019 35.1883C251.219 35.657 250.267 35.8914 249.164 35.8914ZM249.178 33.5477C249.68 33.5477 250.099 33.4056 250.435 33.1215C250.771 32.8327 251.025 32.4397 251.195 31.9425C251.37 31.4454 251.458 30.8796 251.458 30.2451C251.458 29.6106 251.37 29.0448 251.195 28.5477C251.025 28.0505 250.771 27.6575 250.435 27.3687C250.099 27.0799 249.68 26.9354 249.178 26.9354C248.671 26.9354 248.245 27.0799 247.9 27.3687C247.559 27.6575 247.301 28.0505 247.125 28.5477C246.955 29.0448 246.87 29.6106 246.87 30.2451C246.87 30.8796 246.955 31.4454 247.125 31.9425C247.301 32.4397 247.559 32.8327 247.9 33.1215C248.245 33.4056 248.671 33.5477 249.178 33.5477Z" fill="#6DC135"/>
<path d="M265.945 35.8985C264.889 35.8985 263.98 35.6594 263.217 35.1812C262.46 34.6982 261.877 34.033 261.47 33.1854C261.063 32.3379 260.859 31.3673 260.859 30.2735C260.859 29.1656 261.068 28.1878 261.484 27.3403C261.901 26.488 262.488 25.8228 263.246 25.3445C264.003 24.8663 264.896 24.6272 265.923 24.6272C266.752 24.6272 267.491 24.7811 268.139 25.0889C268.788 25.3919 269.311 25.818 269.709 26.3673C270.111 26.9165 270.35 27.5581 270.426 28.292H268.359C268.246 27.7806 267.985 27.3403 267.578 26.971C267.176 26.6016 266.636 26.417 265.959 26.417C265.367 26.417 264.849 26.5732 264.403 26.8857C263.963 27.1935 263.62 27.6338 263.374 28.2068C263.127 28.7749 263.004 29.4473 263.004 30.2238C263.004 31.0193 263.125 31.7058 263.366 32.2835C263.608 32.8611 263.949 33.3086 264.389 33.6258C264.834 33.943 265.357 34.1016 265.959 34.1016C266.361 34.1016 266.726 34.0283 267.053 33.8815C267.384 33.73 267.661 33.5145 267.884 33.2352C268.111 32.9558 268.269 32.6196 268.359 32.2266H270.426C270.35 32.9321 270.121 33.5619 269.737 34.1158C269.354 34.6698 268.84 35.1054 268.196 35.4227C267.557 35.7399 266.806 35.8985 265.945 35.8985ZM277.292 35.8985C276.27 35.8985 275.377 35.6641 274.615 35.1954C273.852 34.7266 273.261 34.0709 272.839 33.2281C272.418 32.3853 272.207 31.4004 272.207 30.2735C272.207 29.1419 272.418 28.1523 272.839 27.3048C273.261 26.4572 273.852 25.7991 274.615 25.3303C275.377 24.8616 276.27 24.6272 277.292 24.6272C278.315 24.6272 279.208 24.8616 279.97 25.3303C280.732 25.7991 281.324 26.4572 281.745 27.3048C282.167 28.1523 282.378 29.1419 282.378 30.2735C282.378 31.4004 282.167 32.3853 281.745 33.2281C281.324 34.0709 280.732 34.7266 279.97 35.1954C279.208 35.6641 278.315 35.8985 277.292 35.8985ZM277.299 34.1158C277.962 34.1158 278.511 33.9407 278.947 33.5903C279.383 33.2399 279.705 32.7735 279.913 32.1911C280.126 31.6087 280.233 30.9672 280.233 30.2664C280.233 29.5704 280.126 28.9312 279.913 28.3488C279.705 27.7617 279.383 27.2906 278.947 26.9354C278.511 26.5803 277.962 26.4028 277.299 26.4028C276.632 26.4028 276.078 26.5803 275.637 26.9354C275.202 27.2906 274.878 27.7617 274.664 28.3488C274.456 28.9312 274.352 29.5704 274.352 30.2664C274.352 30.9672 274.456 31.6087 274.664 32.1911C274.878 32.7735 275.202 33.2399 275.637 33.5903C276.078 33.9407 276.632 34.1158 277.299 34.1158ZM284.748 35.6783V24.7693H286.786V26.5448H286.921C287.148 25.9435 287.52 25.4747 288.036 25.1386C288.552 24.7977 289.17 24.6272 289.89 24.6272C290.619 24.6272 291.23 24.7977 291.722 25.1386C292.219 25.4795 292.586 25.9482 292.823 26.5448H292.937C293.197 25.9624 293.612 25.4984 294.18 25.1528C294.748 24.8024 295.425 24.6272 296.211 24.6272C297.201 24.6272 298.008 24.9373 298.633 25.5576C299.263 26.1779 299.577 27.113 299.577 28.363V35.6783H297.454V28.5619C297.454 27.8232 297.253 27.2882 296.85 26.9568C296.448 26.6253 295.967 26.4596 295.408 26.4596C294.717 26.4596 294.18 26.6727 293.796 27.0988C293.413 27.5202 293.221 28.0623 293.221 28.7252V35.6783H291.104V28.4269C291.104 27.8351 290.92 27.3592 290.55 26.9994C290.181 26.6395 289.701 26.4596 289.109 26.4596C288.706 26.4596 288.335 26.5661 287.994 26.7792C287.657 26.9875 287.385 27.2787 287.177 27.6528C286.973 28.0268 286.871 28.4601 286.871 28.9525V35.6783H284.748ZM38.3381 54.1542V47.7693H40.4688V58.6783H38.3807V56.7891H38.2671C38.0161 57.3715 37.6137 57.8568 37.0597 58.2451C36.5104 58.6286 35.8262 58.8204 35.0071 58.8204C34.3064 58.8204 33.6861 58.6665 33.1463 58.3587C32.6113 58.0462 32.1899 57.5846 31.8821 56.9738C31.5791 56.363 31.4276 55.6078 31.4276 54.7082V47.7693H33.5512V54.4525C33.5512 55.1959 33.7571 55.7877 34.169 56.2281C34.581 56.6684 35.116 56.8886 35.7742 56.8886C36.1719 56.8886 36.5673 56.7891 36.9602 56.5903C37.358 56.3914 37.687 56.0907 37.9475 55.6883C38.2126 55.2858 38.3428 54.7745 38.3381 54.1542ZM43.3221 58.6783V47.7693H45.3605V49.5448H45.4954C45.7227 48.9435 46.0944 48.4747 46.6105 48.1386C47.1266 47.7977 47.7445 47.6272 48.4641 47.6272C49.1933 47.6272 49.8041 47.7977 50.2965 48.1386C50.7937 48.4795 51.1606 48.9482 51.3974 49.5448H51.511C51.7714 48.9624 52.1857 48.4984 52.7539 48.1528C53.3221 47.8024 53.9992 47.6272 54.7852 47.6272C55.7748 47.6272 56.582 47.9373 57.207 48.5576C57.8368 49.1779 58.1516 50.113 58.1516 51.363V58.6783H56.0281V51.5619C56.0281 50.8232 55.8268 50.2882 55.4244 49.9568C55.0219 49.6253 54.5413 49.4596 53.9826 49.4596C53.2913 49.4596 52.7539 49.6727 52.3704 50.0988C51.9869 50.5202 51.7951 51.0623 51.7951 51.7252V58.6783H49.6786V51.4269C49.6786 50.8351 49.494 50.3592 49.1247 49.9994C48.7553 49.6395 48.2748 49.4596 47.6829 49.4596C47.2804 49.4596 46.9088 49.5661 46.5678 49.7792C46.2317 49.9875 45.9594 50.2787 45.7511 50.6528C45.5475 51.0268 45.4457 51.4601 45.4457 51.9525V58.6783H43.3221ZM70.886 58.8985C69.8302 58.8985 68.9211 58.6594 68.1588 58.1812C67.4012 57.6982 66.8188 57.033 66.4116 56.1854C66.0044 55.3379 65.8008 54.3673 65.8008 53.2735C65.8008 52.1656 66.0091 51.1878 66.4258 50.3403C66.8425 49.488 67.4296 48.8228 68.1872 48.3445C68.9447 47.8663 69.8373 47.6272 70.8647 47.6272C71.6933 47.6272 72.432 47.7811 73.0806 48.0889C73.7293 48.3919 74.2525 48.818 74.6502 49.3673C75.0527 49.9165 75.2918 50.5581 75.3676 51.292H73.3008C73.1872 50.7806 72.9267 50.3403 72.5195 49.971C72.1171 49.6016 71.5773 49.417 70.9002 49.417C70.3084 49.417 69.7899 49.5732 69.3448 49.8857C68.9045 50.1935 68.5612 50.6338 68.315 51.2068C68.0688 51.7749 67.9457 52.4473 67.9457 53.2238C67.9457 54.0193 68.0664 54.7058 68.3079 55.2835C68.5494 55.8611 68.8903 56.3086 69.3306 56.6258C69.7757 56.943 70.2989 57.1016 70.9002 57.1016C71.3027 57.1016 71.6673 57.0283 71.994 56.8815C72.3254 56.73 72.6024 56.5145 72.8249 56.2352C73.0522 55.9558 73.2108 55.6196 73.3008 55.2266H75.3676C75.2918 55.9321 75.0622 56.5619 74.6786 57.1158C74.2951 57.6698 73.7814 58.1054 73.1374 58.4227C72.4982 58.7399 71.7478 58.8985 70.886 58.8985ZM82.2337 58.8985C81.211 58.8985 80.3184 58.6641 79.5561 58.1954C78.7938 57.7266 78.202 57.0709 77.7806 56.2281C77.3592 55.3853 77.1485 54.4004 77.1485 53.2735C77.1485 52.1419 77.3592 51.1523 77.7806 50.3048C78.202 49.4572 78.7938 48.7991 79.5561 48.3303C80.3184 47.8616 81.211 47.6272 82.2337 47.6272C83.2564 47.6272 84.1489 47.8616 84.9112 48.3303C85.6735 48.7991 86.2654 49.4572 86.6868 50.3048C87.1082 51.1523 87.3189 52.1419 87.3189 53.2735C87.3189 54.4004 87.1082 55.3853 86.6868 56.2281C86.2654 57.0709 85.6735 57.7266 84.9112 58.1954C84.1489 58.6641 83.2564 58.8985 82.2337 58.8985ZM82.2408 57.1158C82.9037 57.1158 83.4529 56.9407 83.8885 56.5903C84.3241 56.2399 84.6461 55.7735 84.8544 55.1911C85.0675 54.6087 85.174 53.9672 85.174 53.2664C85.174 52.5704 85.0675 51.9312 84.8544 51.3488C84.6461 50.7617 84.3241 50.2906 83.8885 49.9354C83.4529 49.5803 82.9037 49.4028 82.2408 49.4028C81.5732 49.4028 81.0192 49.5803 80.5789 49.9354C80.1432 50.2906 79.8189 50.7617 79.6058 51.3488C79.3975 51.9312 79.2933 52.5704 79.2933 53.2664C79.2933 53.9672 79.3975 54.6087 79.6058 55.1911C79.8189 55.7735 80.1432 56.2399 80.5789 56.5903C81.0192 56.9407 81.5732 57.1158 82.2408 57.1158ZM91.8129 52.2011V58.6783H89.6893V47.7693H91.7276V49.5448H91.8626C92.1135 48.9672 92.5065 48.5032 93.0416 48.1528C93.5813 47.8024 94.2608 47.6272 95.0799 47.6272C95.8233 47.6272 96.4743 47.7835 97.033 48.096C97.5918 48.4037 98.025 48.863 98.3328 49.4738C98.6405 50.0846 98.7944 50.8398 98.7944 51.7394V58.6783H96.6708V51.9951C96.6708 51.2044 96.4649 50.5865 96.0529 50.1414C95.641 49.6916 95.0752 49.4667 94.3555 49.4667C93.8631 49.4667 93.4251 49.5732 93.0416 49.7863C92.6628 49.9994 92.3621 50.3119 92.1396 50.7238C91.9218 51.131 91.8129 51.6234 91.8129 52.2011ZM101.642 47.7693H103.766V59.3886C103.766 60.1177 103.633 60.7333 103.368 61.2352C103.108 61.7371 102.72 62.1182 102.203 62.3786C101.692 62.639 101.06 62.7693 100.307 62.7693C100.231 62.7693 100.16 62.7693 100.094 62.7693C100.023 62.7693 99.9497 62.7669 99.8739 62.7622V60.9369C99.9402 60.9369 99.9994 60.9369 100.052 60.9369C100.099 60.9369 100.153 60.9369 100.215 60.9369C100.717 60.9369 101.079 60.8019 101.302 60.532C101.529 60.2669 101.642 59.881 101.642 59.3744V47.7693ZM102.694 46.086C102.324 46.086 102.007 45.9629 101.742 45.7167C101.481 45.4657 101.351 45.1675 101.351 44.8218C101.351 44.4714 101.481 44.1731 101.742 43.9269C102.007 43.676 102.324 43.5505 102.694 43.5505C103.063 43.5505 103.378 43.676 103.638 43.9269C103.903 44.1731 104.036 44.4714 104.036 44.8218C104.036 45.1675 103.903 45.4657 103.638 45.7167C103.378 45.9629 103.063 46.086 102.694 46.086ZM113.533 54.1542V47.7693H115.664V58.6783H113.576V56.7891H113.462C113.211 57.3715 112.809 57.8568 112.255 58.2451C111.706 58.6286 111.022 58.8204 110.202 58.8204C109.502 58.8204 108.881 58.6665 108.342 58.3587C107.807 58.0462 107.385 57.5846 107.077 56.9738C106.774 56.363 106.623 55.6078 106.623 54.7082V47.7693H108.746V54.4525C108.746 55.1959 108.952 55.7877 109.364 56.2281C109.776 56.6684 110.311 56.8886 110.969 56.8886C111.367 56.8886 111.763 56.7891 112.156 56.5903C112.553 56.3914 112.882 56.0907 113.143 55.6883C113.408 55.2858 113.538 54.7745 113.533 54.1542ZM120.641 52.2011V58.6783H118.517V47.7693H120.556V49.5448H120.691C120.942 48.9672 121.335 48.5032 121.87 48.1528C122.409 47.8024 123.089 47.6272 123.908 47.6272C124.651 47.6272 125.302 47.7835 125.861 48.096C126.42 48.4037 126.853 48.863 127.161 49.4738C127.469 50.0846 127.623 50.8398 127.623 51.7394V58.6783H125.499V51.9951C125.499 51.2044 125.293 50.5865 124.881 50.1414C124.469 49.6916 123.903 49.4667 123.184 49.4667C122.691 49.4667 122.253 49.5732 121.87 49.7863C121.491 49.9994 121.19 50.3119 120.968 50.7238C120.75 51.131 120.641 51.6234 120.641 52.2011ZM135.563 47.7693V49.4738H129.604V47.7693H135.563ZM131.202 45.1556H133.326V55.4752C133.326 55.8872 133.387 56.1973 133.51 56.4056C133.633 56.6092 133.792 56.7489 133.986 56.8247C134.185 56.8957 134.4 56.9312 134.632 56.9312C134.803 56.9312 134.952 56.9193 135.08 56.8957C135.208 56.872 135.307 56.8531 135.378 56.8389L135.762 58.5931C135.639 58.6405 135.463 58.6878 135.236 58.7352C135.009 58.7872 134.725 58.8157 134.384 58.8204C133.825 58.8299 133.304 58.7304 132.821 58.5221C132.338 58.3138 131.948 57.9918 131.65 57.5562C131.351 57.1206 131.202 56.5737 131.202 55.9156V45.1556ZM142.39 58.8985C141.367 58.8985 140.475 58.6641 139.712 58.1954C138.95 57.7266 138.358 57.0709 137.937 56.2281C137.515 55.3853 137.305 54.4004 137.305 53.2735C137.305 52.1419 137.515 51.1523 137.937 50.3048C138.358 49.4572 138.95 48.7991 139.712 48.3303C140.475 47.8616 141.367 47.6272 142.39 47.6272C143.413 47.6272 144.305 47.8616 145.067 48.3303C145.83 48.7991 146.422 49.4572 146.843 50.3048C147.264 51.1523 147.475 52.1419 147.475 53.2735C147.475 54.4004 147.264 55.3853 146.843 56.2281C146.422 57.0709 145.83 57.7266 145.067 58.1954C144.305 58.6641 143.413 58.8985 142.39 58.8985ZM142.397 57.1158C143.06 57.1158 143.609 56.9407 144.045 56.5903C144.48 56.2399 144.802 55.7735 145.011 55.1911C145.224 54.6087 145.33 53.9672 145.33 53.2664C145.33 52.5704 145.224 51.9312 145.011 51.3488C144.802 50.7617 144.48 50.2906 144.045 49.9354C143.609 49.5803 143.06 49.4028 142.397 49.4028C141.729 49.4028 141.175 49.5803 140.735 49.9354C140.299 50.2906 139.975 50.7617 139.762 51.3488C139.554 51.9312 139.45 52.5704 139.45 53.2664C139.45 53.9672 139.554 54.6087 139.762 55.1911C139.975 55.7735 140.299 56.2399 140.735 56.5903C141.175 56.9407 141.729 57.1158 142.397 57.1158ZM159.222 58.8914C158.342 58.8914 157.556 58.6665 156.864 58.2167C156.178 57.7622 155.638 57.1158 155.245 56.2778C154.857 55.435 154.663 54.4241 154.663 53.2451C154.663 52.0661 154.859 51.0576 155.252 50.2195C155.65 49.3815 156.194 48.7399 156.886 48.2948C157.577 47.8497 158.361 47.6272 159.237 47.6272C159.914 47.6272 160.458 47.7408 160.87 47.9681C161.287 48.1907 161.609 48.4511 161.836 48.7494C162.068 49.0477 162.248 49.3104 162.376 49.5377H162.504V44.1329H164.627V58.6783H162.553V56.9809H162.376C162.248 57.2129 162.063 57.4781 161.822 57.7764C161.585 58.0747 161.258 58.3351 160.842 58.5576C160.425 58.7801 159.885 58.8914 159.222 58.8914ZM159.691 57.0803C160.302 57.0803 160.818 56.9193 161.239 56.5974C161.665 56.2707 161.987 55.8185 162.205 55.2408C162.428 54.6632 162.539 53.9908 162.539 53.2238C162.539 52.4662 162.43 51.8033 162.212 51.2352C161.995 50.667 161.675 50.2243 161.254 49.907C160.832 49.5898 160.311 49.4312 159.691 49.4312C159.052 49.4312 158.519 49.5969 158.093 49.9283C157.667 50.2598 157.345 50.712 157.127 51.2849C156.914 51.8578 156.808 52.5041 156.808 53.2238C156.808 53.953 156.916 54.6087 157.134 55.1911C157.352 55.7735 157.674 56.2352 158.1 56.5761C158.531 56.9122 159.061 57.0803 159.691 57.0803ZM172.36 58.8985C171.285 58.8985 170.359 58.6689 169.583 58.2096C168.811 57.7456 168.214 57.0945 167.793 56.2565C167.376 55.4137 167.168 54.4265 167.168 53.2948C167.168 52.1774 167.376 51.1925 167.793 50.3403C168.214 49.488 168.802 48.8228 169.554 48.3445C170.312 47.8663 171.197 47.6272 172.211 47.6272C172.826 47.6272 173.423 47.729 174 47.9326C174.578 48.1362 175.096 48.4558 175.556 48.8914C176.015 49.327 176.377 49.8928 176.642 50.5889C176.908 51.2801 177.04 52.1206 177.04 53.1102V53.863H168.368V52.2721H174.959C174.959 51.7134 174.846 51.2186 174.618 50.7877C174.391 50.3521 174.071 50.0088 173.659 49.7579C173.252 49.5069 172.774 49.3815 172.225 49.3815C171.628 49.3815 171.107 49.5282 170.662 49.8218C170.222 50.1106 169.881 50.4894 169.64 50.9582C169.403 51.4222 169.284 51.9265 169.284 52.471V53.7139C169.284 54.443 169.412 55.0633 169.668 55.5747C169.928 56.086 170.291 56.4766 170.755 56.7465C171.219 57.0117 171.761 57.1443 172.381 57.1443C172.784 57.1443 173.15 57.0874 173.482 56.9738C173.813 56.8554 174.1 56.6802 174.341 56.4482C174.583 56.2162 174.767 55.9298 174.895 55.5889L176.905 55.9511C176.744 56.5429 176.455 57.0614 176.039 57.5065C175.627 57.9468 175.108 58.2901 174.483 58.5363C173.863 58.7778 173.155 58.8985 172.36 58.8985ZM189.881 47.7693V49.4738H183.716V47.7693H189.881ZM185.407 58.6783V46.505C185.407 45.8232 185.556 45.2574 185.854 44.8076C186.152 44.3531 186.548 44.0145 187.04 43.792C187.533 43.5647 188.068 43.4511 188.645 43.4511C189.071 43.4511 189.436 43.4866 189.739 43.5576C190.042 43.6239 190.267 43.6854 190.414 43.7423L189.917 45.461C189.817 45.4326 189.689 45.3995 189.533 45.3616C189.377 45.319 189.187 45.2977 188.965 45.2977C188.449 45.2977 188.079 45.4255 187.857 45.6812C187.639 45.9369 187.53 46.3062 187.53 46.7891V58.6783H185.407ZM196.344 58.8985C195.269 58.8985 194.344 58.6689 193.567 58.2096C192.795 57.7456 192.199 57.0945 191.777 56.2565C191.361 55.4137 191.152 54.4265 191.152 53.2948C191.152 52.1774 191.361 51.1925 191.777 50.3403C192.199 49.488 192.786 48.8228 193.539 48.3445C194.296 47.8663 195.182 47.6272 196.195 47.6272C196.811 47.6272 197.407 47.729 197.985 47.9326C198.562 48.1362 199.081 48.4558 199.54 48.8914C199.999 49.327 200.362 49.8928 200.627 50.5889C200.892 51.2801 201.025 52.1206 201.025 53.1102V53.863H192.353V52.2721H198.944C198.944 51.7134 198.83 51.2186 198.603 50.7877C198.375 50.3521 198.056 50.0088 197.644 49.7579C197.237 49.5069 196.758 49.3815 196.209 49.3815C195.613 49.3815 195.092 49.5282 194.647 49.8218C194.206 50.1106 193.865 50.4894 193.624 50.9582C193.387 51.4222 193.269 51.9265 193.269 52.471V53.7139C193.269 54.443 193.397 55.0633 193.652 55.5747C193.913 56.086 194.275 56.4766 194.739 56.7465C195.203 57.0117 195.745 57.1443 196.365 57.1443C196.768 57.1443 197.135 57.0874 197.466 56.9738C197.798 56.8554 198.084 56.6802 198.326 56.4482C198.567 56.2162 198.752 55.9298 198.88 55.5889L200.89 55.9511C200.729 56.5429 200.44 57.0614 200.023 57.5065C199.611 57.9468 199.093 58.2901 198.468 58.5363C197.847 58.7778 197.14 58.8985 196.344 58.8985ZM203.381 58.6783V47.7693H205.433V49.5022H205.547C205.746 48.9151 206.096 48.4534 206.598 48.1173C207.105 47.7764 207.678 47.6059 208.317 47.6059C208.449 47.6059 208.606 47.6106 208.786 47.6201C208.97 47.6296 209.115 47.6414 209.219 47.6556V49.6869C209.134 49.6632 208.982 49.6372 208.764 49.6087C208.546 49.5756 208.329 49.559 208.111 49.559C207.609 49.559 207.161 49.6656 206.768 49.8786C206.38 50.087 206.072 50.3782 205.845 50.7522C205.618 51.1215 205.504 51.5429 205.504 52.0164V58.6783H203.381ZM211.056 58.6783V47.7693H213.109V49.5022H213.223C213.422 48.9151 213.772 48.4534 214.274 48.1173C214.78 47.7764 215.353 47.6059 215.993 47.6059C216.125 47.6059 216.281 47.6106 216.461 47.6201C216.646 47.6296 216.79 47.6414 216.895 47.6556V49.6869C216.809 49.6632 216.658 49.6372 216.44 49.6087C216.222 49.5756 216.004 49.559 215.787 49.559C215.285 49.559 214.837 49.6656 214.444 49.8786C214.056 50.087 213.748 50.3782 213.521 50.7522C213.294 51.1215 213.18 51.5429 213.18 52.0164V58.6783H211.056ZM221.809 58.9198C221.118 58.9198 220.493 58.792 219.934 58.5363C219.376 58.2759 218.933 57.8995 218.606 57.407C218.284 56.9146 218.123 56.3109 218.123 55.596C218.123 54.9804 218.242 54.4738 218.478 54.0761C218.715 53.6783 219.035 53.3635 219.437 53.1315C219.84 52.8995 220.289 52.7243 220.787 52.6059C221.284 52.4875 221.79 52.3976 222.306 52.336C222.96 52.2603 223.49 52.1987 223.897 52.1514C224.305 52.0993 224.601 52.0164 224.785 51.9028C224.97 51.7891 225.062 51.6045 225.062 51.3488V51.2991C225.062 50.6788 224.887 50.1982 224.537 49.8573C224.191 49.5164 223.675 49.346 222.988 49.346C222.273 49.346 221.71 49.5046 221.298 49.8218C220.891 50.1343 220.609 50.4823 220.453 50.8658L218.457 50.4113C218.694 49.7484 219.039 49.2134 219.494 48.8062C219.953 48.3943 220.481 48.096 221.078 47.9113C221.674 47.7219 222.302 47.6272 222.96 47.6272C223.395 47.6272 223.857 47.6793 224.345 47.7835C224.837 47.8829 225.297 48.0675 225.723 48.3374C226.154 48.6073 226.506 48.9932 226.781 49.4951C227.056 49.9923 227.193 50.6386 227.193 51.434V58.6783H225.119V57.1869H225.034C224.896 57.4615 224.69 57.7314 224.416 57.9965C224.141 58.2617 223.788 58.4818 223.358 58.657C222.927 58.8322 222.411 58.9198 221.809 58.9198ZM222.271 57.2153C222.858 57.2153 223.36 57.0993 223.777 56.8673C224.198 56.6353 224.518 56.3322 224.735 55.9582C224.958 55.5794 225.069 55.1746 225.069 54.7437V53.3374C224.994 53.4132 224.847 53.4842 224.629 53.5505C224.416 53.6121 224.172 53.6665 223.897 53.7139C223.623 53.7565 223.355 53.7967 223.095 53.8346C222.834 53.8677 222.617 53.8961 222.441 53.9198C222.029 53.9719 221.653 54.0595 221.312 54.1826C220.976 54.3057 220.706 54.4833 220.503 54.7153C220.304 54.9425 220.204 55.2456 220.204 55.6244C220.204 56.1499 220.398 56.5477 220.787 56.8175C221.175 57.0827 221.67 57.2153 222.271 57.2153ZM230.021 58.6783V47.7693H232.06V49.5448H232.195C232.422 48.9435 232.794 48.4747 233.31 48.1386C233.826 47.7977 234.444 47.6272 235.163 47.6272C235.893 47.6272 236.503 47.7977 236.996 48.1386C237.493 48.4795 237.86 48.9482 238.097 49.5448H238.21C238.471 48.9624 238.885 48.4984 239.453 48.1528C240.021 47.8024 240.698 47.6272 241.484 47.6272C242.474 47.6272 243.281 47.9373 243.906 48.5576C244.536 49.1779 244.851 50.113 244.851 51.363V58.6783H242.727V51.5619C242.727 50.8232 242.526 50.2882 242.124 49.9568C241.721 49.6253 241.241 49.4596 240.682 49.4596C239.991 49.4596 239.453 49.6727 239.07 50.0988C238.686 50.5202 238.494 51.0623 238.494 51.7252V58.6783H236.378V51.4269C236.378 50.8351 236.193 50.3592 235.824 49.9994C235.455 49.6395 234.974 49.4596 234.382 49.4596C233.98 49.4596 233.608 49.5661 233.267 49.7792C232.931 49.9875 232.659 50.2787 232.45 50.6528C232.247 51.0268 232.145 51.4601 232.145 51.9525V58.6783H230.021ZM252.399 58.8985C251.324 58.8985 250.398 58.6689 249.622 58.2096C248.85 57.7456 248.253 57.0945 247.832 56.2565C247.415 55.4137 247.207 54.4265 247.207 53.2948C247.207 52.1774 247.415 51.1925 247.832 50.3403C248.253 49.488 248.841 48.8228 249.593 48.3445C250.351 47.8663 251.236 47.6272 252.25 47.6272C252.865 47.6272 253.462 47.729 254.039 47.9326C254.617 48.1362 255.136 48.4558 255.595 48.8914C256.054 49.327 256.416 49.8928 256.681 50.5889C256.947 51.2801 257.079 52.1206 257.079 53.1102V53.863H248.407V52.2721H254.998C254.998 51.7134 254.885 51.2186 254.657 50.7877C254.43 50.3521 254.11 50.0088 253.699 49.7579C253.291 49.5069 252.813 49.3815 252.264 49.3815C251.667 49.3815 251.146 49.5282 250.701 49.8218C250.261 50.1106 249.92 50.4894 249.679 50.9582C249.442 51.4222 249.324 51.9265 249.324 52.471V53.7139C249.324 54.443 249.451 55.0633 249.707 55.5747C249.967 56.086 250.33 56.4766 250.794 56.7465C251.258 57.0117 251.8 57.1443 252.42 57.1443C252.823 57.1443 253.19 57.0874 253.521 56.9738C253.852 56.8554 254.139 56.6802 254.38 56.4482C254.622 56.2162 254.806 55.9298 254.934 55.5889L256.944 55.9511C256.783 56.5429 256.494 57.0614 256.078 57.5065C255.666 57.9468 255.147 58.2901 254.522 58.5363C253.902 58.7778 253.194 58.8985 252.399 58.8985ZM261.559 52.2011V58.6783H259.435V47.7693H261.474V49.5448H261.609C261.86 48.9672 262.253 48.5032 262.788 48.1528C263.327 47.8024 264.007 47.6272 264.826 47.6272C265.569 47.6272 266.22 47.7835 266.779 48.096C267.338 48.4037 267.771 48.863 268.079 49.4738C268.387 50.0846 268.54 50.8398 268.54 51.7394V58.6783H266.417V51.9951C266.417 51.2044 266.211 50.5865 265.799 50.1414C265.387 49.6916 264.821 49.4667 264.102 49.4667C263.609 49.4667 263.171 49.5732 262.788 49.7863C262.409 49.9994 262.108 50.3119 261.886 50.7238C261.668 51.131 261.559 51.6234 261.559 52.2011ZM276.481 47.7693V49.4738H270.522V47.7693H276.481ZM272.12 45.1556H274.244V55.4752C274.244 55.8872 274.305 56.1973 274.428 56.4056C274.551 56.6092 274.71 56.7489 274.904 56.8247C275.103 56.8957 275.318 56.9312 275.55 56.9312C275.721 56.9312 275.87 56.9193 275.998 56.8957C276.126 56.872 276.225 56.8531 276.296 56.8389L276.68 58.5931C276.557 58.6405 276.381 58.6878 276.154 58.7352C275.927 58.7872 275.643 58.8157 275.302 58.8204C274.743 58.8299 274.222 58.7304 273.739 58.5221C273.256 58.3138 272.866 57.9918 272.567 57.5562C272.269 57.1206 272.12 56.5737 272.12 55.9156V45.1556ZM282.005 58.9198C281.313 58.9198 280.688 58.792 280.13 58.5363C279.571 58.2759 279.128 57.8995 278.802 57.407C278.48 56.9146 278.319 56.3109 278.319 55.596C278.319 54.9804 278.437 54.4738 278.674 54.0761C278.91 53.6783 279.23 53.3635 279.632 53.1315C280.035 52.8995 280.485 52.7243 280.982 52.6059C281.479 52.4875 281.986 52.3976 282.502 52.336C283.155 52.2603 283.686 52.1987 284.093 52.1514C284.5 52.0993 284.796 52.0164 284.98 51.9028C285.165 51.7891 285.257 51.6045 285.257 51.3488V51.2991C285.257 50.6788 285.082 50.1982 284.732 49.8573C284.386 49.5164 283.87 49.346 283.184 49.346C282.469 49.346 281.905 49.5046 281.493 49.8218C281.086 50.1343 280.804 50.4823 280.648 50.8658L278.652 50.4113C278.889 49.7484 279.235 49.2134 279.689 48.8062C280.149 48.3943 280.677 48.096 281.273 47.9113C281.87 47.7219 282.497 47.6272 283.155 47.6272C283.591 47.6272 284.052 47.6793 284.54 47.7835C285.033 47.8829 285.492 48.0675 285.918 48.3374C286.349 48.6073 286.702 48.9932 286.976 49.4951C287.251 49.9923 287.388 50.6386 287.388 51.434V58.6783H285.314V57.1869H285.229C285.092 57.4615 284.886 57.7314 284.611 57.9965C284.337 58.2617 283.984 58.4818 283.553 58.657C283.122 58.8322 282.606 58.9198 282.005 58.9198ZM282.466 57.2153C283.053 57.2153 283.555 57.0993 283.972 56.8673C284.393 56.6353 284.713 56.3322 284.931 55.9582C285.153 55.5794 285.265 55.1746 285.265 54.7437V53.3374C285.189 53.4132 285.042 53.4842 284.824 53.5505C284.611 53.6121 284.367 53.6665 284.093 53.7139C283.818 53.7565 283.551 53.7967 283.29 53.8346C283.03 53.8677 282.812 53.8961 282.637 53.9198C282.225 53.9719 281.848 54.0595 281.507 54.1826C281.171 54.3057 280.901 54.4833 280.698 54.7153C280.499 54.9425 280.4 55.2456 280.4 55.6244C280.4 56.1499 280.594 56.5477 280.982 56.8175C281.37 57.0827 281.865 57.2153 282.466 57.2153ZM298.391 50.4326L296.467 50.7735C296.386 50.5273 296.258 50.2929 296.083 50.0704C295.913 49.8479 295.681 49.6656 295.387 49.5235C295.094 49.3815 294.727 49.3104 294.286 49.3104C293.685 49.3104 293.183 49.4454 292.781 49.7153C292.378 49.9804 292.177 50.3237 292.177 50.7451C292.177 51.1097 292.312 51.4032 292.582 51.6258C292.852 51.8483 293.287 52.0306 293.889 52.1727L295.621 52.5704C296.625 52.8024 297.373 53.1599 297.866 53.6428C298.358 54.1258 298.604 54.7532 298.604 55.5249C298.604 56.1783 298.415 56.7607 298.036 57.2721C297.662 57.7787 297.139 58.1765 296.467 58.4653C295.799 58.7541 295.025 58.8985 294.144 58.8985C292.923 58.8985 291.926 58.6381 291.154 58.1173C290.382 57.5917 289.909 56.846 289.734 55.88L291.786 55.5675C291.914 56.1026 292.177 56.5074 292.575 56.782C292.972 57.0519 293.491 57.1869 294.13 57.1869C294.826 57.1869 295.382 57.0425 295.799 56.7536C296.216 56.4601 296.424 56.1026 296.424 55.6812C296.424 55.3403 296.296 55.0538 296.04 54.8218C295.79 54.5898 295.404 54.4146 294.883 54.2962L293.036 53.8914C292.018 53.6594 291.265 53.2901 290.778 52.7835C290.295 52.2768 290.053 51.6353 290.053 50.8587C290.053 50.2148 290.233 49.6514 290.593 49.1684C290.953 48.6854 291.45 48.309 292.085 48.0391C292.719 47.7645 293.446 47.6272 294.265 47.6272C295.444 47.6272 296.372 47.8829 297.049 48.3943C297.726 48.9009 298.174 49.5803 298.391 50.4326ZM35.5114 81.8914C34.6307 81.8914 33.8447 81.6665 33.1534 81.2167C32.4669 80.7622 31.9271 80.1158 31.5341 79.2778C31.1458 78.435 30.9517 77.4241 30.9517 76.2451C30.9517 75.0661 31.1482 74.0576 31.5412 73.2195C31.9389 72.3815 32.4834 71.7399 33.1747 71.2948C33.866 70.8497 34.6496 70.6272 35.5256 70.6272C36.2027 70.6272 36.7472 70.7408 37.1591 70.9681C37.5758 71.1907 37.8977 71.4511 38.125 71.7494C38.357 72.0477 38.5369 72.3104 38.6648 72.5377H38.7926V67.1329H40.9162V81.6783H38.8423V79.9809H38.6648C38.5369 80.2129 38.3523 80.4781 38.1108 80.7764C37.8741 81.0747 37.5474 81.3351 37.1307 81.5576C36.714 81.7801 36.1743 81.8914 35.5114 81.8914ZM35.9801 80.0803C36.5909 80.0803 37.107 79.9193 37.5284 79.5974C37.9546 79.2707 38.2765 78.8185 38.4943 78.2408C38.7169 77.6632 38.8281 76.9908 38.8281 76.2238C38.8281 75.4662 38.7192 74.8033 38.5014 74.2352C38.2836 73.667 37.964 73.2243 37.5426 72.907C37.1212 72.5898 36.6004 72.4312 35.9801 72.4312C35.3409 72.4312 34.8083 72.5969 34.3821 72.9283C33.956 73.2598 33.634 73.712 33.4162 74.2849C33.2031 74.8578 33.0966 75.5041 33.0966 76.2238C33.0966 76.953 33.2055 77.6087 33.4233 78.1911C33.6411 78.7735 33.9631 79.2352 34.3892 79.5761C34.8201 79.9122 35.3504 80.0803 35.9801 80.0803ZM48.6488 81.8985C47.574 81.8985 46.6483 81.6689 45.8718 81.2096C45.1 80.7456 44.5034 80.0945 44.082 79.2565C43.6654 78.4137 43.457 77.4265 43.457 76.2948C43.457 75.1774 43.6654 74.1925 44.082 73.3403C44.5034 72.488 45.0906 71.8228 45.8434 71.3445C46.601 70.8663 47.4864 70.6272 48.4997 70.6272C49.1152 70.6272 49.7118 70.729 50.2894 70.9326C50.8671 71.1362 51.3856 71.4558 51.8448 71.8914C52.3041 72.327 52.6663 72.8928 52.9315 73.5889C53.1966 74.2801 53.3292 75.1206 53.3292 76.1102V76.863H44.6573V75.2721H51.2482C51.2482 74.7134 51.1346 74.2186 50.9073 73.7877C50.6801 73.3521 50.3605 73.0088 49.9485 72.7579C49.5413 72.5069 49.0631 72.3815 48.5139 72.3815C47.9173 72.3815 47.3964 72.5282 46.9514 72.8218C46.511 73.1106 46.1701 73.4894 45.9286 73.9582C45.6919 74.4222 45.5735 74.9265 45.5735 75.471V76.7139C45.5735 77.443 45.7014 78.0633 45.957 78.5747C46.2175 79.086 46.5797 79.4766 47.0437 79.7465C47.5077 80.0117 48.0498 80.1443 48.6701 80.1443C49.0726 80.1443 49.4395 80.0874 49.771 79.9738C50.1024 79.8554 50.3889 79.6802 50.6303 79.4482C50.8718 79.2162 51.0565 78.9298 51.1843 78.5889L53.1943 78.9511C53.0333 79.5429 52.7445 80.0614 52.3278 80.5065C51.9159 80.9468 51.3974 81.2901 50.7724 81.5363C50.1521 81.7778 49.4443 81.8985 48.6488 81.8985ZM60.9784 85.7693V70.7693H63.0522V72.5377H63.2298C63.3529 72.3104 63.5304 72.0477 63.7624 71.7494C63.9945 71.4511 64.3164 71.1907 64.7284 70.9681C65.1403 70.7408 65.6848 70.6272 66.3619 70.6272C67.2426 70.6272 68.0285 70.8497 68.7198 71.2948C69.4111 71.7399 69.9533 72.3815 70.3463 73.2195C70.744 74.0576 70.9428 75.0661 70.9428 76.2451C70.9428 77.4241 70.7463 78.435 70.3534 79.2778C69.9604 80.1158 69.4206 80.7622 68.734 81.2167C68.0475 81.6665 67.2639 81.8914 66.3832 81.8914C65.7203 81.8914 65.1782 81.7801 64.7568 81.5576C64.3401 81.3351 64.0134 81.0747 63.7766 80.7764C63.5399 80.4781 63.3576 80.2129 63.2298 79.9809H63.1019V85.7693H60.9784ZM63.0593 76.2238C63.0593 76.9908 63.1706 77.6632 63.3931 78.2408C63.6157 78.8185 63.9376 79.2707 64.359 79.5974C64.7804 79.9193 65.2965 80.0803 65.9073 80.0803C66.5418 80.0803 67.0721 79.9122 67.4982 79.5761C67.9244 79.2352 68.2463 78.7735 68.4641 78.1911C68.6867 77.6087 68.798 76.953 68.798 76.2238C68.798 75.5041 68.6891 74.8578 68.4713 74.2849C68.2582 73.712 67.9362 73.2598 67.5053 72.9283C67.0792 72.5969 66.5465 72.4312 65.9073 72.4312C65.2918 72.4312 64.771 72.5898 64.3448 72.907C63.9234 73.2243 63.6038 73.667 63.386 74.2352C63.1682 74.8033 63.0593 75.4662 63.0593 76.2238ZM76.4968 81.9198C75.8055 81.9198 75.1805 81.792 74.6218 81.5363C74.0631 81.2759 73.6204 80.8995 73.2937 80.407C72.9717 79.9146 72.8107 79.3109 72.8107 78.596C72.8107 77.9804 72.9291 77.4738 73.1659 77.0761C73.4026 76.6783 73.7222 76.3635 74.1247 76.1315C74.5271 75.8995 74.9769 75.7243 75.4741 75.6059C75.9713 75.4875 76.4779 75.3976 76.994 75.336C77.6474 75.2603 78.1777 75.1987 78.5849 75.1514C78.9921 75.0993 79.288 75.0164 79.4727 74.9028C79.6573 74.7891 79.7497 74.6045 79.7497 74.3488V74.2991C79.7497 73.6788 79.5745 73.1982 79.2241 72.8573C78.8784 72.5164 78.3623 72.346 77.6758 72.346C76.9608 72.346 76.3974 72.5046 75.9855 72.8218C75.5783 73.1343 75.2965 73.4823 75.1403 73.8658L73.1445 73.4113C73.3813 72.7484 73.7269 72.2134 74.1815 71.8062C74.6408 71.3943 75.1687 71.096 75.7653 70.9113C76.3619 70.7219 76.9892 70.6272 77.6474 70.6272C78.083 70.6272 78.5446 70.6793 79.0323 70.7835C79.5248 70.8829 79.984 71.0675 80.4102 71.3374C80.841 71.6073 81.1938 71.9932 81.4684 72.4951C81.743 72.9923 81.8803 73.6386 81.8803 74.434V81.6783H79.8065V80.1869H79.7213C79.5839 80.4615 79.378 80.7314 79.1034 80.9965C78.8287 81.2617 78.476 81.4818 78.0451 81.657C77.6142 81.8322 77.0981 81.9198 76.4968 81.9198ZM76.9585 80.2153C77.5456 80.2153 78.0475 80.0993 78.4641 79.8673C78.8856 79.6353 79.2052 79.3322 79.423 78.9582C79.6455 78.5794 79.7568 78.1746 79.7568 77.7437V76.3374C79.681 76.4132 79.5342 76.4842 79.3164 76.5505C79.1034 76.6121 78.8595 76.6665 78.5849 76.7139C78.3103 76.7565 78.0427 76.7967 77.7823 76.8346C77.5219 76.8677 77.3041 76.8961 77.1289 76.9198C76.717 76.9719 76.3406 77.0595 75.9997 77.1826C75.6635 77.3057 75.3936 77.4833 75.19 77.7153C74.9911 77.9425 74.8917 78.2456 74.8917 78.6244C74.8917 79.1499 75.0858 79.5477 75.4741 79.8175C75.8623 80.0827 76.3571 80.2153 76.9585 80.2153ZM89.2827 85.9965C88.4162 85.9965 87.6705 85.8829 87.0455 85.6556C86.4252 85.4283 85.9186 85.1277 85.5256 84.7536C85.1326 84.3796 84.839 83.97 84.6449 83.5249L86.4702 82.7721C86.598 82.9804 86.7685 83.2006 86.9815 83.4326C87.1994 83.6693 87.4929 83.8706 87.8622 84.0363C88.2363 84.202 88.7169 84.2849 89.304 84.2849C90.1089 84.2849 90.7742 84.0884 91.2997 83.6954C91.8253 83.3071 92.0881 82.6869 92.0881 81.8346V79.6897H91.9531C91.8253 79.9217 91.6406 80.1798 91.3992 80.4639C91.1624 80.7479 90.8357 80.9942 90.419 81.2025C90.0024 81.4108 89.4602 81.515 88.7926 81.515C87.9309 81.515 87.1544 81.3138 86.4631 80.9113C85.7765 80.5041 85.232 79.9051 84.8296 79.1144C84.4318 78.319 84.233 77.3412 84.233 76.1812C84.233 75.0211 84.4295 74.0268 84.8225 73.1982C85.2202 72.3696 85.7647 71.7352 86.456 71.2948C87.1473 70.8497 87.9309 70.6272 88.8068 70.6272C89.4839 70.6272 90.0308 70.7408 90.4475 70.9681C90.8641 71.1907 91.1885 71.4511 91.4205 71.7494C91.6572 72.0477 91.8395 72.3104 91.9673 72.5377H92.1236V70.7693H94.2046V81.9198C94.2046 82.8573 93.9868 83.6267 93.5512 84.2281C93.1155 84.8294 92.5261 85.2745 91.7827 85.5633C91.044 85.8521 90.2107 85.9965 89.2827 85.9965ZM89.2614 79.7536C89.8722 79.7536 90.3883 79.6116 90.8097 79.3275C91.2358 79.0387 91.5578 78.6267 91.7756 78.0917C91.9981 77.5519 92.1094 76.9056 92.1094 76.1528C92.1094 75.4189 92.0005 74.7726 91.7827 74.2139C91.5649 73.6551 91.2453 73.2195 90.8239 72.907C90.4025 72.5898 89.8816 72.4312 89.2614 72.4312C88.6222 72.4312 88.0895 72.5969 87.6634 72.9283C87.2372 73.255 86.9153 73.7001 86.6975 74.2636C86.4844 74.827 86.3779 75.4568 86.3779 76.1528C86.3779 76.8677 86.4868 77.4951 86.7046 78.0349C86.9224 78.5747 87.2443 78.9961 87.6705 79.2991C88.1013 79.6021 88.6316 79.7536 89.2614 79.7536ZM100.227 81.9198C99.536 81.9198 98.911 81.792 98.3523 81.5363C97.7936 81.2759 97.3509 80.8995 97.0242 80.407C96.7022 79.9146 96.5412 79.3109 96.5412 78.596C96.5412 77.9804 96.6596 77.4738 96.8963 77.0761C97.1331 76.6783 97.4527 76.3635 97.8551 76.1315C98.2576 75.8995 98.7074 75.7243 99.2046 75.6059C99.7017 75.4875 100.208 75.3976 100.724 75.336C101.378 75.2603 101.908 75.1987 102.315 75.1514C102.723 75.0993 103.018 75.0164 103.203 74.9028C103.388 74.7891 103.48 74.6045 103.48 74.3488V74.2991C103.48 73.6788 103.305 73.1982 102.955 72.8573C102.609 72.5164 102.093 72.346 101.406 72.346C100.691 72.346 100.128 72.5046 99.7159 72.8218C99.3087 73.1343 99.027 73.4823 98.8708 73.8658L96.875 73.4113C97.1118 72.7484 97.4574 72.2134 97.9119 71.8062C98.3712 71.3943 98.8992 71.096 99.4958 70.9113C100.092 70.7219 100.72 70.6272 101.378 70.6272C101.813 70.6272 102.275 70.6793 102.763 70.7835C103.255 70.8829 103.715 71.0675 104.141 71.3374C104.572 71.6073 104.924 71.9932 105.199 72.4951C105.474 72.9923 105.611 73.6386 105.611 74.434V81.6783H103.537V80.1869H103.452C103.314 80.4615 103.108 80.7314 102.834 80.9965C102.559 81.2617 102.206 81.4818 101.776 81.657C101.345 81.8322 100.829 81.9198 100.227 81.9198ZM100.689 80.2153C101.276 80.2153 101.778 80.0993 102.195 79.8673C102.616 79.6353 102.936 79.3322 103.153 78.9582C103.376 78.5794 103.487 78.1746 103.487 77.7437V76.3374C103.411 76.4132 103.265 76.4842 103.047 76.5505C102.834 76.6121 102.59 76.6665 102.315 76.7139C102.041 76.7565 101.773 76.7967 101.513 76.8346C101.252 76.8677 101.035 76.8961 100.859 76.9198C100.447 76.9719 100.071 77.0595 99.7301 77.1826C99.394 77.3057 99.1241 77.4833 98.9205 77.7153C98.7216 77.9425 98.6222 78.2456 98.6222 78.6244C98.6222 79.1499 98.8163 79.5477 99.2046 79.8175C99.5928 80.0827 100.088 80.2153 100.689 80.2153ZM108.439 81.6783V70.7693H110.478V72.5448H110.613C110.84 71.9435 111.212 71.4747 111.728 71.1386C112.244 70.7977 112.862 70.6272 113.581 70.6272C114.311 70.6272 114.921 70.7977 115.414 71.1386C115.911 71.4795 116.278 71.9482 116.515 72.5448H116.628C116.889 71.9624 117.303 71.4984 117.871 71.1528C118.439 70.8024 119.116 70.6272 119.902 70.6272C120.892 70.6272 121.699 70.9373 122.324 71.5576C122.954 72.1779 123.269 73.113 123.269 74.363V81.6783H121.145V74.5619C121.145 73.8232 120.944 73.2882 120.542 72.9568C120.139 72.6253 119.659 72.4596 119.1 72.4596C118.409 72.4596 117.871 72.6727 117.488 73.0988C117.104 73.5202 116.912 74.0623 116.912 74.7252V81.6783H114.796V74.4269C114.796 73.8351 114.611 73.3592 114.242 72.9994C113.873 72.6395 113.392 72.4596 112.8 72.4596C112.398 72.4596 112.026 72.5661 111.685 72.7792C111.349 72.9875 111.077 73.2787 110.868 73.6528C110.665 74.0268 110.563 74.4601 110.563 74.9525V81.6783H108.439ZM130.817 81.8985C129.742 81.8985 128.816 81.6689 128.04 81.2096C127.268 80.7456 126.671 80.0945 126.25 79.2565C125.833 78.4137 125.625 77.4265 125.625 76.2948C125.625 75.1774 125.833 74.1925 126.25 73.3403C126.671 72.488 127.259 71.8228 128.011 71.3445C128.769 70.8663 129.654 70.6272 130.668 70.6272C131.283 70.6272 131.88 70.729 132.457 70.9326C133.035 71.1362 133.554 71.4558 134.013 71.8914C134.472 72.327 134.834 72.8928 135.099 73.5889C135.365 74.2801 135.497 75.1206 135.497 76.1102V76.863H126.825V75.2721H133.416C133.416 74.7134 133.303 74.2186 133.075 73.7877C132.848 73.3521 132.528 73.0088 132.116 72.7579C131.709 72.5069 131.231 72.3815 130.682 72.3815C130.085 72.3815 129.564 72.5282 129.119 72.8218C128.679 73.1106 128.338 73.4894 128.097 73.9582C127.86 74.4222 127.741 74.9265 127.741 75.471V76.7139C127.741 77.443 127.869 78.0633 128.125 78.5747C128.385 79.086 128.748 79.4766 129.212 79.7465C129.676 80.0117 130.218 80.1443 130.838 80.1443C131.241 80.1443 131.607 80.0874 131.939 79.9738C132.27 79.8554 132.557 79.6802 132.798 79.4482C133.04 79.2162 133.224 78.9298 133.352 78.5889L135.362 78.9511C135.201 79.5429 134.912 80.0614 134.496 80.5065C134.084 80.9468 133.565 81.2901 132.94 81.5363C132.32 81.7778 131.612 81.8985 130.817 81.8985ZM139.977 75.2011V81.6783H137.853V70.7693H139.892V72.5448H140.027C140.278 71.9672 140.671 71.5032 141.206 71.1528C141.745 70.8024 142.425 70.6272 143.244 70.6272C143.987 70.6272 144.638 70.7835 145.197 71.096C145.756 71.4037 146.189 71.863 146.497 72.4738C146.805 73.0846 146.958 73.8398 146.958 74.7394V81.6783H144.835V74.9951C144.835 74.2044 144.629 73.5865 144.217 73.1414C143.805 72.6916 143.239 72.4667 142.52 72.4667C142.027 72.4667 141.589 72.5732 141.206 72.7863C140.827 72.9994 140.526 73.3119 140.304 73.7238C140.086 74.131 139.977 74.6234 139.977 75.2011ZM154.899 70.7693V72.4738H148.94V70.7693H154.899ZM150.538 68.1556H152.662V78.4752C152.662 78.8872 152.723 79.1973 152.846 79.4056C152.969 79.6092 153.128 79.7489 153.322 79.8247C153.521 79.8957 153.736 79.9312 153.968 79.9312C154.139 79.9312 154.288 79.9193 154.416 79.8957C154.544 79.872 154.643 79.8531 154.714 79.8389L155.098 81.5931C154.975 81.6405 154.799 81.6878 154.572 81.7352C154.345 81.7872 154.061 81.8157 153.72 81.8204C153.161 81.8299 152.64 81.7304 152.157 81.5221C151.674 81.3138 151.284 80.9918 150.985 80.5562C150.687 80.1206 150.538 79.5737 150.538 78.9156V68.1556ZM161.726 81.8985C160.703 81.8985 159.811 81.6641 159.048 81.1954C158.286 80.7266 157.694 80.0709 157.273 79.2281C156.851 78.3853 156.641 77.4004 156.641 76.2735C156.641 75.1419 156.851 74.1523 157.273 73.3048C157.694 72.4572 158.286 71.7991 159.048 71.3303C159.811 70.8616 160.703 70.6272 161.726 70.6272C162.749 70.6272 163.641 70.8616 164.403 71.3303C165.166 71.7991 165.758 72.4572 166.179 73.3048C166.6 74.1523 166.811 75.1419 166.811 76.2735C166.811 77.4004 166.6 78.3853 166.179 79.2281C165.758 80.0709 165.166 80.7266 164.403 81.1954C163.641 81.6641 162.749 81.8985 161.726 81.8985ZM161.733 80.1158C162.396 80.1158 162.945 79.9407 163.381 79.5903C163.816 79.2399 164.138 78.7735 164.347 78.1911C164.56 77.6087 164.666 76.9672 164.666 76.2664C164.666 75.5704 164.56 74.9312 164.347 74.3488C164.138 73.7617 163.816 73.2906 163.381 72.9354C162.945 72.5803 162.396 72.4028 161.733 72.4028C161.065 72.4028 160.511 72.5803 160.071 72.9354C159.635 73.2906 159.311 73.7617 159.098 74.3488C158.89 74.9312 158.786 75.5704 158.786 76.2664C158.786 76.9672 158.89 77.6087 159.098 78.1911C159.311 78.7735 159.635 79.2399 160.071 79.5903C160.511 79.9407 161.065 80.1158 161.733 80.1158ZM170.581 81.8133C170.192 81.8133 169.859 81.676 169.579 81.4014C169.3 81.122 169.16 80.7858 169.16 80.3928C169.16 80.0046 169.3 79.6731 169.579 79.3985C169.859 79.1192 170.192 78.9795 170.581 78.9795C170.969 78.9795 171.303 79.1192 171.582 79.3985C171.861 79.6731 172.001 80.0046 172.001 80.3928C172.001 80.6532 171.935 80.8924 171.802 81.1102C171.674 81.3232 171.504 81.4937 171.291 81.6215C171.078 81.7494 170.841 81.8133 170.581 81.8133Z" fill="black"/>
</g>
</g>
</g>
<defs>
<filter id="filter0_d_67_14" x="0" y="0" width="337.184" height="114.891" filterUnits="userSpaceOnUse" color-interpolation-filters="sRGB">
<feFlood flood-opacity="0" result="BackgroundImageFix"/>
<feColorMatrix in="SourceAlpha" type="matrix" values="0 0 0 0 0 0 0 0 0 0 0 0 0 0 0 0 0 0 127 0" result="hardAlpha"/>
<feMorphology radius="2" operator="erode" in="SourceAlpha" result="effect1_dropShadow_67_14"/>
<feOffset dy="4"/>
<feGaussianBlur stdDeviation="5"/>
<feComposite in2="hardAlpha" operator="out"/>
<feColorMatrix type="matrix" values="0 0 0 0 0 0 0 0 0 0 0 0 0 0 0 0 0 0 0.25 0"/>
<feBlend mode="normal" in2="BackgroundImageFix" result="effect1_dropShadow_67_14"/>
<feBlend mode="normal" in="BackgroundImageFix" in2="effect1_dropShadow_67_14" result="BackgroundImageFix"/>
<feBlend mode="normal" in="SourceGraphic" in2="BackgroundImageFix" result="shape"/>
</filter>
</defs>
</svg>
