<svg width="477" height="128" viewBox="0 0 477 128" fill="none" xmlns="http://www.w3.org/2000/svg">
<g filter="url(#filter0_d_7_3306)">
<rect x="8" y="4" width="460.827" height="111.585" rx="16" fill="white" fill-opacity="0.1" shape-rendering="crispEdges"/>
</g>
<path d="M201.43 55V37.5455H207.652C209.01 37.5455 210.135 37.7926 211.027 38.2869C211.919 38.7812 212.586 39.4574 213.029 40.3153C213.473 41.1676 213.694 42.1278 213.694 43.196C213.694 44.2699 213.47 45.2358 213.021 46.0938C212.578 46.946 211.907 47.6222 211.01 48.1222C210.118 48.6165 208.995 48.8636 207.643 48.8636H203.365V46.6307H207.404C208.262 46.6307 208.958 46.483 209.493 46.1875C210.027 45.8864 210.419 45.4773 210.669 44.9602C210.919 44.4432 211.044 43.8551 211.044 43.196C211.044 42.5369 210.919 41.9517 210.669 41.4403C210.419 40.929 210.024 40.5284 209.484 40.2386C208.95 39.9489 208.245 39.804 207.37 39.804H204.064V55H201.43ZM220.27 55.2898C219.44 55.2898 218.69 55.1364 218.02 54.8295C217.349 54.517 216.818 54.0653 216.426 53.4744C216.039 52.8835 215.846 52.1591 215.846 51.3011C215.846 50.5625 215.988 49.9545 216.272 49.4773C216.556 49 216.94 48.6222 217.423 48.3438C217.906 48.0653 218.446 47.8551 219.042 47.7131C219.639 47.571 220.247 47.4631 220.866 47.3892C221.65 47.2983 222.287 47.2244 222.775 47.1676C223.264 47.1051 223.619 47.0057 223.841 46.8693C224.062 46.733 224.173 46.5114 224.173 46.2045V46.1449C224.173 45.4006 223.963 44.8239 223.542 44.4148C223.128 44.0057 222.508 43.8011 221.684 43.8011C220.826 43.8011 220.15 43.9915 219.656 44.3722C219.167 44.7472 218.829 45.1648 218.642 45.625L216.247 45.0795C216.531 44.2841 216.946 43.642 217.491 43.1534C218.042 42.6591 218.676 42.3011 219.392 42.0795C220.108 41.8523 220.86 41.7386 221.65 41.7386C222.173 41.7386 222.727 41.8011 223.312 41.9261C223.903 42.0455 224.454 42.267 224.966 42.5909C225.483 42.9148 225.906 43.3778 226.235 43.9801C226.565 44.5767 226.73 45.3523 226.73 46.3068V55H224.241V53.2102H224.139C223.974 53.5398 223.727 53.8636 223.397 54.1818C223.068 54.5 222.645 54.7642 222.128 54.9744C221.61 55.1847 220.991 55.2898 220.27 55.2898ZM220.824 53.2443C221.528 53.2443 222.13 53.1051 222.63 52.8267C223.136 52.5483 223.52 52.1847 223.781 51.7358C224.048 51.2812 224.181 50.7955 224.181 50.2784V48.5909C224.091 48.6818 223.914 48.767 223.653 48.8466C223.397 48.9205 223.105 48.9858 222.775 49.0426C222.446 49.0937 222.125 49.142 221.812 49.1875C221.5 49.2273 221.238 49.2614 221.028 49.2898C220.534 49.3523 220.082 49.4574 219.673 49.6051C219.27 49.7528 218.946 49.9659 218.701 50.2443C218.463 50.517 218.343 50.8807 218.343 51.3352C218.343 51.9659 218.576 52.4432 219.042 52.767C219.508 53.0852 220.102 53.2443 220.824 53.2443ZM235.613 60.1818C234.573 60.1818 233.678 60.0455 232.928 59.7727C232.184 59.5 231.576 59.1392 231.104 58.6903C230.632 58.2415 230.28 57.75 230.047 57.2159L232.238 56.3125C232.391 56.5625 232.596 56.8267 232.851 57.1051C233.113 57.3892 233.465 57.6307 233.908 57.8295C234.357 58.0284 234.934 58.1278 235.638 58.1278C236.604 58.1278 237.402 57.892 238.033 57.4205C238.664 56.9545 238.979 56.2102 238.979 55.1875V52.6136H238.817C238.664 52.892 238.442 53.2017 238.152 53.5426C237.868 53.8835 237.476 54.179 236.976 54.429C236.476 54.679 235.826 54.804 235.025 54.804C233.99 54.804 233.059 54.5625 232.229 54.0795C231.405 53.5909 230.752 52.8722 230.269 51.9233C229.792 50.9687 229.553 49.7955 229.553 48.4034C229.553 47.0114 229.789 45.8182 230.26 44.8239C230.738 43.8295 231.391 43.0682 232.221 42.5398C233.05 42.0057 233.99 41.7386 235.042 41.7386C235.854 41.7386 236.51 41.875 237.01 42.1477C237.51 42.4148 237.9 42.7273 238.178 43.0852C238.462 43.4432 238.681 43.7585 238.834 44.0312H239.022V41.9091H241.519V55.2898C241.519 56.4148 241.257 57.3381 240.735 58.0597C240.212 58.7813 239.505 59.3153 238.613 59.6619C237.726 60.0085 236.726 60.1818 235.613 60.1818ZM235.587 52.6903C236.32 52.6903 236.939 52.5199 237.445 52.179C237.956 51.8324 238.343 51.3381 238.604 50.696C238.871 50.0483 239.005 49.2727 239.005 48.3693C239.005 47.4886 238.874 46.7131 238.613 46.0426C238.351 45.3722 237.968 44.8494 237.462 44.4744C236.956 44.0937 236.331 43.9034 235.587 43.9034C234.82 43.9034 234.181 44.1023 233.669 44.5C233.158 44.892 232.772 45.4261 232.51 46.1023C232.255 46.7784 232.127 47.5341 232.127 48.3693C232.127 49.2273 232.257 49.9801 232.519 50.6278C232.78 51.2756 233.167 51.7812 233.678 52.1449C234.195 52.5085 234.831 52.6903 235.587 52.6903ZM248.746 55.2898C247.917 55.2898 247.167 55.1364 246.496 54.8295C245.826 54.517 245.294 54.0653 244.902 53.4744C244.516 52.8835 244.323 52.1591 244.323 51.3011C244.323 50.5625 244.465 49.9545 244.749 49.4773C245.033 49 245.417 48.6222 245.9 48.3438C246.382 48.0653 246.922 47.8551 247.519 47.7131C248.115 47.571 248.723 47.4631 249.343 47.3892C250.127 47.2983 250.763 47.2244 251.252 47.1676C251.74 47.1051 252.096 47.0057 252.317 46.8693C252.539 46.733 252.65 46.5114 252.65 46.2045V46.1449C252.65 45.4006 252.439 44.8239 252.019 44.4148C251.604 44.0057 250.985 43.8011 250.161 43.8011C249.303 43.8011 248.627 43.9915 248.132 44.3722C247.644 44.7472 247.306 45.1648 247.118 45.625L244.723 45.0795C245.007 44.2841 245.422 43.642 245.968 43.1534C246.519 42.6591 247.152 42.3011 247.868 42.0795C248.584 41.8523 249.337 41.7386 250.127 41.7386C250.65 41.7386 251.204 41.8011 251.789 41.9261C252.38 42.0455 252.931 42.267 253.442 42.5909C253.959 42.9148 254.382 43.3778 254.712 43.9801C255.042 44.5767 255.206 45.3523 255.206 46.3068V55H252.718V53.2102H252.615C252.451 53.5398 252.204 53.8636 251.874 54.1818C251.544 54.5 251.121 54.7642 250.604 54.9744C250.087 55.1847 249.468 55.2898 248.746 55.2898ZM249.3 53.2443C250.005 53.2443 250.607 53.1051 251.107 52.8267C251.613 52.5483 251.996 52.1847 252.257 51.7358C252.525 51.2812 252.658 50.7955 252.658 50.2784V48.5909C252.567 48.6818 252.391 48.767 252.13 48.8466C251.874 48.9205 251.581 48.9858 251.252 49.0426C250.922 49.0937 250.601 49.142 250.289 49.1875C249.976 49.2273 249.715 49.2614 249.505 49.2898C249.01 49.3523 248.559 49.4574 248.15 49.6051C247.746 49.7528 247.422 49.9659 247.178 50.2443C246.939 50.517 246.82 50.8807 246.82 51.3352C246.82 51.9659 247.053 52.4432 247.519 52.767C247.985 53.0852 248.579 53.2443 249.3 53.2443ZM258.601 55V41.9091H261.047V44.0398H261.208C261.481 43.3182 261.927 42.7557 262.547 42.3523C263.166 41.9432 263.907 41.7386 264.771 41.7386C265.646 41.7386 266.379 41.9432 266.97 42.3523C267.566 42.7614 268.007 43.3239 268.291 44.0398H268.427C268.74 43.3409 269.237 42.7841 269.919 42.3693C270.601 41.9489 271.413 41.7386 272.356 41.7386C273.544 41.7386 274.512 42.1108 275.262 42.8551C276.018 43.5994 276.396 44.7216 276.396 46.2216V55H273.848V46.4602C273.848 45.5739 273.606 44.9318 273.123 44.5341C272.64 44.1364 272.064 43.9375 271.393 43.9375C270.564 43.9375 269.919 44.1932 269.458 44.7045C268.998 45.2102 268.768 45.8608 268.768 46.6562V55H266.228V46.2983C266.228 45.5881 266.007 45.017 265.564 44.5852C265.12 44.1534 264.544 43.9375 263.833 43.9375C263.351 43.9375 262.904 44.0653 262.495 44.321C262.092 44.571 261.765 44.9205 261.515 45.3693C261.271 45.8182 261.149 46.3381 261.149 46.929V55H258.601ZM285.454 55.2642C284.164 55.2642 283.053 54.9886 282.121 54.4375C281.195 53.8807 280.479 53.0994 279.973 52.0938C279.473 51.0824 279.223 49.8977 279.223 48.5398C279.223 47.1989 279.473 46.017 279.973 44.9943C280.479 43.9716 281.184 43.1733 282.087 42.5994C282.996 42.0256 284.059 41.7386 285.275 41.7386C286.013 41.7386 286.729 41.8608 287.422 42.1051C288.115 42.3494 288.738 42.733 289.289 43.2557C289.84 43.7784 290.275 44.4574 290.593 45.2926C290.911 46.1222 291.07 47.1307 291.07 48.3182V49.2216H280.664V47.3125H288.573C288.573 46.642 288.436 46.0483 288.164 45.5312C287.891 45.0085 287.507 44.5966 287.013 44.2955C286.525 43.9943 285.951 43.8438 285.292 43.8438C284.576 43.8438 283.951 44.0199 283.417 44.3722C282.888 44.7187 282.479 45.1733 282.189 45.7358C281.905 46.2926 281.763 46.8977 281.763 47.5511V49.0426C281.763 49.9176 281.917 50.6619 282.223 51.2756C282.536 51.8892 282.971 52.358 283.527 52.6818C284.084 53 284.735 53.1591 285.479 53.1591C285.962 53.1591 286.402 53.0909 286.8 52.9545C287.198 52.8125 287.542 52.6023 287.831 52.3239C288.121 52.0455 288.343 51.7017 288.496 51.2926L290.908 51.7273C290.715 52.4375 290.368 53.0597 289.868 53.5938C289.374 54.1222 288.752 54.5341 288.002 54.8295C287.257 55.1193 286.408 55.2642 285.454 55.2642ZM296.446 47.2273V55H293.897V41.9091H296.343V44.0398H296.505C296.806 43.3466 297.278 42.7898 297.92 42.3693C298.568 41.9489 299.383 41.7386 300.366 41.7386C301.258 41.7386 302.039 41.9261 302.71 42.3011C303.38 42.6705 303.9 43.2216 304.27 43.9545C304.639 44.6875 304.824 45.5937 304.824 46.6733V55H302.275V46.9801C302.275 46.0312 302.028 45.2898 301.534 44.7557C301.039 44.2159 300.36 43.946 299.497 43.946C298.906 43.946 298.38 44.0739 297.92 44.3295C297.466 44.5852 297.105 44.9602 296.838 45.4545C296.576 45.9432 296.446 46.5341 296.446 47.2273ZM314.352 41.9091V43.9545H307.201V41.9091H314.352ZM309.119 38.7727H311.667V51.1562C311.667 51.6506 311.741 52.0227 311.889 52.2727C312.037 52.517 312.227 52.6847 312.46 52.7756C312.699 52.8608 312.957 52.9034 313.235 52.9034C313.44 52.9034 313.619 52.8892 313.772 52.8608C313.926 52.8324 314.045 52.8097 314.13 52.7926L314.591 54.8977C314.443 54.9545 314.233 55.0114 313.96 55.0682C313.687 55.1307 313.346 55.1648 312.937 55.1705C312.267 55.1818 311.642 55.0625 311.062 54.8125C310.483 54.5625 310.014 54.1761 309.656 53.6534C309.298 53.1307 309.119 52.4744 309.119 51.6847V38.7727ZM322.544 55.2642C321.317 55.2642 320.246 54.983 319.331 54.4205C318.417 53.858 317.706 53.071 317.201 52.0597C316.695 51.0483 316.442 49.8665 316.442 48.5142C316.442 47.1562 316.695 45.9687 317.201 44.9517C317.706 43.9347 318.417 43.1449 319.331 42.5824C320.246 42.0199 321.317 41.7386 322.544 41.7386C323.772 41.7386 324.843 42.0199 325.757 42.5824C326.672 43.1449 327.382 43.9347 327.888 44.9517C328.394 45.9687 328.647 47.1562 328.647 48.5142C328.647 49.8665 328.394 51.0483 327.888 52.0597C327.382 53.071 326.672 53.858 325.757 54.4205C324.843 54.983 323.772 55.2642 322.544 55.2642ZM322.553 53.125C323.348 53.125 324.007 52.9148 324.53 52.4943C325.053 52.0739 325.439 51.5142 325.689 50.8153C325.945 50.1165 326.073 49.3466 326.073 48.5057C326.073 47.6705 325.945 46.9034 325.689 46.2045C325.439 45.5 325.053 44.9347 324.53 44.5085C324.007 44.0824 323.348 43.8693 322.553 43.8693C321.752 43.8693 321.087 44.0824 320.559 44.5085C320.036 44.9347 319.647 45.5 319.391 46.2045C319.141 46.9034 319.016 47.6705 319.016 48.5057C319.016 49.3466 319.141 50.1165 319.391 50.8153C319.647 51.5142 320.036 52.0739 320.559 52.4943C321.087 52.9148 321.752 53.125 322.553 53.125ZM341.301 45.1051L338.991 45.5142C338.895 45.2187 338.741 44.9375 338.531 44.6705C338.326 44.4034 338.048 44.1847 337.696 44.0142C337.343 43.8437 336.903 43.7585 336.375 43.7585C335.653 43.7585 335.051 43.9205 334.568 44.2443C334.085 44.5625 333.843 44.9744 333.843 45.4801C333.843 45.9176 334.005 46.2699 334.329 46.5369C334.653 46.804 335.176 47.0227 335.897 47.1932L337.977 47.6705C339.181 47.9489 340.079 48.3778 340.67 48.9574C341.261 49.5369 341.556 50.2898 341.556 51.2159C341.556 52 341.329 52.6989 340.875 53.3125C340.426 53.9205 339.798 54.3977 338.991 54.7443C338.19 55.0909 337.261 55.2642 336.204 55.2642C334.738 55.2642 333.542 54.9517 332.616 54.3267C331.69 53.696 331.122 52.8011 330.912 51.642L333.375 51.267C333.528 51.9091 333.843 52.3949 334.321 52.7244C334.798 53.0483 335.42 53.2102 336.187 53.2102C337.022 53.2102 337.69 53.0369 338.19 52.6903C338.69 52.3381 338.94 51.9091 338.94 51.4034C338.94 50.9943 338.787 50.6506 338.48 50.3722C338.179 50.0937 337.716 49.8835 337.091 49.7415L334.875 49.2557C333.653 48.9773 332.75 48.5341 332.164 47.9261C331.585 47.3182 331.295 46.5483 331.295 45.6165C331.295 44.8437 331.511 44.1676 331.943 43.5881C332.375 43.0085 332.971 42.5568 333.733 42.233C334.494 41.9034 335.366 41.7386 336.349 41.7386C337.764 41.7386 338.878 42.0455 339.69 42.6591C340.503 43.267 341.039 44.0824 341.301 45.1051Z" fill="black"/>
<path d="M205.768 83.2557C204.456 83.2557 203.37 82.983 202.512 82.4375C201.654 81.8864 201.052 81.108 200.706 80.1023C200.365 79.0909 200.308 77.9006 200.535 76.5312C200.757 75.1847 201.208 74.0028 201.89 72.9858C202.572 71.9631 203.424 71.1676 204.447 70.5994C205.476 70.0256 206.612 69.7386 207.856 69.7386C208.663 69.7386 209.404 69.8693 210.081 70.1307C210.757 70.3864 211.328 70.7841 211.794 71.3239C212.26 71.8636 212.581 72.5511 212.757 73.3864C212.933 74.2159 212.924 75.2045 212.731 76.3523L212.586 77.2983H201.848L202.18 75.2188H209.953C210.055 74.6278 210.021 74.1023 209.851 73.642C209.68 73.1761 209.396 72.8097 208.998 72.5426C208.601 72.2756 208.103 72.142 207.507 72.142C206.899 72.142 206.331 72.2983 205.802 72.6108C205.279 72.9176 204.839 73.3153 204.481 73.804C204.123 74.2926 203.896 74.8068 203.799 75.3466L203.45 77.3409C203.325 78.1591 203.353 78.8267 203.535 79.3438C203.717 79.8608 204.035 80.2415 204.49 80.4858C204.944 80.7301 205.518 80.8523 206.211 80.8523C206.666 80.8523 207.086 80.7898 207.473 80.6648C207.859 80.5398 208.203 80.3523 208.504 80.1023C208.811 79.8466 209.066 79.5341 209.271 79.1648L212.092 79.4886C211.779 80.25 211.322 80.9148 210.72 81.483C210.118 82.0455 209.396 82.483 208.555 82.7955C207.72 83.1023 206.791 83.2557 205.768 83.2557ZM223.606 74.4602L223.189 77H215.339L215.757 74.4602H223.606ZM228.471 65.5455H232.34L235.434 78.1932H235.638L242.908 65.5455H246.777L243.88 83H240.846L242.84 71.0085H242.686L235.868 82.9489H233.61L230.78 70.983H230.618L228.607 83H225.573L228.471 65.5455ZM252.931 83.2557C251.641 83.2557 250.567 82.9716 249.709 82.4034C248.857 81.8352 248.257 81.0369 247.911 80.0085C247.564 78.9801 247.502 77.7869 247.723 76.429C247.945 75.0881 248.388 73.9148 249.053 72.9091C249.723 71.9034 250.567 71.125 251.584 70.5739C252.607 70.017 253.752 69.7386 255.019 69.7386C256.309 69.7386 257.38 70.0256 258.232 70.5994C259.084 71.1676 259.684 71.9659 260.03 72.9943C260.382 74.0227 260.448 75.2216 260.226 76.5909C260.01 77.9261 259.564 79.0938 258.888 80.0938C258.218 81.0938 257.374 81.8722 256.357 82.429C255.34 82.9801 254.198 83.2557 252.931 83.2557ZM253.186 80.7841C253.902 80.7841 254.53 80.5909 255.07 80.2045C255.615 79.8125 256.061 79.2869 256.408 78.6278C256.76 77.9631 257.005 77.2244 257.141 76.4119C257.266 75.6278 257.269 74.9176 257.15 74.2812C257.03 73.6392 256.775 73.1307 256.382 72.7557C255.996 72.375 255.459 72.1847 254.772 72.1847C254.056 72.1847 253.422 72.3835 252.871 72.7812C252.326 73.1733 251.88 73.7017 251.533 74.3665C251.186 75.0256 250.948 75.7614 250.817 76.5739C250.686 77.358 250.681 78.0682 250.8 78.7045C250.919 79.3409 251.175 79.8466 251.567 80.2216C251.959 80.5966 252.499 80.7841 253.186 80.7841ZM267.771 65.5455L264.873 83H261.788L264.686 65.5455H267.771ZM271.779 83.2642C270.949 83.2642 270.228 83.1165 269.614 82.821C269 82.5199 268.549 82.0767 268.259 81.4915C267.975 80.9062 267.904 80.1847 268.046 79.3267C268.171 78.5881 268.409 77.9773 268.762 77.4943C269.12 77.0114 269.557 76.625 270.074 76.3352C270.597 76.0398 271.165 75.8182 271.779 75.6705C272.398 75.5227 273.029 75.4148 273.671 75.3466C274.455 75.267 275.088 75.1932 275.571 75.125C276.06 75.0568 276.427 74.9545 276.671 74.8182C276.915 74.6761 277.063 74.4602 277.114 74.1705V74.1193C277.216 73.4773 277.114 72.9801 276.807 72.6278C276.5 72.2756 275.989 72.0994 275.273 72.0994C274.523 72.0994 273.892 72.2642 273.381 72.5938C272.87 72.9233 272.498 73.3125 272.265 73.7614L269.469 73.3523C269.821 72.5568 270.304 71.892 270.918 71.358C271.532 70.8182 272.239 70.4148 273.04 70.1477C273.847 69.875 274.708 69.7386 275.623 69.7386C276.248 69.7386 276.858 69.8125 277.455 69.9602C278.057 70.108 278.588 70.3523 279.049 70.6932C279.515 71.0284 279.855 71.4858 280.071 72.0653C280.293 72.6449 280.33 73.3693 280.182 74.2386L278.725 83H275.759L276.066 81.2017H275.963C275.719 81.5653 275.401 81.9062 275.009 82.2244C274.617 82.5369 274.151 82.7898 273.611 82.983C273.071 83.1705 272.461 83.2642 271.779 83.2642ZM272.946 80.9972C273.566 80.9972 274.123 80.875 274.617 80.6307C275.111 80.3807 275.517 80.0511 275.836 79.642C276.154 79.233 276.353 78.7869 276.432 78.304L276.688 76.7614C276.574 76.8409 276.398 76.9148 276.159 76.983C275.921 77.0511 275.654 77.1108 275.358 77.1619C275.069 77.2131 274.782 77.2585 274.498 77.2983C274.213 77.3381 273.969 77.3722 273.765 77.4006C273.293 77.4631 272.861 77.5653 272.469 77.7074C272.083 77.8494 271.762 78.0483 271.506 78.304C271.256 78.554 271.1 78.8778 271.037 79.2756C270.946 79.8381 271.08 80.267 271.438 80.5625C271.796 80.8523 272.299 80.9972 272.946 80.9972Z" fill="#6DC135"/>
<g clip-path="url(#clip0_7_3306)">
<path d="M71.2389 91.4696C71.136 91.5735 71.0082 91.6249 70.8544 91.6249H62.8751V91.6763C62.8751 92.3674 63.0458 92.9123 63.3885 93.3086C63.73 93.7062 64.3723 93.9049 65.3132 93.9049C65.6547 93.9049 66.0573 93.9003 66.5187 93.8923C66.9801 93.8843 67.4426 93.8661 67.904 93.8409C68.3654 93.8147 68.8019 93.7895 69.2124 93.7633C69.6229 93.737 69.9474 93.7164 70.1872 93.6982H70.2901C70.5977 93.6982 70.7515 93.8455 70.7515 94.1391V96.4716C70.7515 96.6795 70.7164 96.8349 70.6486 96.9377C70.5796 97.0416 70.4439 97.1284 70.2381 97.197C69.4171 97.4734 68.5531 97.6767 67.6462 97.8058C66.7392 97.9349 65.7475 98 64.6697 98C63.7979 98 62.9588 97.8789 62.1559 97.6367C61.3518 97.3946 60.6416 97.0016 60.0265 96.4579C59.4113 95.9142 58.9194 95.214 58.5507 94.3584C58.1832 93.5028 57.9988 92.4531 57.9988 91.2091V89.498C57.9988 87.2168 58.6106 85.4726 59.8331 84.2629C61.0555 83.0532 62.7202 82.449 64.8235 82.449C65.9521 82.449 66.9269 82.6215 67.7491 82.9676C68.5701 83.3137 69.2497 83.7969 69.7891 84.4194C70.3285 85.042 70.73 85.7844 70.9946 86.648C71.2592 87.5127 71.3927 88.4619 71.3927 89.4991V91.0538C71.3927 91.2263 71.3418 91.3645 71.2389 91.4684V91.4696ZM66.6725 88.8001C66.6725 88.0222 66.5187 87.4133 66.2111 86.9724C65.9035 86.5315 65.424 86.311 64.7738 86.311C64.1575 86.311 63.687 86.5315 63.3625 86.9724C63.0368 87.4133 62.8751 88.0222 62.8751 88.8001V88.8777H66.6725V88.8001Z" fill="#F16421"/>
<path d="M78.8846 91.6374C78.7817 91.7323 78.6618 91.7802 78.525 91.7802H73.573C73.4361 91.7802 73.3163 91.7323 73.2134 91.6374C73.1105 91.5426 73.0596 91.4261 73.0596 91.2879V88.6447C73.0596 88.5065 73.1105 88.3899 73.2134 88.2951C73.3163 88.2003 73.435 88.1523 73.573 88.1523H78.525C78.6618 88.1523 78.7817 88.2003 78.8846 88.2951C78.9875 88.3899 79.0384 88.5065 79.0384 88.6447V91.2879C79.0384 91.4261 78.9875 91.5426 78.8846 91.6374Z" fill="#F16421"/>
<path d="M99.4243 97.7154C99.3304 97.7508 99.232 97.7668 99.1291 97.7668H94.9212C94.8183 97.7668 94.729 97.7154 94.6521 97.6115C94.5752 97.5075 94.5367 97.3876 94.5367 97.2482V87.7365C94.5367 87.564 94.5107 87.4772 94.4598 87.4772C94.4429 87.4772 94.4168 87.4943 94.3829 87.5286H94.3569C94.3219 87.5286 94.2834 87.572 94.2416 87.6576C94.1986 87.7444 94.1601 87.813 94.1262 87.8644L92.0737 91.3118C91.869 91.6408 91.6202 91.8041 91.3296 91.8041H89.5587C89.2681 91.8041 89.0204 91.6396 88.8146 91.3118L86.7112 87.7616C86.6762 87.7102 86.6468 87.6576 86.6219 87.6062C86.5959 87.5548 86.5665 87.5286 86.5325 87.5286H86.5065C86.4726 87.4943 86.4466 87.4772 86.4296 87.4772C86.3606 87.4772 86.3267 87.564 86.3267 87.7365V97.2482C86.3267 97.3864 86.2917 97.5075 86.2238 97.6115C86.1548 97.7154 86.07 97.7668 85.9671 97.7668H81.7332C81.6303 97.7668 81.5364 97.7497 81.4505 97.7154C81.3645 97.6811 81.3227 97.5943 81.3227 97.4561V79.4698C81.3227 79.2105 81.4166 78.9866 81.6054 78.7958C81.7931 78.6062 82.0159 78.5103 82.2726 78.5103H85.1201C85.4447 78.5103 85.7104 78.5799 85.9151 78.7181C86.1198 78.8564 86.2917 79.0471 86.4285 79.2881L90.149 85.8448C90.2689 86.0527 90.3627 86.1555 90.4317 86.1555C90.5177 86.1555 90.6194 86.0516 90.7393 85.8448L94.4598 79.2881C94.5967 79.046 94.7674 78.8564 94.9732 78.7181C95.1779 78.5799 95.4437 78.5103 95.7682 78.5103H98.6157C98.8724 78.5103 99.0941 78.6051 99.2829 78.7958C99.4706 78.9866 99.5656 79.2105 99.5656 79.4698V97.4561C99.5656 97.5943 99.5181 97.6811 99.4243 97.7154Z" fill="#F16421"/>
<path d="M113.984 96.2121C112.82 97.4047 111.161 98.001 109.006 98.001C106.851 98.001 105.187 97.4047 104.016 96.2121C102.844 95.0196 102.258 93.2753 102.258 90.9771V89.4738C102.258 87.1756 102.844 85.4313 104.016 84.2388C105.187 83.0462 106.851 82.45 109.006 82.45C111.161 82.45 112.82 83.0462 113.984 84.2388C115.147 85.4313 115.729 87.1767 115.729 89.4738V90.9771C115.729 93.2753 115.148 95.0196 113.984 96.2121ZM110.803 89.4738C110.803 88.4366 110.651 87.7033 110.347 87.2704C110.043 86.8386 109.596 86.6227 109.006 86.6227C108.416 86.6227 107.964 86.8386 107.652 87.2704C107.34 87.7022 107.184 88.4366 107.184 89.4738V90.9771C107.184 92.0143 107.34 92.7522 107.652 93.1931C107.964 93.634 108.416 93.8545 109.006 93.8545C109.596 93.8545 110.043 93.634 110.347 93.1931C110.65 92.7522 110.803 92.0143 110.803 90.9771V89.4738Z" fill="#F16421"/>
<path d="M122.939 97.5853C122.837 97.7063 122.718 97.7669 122.582 97.7669H118.728C118.591 97.7669 118.463 97.7063 118.345 97.5853C118.226 97.4642 118.166 97.3351 118.166 97.1969V78.251C118.166 78.1128 118.226 77.9917 118.345 77.8878C118.463 77.7838 118.591 77.7324 118.728 77.7324H122.582C122.718 77.7324 122.836 77.7838 122.939 77.8878C123.041 77.9917 123.092 78.1128 123.092 78.251V97.1969C123.092 97.3351 123.041 97.4653 122.939 97.5853Z" fill="#F16421"/>
<path d="M137.846 97.6115C137.743 97.7154 137.623 97.7668 137.487 97.7668H133.92C133.783 97.7668 133.663 97.7154 133.56 97.6115C133.457 97.5075 133.406 97.3876 133.406 97.2482V96.7045C132.91 97.0677 132.355 97.3739 131.738 97.624C131.122 97.8742 130.456 97.9998 129.737 97.9998C129.223 97.9998 128.71 97.9222 128.198 97.7668C127.684 97.6115 127.214 97.3522 126.786 96.9889C126.359 96.6257 126.012 96.1516 125.747 95.5634C125.481 94.9762 125.349 94.2417 125.349 93.3599V93.0492C125.349 91.4945 125.918 90.4014 127.056 89.7708C128.193 89.1403 129.831 88.825 131.969 88.825H133.073V88.0734C133.073 87.7627 133.025 87.508 132.931 87.3092C132.838 87.1105 132.713 86.9551 132.559 86.8432C132.406 86.7312 132.226 86.6581 132.021 86.6227C131.816 86.5884 131.602 86.5713 131.38 86.5713C130.559 86.5713 129.759 86.5839 128.981 86.6102C128.203 86.6364 127.515 86.6844 126.916 86.7529H126.84C126.514 86.7529 126.352 86.5805 126.352 86.2343V83.7202C126.352 83.4266 126.523 83.2187 126.866 83.0976C127.071 83.0291 127.358 82.9594 127.725 82.8897C128.093 82.8212 128.491 82.7561 128.918 82.6956C129.346 82.635 129.79 82.5836 130.253 82.5402C130.714 82.4968 131.15 82.4751 131.561 82.4751C132.485 82.4751 133.34 82.5653 134.127 82.747C134.914 82.9286 135.594 83.2393 136.167 83.6802C136.74 84.1211 137.189 84.6957 137.514 85.4039C137.838 86.1121 138.001 87.002 138.001 88.0734V97.2482C138.001 97.3864 137.95 97.5075 137.847 97.6115H137.846ZM133.228 91.5208H131.97C131.32 91.5208 130.859 91.6339 130.585 91.8578C130.311 92.0828 130.174 92.4712 130.174 93.0241V93.2834C130.174 93.7334 130.302 94.035 130.559 94.1903C130.816 94.3457 131.123 94.4234 131.483 94.4234C131.79 94.4234 132.103 94.3845 132.419 94.3068C132.736 94.2292 133.005 94.1389 133.228 94.035V91.5208Z" fill="#F16421"/>
<path d="M79.0644 22.1435C79.484 22.1286 80.7641 22.1789 81.7423 23.2309C82.6696 24.2282 82.6866 25.4573 82.6628 25.8639C82.6594 25.9164 82.6979 25.961 82.7499 25.9656L83.6828 26.0581C83.7371 26.0638 83.7846 26.0227 83.7891 25.969C83.831 25.3762 83.805 23.7804 82.5667 22.4485C81.2459 21.0286 79.5168 20.9807 78.9864 21.0035C78.9321 21.0058 78.8903 21.0538 78.8948 21.1086L78.9649 22.0533C78.9683 22.1058 79.0124 22.1458 79.0644 22.1435Z" fill="#F16421"/>
<path d="M78.6618 24.106C78.9287 24.098 79.7215 24.1277 80.2066 24.7069C80.7483 25.3534 80.7652 26.0216 80.7743 26.3803C80.7743 26.4192 80.7765 26.4534 80.7777 26.4843L81.9074 26.4386C81.9074 26.4123 81.9051 26.3837 81.9051 26.3518C81.895 25.9246 81.8701 24.9228 81.0706 23.969C80.2349 22.9718 78.9547 22.9489 78.5669 22.9672C78.5114 22.9695 78.4707 23.0186 78.4753 23.0746L78.5646 24.0181C78.5691 24.0695 78.6121 24.1083 78.663 24.106H78.6618Z" fill="#F16421"/>
<path d="M123.908 62.9927C117.481 45.8276 105.144 35.9286 103.377 34.575C103.313 34.5259 103.238 34.5019 103.163 34.5019C103.126 34.5019 103.088 34.5076 103.052 34.519C103.017 34.5305 102.983 34.5487 102.951 34.5716L97.8807 38.3605L96.1935 39.6216V32.3773C96.1935 30.8295 94.9518 29.5741 93.4184 29.5741H80.5131V26.9057C80.5131 25.5761 79.4455 24.4978 78.1281 24.4978H78.0715C76.7552 24.4978 75.6877 25.5761 75.6877 26.9057V29.5741H74.8441C73.3118 29.5741 72.069 30.8295 72.069 32.3773V69.7207C72.069 71.2696 73.3118 72.5239 74.8441 72.5239H93.4184C94.9518 72.5239 96.1935 71.2696 96.1935 69.7207V59.0906C101.936 65.2955 105.12 70.4746 105.949 71.8933C106.064 72.0898 106.328 72.1286 106.494 71.9744L108.563 70.044C106.656 66.2379 102.713 59.3157 96.1935 51.94C94.9201 50.4995 93.5473 49.0408 92.0726 47.5844C91.2143 46.7369 90.3198 45.8893 89.3903 45.0463L88.152 43.9234L89.4898 42.9239L92.0726 40.9946V42.7L90.2972 44.0262C90.9033 44.5757 91.4959 45.1285 92.0726 45.6825C93.5394 47.0875 94.9122 48.4994 96.1935 49.9021C103.213 57.5828 107.49 64.938 109.596 69.0776C110.33 70.5214 110.802 71.5746 111.034 72.1149C111.056 72.1663 111.088 72.2086 111.126 72.2429C111.152 72.2657 111.182 72.284 111.213 72.2988C111.238 72.3102 111.263 72.3171 111.29 72.3228C111.301 72.3251 111.312 72.3251 111.322 72.3262C111.334 72.3274 111.347 72.3297 111.359 72.3297H111.364C111.371 72.3297 111.377 72.3297 111.385 72.3285C111.403 72.3285 111.422 72.3251 111.439 72.3205C111.454 72.3182 111.47 72.3125 111.486 72.3057C111.496 72.3022 111.506 72.2977 111.517 72.2931C111.534 72.2851 111.549 72.2748 111.565 72.2634L123.783 63.4107C123.914 63.3159 123.965 63.1446 123.908 62.9927ZM81.6756 31.7136C81.8339 31.5525 82.0533 31.4531 82.2964 31.4531H85.8903C86.3765 31.4531 86.7701 31.8507 86.7701 32.3418C86.7701 32.5863 86.6717 32.809 86.5122 32.969C86.3528 33.13 86.1334 33.2294 85.8903 33.2294H82.2964C81.8113 33.2294 81.4177 32.8319 81.4177 32.3418C81.4177 32.0963 81.5161 31.8735 81.6756 31.7136ZM80.1614 67.9936C80.1614 68.4482 79.795 68.8183 79.3438 68.8183H76.8559C76.4047 68.8183 76.0394 68.4482 76.0394 67.9936V65.9877C76.0394 65.532 76.4047 65.163 76.8559 65.163H79.3438C79.795 65.163 80.1614 65.532 80.1614 65.9877V67.9936ZM80.1614 62.7893C80.1614 63.2451 79.795 63.6141 79.3438 63.6141H76.8559C76.4047 63.6141 76.0394 63.2451 76.0394 62.7893V60.7835C76.0394 60.3289 76.4047 59.9588 76.8559 59.9588H79.3438C79.795 59.9588 80.1614 60.3289 80.1614 60.7835V62.7893ZM80.1614 57.5862C80.1614 58.0409 79.795 58.411 79.3438 58.411H76.8559C76.4047 58.411 76.0394 58.0409 76.0394 57.5862V55.5804C76.0394 55.1246 76.4047 54.7557 76.8559 54.7557H79.3438C79.795 54.7557 80.1614 55.1246 80.1614 55.5804V57.5862ZM86.0667 67.9936C86.0667 68.4482 85.7014 68.8183 85.2502 68.8183H82.7612C82.3111 68.8183 81.9447 68.4482 81.9447 67.9936V65.9877C81.9447 65.532 82.3111 65.163 82.7612 65.163H85.2502C85.7014 65.163 86.0667 65.532 86.0667 65.9877V67.9936ZM86.0667 62.7893C86.0667 63.2451 85.7014 63.6141 85.2502 63.6141H82.7612C82.3111 63.6141 81.9447 63.2451 81.9447 62.7893V60.7835C81.9447 60.3289 82.3111 59.9588 82.7612 59.9588H85.2502C85.7014 59.9588 86.0667 60.3289 86.0667 60.7835V62.7893ZM86.0667 57.5862C86.0667 58.0409 85.7014 58.411 85.2502 58.411H82.7612C82.3111 58.411 81.9447 58.0409 81.9447 57.5862V55.5804C81.9447 55.1246 82.3111 54.7557 82.7612 54.7557H85.2502C85.7014 54.7557 86.0667 55.1246 86.0667 55.5804V57.5862ZM92.0726 67.9936C92.0726 68.4482 91.7074 68.8183 91.2562 68.8183H88.7683C88.3171 68.8183 87.9507 68.4482 87.9507 67.9936V65.9877C87.9507 65.532 88.3171 65.163 88.7683 65.163H91.2562C91.7074 65.163 92.0726 65.532 92.0726 65.9877V67.9936ZM92.0726 62.7893C92.0726 63.2451 91.7074 63.6141 91.2562 63.6141H88.7683C88.3171 63.6141 87.9507 63.2451 87.9507 62.7893V60.7835C87.9507 60.3289 88.3171 59.9588 88.7683 59.9588H91.2562C91.7074 59.9588 92.0726 60.3289 92.0726 60.7835V62.7893ZM91.2562 54.7557C91.7074 54.7557 92.0726 55.1246 92.0726 55.5804V57.5862C92.0726 58.0409 91.7074 58.411 91.2562 58.411H88.7683C88.3171 58.411 87.9507 58.0409 87.9507 57.5862V55.5804C87.9507 55.1246 88.3171 54.7557 88.7683 54.7557H91.2562ZM92.0726 36.8618L82.2478 46.3074C82.0861 46.4639 82.1064 46.7289 82.2896 46.8591C84.5265 48.4469 86.5993 50.0769 88.5105 51.7092H76.5426C76.0711 51.7092 75.6877 51.322 75.6877 50.8456V36.0234C75.6877 35.5459 76.0711 35.1587 76.5426 35.1587H91.2166C91.6893 35.1587 92.0726 35.5459 92.0726 36.0234V36.8618ZM113.345 52.4814C113.153 53.2833 112.323 54.0029 111.942 54.2965C111.839 54.3764 111.692 54.3513 111.621 54.2417L110.361 52.3272C110.294 52.2267 110.318 52.0907 110.414 52.0199C110.69 51.8177 111.218 51.3951 111.427 50.9976C111.535 50.7942 111.558 50.5978 111.423 50.4401C110.921 49.8564 109.488 51.0878 109.588 51.6452C109.61 51.7652 109.664 52.0039 109.729 52.3158C109.96 53.4558 110.31 55.5644 109.601 56.3549C108.91 57.1248 107.364 57.4081 106.61 56.7992C106.312 56.5582 105.836 56.1767 105.382 55.6878L104.99 55.9916C104.882 56.0762 104.728 56.0556 104.644 55.9459L104.261 55.4422C104.178 55.3325 104.199 55.176 104.306 55.0926L104.688 54.7957C104.322 54.2074 104.082 53.5323 104.16 52.8012C104.307 51.8154 104.88 51.3597 105.175 51.1861C105.272 51.1289 105.396 51.1541 105.464 51.2443L106.862 53.1005C106.862 53.1005 106.865 53.1051 106.866 53.1074C106.934 53.2033 106.917 53.3381 106.825 53.4124C106.518 53.6557 105.946 54.2017 106.246 54.6791C106.302 54.7694 106.362 54.8345 106.425 54.8779C106.822 55.1578 107.323 54.6186 107.465 54.0726C107.492 53.9641 107.507 53.8544 107.502 53.7516C107.493 53.5174 107.427 53.1565 107.355 52.727C107.137 51.4362 106.845 49.5389 107.779 48.7016C108.849 47.7409 110.518 47.3811 111.75 48.6502C111.875 48.7793 111.994 48.9106 112.105 49.0431L112.618 48.6445C112.725 48.5611 112.88 48.5816 112.963 48.6902L113.347 49.1951C113.43 49.3036 113.41 49.4601 113.301 49.5446L112.76 49.9638C113.293 50.8696 113.514 51.7778 113.345 52.4814Z" fill="#F16421"/>
</g>
<defs>
<filter id="filter0_d_7_3306" x="0" y="0" width="476.827" height="127.585" filterUnits="userSpaceOnUse" color-interpolation-filters="sRGB">
<feFlood flood-opacity="0" result="BackgroundImageFix"/>
<feColorMatrix in="SourceAlpha" type="matrix" values="0 0 0 0 0 0 0 0 0 0 0 0 0 0 0 0 0 0 127 0" result="hardAlpha"/>
<feMorphology radius="2" operator="dilate" in="SourceAlpha" result="effect1_dropShadow_7_3306"/>
<feOffset dy="4"/>
<feGaussianBlur stdDeviation="3"/>
<feComposite in2="hardAlpha" operator="out"/>
<feColorMatrix type="matrix" values="0 0 0 0 0 0 0 0 0 0 0 0 0 0 0 0 0 0 0.15 0"/>
<feBlend mode="normal" in2="BackgroundImageFix" result="effect1_dropShadow_7_3306"/>
<feBlend mode="normal" in="BackgroundImageFix" in2="effect1_dropShadow_7_3306" result="BackgroundImageFix"/>
<feBlend mode="normal" in="SourceGraphic" in2="BackgroundImageFix" result="shape"/>
</filter>
<clipPath id="clip0_7_3306">
<rect width="80" height="77" fill="white" transform="translate(58 21)"/>
</clipPath>
</defs>
</svg>
