<svg width="476" height="128" viewBox="0 0 476 128" fill="none" xmlns="http://www.w3.org/2000/svg">
<g filter="url(#filter0_d_77_12)">
<rect x="8.00003" y="4" width="459.226" height="112" rx="16" fill="white" fill-opacity="0.1" shape-rendering="crispEdges"/>
</g>
<path d="M200.154 56V38.5455H206.376C207.733 38.5455 208.858 38.7926 209.751 39.2869C210.643 39.7812 211.31 40.4574 211.753 41.3153C212.197 42.1676 212.418 43.1278 212.418 44.196C212.418 45.2699 212.194 46.2358 211.745 47.0938C211.302 47.946 210.631 48.6222 209.733 49.1222C208.841 49.6165 207.719 49.8636 206.367 49.8636H202.089V47.6307H206.128C206.986 47.6307 207.682 47.483 208.216 47.1875C208.751 46.8864 209.143 46.4773 209.393 45.9602C209.643 45.4432 209.768 44.8551 209.768 44.196C209.768 43.5369 209.643 42.9517 209.393 42.4403C209.143 41.929 208.748 41.5284 208.208 41.2386C207.674 40.9489 206.969 40.804 206.094 40.804H202.787V56H200.154ZM220.651 56.2642C219.424 56.2642 218.353 55.983 217.438 55.4205C216.523 54.858 215.813 54.071 215.307 53.0597C214.802 52.0483 214.549 50.8665 214.549 49.5142C214.549 48.1562 214.802 46.9687 215.307 45.9517C215.813 44.9347 216.523 44.1449 217.438 43.5824C218.353 43.0199 219.424 42.7386 220.651 42.7386C221.878 42.7386 222.949 43.0199 223.864 43.5824C224.779 44.1449 225.489 44.9347 225.995 45.9517C226.501 46.9687 226.753 48.1562 226.753 49.5142C226.753 50.8665 226.501 52.0483 225.995 53.0597C225.489 54.071 224.779 54.858 223.864 55.4205C222.949 55.983 221.878 56.2642 220.651 56.2642ZM220.66 54.125C221.455 54.125 222.114 53.9148 222.637 53.4943C223.16 53.0739 223.546 52.5142 223.796 51.8153C224.052 51.1165 224.18 50.3466 224.18 49.5057C224.18 48.6705 224.052 47.9034 223.796 47.2045C223.546 46.5 223.16 45.9347 222.637 45.5085C222.114 45.0824 221.455 44.8693 220.66 44.8693C219.858 44.8693 219.194 45.0824 218.665 45.5085C218.143 45.9347 217.753 46.5 217.498 47.2045C217.248 47.9034 217.123 48.6705 217.123 49.5057C217.123 50.3466 217.248 51.1165 217.498 51.8153C217.753 52.5142 218.143 53.0739 218.665 53.4943C219.194 53.9148 219.858 54.125 220.66 54.125ZM229.598 56V42.9091H232.061V44.9886H232.197C232.436 44.2841 232.856 43.7301 233.459 43.3267C234.067 42.9176 234.754 42.7131 235.521 42.7131C235.68 42.7131 235.868 42.7187 236.084 42.7301C236.305 42.7415 236.479 42.7557 236.604 42.7727V45.2102C236.501 45.1818 236.319 45.1506 236.058 45.1165C235.797 45.0767 235.535 45.0568 235.274 45.0568C234.672 45.0568 234.135 45.1847 233.663 45.4403C233.197 45.6903 232.828 46.0398 232.555 46.4886C232.282 46.9318 232.146 47.4375 232.146 48.0057V56H229.598Z" fill="black"/>
<path d="M244.078 56L246.976 38.5455H258.328L257.885 41.196H249.694L248.91 45.9347H256.513L256.069 48.5852H248.467L247.683 53.3494H255.942L255.498 56H244.078ZM262.883 48.3295L261.622 56H258.528L260.71 42.9091H263.667L263.292 45.1335H263.454C263.863 44.4006 264.437 43.8182 265.176 43.3864C265.915 42.9545 266.775 42.7386 267.758 42.7386C268.65 42.7386 269.4 42.9318 270.008 43.3182C270.616 43.6989 271.048 44.2585 271.304 44.9972C271.559 45.7301 271.599 46.6193 271.423 47.6648L270.025 56H266.94L268.244 48.142C268.392 47.2727 268.281 46.5909 267.912 46.0966C267.548 45.5966 266.963 45.3466 266.156 45.3466C265.616 45.3466 265.119 45.4659 264.665 45.7045C264.21 45.9375 263.827 46.2756 263.514 46.7188C263.207 47.1619 262.997 47.6989 262.883 48.3295ZM281.863 42.9091L281.463 45.2955H273.946L274.338 42.9091H281.863ZM276.707 39.7727H279.792L277.747 52.0625C277.684 52.4773 277.696 52.7955 277.781 53.017C277.872 53.233 278.017 53.3807 278.216 53.4602C278.42 53.5398 278.65 53.5795 278.906 53.5795C279.094 53.5795 279.27 53.5653 279.434 53.5369C279.599 53.5028 279.73 53.4773 279.827 53.4602L279.963 55.8722C279.775 55.929 279.523 55.9915 279.204 56.0597C278.892 56.1278 278.517 56.1676 278.079 56.179C277.295 56.196 276.613 56.0767 276.034 55.821C275.46 55.5597 275.04 55.1591 274.773 54.6193C274.511 54.0739 274.452 53.392 274.594 52.5739L276.707 39.7727ZM282.262 56L284.444 42.9091H287.529L285.347 56H282.262ZM286.438 41.0341C285.944 41.0341 285.535 40.8693 285.211 40.5398C284.887 40.2102 284.745 39.8153 284.785 39.3551C284.824 38.8949 285.032 38.5 285.407 38.1705C285.787 37.8409 286.222 37.6761 286.711 37.6761C287.205 37.6761 287.611 37.8409 287.93 38.1705C288.253 38.5 288.395 38.8949 288.356 39.3551C288.322 39.8153 288.114 40.2102 287.733 40.5398C287.358 40.8693 286.927 41.0341 286.438 41.0341ZM293.361 56.2301C292.332 56.2301 291.454 55.9659 290.727 55.4375C290 54.9091 289.483 54.142 289.176 53.1364C288.875 52.1307 288.841 50.9091 289.074 49.4716C289.318 48.017 289.764 46.7898 290.412 45.7898C291.059 44.7841 291.832 44.0256 292.73 43.5142C293.633 42.9972 294.588 42.7386 295.594 42.7386C296.366 42.7386 296.977 42.8693 297.426 43.1307C297.881 43.3864 298.221 43.696 298.449 44.0597C298.676 44.4176 298.844 44.7557 298.952 45.0739H299.079L300.162 38.5455H303.256L300.358 56H297.324L297.673 53.9375H297.486C297.27 54.2557 296.983 54.5937 296.625 54.9517C296.267 55.304 295.821 55.6051 295.287 55.8551C294.753 56.1051 294.111 56.2301 293.361 56.2301ZM294.588 53.6989C295.247 53.6989 295.838 53.5227 296.361 53.1705C296.889 52.8125 297.329 52.3153 297.682 51.679C298.034 51.0426 298.281 50.3011 298.423 49.4545C298.565 48.608 298.565 47.8722 298.423 47.2472C298.281 46.6222 298.006 46.1364 297.596 45.7898C297.187 45.4432 296.65 45.2699 295.986 45.2699C295.304 45.2699 294.704 45.4489 294.187 45.8068C293.676 46.1648 293.256 46.6591 292.926 47.2898C292.596 47.9205 292.363 48.642 292.227 49.4545C292.091 50.2727 292.082 51.0028 292.202 51.6449C292.327 52.2812 292.585 52.7841 292.977 53.1534C293.375 53.517 293.912 53.6989 294.588 53.6989ZM307.393 56.2642C306.564 56.2642 305.842 56.1165 305.229 55.821C304.615 55.5199 304.163 55.0767 303.873 54.4915C303.589 53.9062 303.518 53.1847 303.66 52.3267C303.785 51.5881 304.024 50.9773 304.376 50.4943C304.734 50.0114 305.172 49.625 305.689 49.3352C306.211 49.0398 306.78 48.8182 307.393 48.6705C308.013 48.5227 308.643 48.4148 309.285 48.3466C310.069 48.267 310.703 48.1932 311.186 48.125C311.675 48.0568 312.041 47.9545 312.285 47.8182C312.53 47.6761 312.677 47.4602 312.729 47.1705V47.1193C312.831 46.4773 312.729 45.9801 312.422 45.6278C312.115 45.2756 311.604 45.0994 310.888 45.0994C310.138 45.0994 309.507 45.2642 308.996 45.5938C308.484 45.9233 308.112 46.3125 307.879 46.7614L305.084 46.3523C305.436 45.5568 305.919 44.892 306.532 44.358C307.146 43.8182 307.854 43.4148 308.655 43.1477C309.461 42.875 310.322 42.7386 311.237 42.7386C311.862 42.7386 312.473 42.8125 313.069 42.9602C313.672 43.108 314.203 43.3523 314.663 43.6932C315.129 44.0284 315.47 44.4858 315.686 45.0653C315.907 45.6449 315.944 46.3693 315.797 47.2386L314.339 56H311.373L311.68 54.2017H311.578C311.334 54.5653 311.015 54.9062 310.623 55.2244C310.231 55.5369 309.765 55.7898 309.226 55.983C308.686 56.1705 308.075 56.2642 307.393 56.2642ZM308.561 53.9972C309.18 53.9972 309.737 53.875 310.231 53.6307C310.726 53.3807 311.132 53.0511 311.45 52.642C311.768 52.233 311.967 51.7869 312.047 51.304L312.302 49.7614C312.189 49.8409 312.013 49.9148 311.774 49.983C311.535 50.0511 311.268 50.1108 310.973 50.1619C310.683 50.2131 310.396 50.2585 310.112 50.2983C309.828 50.3381 309.584 50.3722 309.379 50.4006C308.907 50.4631 308.476 50.5653 308.084 50.7074C307.697 50.8494 307.376 51.0483 307.121 51.304C306.871 51.554 306.714 51.8778 306.652 52.2756C306.561 52.8381 306.694 53.267 307.052 53.5625C307.41 53.8523 307.913 53.9972 308.561 53.9972ZM322.282 56.2301C321.254 56.2301 320.376 55.9659 319.649 55.4375C318.922 54.9091 318.405 54.142 318.098 53.1364C317.797 52.1307 317.763 50.9091 317.996 49.4716C318.24 48.017 318.686 46.7898 319.334 45.7898C319.981 44.7841 320.754 44.0256 321.652 43.5142C322.555 42.9972 323.51 42.7386 324.515 42.7386C325.288 42.7386 325.899 42.8693 326.348 43.1307C326.802 43.3864 327.143 43.696 327.371 44.0597C327.598 44.4176 327.765 44.7557 327.873 45.0739H328.001L329.084 38.5455H332.177L329.28 56H326.246L326.595 53.9375H326.407C326.192 54.2557 325.905 54.5937 325.547 54.9517C325.189 55.304 324.743 55.6051 324.209 55.8551C323.675 56.1051 323.032 56.2301 322.282 56.2301ZM323.51 53.6989C324.169 53.6989 324.76 53.5227 325.282 53.1705C325.811 52.8125 326.251 52.3153 326.604 51.679C326.956 51.0426 327.203 50.3011 327.345 49.4545C327.487 48.608 327.487 47.8722 327.345 47.2472C327.203 46.6222 326.927 46.1364 326.518 45.7898C326.109 45.4432 325.572 45.2699 324.907 45.2699C324.226 45.2699 323.626 45.4489 323.109 45.8068C322.598 46.1648 322.177 46.6591 321.848 47.2898C321.518 47.9205 321.285 48.642 321.149 49.4545C321.013 50.2727 321.004 51.0028 321.123 51.6449C321.248 52.2812 321.507 52.7841 321.899 53.1534C322.297 53.517 322.834 53.6989 323.51 53.6989ZM338.344 56.2557C337.031 56.2557 335.946 55.983 335.088 55.4375C334.23 54.8864 333.628 54.108 333.281 53.1023C332.94 52.0909 332.883 50.9006 333.111 49.5312C333.332 48.1847 333.784 47.0028 334.466 45.9858C335.148 44.9631 336 44.1676 337.023 43.5994C338.051 43.0256 339.187 42.7386 340.432 42.7386C341.238 42.7386 341.98 42.8693 342.656 43.1307C343.332 43.3864 343.903 43.7841 344.369 44.3239C344.835 44.8636 345.156 45.5511 345.332 46.3864C345.508 47.2159 345.5 48.2045 345.307 49.3523L345.162 50.2983H334.423L334.756 48.2188H342.528C342.631 47.6278 342.596 47.1023 342.426 46.642C342.256 46.1761 341.971 45.8097 341.574 45.5426C341.176 45.2756 340.679 45.142 340.082 45.142C339.474 45.142 338.906 45.2983 338.378 45.6108C337.855 45.9176 337.415 46.3153 337.057 46.804C336.699 47.2926 336.471 47.8068 336.375 48.3466L336.025 50.3409C335.9 51.1591 335.929 51.8267 336.111 52.3438C336.292 52.8608 336.611 53.2415 337.065 53.4858C337.52 53.7301 338.094 53.8523 338.787 53.8523C339.241 53.8523 339.662 53.7898 340.048 53.6648C340.434 53.5398 340.778 53.3523 341.079 53.1023C341.386 52.8466 341.642 52.5341 341.846 52.1648L344.667 52.4886C344.355 53.25 343.898 53.9148 343.295 54.483C342.693 55.0455 341.971 55.483 341.131 55.7955C340.295 56.1023 339.366 56.2557 338.344 56.2557ZM358.547 56.2557C357.234 56.2557 356.149 55.983 355.291 55.4375C354.433 54.8864 353.831 54.108 353.484 53.1023C353.143 52.0909 353.086 50.9006 353.314 49.5312C353.535 48.1847 353.987 47.0028 354.669 45.9858C355.351 44.9631 356.203 44.1676 357.226 43.5994C358.254 43.0256 359.39 42.7386 360.635 42.7386C361.442 42.7386 362.183 42.8693 362.859 43.1307C363.535 43.3864 364.106 43.7841 364.572 44.3239C365.038 44.8636 365.359 45.5511 365.535 46.3864C365.711 47.2159 365.703 48.2045 365.51 49.3523L365.365 50.2983H354.626L354.959 48.2188H362.731C362.834 47.6278 362.8 47.1023 362.629 46.642C362.459 46.1761 362.175 45.8097 361.777 45.5426C361.379 45.2756 360.882 45.142 360.285 45.142C359.677 45.142 359.109 45.2983 358.581 45.6108C358.058 45.9176 357.618 46.3153 357.26 46.804C356.902 47.2926 356.675 47.8068 356.578 48.3466L356.229 50.3409C356.104 51.1591 356.132 51.8267 356.314 52.3438C356.496 52.8608 356.814 53.2415 357.268 53.4858C357.723 53.7301 358.297 53.8523 358.99 53.8523C359.444 53.8523 359.865 53.7898 360.251 53.6648C360.638 53.5398 360.981 53.3523 361.282 53.1023C361.589 52.8466 361.845 52.5341 362.05 52.1648L364.871 52.4886C364.558 53.25 364.101 53.9148 363.498 54.483C362.896 55.0455 362.175 55.483 361.334 55.7955C360.498 56.1023 359.569 56.2557 358.547 56.2557ZM198.867 84L201.765 66.5455H208.31C209.651 66.5455 210.739 66.7784 211.574 67.2443C212.41 67.7102 212.992 68.3636 213.322 69.2045C213.651 70.0398 213.722 71.0142 213.535 72.1278C213.353 73.2415 212.955 74.2102 212.341 75.0341C211.733 75.8523 210.93 76.4858 209.93 76.9347C208.935 77.3835 207.768 77.608 206.427 77.608H201.765L202.208 74.983H206.452C207.236 74.983 207.895 74.875 208.43 74.6591C208.964 74.4375 209.384 74.1165 209.691 73.696C210.003 73.2699 210.211 72.7472 210.313 72.1278C210.41 71.5085 210.373 70.9801 210.202 70.5426C210.037 70.0994 209.722 69.7642 209.256 69.5369C208.796 69.304 208.174 69.1875 207.39 69.1875H204.492L202.029 84H198.867ZM209.197 76.0909L212.205 84H208.677L205.745 76.0909H209.197ZM220.008 84.2557C218.695 84.2557 217.61 83.983 216.752 83.4375C215.894 82.8864 215.292 82.108 214.945 81.1023C214.604 80.0909 214.547 78.9006 214.775 77.5312C214.996 76.1847 215.448 75.0028 216.13 73.9858C216.812 72.9631 217.664 72.1676 218.687 71.5994C219.715 71.0256 220.851 70.7386 222.096 70.7386C222.903 70.7386 223.644 70.8693 224.32 71.1307C224.996 71.3864 225.567 71.7841 226.033 72.3239C226.499 72.8636 226.82 73.5511 226.996 74.3864C227.172 75.2159 227.164 76.2045 226.971 77.3523L226.826 78.2983H216.087L216.42 76.2188H224.192C224.295 75.6278 224.26 75.1023 224.09 74.642C223.92 74.1761 223.635 73.8097 223.238 73.5426C222.84 73.2756 222.343 73.142 221.746 73.142C221.138 73.142 220.57 73.2983 220.042 73.6108C219.519 73.9176 219.079 74.3153 218.721 74.804C218.363 75.2926 218.135 75.8068 218.039 76.3466L217.689 78.3409C217.564 79.1591 217.593 79.8267 217.775 80.3438C217.956 80.8608 218.275 81.2415 218.729 81.4858C219.184 81.7301 219.758 81.8523 220.451 81.8523C220.905 81.8523 221.326 81.7898 221.712 81.6648C222.099 81.5398 222.442 81.3523 222.743 81.1023C223.05 80.8466 223.306 80.5341 223.51 80.1648L226.331 80.4886C226.019 81.25 225.562 81.9148 224.959 82.483C224.357 83.0455 223.635 83.483 222.795 83.7955C221.959 84.1023 221.03 84.2557 220.008 84.2557ZM237.317 70.9091L236.917 73.2955H229.178L229.579 70.9091H237.317ZM229.323 84L231.718 69.6733C231.854 68.7926 232.153 68.0597 232.613 67.4744C233.079 66.8892 233.644 66.4517 234.309 66.1619C234.979 65.8722 235.692 65.7273 236.448 65.7273C236.988 65.7273 237.456 65.7699 237.854 65.8551C238.252 65.9403 238.542 66.017 238.724 66.0852L237.726 68.4716C237.596 68.4318 237.437 68.392 237.249 68.3523C237.067 68.3068 236.854 68.2841 236.61 68.2841C236.036 68.2841 235.607 68.4233 235.323 68.7017C235.039 68.9744 234.851 69.3665 234.76 69.8778L232.417 84H229.323ZM242.836 84.2557C241.523 84.2557 240.438 83.983 239.58 83.4375C238.722 82.8864 238.12 82.108 237.773 81.1023C237.432 80.0909 237.376 78.9006 237.603 77.5312C237.824 76.1847 238.276 75.0028 238.958 73.9858C239.64 72.9631 240.492 72.1676 241.515 71.5994C242.543 71.0256 243.68 70.7386 244.924 70.7386C245.731 70.7386 246.472 70.8693 247.148 71.1307C247.824 71.3864 248.395 71.7841 248.861 72.3239C249.327 72.8636 249.648 73.5511 249.824 74.3864C250.001 75.2159 249.992 76.2045 249.799 77.3523L249.654 78.2983H238.915L239.248 76.2188H247.02C247.123 75.6278 247.089 75.1023 246.918 74.642C246.748 74.1761 246.464 73.8097 246.066 73.5426C245.668 73.2756 245.171 73.142 244.574 73.142C243.966 73.142 243.398 73.2983 242.87 73.6108C242.347 73.9176 241.907 74.3153 241.549 74.804C241.191 75.2926 240.964 75.8068 240.867 76.3466L240.518 78.3409C240.393 79.1591 240.421 79.8267 240.603 80.3438C240.785 80.8608 241.103 81.2415 241.557 81.4858C242.012 81.7301 242.586 81.8523 243.279 81.8523C243.733 81.8523 244.154 81.7898 244.54 81.6648C244.927 81.5398 245.27 81.3523 245.572 81.1023C245.878 80.8466 246.134 80.5341 246.339 80.1648L249.16 80.4886C248.847 81.25 248.39 81.9148 247.787 82.483C247.185 83.0455 246.464 83.483 245.623 83.7955C244.787 84.1023 243.858 84.2557 242.836 84.2557ZM251.324 84L253.506 70.9091H256.498L256.131 73.0909H256.268C256.626 72.3352 257.131 71.7528 257.785 71.3438C258.444 70.929 259.148 70.7216 259.898 70.7216C260.074 70.7216 260.265 70.7301 260.469 70.7472C260.674 70.7585 260.85 70.7784 260.998 70.8068L260.52 73.6449C260.39 73.5994 260.185 73.5597 259.907 73.5256C259.634 73.4858 259.364 73.4659 259.097 73.4659C258.535 73.4659 258.012 73.5881 257.529 73.8324C257.052 74.071 256.648 74.4034 256.319 74.8295C255.989 75.2557 255.776 75.7472 255.68 76.304L254.41 84H251.324ZM266.086 84.2557C264.773 84.2557 263.688 83.983 262.83 83.4375C261.972 82.8864 261.37 82.108 261.023 81.1023C260.682 80.0909 260.626 78.9006 260.853 77.5312C261.074 76.1847 261.526 75.0028 262.208 73.9858C262.89 72.9631 263.742 72.1676 264.765 71.5994C265.793 71.0256 266.93 70.7386 268.174 70.7386C268.981 70.7386 269.722 70.8693 270.398 71.1307C271.074 71.3864 271.645 71.7841 272.111 72.3239C272.577 72.8636 272.898 73.5511 273.074 74.3864C273.251 75.2159 273.242 76.2045 273.049 77.3523L272.904 78.2983H262.165L262.498 76.2188H270.27C270.373 75.6278 270.339 75.1023 270.168 74.642C269.998 74.1761 269.714 73.8097 269.316 73.5426C268.918 73.2756 268.421 73.142 267.824 73.142C267.216 73.142 266.648 73.2983 266.12 73.6108C265.597 73.9176 265.157 74.3153 264.799 74.804C264.441 75.2926 264.214 75.8068 264.117 76.3466L263.768 78.3409C263.643 79.1591 263.671 79.8267 263.853 80.3438C264.035 80.8608 264.353 81.2415 264.807 81.4858C265.262 81.7301 265.836 81.8523 266.529 81.8523C266.983 81.8523 267.404 81.7898 267.79 81.6648C268.177 81.5398 268.52 81.3523 268.822 81.1023C269.128 80.8466 269.384 80.5341 269.589 80.1648L272.41 80.4886C272.097 81.25 271.64 81.9148 271.037 82.483C270.435 83.0455 269.714 83.483 268.873 83.7955C268.037 84.1023 267.108 84.2557 266.086 84.2557ZM270.023 69.3409L268.651 67.1591L266.563 69.3409H263.861L263.878 69.2216L267.705 65.5398H270.117L272.742 69.2216L272.725 69.3409H270.023ZM278.938 76.3295L277.677 84H274.583L276.765 70.9091H279.722L279.347 73.1335H279.509C279.918 72.4006 280.492 71.8182 281.231 71.3864C281.969 70.9545 282.83 70.7386 283.813 70.7386C284.705 70.7386 285.455 70.9318 286.063 71.3182C286.671 71.6989 287.103 72.2585 287.358 72.9972C287.614 73.7301 287.654 74.6193 287.478 75.6648L286.08 84H282.995L284.299 76.142C284.447 75.2727 284.336 74.5909 283.966 74.0966C283.603 73.5966 283.018 73.3466 282.211 73.3466C281.671 73.3466 281.174 73.4659 280.719 73.7045C280.265 73.9375 279.881 74.2756 279.569 74.7188C279.262 75.1619 279.052 75.6989 278.938 76.3295ZM294.876 84.2557C293.569 84.2557 292.495 83.9688 291.654 83.3949C290.813 82.821 290.225 82.0284 289.89 81.017C289.56 80 289.506 78.8295 289.728 77.5057C289.944 76.1761 290.39 75.0028 291.066 73.9858C291.748 72.9631 292.606 72.1676 293.64 71.5994C294.674 71.0256 295.83 70.7386 297.108 70.7386C298.171 70.7386 299.077 70.9347 299.827 71.3267C300.583 71.7131 301.145 72.2614 301.515 72.9716C301.89 73.6761 302.035 74.5 301.949 75.4432H298.992C298.981 74.8125 298.785 74.2869 298.404 73.8665C298.023 73.4403 297.466 73.2273 296.733 73.2273C296.097 73.2273 295.512 73.3977 294.978 73.7386C294.444 74.0739 293.992 74.5568 293.623 75.1875C293.253 75.8182 292.998 76.5739 292.856 77.4545C292.708 78.3466 292.711 79.1136 292.864 79.7557C293.023 80.392 293.31 80.8835 293.725 81.2301C294.145 81.571 294.677 81.7415 295.319 81.7415C295.773 81.7415 296.197 81.6562 296.589 81.4858C296.981 81.3097 297.324 81.0568 297.62 80.7273C297.921 80.3977 298.157 79.9972 298.327 79.5256H301.276C301.043 80.4517 300.628 81.2727 300.032 81.9886C299.441 82.6989 298.708 83.2557 297.833 83.6591C296.958 84.0568 295.972 84.2557 294.876 84.2557ZM303.051 84L305.233 70.9091H308.318L306.136 84H303.051ZM307.227 69.0341C306.733 69.0341 306.324 68.8693 306 68.5398C305.676 68.2102 305.534 67.8153 305.574 67.3551C305.613 66.8949 305.821 66.5 306.196 66.1705C306.577 65.8409 307.011 65.6761 307.5 65.6761C307.994 65.6761 308.4 65.8409 308.719 66.1705C309.042 66.5 309.184 66.8949 309.145 67.3551C309.111 67.8153 308.903 68.2102 308.523 68.5398C308.148 68.8693 307.716 69.0341 307.227 69.0341ZM313.042 84.2642C312.212 84.2642 311.491 84.1165 310.877 83.821C310.263 83.5199 309.812 83.0767 309.522 82.4915C309.238 81.9062 309.167 81.1847 309.309 80.3267C309.434 79.5881 309.672 78.9773 310.025 78.4943C310.383 78.0114 310.82 77.625 311.337 77.3352C311.86 77.0398 312.428 76.8182 313.042 76.6705C313.661 76.5227 314.292 76.4148 314.934 76.3466C315.718 76.267 316.351 76.1932 316.834 76.125C317.323 76.0568 317.689 75.9545 317.934 75.8182C318.178 75.6761 318.326 75.4602 318.377 75.1705V75.1193C318.479 74.4773 318.377 73.9801 318.07 73.6278C317.763 73.2756 317.252 73.0994 316.536 73.0994C315.786 73.0994 315.155 73.2642 314.644 73.5938C314.133 73.9233 313.76 74.3125 313.528 74.7614L310.732 74.3523C311.084 73.5568 311.567 72.892 312.181 72.358C312.795 71.8182 313.502 71.4148 314.303 71.1477C315.11 70.875 315.971 70.7386 316.885 70.7386C317.51 70.7386 318.121 70.8125 318.718 70.9602C319.32 71.108 319.851 71.3523 320.312 71.6932C320.778 72.0284 321.118 72.4858 321.334 73.0653C321.556 73.6449 321.593 74.3693 321.445 75.2386L319.988 84H317.022L317.329 82.2017H317.226C316.982 82.5653 316.664 82.9062 316.272 83.2244C315.88 83.5369 315.414 83.7898 314.874 83.983C314.334 84.1705 313.724 84.2642 313.042 84.2642ZM314.209 81.9972C314.829 81.9972 315.385 81.875 315.88 81.6307C316.374 81.3807 316.78 81.0511 317.099 80.642C317.417 80.233 317.616 79.7869 317.695 79.304L317.951 77.7614C317.837 77.8409 317.661 77.9148 317.422 77.983C317.184 78.0511 316.917 78.1108 316.621 78.1619C316.331 78.2131 316.045 78.2585 315.76 78.2983C315.476 78.3381 315.232 78.3722 315.028 78.4006C314.556 78.4631 314.124 78.5653 313.732 78.7074C313.346 78.8494 313.025 79.0483 312.769 79.304C312.519 79.554 312.363 79.8778 312.3 80.2756C312.209 80.8381 312.343 81.267 312.701 81.5625C313.059 81.8523 313.562 81.9972 314.209 81.9972Z" fill="#6DC135"/>
<path fill-rule="evenodd" clip-rule="evenodd" d="M81.8527 34.5495C77.7832 34.5495 74.4843 37.5604 74.4843 41.2745V81.6245C74.4843 85.3387 77.7832 88.3495 81.8527 88.3495H111.326C115.396 88.3495 118.695 85.3387 118.695 81.6245V50.7851C118.695 49.8933 118.306 49.038 117.616 48.4074L103.511 35.5343C102.82 34.9037 101.883 34.5495 100.906 34.5495H81.8527ZM67.1159 41.2745C67.1159 33.8462 73.7138 27.8245 81.8527 27.8245H100.906C103.837 27.8245 106.648 28.8872 108.721 30.779L122.826 43.6521C124.898 45.5439 126.063 48.1097 126.063 50.7851V81.6245C126.063 89.0526 119.465 95.0745 111.326 95.0745H81.8527C73.7138 95.0745 67.1159 89.0526 67.1159 81.6245V41.2745Z" fill="black"/>
<path fill-rule="evenodd" clip-rule="evenodd" d="M103.958 31.187V37.912C103.958 43.4832 108.906 47.9995 115.01 47.9995H122.379V54.7245H115.01C104.837 54.7245 96.5894 47.1973 96.5894 37.912V31.187H103.958Z" fill="black"/>
<defs>
<filter id="filter0_d_77_12" x="3.05176e-05" y="0" width="475.226" height="128" filterUnits="userSpaceOnUse" color-interpolation-filters="sRGB">
<feFlood flood-opacity="0" result="BackgroundImageFix"/>
<feColorMatrix in="SourceAlpha" type="matrix" values="0 0 0 0 0 0 0 0 0 0 0 0 0 0 0 0 0 0 127 0" result="hardAlpha"/>
<feMorphology radius="2" operator="dilate" in="SourceAlpha" result="effect1_dropShadow_77_12"/>
<feOffset dy="4"/>
<feGaussianBlur stdDeviation="3"/>
<feComposite in2="hardAlpha" operator="out"/>
<feColorMatrix type="matrix" values="0 0 0 0 0 0 0 0 0 0 0 0 0 0 0 0 0 0 0.15 0"/>
<feBlend mode="normal" in2="BackgroundImageFix" result="effect1_dropShadow_77_12"/>
<feBlend mode="normal" in="BackgroundImageFix" in2="effect1_dropShadow_77_12" result="BackgroundImageFix"/>
<feBlend mode="normal" in="SourceGraphic" in2="BackgroundImageFix" result="shape"/>
</filter>
</defs>
</svg>
