<svg width="477" height="128" viewBox="0 0 477 128" fill="none" xmlns="http://www.w3.org/2000/svg">
<g filter="url(#filter0_d_77_13)">
<rect x="8" y="4" width="460.249" height="112" rx="16" fill="white" fill-opacity="0.1" shape-rendering="crispEdges"/>
</g>
<path d="M202.702 52.5455L207.56 66.7614H207.756L212.614 52.5455H215.461L209.18 70H206.137L199.856 52.5455H202.702ZM217.777 70V56.9091H220.325V70H217.777ZM219.064 54.8892C218.621 54.8892 218.24 54.7415 217.922 54.446C217.609 54.1449 217.453 53.7869 217.453 53.3722C217.453 52.9517 217.609 52.5937 217.922 52.2983C218.24 51.9972 218.621 51.8466 219.064 51.8466C219.507 51.8466 219.885 51.9972 220.197 52.2983C220.515 52.5937 220.675 52.9517 220.675 53.3722C220.675 53.7869 220.515 54.1449 220.197 54.446C219.885 54.7415 219.507 54.8892 219.064 54.8892ZM227.563 70.2898C226.734 70.2898 225.984 70.1364 225.313 69.8295C224.643 69.517 224.111 69.0653 223.719 68.4744C223.333 67.8835 223.14 67.1591 223.14 66.3011C223.14 65.5625 223.282 64.9545 223.566 64.4773C223.85 64 224.234 63.6222 224.716 63.3438C225.199 63.0653 225.739 62.8551 226.336 62.7131C226.932 62.571 227.54 62.4631 228.16 62.3892C228.944 62.2983 229.58 62.2244 230.069 62.1676C230.557 62.1051 230.913 62.0057 231.134 61.8693C231.356 61.733 231.466 61.5114 231.466 61.2045V61.1449C231.466 60.4006 231.256 59.8239 230.836 59.4148C230.421 59.0057 229.802 58.8011 228.978 58.8011C228.12 58.8011 227.444 58.9915 226.949 59.3722C226.461 59.7472 226.123 60.1648 225.935 60.625L223.54 60.0795C223.824 59.2841 224.239 58.642 224.785 58.1534C225.336 57.6591 225.969 57.3011 226.685 57.0795C227.401 56.8523 228.154 56.7386 228.944 56.7386C229.466 56.7386 230.02 56.8011 230.606 56.9261C231.197 57.0455 231.748 57.267 232.259 57.5909C232.776 57.9148 233.199 58.3778 233.529 58.9801C233.859 59.5767 234.023 60.3523 234.023 61.3068V70H231.535V68.2102H231.432C231.268 68.5398 231.02 68.8636 230.691 69.1818C230.361 69.5 229.938 69.7642 229.421 69.9744C228.904 70.1847 228.285 70.2898 227.563 70.2898ZM228.117 68.2443C228.822 68.2443 229.424 68.1051 229.924 67.8267C230.43 67.5483 230.813 67.1847 231.074 66.7358C231.341 66.2812 231.475 65.7955 231.475 65.2784V63.5909C231.384 63.6818 231.208 63.767 230.947 63.8466C230.691 63.9205 230.398 63.9858 230.069 64.0426C229.739 64.0937 229.418 64.142 229.106 64.1875C228.793 64.2273 228.532 64.2614 228.322 64.2898C227.827 64.3523 227.376 64.4574 226.966 64.6051C226.563 64.7528 226.239 64.9659 225.995 65.2443C225.756 65.517 225.637 65.8807 225.637 66.3352C225.637 66.9659 225.87 67.4432 226.336 67.767C226.802 68.0852 227.395 68.2443 228.117 68.2443Z" fill="black"/>
<path d="M242.687 70L245.584 52.5455H248.746L246.292 67.3494H253.979L253.536 70H242.687ZM256.144 70L258.326 56.9091H261.411L259.229 70H256.144ZM260.32 55.0341C259.826 55.0341 259.417 54.8693 259.093 54.5398C258.769 54.2102 258.627 53.8153 258.667 53.3551C258.707 52.8949 258.914 52.5 259.289 52.1705C259.67 51.8409 260.104 51.6761 260.593 51.6761C261.087 51.6761 261.493 51.8409 261.812 52.1705C262.136 52.5 262.278 52.8949 262.238 53.3551C262.204 53.8153 261.996 54.2102 261.616 54.5398C261.241 54.8693 260.809 55.0341 260.32 55.0341ZM266.765 62.3295L265.504 70H262.41L264.592 56.9091H267.55L267.175 59.1335H267.337C267.746 58.4006 268.319 57.8182 269.058 57.3864C269.797 56.9545 270.658 56.7386 271.64 56.7386C272.533 56.7386 273.283 56.9318 273.89 57.3182C274.498 57.6989 274.93 58.2585 275.186 58.9972C275.442 59.7301 275.481 60.6193 275.305 61.6648L273.908 70H270.822L272.126 62.142C272.274 61.2727 272.163 60.5909 271.794 60.0966C271.43 59.5966 270.845 59.3466 270.038 59.3466C269.498 59.3466 269.001 59.4659 268.547 59.7045C268.092 59.9375 267.709 60.2756 267.396 60.7188C267.089 61.1619 266.879 61.6989 266.765 62.3295ZM280.513 65.892L281.118 62.1676H281.612L287.212 56.9091H290.817L283.964 63.3523H283.334L280.513 65.892ZM277.027 70L279.925 52.5455H283.01L280.112 70H277.027ZM285.243 70L281.97 64.0426L284.416 61.8693L288.933 70H285.243Z" fill="#6DC135"/>
<path d="M104.315 34.481L90.3148 47.2583C90.2878 47.2829 90.271 47.3127 90.244 47.3375C93.6929 46.879 97.236 47.1934 100.52 48.3622L110.022 39.6902C113.17 36.8173 118.289 36.8173 121.437 39.6902C124.585 42.5629 124.585 47.2356 121.437 50.1083C120.9 50.5984 106.628 63.6246 107.437 62.8856C104.265 65.7815 99.0595 65.6576 96.0223 62.8856C94.4492 61.4499 91.8881 61.4499 90.3148 62.8856L87.8645 65.1219C88.5442 66.1758 89.3233 67.19 90.3148 68.0949C96.2932 73.5513 106.584 73.9871 113.058 68.1595C113.085 68.1349 113.118 68.1195 113.145 68.0949L127.145 55.3176C133.449 49.5636 133.449 40.235 127.145 34.481C120.84 28.727 110.619 28.727 104.315 34.481Z" fill="black"/>
<path d="M94.3781 74.8043L84.8458 83.5043C81.6982 86.3773 76.5786 86.3773 73.431 83.5043C70.2832 80.6314 70.2832 75.959 73.431 73.086C73.9678 72.5961 88.2707 59.5421 87.4612 60.2809C90.6339 57.3852 95.8391 57.5089 98.8763 60.2809C100.449 61.7168 103.011 61.7168 104.584 60.2809L107.034 58.0445C106.354 56.9906 105.575 55.9764 104.584 55.0718C98.6168 49.6256 88.3338 49.1622 81.8404 55.0071C81.8134 55.0316 81.7808 55.0471 81.7537 55.0718L67.7233 67.8771C61.4191 73.6308 61.4188 82.9597 67.7233 88.7137C74.0278 94.4674 84.2491 94.4674 90.5534 88.7137L104.584 75.9083C104.611 75.8837 104.627 75.8541 104.654 75.8291C101.205 76.2875 97.6626 75.9732 94.3781 74.8043Z" fill="black"/>
<defs>
<filter id="filter0_d_77_13" x="0" y="0" width="476.249" height="128" filterUnits="userSpaceOnUse" color-interpolation-filters="sRGB">
<feFlood flood-opacity="0" result="BackgroundImageFix"/>
<feColorMatrix in="SourceAlpha" type="matrix" values="0 0 0 0 0 0 0 0 0 0 0 0 0 0 0 0 0 0 127 0" result="hardAlpha"/>
<feMorphology radius="2" operator="dilate" in="SourceAlpha" result="effect1_dropShadow_77_13"/>
<feOffset dy="4"/>
<feGaussianBlur stdDeviation="3"/>
<feComposite in2="hardAlpha" operator="out"/>
<feColorMatrix type="matrix" values="0 0 0 0 0 0 0 0 0 0 0 0 0 0 0 0 0 0 0.15 0"/>
<feBlend mode="normal" in2="BackgroundImageFix" result="effect1_dropShadow_77_13"/>
<feBlend mode="normal" in="BackgroundImageFix" in2="effect1_dropShadow_77_13" result="BackgroundImageFix"/>
<feBlend mode="normal" in="SourceGraphic" in2="BackgroundImageFix" result="shape"/>
</filter>
</defs>
</svg>
