<svg width="477" height="128" viewBox="0 0 477 128" fill="none" xmlns="http://www.w3.org/2000/svg">
<g filter="url(#filter0_d_7_3308)">
<rect x="8" y="4" width="460.827" height="111.585" rx="16" fill="white" fill-opacity="0.1" shape-rendering="crispEdges"/>
</g>
<path d="M201.43 55V37.5455H207.652C209.01 37.5455 210.135 37.7926 211.027 38.2869C211.919 38.7812 212.586 39.4574 213.03 40.3153C213.473 41.1676 213.694 42.1278 213.694 43.196C213.694 44.2699 213.47 45.2358 213.021 46.0938C212.578 46.946 211.907 47.6222 211.01 48.1222C210.118 48.6165 208.995 48.8636 207.643 48.8636H203.365V46.6307H207.405C208.263 46.6307 208.959 46.483 209.493 46.1875C210.027 45.8864 210.419 45.4773 210.669 44.9602C210.919 44.4432 211.044 43.8551 211.044 43.196C211.044 42.5369 210.919 41.9517 210.669 41.4403C210.419 40.929 210.024 40.5284 209.484 40.2386C208.95 39.9489 208.245 39.804 207.37 39.804H204.064V55H201.43ZM220.27 55.2898C219.44 55.2898 218.69 55.1364 218.02 54.8295C217.349 54.517 216.818 54.0653 216.426 53.4744C216.04 52.8835 215.846 52.1591 215.846 51.3011C215.846 50.5625 215.988 49.9545 216.272 49.4773C216.557 49 216.94 48.6222 217.423 48.3438C217.906 48.0653 218.446 47.8551 219.042 47.7131C219.639 47.571 220.247 47.4631 220.866 47.3892C221.65 47.2983 222.287 47.2244 222.775 47.1676C223.264 47.1051 223.619 47.0057 223.841 46.8693C224.062 46.733 224.173 46.5114 224.173 46.2045V46.1449C224.173 45.4006 223.963 44.8239 223.542 44.4148C223.128 44.0057 222.508 43.8011 221.684 43.8011C220.826 43.8011 220.15 43.9915 219.656 44.3722C219.167 44.7472 218.829 45.1648 218.642 45.625L216.247 45.0795C216.531 44.2841 216.946 43.642 217.491 43.1534C218.042 42.6591 218.676 42.3011 219.392 42.0795C220.108 41.8523 220.861 41.7386 221.65 41.7386C222.173 41.7386 222.727 41.8011 223.312 41.9261C223.903 42.0455 224.454 42.267 224.966 42.5909C225.483 42.9148 225.906 43.3778 226.236 43.9801C226.565 44.5767 226.73 45.3523 226.73 46.3068V55H224.241V53.2102H224.139C223.974 53.5398 223.727 53.8636 223.397 54.1818C223.068 54.5 222.645 54.7642 222.128 54.9744C221.611 55.1847 220.991 55.2898 220.27 55.2898ZM220.824 53.2443C221.528 53.2443 222.13 53.1051 222.63 52.8267C223.136 52.5483 223.52 52.1847 223.781 51.7358C224.048 51.2812 224.182 50.7955 224.182 50.2784V48.5909C224.091 48.6818 223.915 48.767 223.653 48.8466C223.397 48.9205 223.105 48.9858 222.775 49.0426C222.446 49.0937 222.125 49.142 221.812 49.1875C221.5 49.2273 221.238 49.2614 221.028 49.2898C220.534 49.3523 220.082 49.4574 219.673 49.6051C219.27 49.7528 218.946 49.9659 218.701 50.2443C218.463 50.517 218.343 50.8807 218.343 51.3352C218.343 51.9659 218.576 52.4432 219.042 52.767C219.508 53.0852 220.102 53.2443 220.824 53.2443ZM235.613 60.1818C234.573 60.1818 233.678 60.0455 232.928 59.7727C232.184 59.5 231.576 59.1392 231.104 58.6903C230.633 58.2415 230.28 57.75 230.047 57.2159L232.238 56.3125C232.391 56.5625 232.596 56.8267 232.851 57.1051C233.113 57.3892 233.465 57.6307 233.908 57.8295C234.357 58.0284 234.934 58.1278 235.638 58.1278C236.604 58.1278 237.402 57.892 238.033 57.4205C238.664 56.9545 238.979 56.2102 238.979 55.1875V52.6136H238.817C238.664 52.892 238.442 53.2017 238.152 53.5426C237.868 53.8835 237.476 54.179 236.976 54.429C236.476 54.679 235.826 54.804 235.025 54.804C233.99 54.804 233.059 54.5625 232.229 54.0795C231.405 53.5909 230.752 52.8722 230.269 51.9233C229.792 50.9687 229.553 49.7955 229.553 48.4034C229.553 47.0114 229.789 45.8182 230.26 44.8239C230.738 43.8295 231.391 43.0682 232.221 42.5398C233.05 42.0057 233.99 41.7386 235.042 41.7386C235.854 41.7386 236.51 41.875 237.01 42.1477C237.51 42.4148 237.9 42.7273 238.178 43.0852C238.462 43.4432 238.681 43.7585 238.834 44.0312H239.022V41.9091H241.519V55.2898C241.519 56.4148 241.258 57.3381 240.735 58.0597C240.212 58.7813 239.505 59.3153 238.613 59.6619C237.726 60.0085 236.726 60.1818 235.613 60.1818ZM235.587 52.6903C236.32 52.6903 236.939 52.5199 237.445 52.179C237.956 51.8324 238.343 51.3381 238.604 50.696C238.871 50.0483 239.005 49.2727 239.005 48.3693C239.005 47.4886 238.874 46.7131 238.613 46.0426C238.351 45.3722 237.968 44.8494 237.462 44.4744C236.956 44.0937 236.331 43.9034 235.587 43.9034C234.82 43.9034 234.181 44.1023 233.669 44.5C233.158 44.892 232.772 45.4261 232.51 46.1023C232.255 46.7784 232.127 47.5341 232.127 48.3693C232.127 49.2273 232.258 49.9801 232.519 50.6278C232.78 51.2756 233.167 51.7812 233.678 52.1449C234.195 52.5085 234.831 52.6903 235.587 52.6903ZM248.746 55.2898C247.917 55.2898 247.167 55.1364 246.496 54.8295C245.826 54.517 245.294 54.0653 244.902 53.4744C244.516 52.8835 244.323 52.1591 244.323 51.3011C244.323 50.5625 244.465 49.9545 244.749 49.4773C245.033 49 245.417 48.6222 245.9 48.3438C246.383 48.0653 246.922 47.8551 247.519 47.7131C248.115 47.571 248.723 47.4631 249.343 47.3892C250.127 47.2983 250.763 47.2244 251.252 47.1676C251.74 47.1051 252.096 47.0057 252.317 46.8693C252.539 46.733 252.65 46.5114 252.65 46.2045V46.1449C252.65 45.4006 252.439 44.8239 252.019 44.4148C251.604 44.0057 250.985 43.8011 250.161 43.8011C249.303 43.8011 248.627 43.9915 248.133 44.3722C247.644 44.7472 247.306 45.1648 247.118 45.625L244.723 45.0795C245.008 44.2841 245.422 43.642 245.968 43.1534C246.519 42.6591 247.152 42.3011 247.868 42.0795C248.584 41.8523 249.337 41.7386 250.127 41.7386C250.65 41.7386 251.204 41.8011 251.789 41.9261C252.38 42.0455 252.931 42.267 253.442 42.5909C253.959 42.9148 254.383 43.3778 254.712 43.9801C255.042 44.5767 255.206 45.3523 255.206 46.3068V55H252.718V53.2102H252.615C252.451 53.5398 252.204 53.8636 251.874 54.1818C251.544 54.5 251.121 54.7642 250.604 54.9744C250.087 55.1847 249.468 55.2898 248.746 55.2898ZM249.3 53.2443C250.005 53.2443 250.607 53.1051 251.107 52.8267C251.613 52.5483 251.996 52.1847 252.258 51.7358C252.525 51.2812 252.658 50.7955 252.658 50.2784V48.5909C252.567 48.6818 252.391 48.767 252.13 48.8466C251.874 48.9205 251.581 48.9858 251.252 49.0426C250.922 49.0937 250.601 49.142 250.289 49.1875C249.976 49.2273 249.715 49.2614 249.505 49.2898C249.01 49.3523 248.559 49.4574 248.15 49.6051C247.746 49.7528 247.422 49.9659 247.178 50.2443C246.939 50.517 246.82 50.8807 246.82 51.3352C246.82 51.9659 247.053 52.4432 247.519 52.767C247.985 53.0852 248.579 53.2443 249.3 53.2443ZM258.601 55V41.9091H261.047V44.0398H261.209C261.481 43.3182 261.927 42.7557 262.547 42.3523C263.166 41.9432 263.907 41.7386 264.771 41.7386C265.646 41.7386 266.379 41.9432 266.97 42.3523C267.566 42.7614 268.007 43.3239 268.291 44.0398H268.427C268.74 43.3409 269.237 42.7841 269.919 42.3693C270.601 41.9489 271.413 41.7386 272.356 41.7386C273.544 41.7386 274.513 42.1108 275.263 42.8551C276.018 43.5994 276.396 44.7216 276.396 46.2216V55H273.848V46.4602C273.848 45.5739 273.606 44.9318 273.123 44.5341C272.64 44.1364 272.064 43.9375 271.393 43.9375C270.564 43.9375 269.919 44.1932 269.459 44.7045C268.998 45.2102 268.768 45.8608 268.768 46.6562V55H266.228V46.2983C266.228 45.5881 266.007 45.017 265.564 44.5852C265.12 44.1534 264.544 43.9375 263.834 43.9375C263.351 43.9375 262.905 44.0653 262.495 44.321C262.092 44.571 261.765 44.9205 261.515 45.3693C261.271 45.8182 261.149 46.3381 261.149 46.929V55H258.601ZM285.454 55.2642C284.164 55.2642 283.053 54.9886 282.121 54.4375C281.195 53.8807 280.479 53.0994 279.973 52.0938C279.473 51.0824 279.223 49.8977 279.223 48.5398C279.223 47.1989 279.473 46.017 279.973 44.9943C280.479 43.9716 281.184 43.1733 282.087 42.5994C282.996 42.0256 284.059 41.7386 285.275 41.7386C286.013 41.7386 286.729 41.8608 287.422 42.1051C288.115 42.3494 288.738 42.733 289.289 43.2557C289.84 43.7784 290.275 44.4574 290.593 45.2926C290.911 46.1222 291.07 47.1307 291.07 48.3182V49.2216H280.664V47.3125H288.573C288.573 46.642 288.437 46.0483 288.164 45.5312C287.891 45.0085 287.508 44.5966 287.013 44.2955C286.525 43.9943 285.951 43.8438 285.292 43.8438C284.576 43.8438 283.951 44.0199 283.417 44.3722C282.888 44.7187 282.479 45.1733 282.189 45.7358C281.905 46.2926 281.763 46.8977 281.763 47.5511V49.0426C281.763 49.9176 281.917 50.6619 282.223 51.2756C282.536 51.8892 282.971 52.358 283.527 52.6818C284.084 53 284.735 53.1591 285.479 53.1591C285.962 53.1591 286.402 53.0909 286.8 52.9545C287.198 52.8125 287.542 52.6023 287.831 52.3239C288.121 52.0455 288.343 51.7017 288.496 51.2926L290.908 51.7273C290.715 52.4375 290.368 53.0597 289.868 53.5938C289.374 54.1222 288.752 54.5341 288.002 54.8295C287.258 55.1193 286.408 55.2642 285.454 55.2642ZM296.446 47.2273V55H293.897V41.9091H296.343V44.0398H296.505C296.807 43.3466 297.278 42.7898 297.92 42.3693C298.568 41.9489 299.383 41.7386 300.366 41.7386C301.258 41.7386 302.04 41.9261 302.71 42.3011C303.38 42.6705 303.9 43.2216 304.27 43.9545C304.639 44.6875 304.824 45.5937 304.824 46.6733V55H302.275V46.9801C302.275 46.0312 302.028 45.2898 301.534 44.7557C301.04 44.2159 300.361 43.946 299.497 43.946C298.906 43.946 298.38 44.0739 297.92 44.3295C297.466 44.5852 297.105 44.9602 296.838 45.4545C296.576 45.9432 296.446 46.5341 296.446 47.2273ZM314.352 41.9091V43.9545H307.201V41.9091H314.352ZM309.119 38.7727H311.667V51.1562C311.667 51.6506 311.741 52.0227 311.889 52.2727C312.037 52.517 312.227 52.6847 312.46 52.7756C312.699 52.8608 312.957 52.9034 313.236 52.9034C313.44 52.9034 313.619 52.8892 313.772 52.8608C313.926 52.8324 314.045 52.8097 314.13 52.7926L314.591 54.8977C314.443 54.9545 314.233 55.0114 313.96 55.0682C313.687 55.1307 313.346 55.1648 312.937 55.1705C312.267 55.1818 311.642 55.0625 311.062 54.8125C310.483 54.5625 310.014 54.1761 309.656 53.6534C309.298 53.1307 309.119 52.4744 309.119 51.6847V38.7727ZM322.544 55.2642C321.317 55.2642 320.246 54.983 319.331 54.4205C318.417 53.858 317.706 53.071 317.201 52.0597C316.695 51.0483 316.442 49.8665 316.442 48.5142C316.442 47.1562 316.695 45.9687 317.201 44.9517C317.706 43.9347 318.417 43.1449 319.331 42.5824C320.246 42.0199 321.317 41.7386 322.544 41.7386C323.772 41.7386 324.843 42.0199 325.758 42.5824C326.672 43.1449 327.383 43.9347 327.888 44.9517C328.394 45.9687 328.647 47.1562 328.647 48.5142C328.647 49.8665 328.394 51.0483 327.888 52.0597C327.383 53.071 326.672 53.858 325.758 54.4205C324.843 54.983 323.772 55.2642 322.544 55.2642ZM322.553 53.125C323.348 53.125 324.008 52.9148 324.53 52.4943C325.053 52.0739 325.439 51.5142 325.689 50.8153C325.945 50.1165 326.073 49.3466 326.073 48.5057C326.073 47.6705 325.945 46.9034 325.689 46.2045C325.439 45.5 325.053 44.9347 324.53 44.5085C324.008 44.0824 323.348 43.8693 322.553 43.8693C321.752 43.8693 321.087 44.0824 320.559 44.5085C320.036 44.9347 319.647 45.5 319.391 46.2045C319.141 46.9034 319.016 47.6705 319.016 48.5057C319.016 49.3466 319.141 50.1165 319.391 50.8153C319.647 51.5142 320.036 52.0739 320.559 52.4943C321.087 52.9148 321.752 53.125 322.553 53.125ZM341.301 45.1051L338.991 45.5142C338.895 45.2187 338.741 44.9375 338.531 44.6705C338.326 44.4034 338.048 44.1847 337.696 44.0142C337.343 43.8437 336.903 43.7585 336.375 43.7585C335.653 43.7585 335.051 43.9205 334.568 44.2443C334.085 44.5625 333.843 44.9744 333.843 45.4801C333.843 45.9176 334.005 46.2699 334.329 46.5369C334.653 46.804 335.176 47.0227 335.897 47.1932L337.977 47.6705C339.182 47.9489 340.079 48.3778 340.67 48.9574C341.261 49.5369 341.557 50.2898 341.557 51.2159C341.557 52 341.329 52.6989 340.875 53.3125C340.426 53.9205 339.798 54.3977 338.991 54.7443C338.19 55.0909 337.261 55.2642 336.204 55.2642C334.738 55.2642 333.542 54.9517 332.616 54.3267C331.69 53.696 331.122 52.8011 330.912 51.642L333.375 51.267C333.528 51.9091 333.843 52.3949 334.321 52.7244C334.798 53.0483 335.42 53.2102 336.187 53.2102C337.022 53.2102 337.69 53.0369 338.19 52.6903C338.69 52.3381 338.94 51.9091 338.94 51.4034C338.94 50.9943 338.787 50.6506 338.48 50.3722C338.179 50.0937 337.716 49.8835 337.091 49.7415L334.875 49.2557C333.653 48.9773 332.75 48.5341 332.165 47.9261C331.585 47.3182 331.295 46.5483 331.295 45.6165C331.295 44.8437 331.511 44.1676 331.943 43.5881C332.375 43.0085 332.971 42.5568 333.733 42.233C334.494 41.9034 335.366 41.7386 336.349 41.7386C337.764 41.7386 338.878 42.0455 339.69 42.6591C340.503 43.267 341.04 44.0824 341.301 45.1051Z" fill="black"/>
<path d="M200.015 83L202.197 69.9091H205.155L204.78 72.1335H204.941C205.339 71.3835 205.888 70.7983 206.586 70.3778C207.285 69.9517 208.072 69.7386 208.947 69.7386C209.828 69.7386 210.538 69.9545 211.078 70.3864C211.623 70.8125 211.959 71.3949 212.084 72.1335H212.22C212.629 71.4006 213.214 70.8182 213.976 70.3864C214.743 69.9545 215.603 69.7386 216.558 69.7386C217.751 69.7386 218.666 70.1193 219.302 70.8807C219.939 71.642 220.135 72.7528 219.89 74.2131L218.424 83H215.339L216.737 74.6903C216.862 73.8778 216.737 73.2841 216.362 72.9091C215.993 72.5284 215.495 72.3381 214.87 72.3381C214.126 72.3381 213.507 72.5682 213.013 73.0284C212.524 73.4886 212.223 74.0909 212.109 74.8352L210.737 83H207.711L209.126 74.5625C209.228 73.8864 209.109 73.3466 208.768 72.9432C208.433 72.5398 207.939 72.3381 207.285 72.3381C206.842 72.3381 206.419 72.4517 206.015 72.679C205.612 72.9062 205.268 73.2244 204.984 73.6335C204.706 74.0369 204.524 74.5057 204.439 75.0398L203.109 83H200.015ZM221.682 83L224.58 65.5455H227.742L226.421 73.5653H226.634L234.765 65.5455H238.625L230.589 73.3778L235.787 83H231.986L228.049 75.517L225.714 77.8182L224.844 83H221.682ZM242.589 83.2557C241.276 83.2557 240.191 82.983 239.333 82.4375C238.475 81.8864 237.873 81.108 237.526 80.1023C237.185 79.0909 237.128 77.9006 237.356 76.5312C237.577 75.1847 238.029 74.0028 238.711 72.9858C239.392 71.9631 240.245 71.1676 241.267 70.5994C242.296 70.0256 243.432 69.7386 244.677 69.7386C245.483 69.7386 246.225 69.8693 246.901 70.1307C247.577 70.3864 248.148 70.7841 248.614 71.3239C249.08 71.8636 249.401 72.5511 249.577 73.3864C249.753 74.2159 249.745 75.2045 249.552 76.3523L249.407 77.2983H238.668L239 75.2188H246.773C246.875 74.6278 246.841 74.1023 246.671 73.642C246.5 73.1761 246.216 72.8097 245.819 72.5426C245.421 72.2756 244.924 72.142 244.327 72.142C243.719 72.142 243.151 72.2983 242.623 72.6108C242.1 72.9176 241.66 73.3153 241.302 73.804C240.944 74.2926 240.716 74.8068 240.62 75.3466L240.27 77.3409C240.145 78.1591 240.174 78.8267 240.356 79.3438C240.537 79.8608 240.856 80.2415 241.31 80.4858C241.765 80.7301 242.339 80.8523 243.032 80.8523C243.486 80.8523 243.907 80.7898 244.293 80.6648C244.679 80.5398 245.023 80.3523 245.324 80.1023C245.631 79.8466 245.887 79.5341 246.091 79.1648L248.912 79.4886C248.6 80.25 248.142 80.9148 247.54 81.483C246.938 82.0455 246.216 82.483 245.375 82.7955C244.54 83.1023 243.611 83.2557 242.589 83.2557ZM263.017 73.3693L260.179 73.6761C260.151 73.3864 260.063 73.1165 259.915 72.8665C259.767 72.6165 259.546 72.4176 259.25 72.2699C258.961 72.1165 258.586 72.0398 258.125 72.0398C257.455 72.0398 256.867 72.1903 256.361 72.4915C255.856 72.7926 255.569 73.179 255.5 73.6506C255.438 74.0028 255.523 74.2898 255.756 74.5114C255.989 74.733 256.421 74.9205 257.052 75.0739L259.216 75.5511C260.41 75.8182 261.267 76.25 261.79 76.8466C262.319 77.4432 262.503 78.2244 262.344 79.1903C262.208 79.9972 261.856 80.7074 261.287 81.321C260.719 81.929 259.992 82.4034 259.106 82.7443C258.225 83.0852 257.248 83.2557 256.174 83.2557C254.543 83.2557 253.287 82.9176 252.407 82.2415C251.532 81.5597 251.097 80.6222 251.103 79.429L254.137 79.1392C254.171 79.7301 254.378 80.1761 254.759 80.4773C255.14 80.7727 255.668 80.9233 256.344 80.929C257.106 80.9347 257.748 80.7756 258.27 80.4517C258.799 80.1222 259.097 79.7216 259.165 79.25C259.222 78.8977 259.134 78.6108 258.901 78.3892C258.674 78.1676 258.267 77.9915 257.682 77.8608L255.535 77.392C254.319 77.125 253.452 76.6733 252.935 76.0369C252.424 75.3949 252.25 74.5852 252.415 73.608C252.552 72.8125 252.884 72.1278 253.412 71.554C253.946 70.9744 254.631 70.5284 255.466 70.2159C256.302 69.8977 257.236 69.7386 258.27 69.7386C259.827 69.7386 261 70.0653 261.79 70.7188C262.58 71.3722 262.989 72.2557 263.017 73.3693ZM268.613 75.3295L267.351 83H264.258L267.155 65.5455H270.181L269.09 72.1335H269.252C269.667 71.3892 270.232 70.804 270.948 70.3778C271.669 69.9517 272.536 69.7386 273.547 69.7386C274.445 69.7386 275.201 69.929 275.814 70.3097C276.428 70.6903 276.86 71.2472 277.11 71.9801C277.365 72.7131 277.408 73.608 277.238 74.6648L275.84 83H272.746L274.059 75.142C274.201 74.2614 274.084 73.5767 273.709 73.0881C273.34 72.5937 272.755 72.3466 271.954 72.3466C271.402 72.3466 270.894 72.4659 270.428 72.7045C269.962 72.9375 269.57 73.2756 269.252 73.7188C268.939 74.1619 268.726 74.6989 268.613 75.3295Z" fill="#6DC135"/>
<g clip-path="url(#clip0_7_3308)">
<path d="M84.8365 79.4951H88.7397V89.197L93.311 84.3333H97.9847L92.7465 89.597L98.1655 97.701H93.6967L90.1008 92.2394L88.7397 93.6362V97.701H84.8365V79.4951Z" fill="#008566"/>
<path d="M104.892 98C103.865 98 102.91 97.834 102.03 97.5011C101.148 97.1681 100.387 96.6958 99.7439 96.0788C99.1032 95.4628 98.6024 94.7373 98.2428 93.8969C97.8832 93.0576 97.7045 92.1214 97.7045 91.0906V91.0395C97.7045 90.0917 97.8707 89.1949 98.2042 88.3471C98.5376 87.4992 99.0049 86.7599 99.6028 86.1269C100.202 85.4961 100.918 84.9971 101.748 84.6323C102.579 84.2663 103.498 84.0823 104.51 84.0823C105.655 84.0823 106.648 84.2823 107.488 84.6801C108.326 85.0791 109.023 85.6152 109.581 86.2886C110.136 86.962 110.546 87.7343 110.813 88.6077C111.077 89.4811 111.21 90.3917 111.21 91.3385C111.21 91.4885 111.206 91.647 111.197 91.8129C111.189 91.9799 111.176 92.1533 111.159 92.3363H101.582C101.769 93.2012 102.159 93.8533 102.749 94.2937C103.34 94.7352 104.072 94.9554 104.946 94.9554C105.596 94.9554 106.178 94.8469 106.692 94.6309C107.206 94.4139 107.737 94.065 108.283 93.5831L110.518 95.5032C109.867 96.2851 109.081 96.8968 108.155 97.3362C107.232 97.7776 106.143 97.9978 104.894 97.9978M107.409 89.9704C107.288 89.1236 106.982 88.4364 106.485 87.913C105.988 87.3896 105.33 87.1279 104.509 87.1279C103.687 87.1279 103.022 87.3854 102.517 87.9013C102.012 88.4151 101.682 89.1066 101.528 89.9704H107.409Z" fill="#008566"/>
<path d="M117.27 97.95C116.295 97.95 115.296 97.7883 114.278 97.4639C113.26 97.1394 112.288 96.6288 111.363 95.9299L113.032 93.4363C113.786 93.9693 114.535 94.3682 115.28 94.6342C116.025 94.9001 116.721 95.032 117.372 95.032C117.937 95.032 118.353 94.9405 118.618 94.7576C118.883 94.5757 119.016 94.3331 119.016 94.0342V93.9831C119.016 93.7842 118.94 93.6108 118.785 93.4587C118.63 93.3108 118.421 93.181 118.156 93.0725C117.89 92.964 117.587 92.8608 117.244 92.7608C116.902 92.6608 116.542 92.5523 116.166 92.4374C115.686 92.3044 115.202 92.1417 114.715 91.9502C114.228 91.7598 113.786 91.5108 113.392 91.2013C112.999 90.8938 112.677 90.5162 112.429 90.0673C112.18 89.6183 112.056 89.0694 112.056 88.4216V88.3726C112.056 87.6907 112.189 87.0886 112.455 86.5642C112.72 86.0408 113.08 85.5961 113.533 85.2302C113.987 84.8653 114.518 84.5908 115.126 84.4078C115.733 84.2238 116.388 84.1323 117.09 84.1323C117.963 84.1323 118.849 84.2696 119.747 84.544C120.646 84.8185 121.472 85.1961 122.226 85.678L120.735 88.296C120.052 87.9141 119.384 87.6109 118.733 87.3865C118.082 87.162 117.508 87.0493 117.013 87.0493C116.517 87.0493 116.173 87.1376 115.934 87.312C115.695 87.4875 115.574 87.7067 115.574 87.9737V88.0237C115.574 88.2067 115.652 88.3684 115.805 88.5099C115.959 88.6513 116.165 88.7854 116.421 88.9098C116.679 89.0343 116.974 89.1556 117.309 89.2705C117.642 89.3864 117.998 89.5034 118.374 89.6194C118.854 89.7683 119.342 89.9481 119.838 90.1556C120.335 90.3641 120.78 90.6183 121.173 90.9162C121.566 91.2151 121.892 91.5811 122.149 92.014C122.406 92.4459 122.534 92.9714 122.534 93.5853V93.6352C122.534 94.3831 122.4 95.0278 122.137 95.5682C121.87 96.1086 121.498 96.5543 121.019 96.9032C120.539 97.2522 119.978 97.5149 119.338 97.6883C118.695 97.8617 118.006 97.95 117.27 97.95Z" fill="#008566"/>
<path d="M123.664 79.4951H127.568V86.2449C127.788 85.9598 128.034 85.6886 128.299 85.4269C128.564 85.1684 128.861 84.9386 129.186 84.7375C129.511 84.5375 129.87 84.378 130.264 84.2599C130.658 84.1429 131.102 84.0844 131.599 84.0844C133.09 84.0844 134.24 84.5248 135.054 85.4056C135.866 86.2864 136.273 87.5013 136.273 89.047V97.701H132.37V90.2629C132.37 89.3661 132.165 88.6906 131.753 88.2342C131.341 87.7789 130.76 87.5502 130.006 87.5502C129.253 87.5502 128.658 87.7779 128.221 88.2342C127.784 88.6906 127.566 89.3661 127.566 90.2629V97.701H123.663V79.4951H123.664Z" fill="#008566"/>
<path d="M82.0119 85.3301C81.1903 84.5004 79.431 84.0238 77.9759 84.0238C77.0341 84.0238 75.9271 84.2025 75.1912 84.5631C74.4553 84.9238 73.7873 85.4546 73.1883 86.1578C72.8287 85.4716 72.3196 84.944 71.66 84.5759C71.3851 84.4217 71.082 84.277 70.7631 84.1887C67.8874 83.0738 62.2709 84.3876 62.2709 88.5311V97.7011H66.1741V90.263C66.1741 89.4343 66.3445 88.7971 66.6811 88.345C66.7104 88.3088 66.7386 88.2705 66.77 88.2354C67.185 87.7843 67.7557 87.5577 68.4812 87.5524C69.2066 87.5567 69.7774 87.7843 70.1913 88.2354C70.2248 88.2716 70.253 88.3098 70.2823 88.3481C70.6178 88.7992 70.7882 89.4364 70.7882 90.264V97.7021H74.7249V90.264C74.7249 89.4364 74.8943 88.7992 75.2298 88.3481C75.2602 88.3109 75.2884 88.2716 75.3208 88.2354C75.7358 87.7843 76.3055 87.5577 77.0309 87.5524C77.7575 87.5567 78.3272 87.7843 78.7432 88.2354C78.7746 88.2705 78.8028 88.3088 78.8321 88.345C79.1686 88.7971 79.339 89.4343 79.339 90.263V97.7011H83.2413V88.9981C83.2413 87.3854 82.8315 86.1631 82.0088 85.3301" fill="#FECC01"/>
<path d="M107.796 21H89.0084C86.0664 21 83.6814 23.4271 83.6814 26.4211V67.987C83.6814 70.981 86.0664 73.4081 89.0084 73.4081H107.796C110.738 73.4081 113.123 70.981 113.123 67.987V26.4211C113.123 23.4271 110.738 21 107.796 21Z" fill="#008566"/>
<path d="M110.839 29.7178H85.9623V62.3211H110.839V29.7178Z" fill="#FECC01"/>
<path d="M93.3737 39.9653V42.5153C93.3737 43.044 93.1134 43.1812 92.6869 43.1812H90.061C89.6356 43.1812 89.3753 43.044 89.3753 42.5153V39.9653C89.3753 39.4366 89.6356 39.2983 90.061 39.2983H92.6869C93.1124 39.2983 93.3737 39.4366 93.3737 39.9653ZM93.3737 47.9726V50.5225C93.3737 51.0512 93.1134 51.1895 92.6869 51.1895H90.061C89.6356 51.1895 89.3753 51.0512 89.3753 50.5225V47.9726C89.3753 47.4449 89.6356 47.3066 90.061 47.3066H92.6869C93.1124 47.3066 93.3737 47.4449 93.3737 47.9726Z" fill="#008566"/>
<path d="M107.727 48.8003C107.727 51.5566 105.811 53.1183 103.02 53.5098V55.2555C103.02 55.6703 102.878 55.9214 102.333 55.9214H100.488C99.9436 55.9214 99.8014 55.6703 99.8014 55.2555V53.4651C97.3418 52.9598 95.0713 51.3747 95.0713 48.7567C95.0713 48.228 95.2124 48.1131 95.757 48.1131H98.0516C98.5951 48.1131 98.8554 48.1812 98.9035 48.7567C98.9265 49.0546 99.0457 49.3535 99.353 49.6971C99.8255 50.2492 100.796 50.4556 101.67 50.4556C102.948 50.4556 103.989 50.1811 103.989 48.8939C103.989 47.6067 101.885 47.5844 99.8736 46.9642C97.485 46.228 95.2846 45.31 95.2846 42.393C95.2846 39.8197 97.3418 38.3953 99.8014 37.9602V36.19C99.8014 35.7773 99.9436 35.5251 100.488 35.5251H102.333C102.878 35.5251 103.02 35.7773 103.02 36.19V38.0283C105.313 38.4878 107.324 39.8197 107.324 42.1856C107.324 42.7366 107.183 42.8281 106.638 42.8281H104.32C103.871 42.8281 103.8 42.5079 103.682 42.2079C103.588 41.9558 103.468 41.7718 103.185 41.5186C102.737 41.1058 101.885 40.8984 101.175 40.8984C100.394 40.8984 99.0927 41.1963 99.0927 42.2303C99.0927 43.6313 102.571 44.1377 103.515 44.5047C105.218 45.0089 107.726 45.6759 107.726 48.7993" fill="#008566"/>
</g>
<defs>
<filter id="filter0_d_7_3308" x="0" y="0" width="476.827" height="127.585" filterUnits="userSpaceOnUse" color-interpolation-filters="sRGB">
<feFlood flood-opacity="0" result="BackgroundImageFix"/>
<feColorMatrix in="SourceAlpha" type="matrix" values="0 0 0 0 0 0 0 0 0 0 0 0 0 0 0 0 0 0 127 0" result="hardAlpha"/>
<feMorphology radius="2" operator="dilate" in="SourceAlpha" result="effect1_dropShadow_7_3308"/>
<feOffset dy="4"/>
<feGaussianBlur stdDeviation="3"/>
<feComposite in2="hardAlpha" operator="out"/>
<feColorMatrix type="matrix" values="0 0 0 0 0 0 0 0 0 0 0 0 0 0 0 0 0 0 0.15 0"/>
<feBlend mode="normal" in2="BackgroundImageFix" result="effect1_dropShadow_7_3308"/>
<feBlend mode="normal" in="BackgroundImageFix" in2="effect1_dropShadow_7_3308" result="BackgroundImageFix"/>
<feBlend mode="normal" in="SourceGraphic" in2="BackgroundImageFix" result="shape"/>
</filter>
<clipPath id="clip0_7_3308">
<rect width="74" height="77" fill="white" transform="translate(62.272 21)"/>
</clipPath>
</defs>
</svg>
