<svg width="476" height="128" viewBox="0 0 476 128" fill="none" xmlns="http://www.w3.org/2000/svg">
<g filter="url(#filter0_d_7_3307)">
<rect x="8" y="4" width="459.972" height="111.585" rx="16" fill="white" fill-opacity="0.1" shape-rendering="crispEdges"/>
</g>
<path d="M201.43 55V37.5455H207.652C209.01 37.5455 210.135 37.7926 211.027 38.2869C211.919 38.7812 212.586 39.4574 213.03 40.3153C213.473 41.1676 213.694 42.1278 213.694 43.196C213.694 44.2699 213.47 45.2358 213.021 46.0938C212.578 46.946 211.907 47.6222 211.01 48.1222C210.118 48.6165 208.995 48.8636 207.643 48.8636H203.365V46.6307H207.405C208.263 46.6307 208.959 46.483 209.493 46.1875C210.027 45.8864 210.419 45.4773 210.669 44.9602C210.919 44.4432 211.044 43.8551 211.044 43.196C211.044 42.5369 210.919 41.9517 210.669 41.4403C210.419 40.929 210.024 40.5284 209.484 40.2386C208.95 39.9489 208.245 39.804 207.37 39.804H204.064V55H201.43ZM220.27 55.2898C219.44 55.2898 218.69 55.1364 218.02 54.8295C217.349 54.517 216.818 54.0653 216.426 53.4744C216.04 52.8835 215.846 52.1591 215.846 51.3011C215.846 50.5625 215.988 49.9545 216.272 49.4773C216.557 49 216.94 48.6222 217.423 48.3438C217.906 48.0653 218.446 47.8551 219.042 47.7131C219.639 47.571 220.247 47.4631 220.866 47.3892C221.65 47.2983 222.287 47.2244 222.775 47.1676C223.264 47.1051 223.619 47.0057 223.841 46.8693C224.062 46.733 224.173 46.5114 224.173 46.2045V46.1449C224.173 45.4006 223.963 44.8239 223.542 44.4148C223.128 44.0057 222.508 43.8011 221.684 43.8011C220.826 43.8011 220.15 43.9915 219.656 44.3722C219.167 44.7472 218.829 45.1648 218.642 45.625L216.247 45.0795C216.531 44.2841 216.946 43.642 217.491 43.1534C218.042 42.6591 218.676 42.3011 219.392 42.0795C220.108 41.8523 220.861 41.7386 221.65 41.7386C222.173 41.7386 222.727 41.8011 223.312 41.9261C223.903 42.0455 224.454 42.267 224.966 42.5909C225.483 42.9148 225.906 43.3778 226.236 43.9801C226.565 44.5767 226.73 45.3523 226.73 46.3068V55H224.241V53.2102H224.139C223.974 53.5398 223.727 53.8636 223.397 54.1818C223.068 54.5 222.645 54.7642 222.128 54.9744C221.611 55.1847 220.991 55.2898 220.27 55.2898ZM220.824 53.2443C221.528 53.2443 222.13 53.1051 222.63 52.8267C223.136 52.5483 223.52 52.1847 223.781 51.7358C224.048 51.2812 224.182 50.7955 224.182 50.2784V48.5909C224.091 48.6818 223.915 48.767 223.653 48.8466C223.397 48.9205 223.105 48.9858 222.775 49.0426C222.446 49.0937 222.125 49.142 221.812 49.1875C221.5 49.2273 221.238 49.2614 221.028 49.2898C220.534 49.3523 220.082 49.4574 219.673 49.6051C219.27 49.7528 218.946 49.9659 218.701 50.2443C218.463 50.517 218.343 50.8807 218.343 51.3352C218.343 51.9659 218.576 52.4432 219.042 52.767C219.508 53.0852 220.102 53.2443 220.824 53.2443ZM235.613 60.1818C234.573 60.1818 233.678 60.0455 232.928 59.7727C232.184 59.5 231.576 59.1392 231.104 58.6903C230.633 58.2415 230.28 57.75 230.047 57.2159L232.238 56.3125C232.391 56.5625 232.596 56.8267 232.851 57.1051C233.113 57.3892 233.465 57.6307 233.908 57.8295C234.357 58.0284 234.934 58.1278 235.638 58.1278C236.604 58.1278 237.402 57.892 238.033 57.4205C238.664 56.9545 238.979 56.2102 238.979 55.1875V52.6136H238.817C238.664 52.892 238.442 53.2017 238.152 53.5426C237.868 53.8835 237.476 54.179 236.976 54.429C236.476 54.679 235.826 54.804 235.025 54.804C233.99 54.804 233.059 54.5625 232.229 54.0795C231.405 53.5909 230.752 52.8722 230.269 51.9233C229.792 50.9687 229.553 49.7955 229.553 48.4034C229.553 47.0114 229.789 45.8182 230.26 44.8239C230.738 43.8295 231.391 43.0682 232.221 42.5398C233.05 42.0057 233.99 41.7386 235.042 41.7386C235.854 41.7386 236.51 41.875 237.01 42.1477C237.51 42.4148 237.9 42.7273 238.178 43.0852C238.462 43.4432 238.681 43.7585 238.834 44.0312H239.022V41.9091H241.519V55.2898C241.519 56.4148 241.258 57.3381 240.735 58.0597C240.212 58.7813 239.505 59.3153 238.613 59.6619C237.726 60.0085 236.726 60.1818 235.613 60.1818ZM235.587 52.6903C236.32 52.6903 236.939 52.5199 237.445 52.179C237.956 51.8324 238.343 51.3381 238.604 50.696C238.871 50.0483 239.005 49.2727 239.005 48.3693C239.005 47.4886 238.874 46.7131 238.613 46.0426C238.351 45.3722 237.968 44.8494 237.462 44.4744C236.956 44.0937 236.331 43.9034 235.587 43.9034C234.82 43.9034 234.181 44.1023 233.669 44.5C233.158 44.892 232.772 45.4261 232.51 46.1023C232.255 46.7784 232.127 47.5341 232.127 48.3693C232.127 49.2273 232.258 49.9801 232.519 50.6278C232.78 51.2756 233.167 51.7812 233.678 52.1449C234.195 52.5085 234.831 52.6903 235.587 52.6903ZM248.746 55.2898C247.917 55.2898 247.167 55.1364 246.496 54.8295C245.826 54.517 245.294 54.0653 244.902 53.4744C244.516 52.8835 244.323 52.1591 244.323 51.3011C244.323 50.5625 244.465 49.9545 244.749 49.4773C245.033 49 245.417 48.6222 245.9 48.3438C246.383 48.0653 246.922 47.8551 247.519 47.7131C248.115 47.571 248.723 47.4631 249.343 47.3892C250.127 47.2983 250.763 47.2244 251.252 47.1676C251.74 47.1051 252.096 47.0057 252.317 46.8693C252.539 46.733 252.65 46.5114 252.65 46.2045V46.1449C252.65 45.4006 252.439 44.8239 252.019 44.4148C251.604 44.0057 250.985 43.8011 250.161 43.8011C249.303 43.8011 248.627 43.9915 248.133 44.3722C247.644 44.7472 247.306 45.1648 247.118 45.625L244.723 45.0795C245.008 44.2841 245.422 43.642 245.968 43.1534C246.519 42.6591 247.152 42.3011 247.868 42.0795C248.584 41.8523 249.337 41.7386 250.127 41.7386C250.65 41.7386 251.204 41.8011 251.789 41.9261C252.38 42.0455 252.931 42.267 253.442 42.5909C253.959 42.9148 254.383 43.3778 254.712 43.9801C255.042 44.5767 255.206 45.3523 255.206 46.3068V55H252.718V53.2102H252.615C252.451 53.5398 252.204 53.8636 251.874 54.1818C251.544 54.5 251.121 54.7642 250.604 54.9744C250.087 55.1847 249.468 55.2898 248.746 55.2898ZM249.3 53.2443C250.005 53.2443 250.607 53.1051 251.107 52.8267C251.613 52.5483 251.996 52.1847 252.258 51.7358C252.525 51.2812 252.658 50.7955 252.658 50.2784V48.5909C252.567 48.6818 252.391 48.767 252.13 48.8466C251.874 48.9205 251.581 48.9858 251.252 49.0426C250.922 49.0937 250.601 49.142 250.289 49.1875C249.976 49.2273 249.715 49.2614 249.505 49.2898C249.01 49.3523 248.559 49.4574 248.15 49.6051C247.746 49.7528 247.422 49.9659 247.178 50.2443C246.939 50.517 246.82 50.8807 246.82 51.3352C246.82 51.9659 247.053 52.4432 247.519 52.767C247.985 53.0852 248.579 53.2443 249.3 53.2443ZM258.601 55V41.9091H261.047V44.0398H261.209C261.481 43.3182 261.927 42.7557 262.547 42.3523C263.166 41.9432 263.907 41.7386 264.771 41.7386C265.646 41.7386 266.379 41.9432 266.97 42.3523C267.566 42.7614 268.007 43.3239 268.291 44.0398H268.427C268.74 43.3409 269.237 42.7841 269.919 42.3693C270.601 41.9489 271.413 41.7386 272.356 41.7386C273.544 41.7386 274.513 42.1108 275.263 42.8551C276.018 43.5994 276.396 44.7216 276.396 46.2216V55H273.848V46.4602C273.848 45.5739 273.606 44.9318 273.123 44.5341C272.64 44.1364 272.064 43.9375 271.393 43.9375C270.564 43.9375 269.919 44.1932 269.459 44.7045C268.998 45.2102 268.768 45.8608 268.768 46.6562V55H266.228V46.2983C266.228 45.5881 266.007 45.017 265.564 44.5852C265.12 44.1534 264.544 43.9375 263.834 43.9375C263.351 43.9375 262.905 44.0653 262.495 44.321C262.092 44.571 261.765 44.9205 261.515 45.3693C261.271 45.8182 261.149 46.3381 261.149 46.929V55H258.601ZM285.454 55.2642C284.164 55.2642 283.053 54.9886 282.121 54.4375C281.195 53.8807 280.479 53.0994 279.973 52.0938C279.473 51.0824 279.223 49.8977 279.223 48.5398C279.223 47.1989 279.473 46.017 279.973 44.9943C280.479 43.9716 281.184 43.1733 282.087 42.5994C282.996 42.0256 284.059 41.7386 285.275 41.7386C286.013 41.7386 286.729 41.8608 287.422 42.1051C288.115 42.3494 288.738 42.733 289.289 43.2557C289.84 43.7784 290.275 44.4574 290.593 45.2926C290.911 46.1222 291.07 47.1307 291.07 48.3182V49.2216H280.664V47.3125H288.573C288.573 46.642 288.437 46.0483 288.164 45.5312C287.891 45.0085 287.508 44.5966 287.013 44.2955C286.525 43.9943 285.951 43.8438 285.292 43.8438C284.576 43.8438 283.951 44.0199 283.417 44.3722C282.888 44.7187 282.479 45.1733 282.189 45.7358C281.905 46.2926 281.763 46.8977 281.763 47.5511V49.0426C281.763 49.9176 281.917 50.6619 282.223 51.2756C282.536 51.8892 282.971 52.358 283.527 52.6818C284.084 53 284.735 53.1591 285.479 53.1591C285.962 53.1591 286.402 53.0909 286.8 52.9545C287.198 52.8125 287.542 52.6023 287.831 52.3239C288.121 52.0455 288.343 51.7017 288.496 51.2926L290.908 51.7273C290.715 52.4375 290.368 53.0597 289.868 53.5938C289.374 54.1222 288.752 54.5341 288.002 54.8295C287.258 55.1193 286.408 55.2642 285.454 55.2642ZM296.446 47.2273V55H293.897V41.9091H296.343V44.0398H296.505C296.807 43.3466 297.278 42.7898 297.92 42.3693C298.568 41.9489 299.383 41.7386 300.366 41.7386C301.258 41.7386 302.04 41.9261 302.71 42.3011C303.38 42.6705 303.9 43.2216 304.27 43.9545C304.639 44.6875 304.824 45.5937 304.824 46.6733V55H302.275V46.9801C302.275 46.0312 302.028 45.2898 301.534 44.7557C301.04 44.2159 300.361 43.946 299.497 43.946C298.906 43.946 298.38 44.0739 297.92 44.3295C297.466 44.5852 297.105 44.9602 296.838 45.4545C296.576 45.9432 296.446 46.5341 296.446 47.2273ZM314.352 41.9091V43.9545H307.201V41.9091H314.352ZM309.119 38.7727H311.667V51.1562C311.667 51.6506 311.741 52.0227 311.889 52.2727C312.037 52.517 312.227 52.6847 312.46 52.7756C312.699 52.8608 312.957 52.9034 313.236 52.9034C313.44 52.9034 313.619 52.8892 313.772 52.8608C313.926 52.8324 314.045 52.8097 314.13 52.7926L314.591 54.8977C314.443 54.9545 314.233 55.0114 313.96 55.0682C313.687 55.1307 313.346 55.1648 312.937 55.1705C312.267 55.1818 311.642 55.0625 311.062 54.8125C310.483 54.5625 310.014 54.1761 309.656 53.6534C309.298 53.1307 309.119 52.4744 309.119 51.6847V38.7727ZM322.544 55.2642C321.317 55.2642 320.246 54.983 319.331 54.4205C318.417 53.858 317.706 53.071 317.201 52.0597C316.695 51.0483 316.442 49.8665 316.442 48.5142C316.442 47.1562 316.695 45.9687 317.201 44.9517C317.706 43.9347 318.417 43.1449 319.331 42.5824C320.246 42.0199 321.317 41.7386 322.544 41.7386C323.772 41.7386 324.843 42.0199 325.758 42.5824C326.672 43.1449 327.383 43.9347 327.888 44.9517C328.394 45.9687 328.647 47.1562 328.647 48.5142C328.647 49.8665 328.394 51.0483 327.888 52.0597C327.383 53.071 326.672 53.858 325.758 54.4205C324.843 54.983 323.772 55.2642 322.544 55.2642ZM322.553 53.125C323.348 53.125 324.008 52.9148 324.53 52.4943C325.053 52.0739 325.439 51.5142 325.689 50.8153C325.945 50.1165 326.073 49.3466 326.073 48.5057C326.073 47.6705 325.945 46.9034 325.689 46.2045C325.439 45.5 325.053 44.9347 324.53 44.5085C324.008 44.0824 323.348 43.8693 322.553 43.8693C321.752 43.8693 321.087 44.0824 320.559 44.5085C320.036 44.9347 319.647 45.5 319.391 46.2045C319.141 46.9034 319.016 47.6705 319.016 48.5057C319.016 49.3466 319.141 50.1165 319.391 50.8153C319.647 51.5142 320.036 52.0739 320.559 52.4943C321.087 52.9148 321.752 53.125 322.553 53.125ZM341.301 45.1051L338.991 45.5142C338.895 45.2187 338.741 44.9375 338.531 44.6705C338.326 44.4034 338.048 44.1847 337.696 44.0142C337.343 43.8437 336.903 43.7585 336.375 43.7585C335.653 43.7585 335.051 43.9205 334.568 44.2443C334.085 44.5625 333.843 44.9744 333.843 45.4801C333.843 45.9176 334.005 46.2699 334.329 46.5369C334.653 46.804 335.176 47.0227 335.897 47.1932L337.977 47.6705C339.182 47.9489 340.079 48.3778 340.67 48.9574C341.261 49.5369 341.557 50.2898 341.557 51.2159C341.557 52 341.329 52.6989 340.875 53.3125C340.426 53.9205 339.798 54.3977 338.991 54.7443C338.19 55.0909 337.261 55.2642 336.204 55.2642C334.738 55.2642 333.542 54.9517 332.616 54.3267C331.69 53.696 331.122 52.8011 330.912 51.642L333.375 51.267C333.528 51.9091 333.843 52.3949 334.321 52.7244C334.798 53.0483 335.42 53.2102 336.187 53.2102C337.022 53.2102 337.69 53.0369 338.19 52.6903C338.69 52.3381 338.94 51.9091 338.94 51.4034C338.94 50.9943 338.787 50.6506 338.48 50.3722C338.179 50.0937 337.716 49.8835 337.091 49.7415L334.875 49.2557C333.653 48.9773 332.75 48.5341 332.165 47.9261C331.585 47.3182 331.295 46.5483 331.295 45.6165C331.295 44.8437 331.511 44.1676 331.943 43.5881C332.375 43.0085 332.971 42.5568 333.733 42.233C334.494 41.9034 335.366 41.7386 336.349 41.7386C337.764 41.7386 338.878 42.0455 339.69 42.6591C340.503 43.267 341.04 44.0824 341.301 45.1051Z" fill="black"/>
<path d="M203.041 65.5455H206.91L210.004 78.1932H210.209L217.478 65.5455H221.348L218.45 83H215.416L217.41 71.0085H217.257L210.439 82.9489H208.18L205.351 70.983H205.189L203.177 83H200.143L203.041 65.5455ZM231.345 73.0028L230.927 75.5426H223.078L223.495 73.0028H231.345ZM233.073 83L235.971 65.5455H242.516C243.857 65.5455 244.942 65.7955 245.772 66.2955C246.601 66.7898 247.178 67.4744 247.502 68.3494C247.826 69.2187 247.894 70.2102 247.706 71.3239C247.525 72.4432 247.124 73.4375 246.505 74.3068C245.891 75.1761 245.081 75.8608 244.076 76.3608C243.07 76.8551 241.894 77.1023 240.547 77.1023H236.209L236.644 74.5028H240.556C241.34 74.5028 242.005 74.3665 242.55 74.0938C243.101 73.821 243.536 73.446 243.854 72.9688C244.172 72.4915 244.383 71.9432 244.485 71.3239C244.581 70.7045 244.55 70.1591 244.391 69.6875C244.232 69.2159 243.922 68.8494 243.462 68.5881C243.008 68.321 242.385 68.1875 241.596 68.1875H238.698L236.235 83H233.073ZM253.932 83.2557C252.62 83.2557 251.535 82.983 250.677 82.4375C249.819 81.8864 249.216 81.108 248.87 80.1023C248.529 79.0909 248.472 77.9006 248.699 76.5312C248.921 75.1847 249.373 74.0028 250.054 72.9858C250.736 71.9631 251.589 71.1676 252.611 70.5994C253.64 70.0256 254.776 69.7386 256.02 69.7386C256.827 69.7386 257.569 69.8693 258.245 70.1307C258.921 70.3864 259.492 70.7841 259.958 71.3239C260.424 71.8636 260.745 72.5511 260.921 73.3864C261.097 74.2159 261.089 75.2045 260.895 76.3523L260.75 77.2983H250.012L250.344 75.2188H258.117C258.219 74.6278 258.185 74.1023 258.015 73.642C257.844 73.1761 257.56 72.8097 257.162 72.5426C256.765 72.2756 256.267 72.142 255.671 72.142C255.063 72.142 254.495 72.2983 253.966 72.6108C253.444 72.9176 253.003 73.3153 252.645 73.804C252.287 74.2926 252.06 74.8068 251.964 75.3466L251.614 77.3409C251.489 78.1591 251.517 78.8267 251.699 79.3438C251.881 79.8608 252.199 80.2415 252.654 80.4858C253.108 80.7301 253.682 80.8523 254.375 80.8523C254.83 80.8523 255.25 80.7898 255.637 80.6648C256.023 80.5398 256.367 80.3523 256.668 80.1023C256.975 79.8466 257.231 79.5341 257.435 79.1648L260.256 79.4886C259.944 80.25 259.486 80.9148 258.884 81.483C258.282 82.0455 257.56 82.483 256.719 82.7955C255.884 83.1023 254.955 83.2557 253.932 83.2557ZM274.361 73.3693L271.523 73.6761C271.495 73.3864 271.407 73.1165 271.259 72.8665C271.111 72.6165 270.89 72.4176 270.594 72.2699C270.304 72.1165 269.929 72.0398 269.469 72.0398C268.799 72.0398 268.211 72.1903 267.705 72.4915C267.199 72.7926 266.912 73.179 266.844 73.6506C266.782 74.0028 266.867 74.2898 267.1 74.5114C267.333 74.733 267.765 74.9205 268.395 75.0739L270.56 75.5511C271.753 75.8182 272.611 76.25 273.134 76.8466C273.662 77.4432 273.847 78.2244 273.688 79.1903C273.552 79.9972 273.199 80.7074 272.631 81.321C272.063 81.929 271.336 82.4034 270.449 82.7443C269.569 83.0852 268.591 83.2557 267.517 83.2557C265.887 83.2557 264.631 82.9176 263.75 82.2415C262.875 81.5597 262.441 80.6222 262.446 79.429L265.481 79.1392C265.515 79.7301 265.722 80.1761 266.103 80.4773C266.483 80.7727 267.012 80.9233 267.688 80.929C268.449 80.9347 269.091 80.7756 269.614 80.4517C270.142 80.1222 270.441 79.7216 270.509 79.25C270.566 78.8977 270.478 78.6108 270.245 78.3892C270.017 78.1676 269.611 77.9915 269.026 77.8608L266.878 77.392C265.662 77.125 264.796 76.6733 264.279 76.0369C263.767 75.3949 263.594 74.5852 263.759 73.608C263.895 72.8125 264.228 72.1278 264.756 71.554C265.29 70.9744 265.975 70.5284 266.81 70.2159C267.645 69.8977 268.58 69.7386 269.614 69.7386C271.171 69.7386 272.344 70.0653 273.134 70.7188C273.924 71.3722 274.333 72.2557 274.361 73.3693ZM279.326 83.2642C278.496 83.2642 277.775 83.1165 277.161 82.821C276.547 82.5199 276.096 82.0767 275.806 81.4915C275.522 80.9062 275.451 80.1847 275.593 79.3267C275.718 78.5881 275.956 77.9773 276.309 77.4943C276.667 77.0114 277.104 76.625 277.621 76.3352C278.144 76.0398 278.712 75.8182 279.326 75.6705C279.945 75.5227 280.576 75.4148 281.218 75.3466C282.002 75.267 282.635 75.1932 283.118 75.125C283.607 75.0568 283.973 74.9545 284.218 74.8182C284.462 74.6761 284.61 74.4602 284.661 74.1705V74.1193C284.763 73.4773 284.661 72.9801 284.354 72.6278C284.047 72.2756 283.536 72.0994 282.82 72.0994C282.07 72.0994 281.439 72.2642 280.928 72.5938C280.417 72.9233 280.044 73.3125 279.812 73.7614L277.016 73.3523C277.368 72.5568 277.851 71.892 278.465 71.358C279.079 70.8182 279.786 70.4148 280.587 70.1477C281.394 69.875 282.255 69.7386 283.169 69.7386C283.794 69.7386 284.405 69.8125 285.002 69.9602C285.604 70.108 286.135 70.3523 286.596 70.6932C287.062 71.0284 287.402 71.4858 287.618 72.0653C287.84 72.6449 287.877 73.3693 287.729 74.2386L286.272 83H283.306L283.613 81.2017H283.51C283.266 81.5653 282.948 81.9062 282.556 82.2244C282.164 82.5369 281.698 82.7898 281.158 82.983C280.618 83.1705 280.008 83.2642 279.326 83.2642ZM280.493 80.9972C281.113 80.9972 281.669 80.875 282.164 80.6307C282.658 80.3807 283.064 80.0511 283.383 79.642C283.701 79.233 283.9 78.7869 283.979 78.304L284.235 76.7614C284.121 76.8409 283.945 76.9148 283.706 76.983C283.468 77.0511 283.201 77.1108 282.905 77.1619C282.615 77.2131 282.329 77.2585 282.044 77.2983C281.76 77.3381 281.516 77.3722 281.312 77.4006C280.84 77.4631 280.408 77.5653 280.016 77.7074C279.63 77.8494 279.309 78.0483 279.053 78.304C278.803 78.554 278.647 78.8778 278.584 79.2756C278.493 79.8381 278.627 80.267 278.985 80.5625C279.343 80.8523 279.846 80.9972 280.493 80.9972Z" fill="#6DC135"/>
<g clip-path="url(#clip0_7_3307)">
<path d="M69.2661 92.2684V83.9792C69.2661 81.774 68.1315 80.6517 65.8558 80.6517C64.9107 80.6517 64.0204 81.1357 63.958 81.174C63.9171 81.1953 64.1841 81.7516 64.1841 82.5654V92.2684H60.1893V83.9792C60.1893 81.774 59.0546 80.6517 56.779 80.6517C55.6444 80.6517 55.2568 81.0176 55.2568 81.0176V92.2694H51.1587V78.6932C53.0759 77.5315 56.9232 76.1326 62.0268 78.2677C62.8482 77.7794 64.2766 77.323 65.8967 77.323C70.6505 77.323 73.4041 79.6474 73.4041 83.5388V92.2694H69.2661V92.2684ZM90.7526 77.1592C93.8076 77.1592 99.1243 78.2187 99.1243 84.8707C99.1243 89.1429 96.1629 92.4237 91.7203 92.4237C90.4404 92.4237 89.1949 92.1471 88.5189 91.8737V98.0001H84.4767V77.7954C86.2378 77.4379 88.2735 77.1581 90.7537 77.1581M90.6772 80.5219C89.8796 80.5219 89.0797 80.5591 88.5178 80.6804V88.428C89.1594 88.7855 90.1551 89.1057 91.3974 89.1057C93.5988 89.1057 94.8421 87.2451 94.8421 84.8707C94.8421 81.6176 92.6439 80.5219 90.6772 80.5219ZM139.078 80.8782C138.641 80.757 137.763 80.5963 136.76 80.5963C134.796 80.5963 132.756 82.1005 132.756 84.9515C132.756 87.978 134.554 89.1057 136.166 89.1057C137.517 89.1057 138.6 88.3876 139.078 87.6025V80.8772V80.8782ZM139.281 90.8035C138.442 91.7545 137.24 92.4247 135.317 92.4247C132.688 92.4247 128.476 90.7184 128.476 85.109C128.476 80.5229 131.914 77.1592 136.843 77.1592C139.282 77.1592 141.76 77.7517 143.16 78.3081V92.0652H139.561L139.281 90.8035ZM100.524 84.7335C100.524 89.6695 103.522 92.3886 108.717 92.3886C110.997 92.3886 112.709 91.7992 114.029 91.1641V88.5259C112.993 88.8333 111.156 89.3152 108.865 89.3152C106.202 89.3152 104.84 88.2036 104.642 86.1536H114.51C114.553 85.8377 114.589 85.0845 114.589 84.5345C114.589 80.4708 112.077 77.1507 107.764 77.1507C103.452 77.1507 100.524 80.1123 100.524 84.7335ZM104.718 83.2356C104.883 81.5335 105.84 80.507 107.764 80.507C109.688 80.507 110.757 81.7272 110.873 83.2356H104.718ZM82.8975 82.5133H75.0575V86.2887H82.8975V82.5133ZM123.746 87.8504C123.755 88.1546 123.702 88.4057 123.538 88.6238C123.377 88.8344 123.195 88.928 122.911 89.0472C122.55 89.1929 122.194 89.2461 121.796 89.2823C121.398 89.3227 121.005 89.3312 120.547 89.3312C119.95 89.3312 119.346 89.2418 118.607 89.1238C117.85 88.9993 117.195 88.8259 116.368 88.5397V91.3141C116.874 91.5354 117.569 91.7811 118.323 91.9907C119.106 92.2056 119.968 92.3843 120.928 92.4013C122.02 92.4173 122.79 92.3215 123.597 92.1279C124.404 91.9343 125.09 91.6343 125.665 91.2333C126.231 90.829 126.671 90.3259 126.979 89.7174C127.291 89.1121 127.436 88.4004 127.415 87.5855C127.397 86.8408 127.253 86.2238 126.973 85.743C126.694 85.2579 126.341 84.8707 125.911 84.5633C125.489 84.2643 125.009 84.0228 124.485 83.8494C123.958 83.6856 123.431 83.5409 122.902 83.4207C122.566 83.3409 122.221 83.2601 121.864 83.1761C121.509 83.092 121.163 82.9835 120.836 82.859C120.509 82.7282 120.25 82.558 120.063 82.3495C119.874 82.142 119.774 81.8708 119.77 81.5442C119.764 81.357 119.799 81.174 119.878 80.9974C119.957 80.8229 120.094 80.6687 120.277 80.5368C120.457 80.407 120.723 80.307 121.006 80.2549C121.312 80.1995 121.698 80.1995 122.119 80.2272C122.461 80.2463 122.842 80.2729 123.231 80.3176C123.62 80.3602 124.023 80.4102 124.413 80.4793C124.809 80.5506 125.173 80.6166 125.56 80.707C125.94 80.8027 126.271 80.908 126.623 81.0155V77.9177C125.96 77.6911 125.183 77.5049 124.357 77.3592C123.539 77.2135 122.666 77.1411 121.732 77.1411C120.968 77.1411 120.249 77.2347 119.569 77.4241C118.887 77.6145 118.249 77.9485 117.743 78.3379C117.233 78.724 116.873 79.2581 116.587 79.8453C116.295 80.4389 116.162 81.1367 116.188 81.942C116.199 82.5973 116.325 83.1537 116.562 83.6069C116.796 84.0601 117.11 84.4356 117.499 84.7356C117.888 85.0345 118.338 85.2728 118.841 85.4568C119.351 85.6398 119.874 85.8015 120.419 85.9387C120.855 86.0377 121.264 86.1398 121.664 86.2398C122.054 86.3419 122.406 86.4568 122.713 86.5877C123.021 86.727 123.269 86.893 123.457 87.0908C123.645 87.2866 123.743 87.5419 123.747 87.8483" fill="#D43D36"/>
<path d="M75.1275 44.9409C82.8297 46.1493 88.4403 37.7964 88.4403 37.7964C94.0466 46.4536 97.8584 39.5889 97.8584 39.5889C97.8584 39.5889 93.8022 46.4047 80.3646 46.1908L75.1275 44.9398V44.9409Z" fill="#55632C"/>
<path d="M102.434 30.6338C102.434 30.6338 94.3028 49.9918 76.1448 45.1206C76.1448 45.1206 106.494 54.3629 117.628 37.8634L102.434 30.6338Z" fill="#63A744"/>
<path d="M108.385 46.6791V62.5201C108.385 64.902 106.424 66.836 104.016 66.836H88.3822C85.9709 66.836 84.0149 64.9009 84.0149 62.5201V25.3126C84.0149 22.9351 85.9709 21 88.3822 21H104.016C106.424 21 108.385 22.9351 108.385 25.3126V31.9274L105.477 30.5636V24.8159H86.9268V56.6522H105.477V47.7216C106.592 47.3993 107.587 47.0216 108.385 46.678M89.5642 61.9638C89.5642 62.1063 89.6847 62.2255 89.8344 62.2255H91.504C91.6514 62.2255 91.7677 62.1052 91.7677 61.9638V60.3106C91.7677 60.1649 91.6514 60.0468 91.504 60.0468H89.8344C89.6858 60.0468 89.5642 60.1649 89.5642 60.3106V61.9638ZM100.86 61.9638C100.86 62.1063 100.979 62.2255 101.124 62.2255H102.797C102.948 62.2255 103.062 62.1052 103.062 61.9638V60.3106C103.062 60.1649 102.948 60.0468 102.797 60.0468H101.124C100.979 60.0468 100.86 60.1649 100.86 60.3106V61.9638ZM94.7635 59.1436C94.4977 59.1436 94.2802 59.3543 94.2802 59.616V62.6084C94.2802 62.8691 94.4977 63.0807 94.7635 63.0807H97.7884C98.0522 63.0807 98.2653 62.8691 98.2653 62.6084V59.616C98.2653 59.3543 98.0522 59.1436 97.7884 59.1436H94.7635Z" fill="#D43D36"/>
</g>
<defs>
<filter id="filter0_d_7_3307" x="0" y="0" width="475.972" height="127.585" filterUnits="userSpaceOnUse" color-interpolation-filters="sRGB">
<feFlood flood-opacity="0" result="BackgroundImageFix"/>
<feColorMatrix in="SourceAlpha" type="matrix" values="0 0 0 0 0 0 0 0 0 0 0 0 0 0 0 0 0 0 127 0" result="hardAlpha"/>
<feMorphology radius="2" operator="dilate" in="SourceAlpha" result="effect1_dropShadow_7_3307"/>
<feOffset dy="4"/>
<feGaussianBlur stdDeviation="3"/>
<feComposite in2="hardAlpha" operator="out"/>
<feColorMatrix type="matrix" values="0 0 0 0 0 0 0 0 0 0 0 0 0 0 0 0 0 0 0.15 0"/>
<feBlend mode="normal" in2="BackgroundImageFix" result="effect1_dropShadow_7_3307"/>
<feBlend mode="normal" in="BackgroundImageFix" in2="effect1_dropShadow_7_3307" result="BackgroundImageFix"/>
<feBlend mode="normal" in="SourceGraphic" in2="BackgroundImageFix" result="shape"/>
</filter>
<clipPath id="clip0_7_3307">
<rect width="92" height="77" fill="white" transform="translate(51.1587 21)"/>
</clipPath>
</defs>
</svg>
