<svg width="291" height="337" viewBox="0 0 291 337" fill="none" xmlns="http://www.w3.org/2000/svg">
<rect width="290.918" height="336.944" rx="16" fill="#D9D9D9" fill-opacity="0.2"/>
<path d="M44.1242 242.622L48.9822 256.838H49.1782L54.0361 242.622H56.8827L50.6015 260.076H47.5589L41.2776 242.622H44.1242ZM61.7194 260.366C60.8898 260.366 60.1398 260.213 59.4694 259.906C58.7989 259.593 58.2677 259.142 57.8756 258.551C57.4893 257.96 57.2961 257.235 57.2961 256.377C57.2961 255.639 57.4381 255.031 57.7222 254.553C58.0063 254.076 58.3898 253.698 58.8728 253.42C59.3557 253.142 59.8955 252.931 60.4921 252.789C61.0887 252.647 61.6967 252.539 62.316 252.465C63.1001 252.374 63.7364 252.301 64.2251 252.244C64.7137 252.181 65.0688 252.082 65.2904 251.945C65.512 251.809 65.6228 251.588 65.6228 251.281V251.221C65.6228 250.477 65.4126 249.9 64.9921 249.491C64.5773 249.082 63.958 248.877 63.1342 248.877C62.2762 248.877 61.6001 249.068 61.1057 249.448C60.6171 249.823 60.279 250.241 60.0915 250.701L57.6967 250.156C57.9807 249.36 58.3955 248.718 58.941 248.23C59.4921 247.735 60.1256 247.377 60.8415 247.156C61.5574 246.928 62.3103 246.815 63.1001 246.815C63.6228 246.815 64.1768 246.877 64.762 247.002C65.3529 247.122 65.904 247.343 66.4154 247.667C66.9324 247.991 67.3557 248.454 67.6853 249.056C68.0148 249.653 68.1796 250.428 68.1796 251.383V260.076H65.691V258.286H65.5887C65.4239 258.616 65.1768 258.94 64.8472 259.258C64.5177 259.576 64.0944 259.84 63.5773 260.051C63.0603 260.261 62.441 260.366 61.7194 260.366ZM62.2734 258.32C62.9779 258.32 63.5802 258.181 64.0802 257.903C64.5859 257.624 64.9694 257.261 65.2307 256.812C65.4978 256.357 65.6313 255.872 65.6313 255.355V253.667C65.5404 253.758 65.3643 253.843 65.1029 253.923C64.8472 253.997 64.5546 254.062 64.2251 254.119C63.8955 254.17 63.5745 254.218 63.262 254.264C62.9495 254.303 62.6881 254.338 62.4779 254.366C61.9836 254.428 61.5319 254.534 61.1228 254.681C60.7194 254.829 60.3955 255.042 60.1512 255.32C59.9126 255.593 59.7932 255.957 59.7932 256.411C59.7932 257.042 60.0262 257.519 60.4921 257.843C60.958 258.161 61.5518 258.32 62.2734 258.32ZM71.5738 260.076V246.985H74.1221V260.076H71.5738ZM72.8607 244.965C72.4175 244.965 72.0369 244.818 71.7187 244.522C71.4062 244.221 71.2499 243.863 71.2499 243.448C71.2499 243.028 71.4062 242.67 71.7187 242.374C72.0369 242.073 72.4175 241.923 72.8607 241.923C73.3039 241.923 73.6817 242.073 73.9942 242.374C74.3124 242.67 74.4715 243.028 74.4715 243.448C74.4715 243.863 74.3124 244.221 73.9942 244.522C73.6817 244.818 73.3039 244.965 72.8607 244.965ZM83.9019 264.985V246.985H86.3905V249.107H86.6036C86.7513 248.835 86.9644 248.519 87.2428 248.161C87.5212 247.803 87.9076 247.491 88.4019 247.224C88.8962 246.951 89.5496 246.815 90.3621 246.815C91.419 246.815 92.3621 247.082 93.1917 247.616C94.0212 248.15 94.6718 248.92 95.1434 249.926C95.6207 250.931 95.8593 252.142 95.8593 253.556C95.8593 254.971 95.6235 256.184 95.1519 257.195C94.6803 258.201 94.0326 258.977 93.2087 259.522C92.3849 260.062 91.4445 260.332 90.3877 260.332C89.5922 260.332 88.9417 260.198 88.436 259.931C87.936 259.664 87.544 259.352 87.2599 258.994C86.9758 258.636 86.757 258.318 86.6036 258.039H86.4502V264.985H83.9019ZM86.3991 253.531C86.3991 254.451 86.5326 255.258 86.7996 255.951C87.0667 256.644 87.453 257.187 87.9587 257.579C88.4644 257.965 89.0837 258.159 89.8167 258.159C90.578 258.159 91.2144 257.957 91.7258 257.553C92.2371 257.144 92.6235 256.59 92.8849 255.892C93.1519 255.193 93.2854 254.406 93.2854 253.531C93.2854 252.667 93.1547 251.892 92.8934 251.204C92.6377 250.517 92.2513 249.974 91.7343 249.576C91.2229 249.178 90.5837 248.98 89.8167 248.98C89.078 248.98 88.453 249.17 87.9417 249.551C87.436 249.931 87.0525 250.463 86.7911 251.144C86.5297 251.826 86.3991 252.622 86.3991 253.531ZM102.524 260.366C101.695 260.366 100.945 260.213 100.274 259.906C99.6036 259.593 99.0724 259.142 98.6803 258.551C98.294 257.96 98.1008 257.235 98.1008 256.377C98.1008 255.639 98.2428 255.031 98.5269 254.553C98.811 254.076 99.1945 253.698 99.6775 253.42C100.16 253.142 100.7 252.931 101.297 252.789C101.893 252.647 102.501 252.539 103.121 252.465C103.905 252.374 104.541 252.301 105.03 252.244C105.518 252.181 105.873 252.082 106.095 251.945C106.317 251.809 106.427 251.588 106.427 251.281V251.221C106.427 250.477 106.217 249.9 105.797 249.491C105.382 249.082 104.763 248.877 103.939 248.877C103.081 248.877 102.405 249.068 101.91 249.448C101.422 249.823 101.084 250.241 100.896 250.701L98.5013 250.156C98.7854 249.36 99.2002 248.718 99.7457 248.23C100.297 247.735 100.93 247.377 101.646 247.156C102.362 246.928 103.115 246.815 103.905 246.815C104.427 246.815 104.981 246.877 105.567 247.002C106.158 247.122 106.709 247.343 107.22 247.667C107.737 247.991 108.16 248.454 108.49 249.056C108.82 249.653 108.984 250.428 108.984 251.383V260.076H106.496V258.286H106.393C106.229 258.616 105.981 258.94 105.652 259.258C105.322 259.576 104.899 259.84 104.382 260.051C103.865 260.261 103.246 260.366 102.524 260.366ZM103.078 258.32C103.783 258.32 104.385 258.181 104.885 257.903C105.391 257.624 105.774 257.261 106.035 256.812C106.302 256.357 106.436 255.872 106.436 255.355V253.667C106.345 253.758 106.169 253.843 105.908 253.923C105.652 253.997 105.359 254.062 105.03 254.119C104.7 254.17 104.379 254.218 104.067 254.264C103.754 254.303 103.493 254.338 103.283 254.366C102.788 254.428 102.337 254.534 101.927 254.681C101.524 254.829 101.2 255.042 100.956 255.32C100.717 255.593 100.598 255.957 100.598 256.411C100.598 257.042 100.831 257.519 101.297 257.843C101.763 258.161 102.356 258.32 103.078 258.32ZM112.378 260.076V246.985H114.842V249.065H114.978C115.217 248.36 115.637 247.806 116.239 247.403C116.847 246.994 117.535 246.789 118.302 246.789C118.461 246.789 118.648 246.795 118.864 246.806C119.086 246.818 119.259 246.832 119.384 246.849V249.286C119.282 249.258 119.1 249.227 118.839 249.193C118.577 249.153 118.316 249.133 118.055 249.133C117.452 249.133 116.915 249.261 116.444 249.517C115.978 249.767 115.609 250.116 115.336 250.565C115.063 251.008 114.927 251.514 114.927 252.082V260.076H112.378ZM125.282 260.366C124.452 260.366 123.702 260.213 123.032 259.906C122.361 259.593 121.83 259.142 121.438 258.551C121.052 257.96 120.859 257.235 120.859 256.377C120.859 255.639 121.001 255.031 121.285 254.553C121.569 254.076 121.952 253.698 122.435 253.42C122.918 253.142 123.458 252.931 124.055 252.789C124.651 252.647 125.259 252.539 125.878 252.465C126.663 252.374 127.299 252.301 127.788 252.244C128.276 252.181 128.631 252.082 128.853 251.945C129.074 251.809 129.185 251.588 129.185 251.281V251.221C129.185 250.477 128.975 249.9 128.555 249.491C128.14 249.082 127.521 248.877 126.697 248.877C125.839 248.877 125.163 249.068 124.668 249.448C124.18 249.823 123.842 250.241 123.654 250.701L121.259 250.156C121.543 249.36 121.958 248.718 122.503 248.23C123.055 247.735 123.688 247.377 124.404 247.156C125.12 246.928 125.873 246.815 126.663 246.815C127.185 246.815 127.739 246.877 128.324 247.002C128.915 247.122 129.467 247.343 129.978 247.667C130.495 247.991 130.918 248.454 131.248 249.056C131.577 249.653 131.742 250.428 131.742 251.383V260.076H129.253V258.286H129.151C128.986 258.616 128.739 258.94 128.41 259.258C128.08 259.576 127.657 259.84 127.14 260.051C126.623 260.261 126.003 260.366 125.282 260.366ZM125.836 258.32C126.54 258.32 127.143 258.181 127.643 257.903C128.148 257.624 128.532 257.261 128.793 256.812C129.06 256.357 129.194 255.872 129.194 255.355V253.667C129.103 253.758 128.927 253.843 128.665 253.923C128.41 253.997 128.117 254.062 127.788 254.119C127.458 254.17 127.137 254.218 126.824 254.264C126.512 254.303 126.251 254.338 126.04 254.366C125.546 254.428 125.094 254.534 124.685 254.681C124.282 254.829 123.958 255.042 123.714 255.32C123.475 255.593 123.356 255.957 123.356 256.411C123.356 257.042 123.589 257.519 124.055 257.843C124.521 258.161 125.114 258.32 125.836 258.32ZM141.692 260.076V242.622H147.914C149.272 242.622 150.397 242.869 151.289 243.363C152.181 243.857 152.849 244.534 153.292 245.392C153.735 246.244 153.957 247.204 153.957 248.272C153.957 249.346 153.732 250.312 153.283 251.17C152.84 252.022 152.17 252.698 151.272 253.198C150.38 253.693 149.258 253.94 147.905 253.94H143.627V251.707H147.667C148.525 251.707 149.221 251.559 149.755 251.264C150.289 250.963 150.681 250.553 150.931 250.036C151.181 249.519 151.306 248.931 151.306 248.272C151.306 247.613 151.181 247.028 150.931 246.517C150.681 246.005 150.286 245.605 149.746 245.315C149.212 245.025 148.508 244.88 147.633 244.88H144.326V260.076H141.692ZM156.839 260.076V246.985H159.302V249.065H159.439C159.677 248.36 160.098 247.806 160.7 247.403C161.308 246.994 161.996 246.789 162.763 246.789C162.922 246.789 163.109 246.795 163.325 246.806C163.547 246.818 163.72 246.832 163.845 246.849V249.286C163.743 249.258 163.561 249.227 163.3 249.193C163.038 249.153 162.777 249.133 162.516 249.133C161.913 249.133 161.376 249.261 160.905 249.517C160.439 249.767 160.07 250.116 159.797 250.565C159.524 251.008 159.388 251.514 159.388 252.082V260.076H156.839ZM171.096 260.34C169.869 260.34 168.797 260.059 167.883 259.497C166.968 258.934 166.258 258.147 165.752 257.136C165.246 256.124 164.994 254.943 164.994 253.59C164.994 252.232 165.246 251.045 165.752 250.028C166.258 249.011 166.968 248.221 167.883 247.659C168.797 247.096 169.869 246.815 171.096 246.815C172.323 246.815 173.394 247.096 174.309 247.659C175.224 248.221 175.934 249.011 176.44 250.028C176.945 251.045 177.198 252.232 177.198 253.59C177.198 254.943 176.945 256.124 176.44 257.136C175.934 258.147 175.224 258.934 174.309 259.497C173.394 260.059 172.323 260.34 171.096 260.34ZM171.104 258.201C171.9 258.201 172.559 257.991 173.082 257.57C173.604 257.15 173.991 256.59 174.241 255.892C174.496 255.193 174.624 254.423 174.624 253.582C174.624 252.747 174.496 251.98 174.241 251.281C173.991 250.576 173.604 250.011 173.082 249.585C172.559 249.159 171.9 248.945 171.104 248.945C170.303 248.945 169.638 249.159 169.11 249.585C168.587 250.011 168.198 250.576 167.942 251.281C167.692 251.98 167.567 252.747 167.567 253.582C167.567 254.423 167.692 255.193 167.942 255.892C168.198 256.59 168.587 257.15 169.11 257.57C169.638 257.991 170.303 258.201 171.104 258.201ZM184.943 260.332C183.886 260.332 182.943 260.062 182.114 259.522C181.29 258.977 180.642 258.201 180.17 257.195C179.704 256.184 179.472 254.971 179.472 253.556C179.472 252.142 179.707 250.931 180.179 249.926C180.656 248.92 181.31 248.15 182.139 247.616C182.969 247.082 183.909 246.815 184.96 246.815C185.773 246.815 186.426 246.951 186.92 247.224C187.42 247.491 187.807 247.803 188.079 248.161C188.358 248.519 188.574 248.835 188.727 249.107H188.881V242.622H191.429V260.076H188.94V258.039H188.727C188.574 258.318 188.352 258.636 188.062 258.994C187.778 259.352 187.386 259.664 186.886 259.931C186.386 260.198 185.739 260.332 184.943 260.332ZM185.506 258.159C186.239 258.159 186.858 257.965 187.364 257.579C187.875 257.187 188.261 256.644 188.523 255.951C188.79 255.258 188.923 254.451 188.923 253.531C188.923 252.622 188.793 251.826 188.531 251.144C188.27 250.463 187.886 249.931 187.381 249.551C186.875 249.17 186.25 248.98 185.506 248.98C184.739 248.98 184.099 249.178 183.588 249.576C183.077 249.974 182.69 250.517 182.429 251.204C182.173 251.892 182.045 252.667 182.045 253.531C182.045 254.406 182.176 255.193 182.437 255.892C182.699 256.59 183.085 257.144 183.597 257.553C184.114 257.957 184.75 258.159 185.506 258.159ZM203.359 254.647V246.985H205.915V260.076H203.41V257.809H203.273C202.972 258.508 202.489 259.09 201.824 259.556C201.165 260.017 200.344 260.247 199.361 260.247C198.521 260.247 197.776 260.062 197.128 259.693C196.486 259.318 195.981 258.764 195.611 258.031C195.248 257.298 195.066 256.392 195.066 255.312V246.985H197.614V255.005C197.614 255.897 197.861 256.607 198.356 257.136C198.85 257.664 199.492 257.928 200.282 257.928C200.759 257.928 201.234 257.809 201.705 257.57C202.182 257.332 202.577 256.971 202.89 256.488C203.208 256.005 203.364 255.392 203.359 254.647ZM214.854 260.34C213.587 260.34 212.496 260.053 211.581 259.48C210.672 258.9 209.973 258.102 209.484 257.085C208.996 256.068 208.751 254.903 208.751 253.59C208.751 252.261 209.001 251.088 209.501 250.07C210.001 249.048 210.706 248.249 211.615 247.676C212.524 247.102 213.595 246.815 214.828 246.815C215.822 246.815 216.709 246.999 217.487 247.369C218.266 247.732 218.893 248.244 219.371 248.903C219.854 249.562 220.141 250.332 220.231 251.213H217.751C217.615 250.599 217.302 250.07 216.814 249.627C216.331 249.184 215.683 248.963 214.871 248.963C214.16 248.963 213.538 249.15 213.004 249.525C212.476 249.894 212.064 250.423 211.768 251.11C211.473 251.792 211.325 252.599 211.325 253.531C211.325 254.485 211.47 255.309 211.76 256.002C212.05 256.695 212.459 257.232 212.987 257.613C213.521 257.994 214.149 258.184 214.871 258.184C215.354 258.184 215.791 258.096 216.183 257.92C216.581 257.738 216.913 257.48 217.18 257.144C217.453 256.809 217.643 256.406 217.751 255.934H220.231C220.141 256.781 219.865 257.536 219.405 258.201C218.945 258.866 218.328 259.389 217.555 259.769C216.788 260.15 215.888 260.34 214.854 260.34ZM213.933 260.008H215.604L215.467 260.707C215.962 260.786 216.393 260.985 216.763 261.303C217.132 261.622 217.317 262.102 217.317 262.744C217.322 263.511 216.99 264.133 216.32 264.61C215.655 265.088 214.692 265.326 213.43 265.326L213.379 263.903C213.97 263.903 214.447 263.818 214.811 263.647C215.18 263.477 215.368 263.201 215.373 262.82C215.379 262.44 215.237 262.173 214.947 262.019C214.663 261.866 214.209 261.758 213.584 261.695L213.933 260.008ZM226.766 260.366C225.937 260.366 225.187 260.213 224.516 259.906C223.846 259.593 223.315 259.142 222.922 258.551C222.536 257.96 222.343 257.235 222.343 256.377C222.343 255.639 222.485 255.031 222.769 254.553C223.053 254.076 223.437 253.698 223.92 253.42C224.403 253.142 224.942 252.931 225.539 252.789C226.136 252.647 226.744 252.539 227.363 252.465C228.147 252.374 228.783 252.301 229.272 252.244C229.761 252.181 230.116 252.082 230.337 251.945C230.559 251.809 230.67 251.588 230.67 251.281V251.221C230.67 250.477 230.459 249.9 230.039 249.491C229.624 249.082 229.005 248.877 228.181 248.877C227.323 248.877 226.647 249.068 226.153 249.448C225.664 249.823 225.326 250.241 225.138 250.701L222.744 250.156C223.028 249.36 223.442 248.718 223.988 248.23C224.539 247.735 225.172 247.377 225.888 247.156C226.604 246.928 227.357 246.815 228.147 246.815C228.67 246.815 229.224 246.877 229.809 247.002C230.4 247.122 230.951 247.343 231.462 247.667C231.979 247.991 232.403 248.454 232.732 249.056C233.062 249.653 233.226 250.428 233.226 251.383V260.076H230.738V258.286H230.636C230.471 258.616 230.224 258.94 229.894 259.258C229.565 259.576 229.141 259.84 228.624 260.051C228.107 260.261 227.488 260.366 226.766 260.366ZM227.32 258.32C228.025 258.32 228.627 258.181 229.127 257.903C229.633 257.624 230.016 257.261 230.278 256.812C230.545 256.357 230.678 255.872 230.678 255.355V253.667C230.587 253.758 230.411 253.843 230.15 253.923C229.894 253.997 229.601 254.062 229.272 254.119C228.942 254.17 228.621 254.218 228.309 254.264C227.996 254.303 227.735 254.338 227.525 254.366C227.03 254.428 226.579 254.534 226.17 254.681C225.766 254.829 225.442 255.042 225.198 255.32C224.959 255.593 224.84 255.957 224.84 256.411C224.84 257.042 225.073 257.519 225.539 257.843C226.005 258.161 226.599 258.32 227.32 258.32ZM225.718 245.4L224.005 245.349C224.005 244.406 224.258 243.653 224.763 243.09C225.275 242.528 225.905 242.247 226.655 242.247C227.002 242.247 227.306 242.306 227.567 242.426C227.829 242.539 228.073 242.673 228.3 242.826C228.533 242.974 228.763 243.107 228.991 243.227C229.224 243.34 229.482 243.397 229.766 243.397C230.096 243.397 230.363 243.272 230.567 243.022C230.778 242.772 230.883 242.463 230.883 242.093L232.562 242.204C232.562 243.153 232.306 243.9 231.795 244.445C231.283 244.985 230.655 245.258 229.911 245.264C229.508 245.264 229.172 245.207 228.905 245.093C228.644 244.974 228.411 244.84 228.207 244.693C228.002 244.539 227.792 244.403 227.576 244.284C227.36 244.164 227.101 244.105 226.8 244.105C226.482 244.105 226.221 244.23 226.016 244.48C225.817 244.724 225.718 245.031 225.718 245.4ZM242.135 260.34C240.908 260.34 239.837 260.059 238.922 259.497C238.007 258.934 237.297 258.147 236.791 257.136C236.285 256.124 236.033 254.943 236.033 253.59C236.033 252.232 236.285 251.045 236.791 250.028C237.297 249.011 238.007 248.221 238.922 247.659C239.837 247.096 240.908 246.815 242.135 246.815C243.362 246.815 244.433 247.096 245.348 247.659C246.263 248.221 246.973 249.011 247.479 250.028C247.984 251.045 248.237 252.232 248.237 253.59C248.237 254.943 247.984 256.124 247.479 257.136C246.973 258.147 246.263 258.934 245.348 259.497C244.433 260.059 243.362 260.34 242.135 260.34ZM242.143 258.201C242.939 258.201 243.598 257.991 244.121 257.57C244.643 257.15 245.03 256.59 245.28 255.892C245.535 255.193 245.663 254.423 245.663 253.582C245.663 252.747 245.535 251.98 245.28 251.281C245.03 250.576 244.643 250.011 244.121 249.585C243.598 249.159 242.939 248.945 242.143 248.945C241.342 248.945 240.677 249.159 240.149 249.585C239.626 250.011 239.237 250.576 238.981 251.281C238.731 251.98 238.606 252.747 238.606 253.582C238.606 254.423 238.731 255.193 238.981 255.892C239.237 256.59 239.626 257.15 240.149 257.57C240.677 257.991 241.342 258.201 242.143 258.201Z" fill="white"/>
<path fill-rule="evenodd" clip-rule="evenodd" d="M85.7735 97.054C82.7388 96.2179 80.5069 93.436 80.5069 90.137C80.5069 86.1775 83.7215 82.9633 87.6806 82.9633C91.64 82.9633 94.8543 86.1775 94.8543 90.137C94.8543 93.436 92.6227 96.2179 89.5877 97.054V107.101H109.159C108.762 108.643 107.804 110.034 106.431 110.916H87.6806C86.6274 110.916 85.7735 110.062 85.7735 109.009V97.054ZM114.559 67.009C113.723 70.044 110.941 72.2756 107.642 72.2756C103.683 72.2756 100.468 69.0613 100.468 65.1019C100.468 61.1428 103.683 57.9282 107.642 57.9282C110.941 57.9282 113.723 60.1601 114.559 63.1948H129.399C130.453 63.1948 131.306 64.0487 131.306 65.1019V85.9195C130.162 86.5745 128.823 86.8813 127.492 86.7557V67.009H114.559ZM177.227 67.009H164.294V86.7557C162.964 86.8813 161.625 86.5745 160.48 85.9195V65.1019C160.48 64.0487 161.334 63.1948 162.387 63.1948H177.227C178.063 60.1601 180.845 57.9282 184.144 57.9282C188.104 57.9282 191.318 61.1428 191.318 65.1019C191.318 69.0613 188.104 72.2756 184.144 72.2756C180.845 72.2756 178.063 70.044 177.227 67.009ZM206.013 97.054V109.008C206.013 110.062 205.159 110.915 204.106 110.915H185.357C183.984 110.033 183.026 108.643 182.629 107.101H202.199V97.054C199.164 96.2179 196.932 93.436 196.932 90.137C196.932 86.1775 200.146 82.9633 204.106 82.9633C208.065 82.9633 211.28 86.1775 211.28 90.137C211.28 93.436 209.048 96.2179 206.013 97.054ZM202.199 149.575V139.528H182.629C183.026 137.986 183.984 136.596 185.357 135.714H204.106C205.159 135.714 206.013 136.567 206.013 137.621V149.575C209.048 150.411 211.28 153.193 211.28 156.492C211.28 160.451 208.065 163.666 204.106 163.666C200.146 163.666 196.932 160.451 196.932 156.492C196.932 153.193 199.164 150.411 202.199 149.575ZM177.227 183.434H162.387C161.334 183.434 160.48 182.58 160.48 181.527V160.711C161.625 160.056 162.964 159.749 164.294 159.874V179.62H177.227C178.063 176.585 180.845 174.353 184.144 174.353C188.104 174.353 191.318 177.568 191.318 181.527C191.318 185.486 188.104 188.701 184.144 188.701C180.845 188.701 178.063 186.469 177.227 183.434ZM114.559 183.434C113.723 186.469 110.941 188.701 107.642 188.701C103.683 188.701 100.468 185.486 100.468 181.527C100.468 177.568 103.683 174.353 107.642 174.353C110.941 174.353 113.723 176.585 114.559 179.62H127.492V159.871C128.823 159.745 130.162 160.051 131.306 160.706V181.527C131.306 182.58 130.453 183.434 129.399 183.434H114.559ZM89.5877 149.575C92.6227 150.411 94.8543 153.193 94.8543 156.492C94.8543 160.451 91.64 163.666 87.6806 163.666C83.7215 163.666 80.5069 160.451 80.5069 156.492C80.5069 153.193 82.7388 150.411 85.7735 149.575V137.62C85.7735 136.567 86.6274 135.713 87.6806 135.713H106.431C107.804 136.595 108.762 137.986 109.159 139.528H89.5877V149.575ZM188.778 130.918C179.741 130.918 175.203 141.869 181.595 148.261C182.772 149.437 182.772 151.351 181.595 152.527L175.106 159.017C173.93 160.193 172.016 160.193 170.839 159.017C164.448 152.625 153.497 157.163 153.497 166.2C153.497 167.87 152.147 169.214 150.482 169.214H141.304C139.64 169.214 138.29 167.87 138.29 166.2C138.29 157.152 127.344 152.619 120.947 159.017C119.771 160.193 117.862 160.193 116.686 159.017L110.191 152.527C109.015 151.351 109.015 149.437 110.191 148.261C116.583 141.869 112.051 130.918 103.008 130.918C101.344 130.918 99.9937 129.568 99.9937 127.904V118.725C99.9937 117.061 101.344 115.711 103.008 115.711C112.051 115.711 116.583 104.76 110.191 98.3683C109.015 97.1919 109.015 95.2837 110.191 94.1073L116.686 87.6125C117.862 86.4361 119.771 86.4361 120.947 87.6125C127.339 94.0043 138.29 89.4719 138.29 80.4293C138.29 78.7649 139.64 77.415 141.304 77.415H150.482C152.147 77.415 153.497 78.7649 153.497 80.4293C153.497 89.4719 164.448 94.0043 170.839 87.6125C172.016 86.4361 173.93 86.4361 175.106 87.6125L181.595 94.1073C182.772 95.2837 182.772 97.1919 181.595 98.3683C175.203 104.76 179.741 115.711 188.778 115.711C190.448 115.711 191.793 117.061 191.793 118.725V127.904C191.793 129.568 190.448 130.918 188.778 130.918ZM145.896 147.278C159.09 147.278 169.857 136.511 169.857 123.317C169.857 110.117 159.09 99.3562 145.896 99.3562C132.696 99.3562 121.935 110.117 121.935 123.317C121.935 136.511 132.696 147.278 145.896 147.278ZM145.896 143.464C134.797 143.464 125.749 134.411 125.749 123.317C125.749 112.219 134.797 103.17 145.896 103.17C156.99 103.17 166.043 112.219 166.043 123.317C166.043 134.411 156.99 143.464 145.896 143.464ZM154.043 116.308L143.622 126.313L137.731 120.759C136.965 120.037 135.757 120.072 135.035 120.838C134.313 121.604 134.348 122.812 135.114 123.534L142.326 130.333C143.066 131.031 144.222 131.025 144.955 130.321L156.685 119.059C157.444 118.33 157.469 117.122 156.739 116.362C156.01 115.603 154.802 115.579 154.043 116.308Z" fill="#6DC135"/>
</svg>
