<svg width="477" height="128" viewBox="0 0 477 128" fill="none" xmlns="http://www.w3.org/2000/svg">
<g filter="url(#filter0_d_77_11)">
<rect x="8" y="4" width="460.249" height="112" rx="16" fill="white" fill-opacity="0.1" shape-rendering="crispEdges"/>
</g>
<path d="M202.702 52.5455L207.56 66.7614H207.756L212.614 52.5455H215.461L209.18 70H206.137L199.856 52.5455H202.702ZM217.777 70V56.9091H220.325V70H217.777ZM219.064 54.8892C218.621 54.8892 218.24 54.7415 217.922 54.446C217.609 54.1449 217.453 53.7869 217.453 53.3722C217.453 52.9517 217.609 52.5937 217.922 52.2983C218.24 51.9972 218.621 51.8466 219.064 51.8466C219.507 51.8466 219.885 51.9972 220.197 52.2983C220.515 52.5937 220.675 52.9517 220.675 53.3722C220.675 53.7869 220.515 54.1449 220.197 54.446C219.885 54.7415 219.507 54.8892 219.064 54.8892ZM227.563 70.2898C226.734 70.2898 225.984 70.1364 225.313 69.8295C224.643 69.517 224.111 69.0653 223.719 68.4744C223.333 67.8835 223.14 67.1591 223.14 66.3011C223.14 65.5625 223.282 64.9545 223.566 64.4773C223.85 64 224.234 63.6222 224.716 63.3438C225.199 63.0653 225.739 62.8551 226.336 62.7131C226.932 62.571 227.54 62.4631 228.16 62.3892C228.944 62.2983 229.58 62.2244 230.069 62.1676C230.557 62.1051 230.913 62.0057 231.134 61.8693C231.356 61.733 231.466 61.5114 231.466 61.2045V61.1449C231.466 60.4006 231.256 59.8239 230.836 59.4148C230.421 59.0057 229.802 58.8011 228.978 58.8011C228.12 58.8011 227.444 58.9915 226.949 59.3722C226.461 59.7472 226.123 60.1648 225.935 60.625L223.54 60.0795C223.824 59.2841 224.239 58.642 224.785 58.1534C225.336 57.6591 225.969 57.3011 226.685 57.0795C227.401 56.8523 228.154 56.7386 228.944 56.7386C229.466 56.7386 230.02 56.8011 230.606 56.9261C231.197 57.0455 231.748 57.267 232.259 57.5909C232.776 57.9148 233.199 58.3778 233.529 58.9801C233.859 59.5767 234.023 60.3523 234.023 61.3068V70H231.535V68.2102H231.432C231.268 68.5398 231.02 68.8636 230.691 69.1818C230.361 69.5 229.938 69.7642 229.421 69.9744C228.904 70.1847 228.285 70.2898 227.563 70.2898ZM228.117 68.2443C228.822 68.2443 229.424 68.1051 229.924 67.8267C230.43 67.5483 230.813 67.1847 231.074 66.7358C231.341 66.2812 231.475 65.7955 231.475 65.2784V63.5909C231.384 63.6818 231.208 63.767 230.947 63.8466C230.691 63.9205 230.398 63.9858 230.069 64.0426C229.739 64.0937 229.418 64.142 229.106 64.1875C228.793 64.2273 228.532 64.2614 228.322 64.2898C227.827 64.3523 227.376 64.4574 226.966 64.6051C226.563 64.7528 226.239 64.9659 225.995 65.2443C225.756 65.517 225.637 65.8807 225.637 66.3352C225.637 66.9659 225.87 67.4432 226.336 67.767C226.802 68.0852 227.395 68.2443 228.117 68.2443Z" fill="black"/>
<path d="M250.084 64.1364H252.948L254.533 66.3352L255.564 67.767L258.241 71.5H255.172L253.357 68.9943L252.641 67.8011L250.084 64.1364ZM259.698 61.4773C259.391 63.3295 258.786 64.9091 257.883 66.2159C256.985 67.517 255.888 68.5142 254.593 69.2074C253.303 69.8949 251.914 70.2386 250.425 70.2386C248.863 70.2386 247.522 69.875 246.403 69.1477C245.283 68.4148 244.476 67.3665 243.982 66.0028C243.493 64.6392 243.408 63.0028 243.726 61.0938C244.033 59.2472 244.636 57.6676 245.533 56.3551C246.431 55.0426 247.53 54.0398 248.832 53.3466C250.133 52.6534 251.536 52.3068 253.042 52.3068C254.593 52.3068 255.922 52.6733 257.03 53.4062C258.144 54.1335 258.945 55.1818 259.434 56.5511C259.928 57.9205 260.016 59.5625 259.698 61.4773ZM256.587 61.0938C256.797 59.804 256.778 58.7159 256.528 57.8295C256.283 56.9432 255.849 56.2756 255.224 55.8267C254.599 55.3722 253.829 55.1449 252.914 55.1449C251.925 55.1449 251.011 55.392 250.17 55.8864C249.334 56.375 248.624 57.0909 248.039 58.0341C247.459 58.9773 247.062 60.125 246.846 61.4773C246.618 62.7727 246.633 63.8608 246.888 64.7415C247.144 65.6222 247.587 66.2869 248.218 66.7358C248.849 67.179 249.618 67.4006 250.528 67.4006C251.511 67.4006 252.42 67.1562 253.255 66.6676C254.09 66.179 254.797 65.4659 255.377 64.5284C255.962 63.5909 256.366 62.446 256.587 61.0938ZM261.484 70L264.381 52.5455H270.927C272.268 52.5455 273.356 52.7784 274.191 53.2443C275.026 53.7102 275.609 54.3636 275.938 55.2045C276.268 56.0398 276.339 57.0142 276.151 58.1278C275.969 59.2415 275.572 60.2102 274.958 61.0341C274.35 61.8523 273.546 62.4858 272.546 62.9347C271.552 63.3835 270.384 63.608 269.043 63.608H264.381L264.824 60.983H269.069C269.853 60.983 270.512 60.875 271.046 60.6591C271.58 60.4375 272.001 60.1165 272.307 59.696C272.62 59.2699 272.827 58.7472 272.93 58.1278C273.026 57.5085 272.989 56.9801 272.819 56.5426C272.654 56.0994 272.339 55.7642 271.873 55.5369C271.413 55.304 270.79 55.1875 270.006 55.1875H267.109L264.645 70H261.484ZM271.813 62.0909L274.822 70H271.293L268.361 62.0909H271.813ZM288.68 70.2557C287.373 70.2557 286.299 69.9688 285.458 69.3949C284.617 68.821 284.029 68.0284 283.694 67.017C283.364 66 283.31 64.8295 283.532 63.5057C283.748 62.1761 284.194 61.0028 284.87 59.9858C285.552 58.9631 286.41 58.1676 287.444 57.5994C288.478 57.0256 289.634 56.7386 290.913 56.7386C291.975 56.7386 292.881 56.9347 293.631 57.3267C294.387 57.7131 294.949 58.2614 295.319 58.9716C295.694 59.6761 295.839 60.5 295.753 61.4432H292.796C292.785 60.8125 292.589 60.2869 292.208 59.8665C291.827 59.4403 291.27 59.2273 290.538 59.2273C289.901 59.2273 289.316 59.3977 288.782 59.7386C288.248 60.0739 287.796 60.5568 287.427 61.1875C287.057 61.8182 286.802 62.5739 286.66 63.4545C286.512 64.3466 286.515 65.1136 286.668 65.7557C286.827 66.392 287.114 66.8835 287.529 67.2301C287.949 67.571 288.481 67.7415 289.123 67.7415C289.577 67.7415 290.001 67.6562 290.393 67.4858C290.785 67.3097 291.128 67.0568 291.424 66.7273C291.725 66.3977 291.961 65.9972 292.131 65.5256H295.08C294.847 66.4517 294.432 67.2727 293.836 67.9886C293.245 68.6989 292.512 69.2557 291.637 69.6591C290.762 70.0568 289.776 70.2557 288.68 70.2557ZM302.599 70.2557C301.31 70.2557 300.236 69.9716 299.378 69.4034C298.525 68.8352 297.926 68.0369 297.579 67.0085C297.233 65.9801 297.17 64.7869 297.392 63.429C297.613 62.0881 298.057 60.9148 298.721 59.9091C299.392 58.9034 300.236 58.125 301.253 57.5739C302.275 57.017 303.42 56.7386 304.687 56.7386C305.977 56.7386 307.048 57.0256 307.9 57.5994C308.753 58.1676 309.352 58.9659 309.699 59.9943C310.051 61.0227 310.116 62.2216 309.895 63.5909C309.679 64.9261 309.233 66.0938 308.557 67.0938C307.886 68.0938 307.042 68.8722 306.025 69.429C305.008 69.9801 303.866 70.2557 302.599 70.2557ZM302.855 67.7841C303.571 67.7841 304.199 67.5909 304.738 67.2045C305.284 66.8125 305.73 66.2869 306.077 65.6278C306.429 64.9631 306.673 64.2244 306.81 63.4119C306.935 62.6278 306.937 61.9176 306.818 61.2812C306.699 60.6392 306.443 60.1307 306.051 59.7557C305.665 59.375 305.128 59.1847 304.44 59.1847C303.724 59.1847 303.091 59.3835 302.54 59.7812C301.994 60.1733 301.548 60.7017 301.202 61.3665C300.855 62.0256 300.616 62.7614 300.486 63.5739C300.355 64.358 300.349 65.0682 300.469 65.7045C300.588 66.3409 300.844 66.8466 301.236 67.2216C301.628 67.5966 302.167 67.7841 302.855 67.7841ZM316.297 70.2301C315.269 70.2301 314.391 69.9659 313.664 69.4375C312.937 68.9091 312.42 68.142 312.113 67.1364C311.812 66.1307 311.778 64.9091 312.011 63.4716C312.255 62.017 312.701 60.7898 313.349 59.7898C313.996 58.7841 314.769 58.0256 315.667 57.5142C316.57 56.9972 317.525 56.7386 318.53 56.7386C319.303 56.7386 319.914 56.8693 320.363 57.1307C320.817 57.3864 321.158 57.696 321.386 58.0597C321.613 58.4176 321.78 58.7557 321.888 59.0739H322.016L323.099 52.5455H326.192L323.295 70H320.261L320.61 67.9375H320.422C320.207 68.2557 319.92 68.5937 319.562 68.9517C319.204 69.304 318.758 69.6051 318.224 69.8551C317.689 70.1051 317.047 70.2301 316.297 70.2301ZM317.525 67.6989C318.184 67.6989 318.775 67.5227 319.297 67.1705C319.826 66.8125 320.266 66.3153 320.618 65.679C320.971 65.0426 321.218 64.3011 321.36 63.4545C321.502 62.608 321.502 61.8722 321.36 61.2472C321.218 60.6222 320.942 60.1364 320.533 59.7898C320.124 59.4432 319.587 59.2699 318.922 59.2699C318.241 59.2699 317.641 59.4489 317.124 59.8068C316.613 60.1648 316.192 60.6591 315.863 61.2898C315.533 61.9205 315.3 62.642 315.164 63.4545C315.028 64.2727 315.019 65.0028 315.138 65.6449C315.263 66.2812 315.522 66.7841 315.914 67.1534C316.312 67.517 316.849 67.6989 317.525 67.6989ZM332.359 70.2557C331.046 70.2557 329.961 69.983 329.103 69.4375C328.245 68.8864 327.643 68.108 327.296 67.1023C326.955 66.0909 326.898 64.9006 327.126 63.5312C327.347 62.1847 327.799 61.0028 328.481 59.9858C329.163 58.9631 330.015 58.1676 331.038 57.5994C332.066 57.0256 333.202 56.7386 334.447 56.7386C335.253 56.7386 335.995 56.8693 336.671 57.1307C337.347 57.3864 337.918 57.7841 338.384 58.3239C338.85 58.8636 339.171 59.5511 339.347 60.3864C339.523 61.2159 339.515 62.2045 339.322 63.3523L339.177 64.2983H328.438L328.77 62.2188H336.543C336.645 61.6278 336.611 61.1023 336.441 60.642C336.27 60.1761 335.986 59.8097 335.589 59.5426C335.191 59.2756 334.694 59.142 334.097 59.142C333.489 59.142 332.921 59.2983 332.393 59.6108C331.87 59.9176 331.43 60.3153 331.072 60.804C330.714 61.2926 330.486 61.8068 330.39 62.3466L330.04 64.3409C329.915 65.1591 329.944 65.8267 330.126 66.3438C330.307 66.8608 330.626 67.2415 331.08 67.4858C331.535 67.7301 332.109 67.8523 332.802 67.8523C333.256 67.8523 333.677 67.7898 334.063 67.6648C334.449 67.5398 334.793 67.3523 335.094 67.1023C335.401 66.8466 335.657 66.5341 335.861 66.1648L338.682 66.4886C338.37 67.25 337.913 67.9148 337.31 68.483C336.708 69.0455 335.986 69.483 335.145 69.7955C334.31 70.1023 333.381 70.2557 332.359 70.2557Z" fill="#6DC135"/>
<path d="M82.4922 58.3333H73.7986C67.4059 58.3333 62.2072 53.5493 62.2072 47.6667V39.6667C62.2072 33.784 67.4059 29 73.7986 29H82.4922C88.8849 29 94.0837 33.784 94.0837 39.6667V47.6667C94.0837 53.5493 88.8849 58.3333 82.4922 58.3333ZM73.7986 37C72.2019 37 70.9007 38.1973 70.9007 39.6667V47.6667C70.9007 49.136 72.2019 50.3333 73.7986 50.3333H82.4922C84.0889 50.3333 85.3901 49.136 85.3901 47.6667V39.6667C85.3901 38.1973 84.0889 37 82.4922 37H73.7986ZM120.164 58.3333H111.471C105.078 58.3333 99.8794 53.5493 99.8794 47.6667V39.6667C99.8794 33.784 105.078 29 111.471 29H120.164C126.557 29 131.756 33.784 131.756 39.6667V47.6667C131.756 53.5493 126.557 58.3333 120.164 58.3333ZM111.471 37C109.871 37 108.573 38.1973 108.573 39.6667V47.6667C108.573 49.136 109.871 50.3333 111.471 50.3333H120.164C121.764 50.3333 123.062 49.136 123.062 47.6667V39.6667C123.062 38.1973 121.764 37 120.164 37H111.471ZM82.4922 93H73.7986C67.4059 93 62.2072 88.216 62.2072 82.3333V74.3333C62.2072 68.4507 67.4059 63.6667 73.7986 63.6667H82.4922C88.8849 63.6667 94.0837 68.4507 94.0837 74.3333V82.3333C94.0837 88.216 88.8849 93 82.4922 93ZM73.7986 71.6667C72.2019 71.6667 70.9007 72.864 70.9007 74.3333V82.3333C70.9007 83.8027 72.2019 85 73.7986 85H82.4922C84.0889 85 85.3901 83.8027 85.3901 82.3333V74.3333C85.3901 72.864 84.0889 71.6667 82.4922 71.6667H73.7986ZM111.471 70.3333V67.6667C111.471 65.4587 109.523 63.6667 107.124 63.6667H104.226C101.827 63.6667 99.8794 65.4587 99.8794 67.6667V70.3333C99.8794 72.5413 101.827 74.3333 104.226 74.3333H107.124C109.523 74.3333 111.471 72.5413 111.471 70.3333ZM120.164 78.3333C120.164 76.1253 118.217 74.3333 115.818 74.3333C113.418 74.3333 111.471 76.1253 111.471 78.3333C111.471 80.5413 113.418 82.3333 115.818 82.3333C118.217 82.3333 120.164 80.5413 120.164 78.3333ZM111.471 89V86.3333C111.471 84.1253 109.523 82.3333 107.124 82.3333H104.226C101.827 82.3333 99.8794 84.1253 99.8794 86.3333V89C99.8794 91.208 101.827 93 104.226 93H107.124C109.523 93 111.471 91.208 111.471 89ZM131.756 70.3333V67.6667C131.756 65.4587 129.809 63.6667 127.409 63.6667H124.511C122.112 63.6667 120.164 65.4587 120.164 67.6667V70.3333C120.164 72.5413 122.112 74.3333 124.511 74.3333H127.409C129.809 74.3333 131.756 72.5413 131.756 70.3333Z" fill="black"/>
<defs>
<filter id="filter0_d_77_11" x="0" y="0" width="476.249" height="128" filterUnits="userSpaceOnUse" color-interpolation-filters="sRGB">
<feFlood flood-opacity="0" result="BackgroundImageFix"/>
<feColorMatrix in="SourceAlpha" type="matrix" values="0 0 0 0 0 0 0 0 0 0 0 0 0 0 0 0 0 0 127 0" result="hardAlpha"/>
<feMorphology radius="2" operator="dilate" in="SourceAlpha" result="effect1_dropShadow_77_11"/>
<feOffset dy="4"/>
<feGaussianBlur stdDeviation="3"/>
<feComposite in2="hardAlpha" operator="out"/>
<feColorMatrix type="matrix" values="0 0 0 0 0 0 0 0 0 0 0 0 0 0 0 0 0 0 0.15 0"/>
<feBlend mode="normal" in2="BackgroundImageFix" result="effect1_dropShadow_77_11"/>
<feBlend mode="normal" in="BackgroundImageFix" in2="effect1_dropShadow_77_11" result="BackgroundImageFix"/>
<feBlend mode="normal" in="SourceGraphic" in2="BackgroundImageFix" result="shape"/>
</filter>
</defs>
</svg>
