<svg width="291" height="337" viewBox="0 0 291 337" fill="none" xmlns="http://www.w3.org/2000/svg">
<rect width="290.908" height="336.362" rx="16" fill="#D9D9D9" fill-opacity="0.2"/>
<path d="M45.6103 259.755V242.301H56.5535V244.568H48.2438V249.886H55.9825V252.145H48.2438V257.488H56.6558V259.755H45.6103ZM62.415 251.983V259.755H59.8667V246.664H62.3127V248.795H62.4747C62.7758 248.102 63.2474 247.545 63.8894 247.125C64.5372 246.704 65.3525 246.494 66.3355 246.494C67.2275 246.494 68.0087 246.682 68.6792 247.057C69.3497 247.426 69.8695 247.977 70.2389 248.71C70.6082 249.443 70.7928 250.349 70.7928 251.429V259.755H68.2445V251.735C68.2445 250.787 67.9974 250.045 67.5031 249.511C67.0087 248.971 66.3298 248.701 65.4661 248.701C64.8752 248.701 64.3497 248.829 63.8894 249.085C63.4349 249.341 63.0741 249.716 62.807 250.21C62.5457 250.699 62.415 251.289 62.415 251.983ZM80.3212 246.664V248.71H73.1707V246.664H80.3212ZM75.0883 243.528H77.6366V255.912C77.6366 256.406 77.7105 256.778 77.8582 257.028C78.0059 257.272 78.1962 257.44 78.4292 257.531C78.6678 257.616 78.9264 257.659 79.2048 257.659C79.4093 257.659 79.5883 257.645 79.7417 257.616C79.8951 257.588 80.0144 257.565 80.0997 257.548L80.5599 259.653C80.4122 259.71 80.2019 259.767 79.9292 259.824C79.6565 259.886 79.3156 259.92 78.9065 259.926C78.236 259.937 77.611 259.818 77.0315 259.568C76.4519 259.318 75.9832 258.932 75.6252 258.409C75.2673 257.886 75.0883 257.23 75.0883 256.44V243.528ZM83.1401 259.755V246.664H85.6032V248.744H85.7396C85.9782 248.039 86.3987 247.485 87.0009 247.082C87.6089 246.673 88.2964 246.468 89.0634 246.468C89.2225 246.468 89.41 246.474 89.6259 246.485C89.8475 246.497 90.0208 246.511 90.1458 246.528V248.966C90.0435 248.937 89.8617 248.906 89.6004 248.872C89.339 248.832 89.0776 248.812 88.8163 248.812C88.214 248.812 87.6771 248.94 87.2055 249.196C86.7396 249.446 86.3703 249.795 86.0975 250.244C85.8248 250.687 85.6884 251.193 85.6884 251.761V259.755H83.1401ZM96.0435 260.045C95.214 260.045 94.464 259.892 93.7935 259.585C93.1231 259.272 92.5918 258.821 92.1998 258.23C91.8134 257.639 91.6203 256.914 91.6203 256.057C91.6203 255.318 91.7623 254.71 92.0464 254.233C92.3305 253.755 92.714 253.378 93.197 253.099C93.6799 252.821 94.2197 252.61 94.8163 252.468C95.4129 252.326 96.0208 252.218 96.6401 252.145C97.4242 252.054 98.0606 251.98 98.5492 251.923C99.0379 251.86 99.393 251.761 99.6146 251.625C99.8362 251.488 99.947 251.267 99.947 250.96V250.9C99.947 250.156 99.7367 249.579 99.3163 249.17C98.9015 248.761 98.2822 248.557 97.4583 248.557C96.6004 248.557 95.9242 248.747 95.4299 249.128C94.9413 249.503 94.6032 249.92 94.4157 250.38L92.0208 249.835C92.3049 249.039 92.7197 248.397 93.2651 247.909C93.8163 247.414 94.4498 247.057 95.1657 246.835C95.8816 246.608 96.6345 246.494 97.4242 246.494C97.947 246.494 98.5009 246.557 99.0862 246.682C99.6771 246.801 100.228 247.022 100.74 247.346C101.257 247.67 101.68 248.133 102.009 248.735C102.339 249.332 102.504 250.108 102.504 251.062V259.755H100.015V257.966H99.9129C99.7481 258.295 99.5009 258.619 99.1714 258.937C98.8418 259.255 98.4185 259.52 97.9015 259.73C97.3845 259.94 96.7651 260.045 96.0435 260.045ZM96.5975 258C97.3021 258 97.9043 257.86 98.4043 257.582C98.91 257.304 99.2935 256.94 99.5549 256.491C99.822 256.037 99.9555 255.551 99.9555 255.034V253.346C99.8646 253.437 99.6884 253.522 99.4271 253.602C99.1714 253.676 98.8788 253.741 98.5492 253.798C98.2197 253.849 97.8987 253.897 97.5862 253.943C97.2737 253.983 97.0123 254.017 96.8021 254.045C96.3078 254.108 95.856 254.213 95.447 254.36C95.0435 254.508 94.7197 254.721 94.4754 255C94.2367 255.272 94.1174 255.636 94.1174 256.091C94.1174 256.721 94.3504 257.199 94.8163 257.522C95.2822 257.841 95.8759 258 96.5975 258ZM114.798 251.983V259.755H112.25V246.664H114.696V248.795H114.857C115.159 248.102 115.63 247.545 116.272 247.125C116.92 246.704 117.735 246.494 118.718 246.494C119.61 246.494 120.392 246.682 121.062 247.057C121.732 247.426 122.252 247.977 122.622 248.71C122.991 249.443 123.176 250.349 123.176 251.429V259.755H120.627V251.735C120.627 250.787 120.38 250.045 119.886 249.511C119.392 248.971 118.713 248.701 117.849 248.701C117.258 248.701 116.732 248.829 116.272 249.085C115.818 249.341 115.457 249.716 115.19 250.21C114.928 250.699 114.798 251.289 114.798 251.983ZM132.107 260.02C130.88 260.02 129.809 259.738 128.894 259.176C127.98 258.613 127.269 257.826 126.764 256.815C126.258 255.804 126.005 254.622 126.005 253.27C126.005 251.912 126.258 250.724 126.764 249.707C127.269 248.69 127.98 247.9 128.894 247.338C129.809 246.775 130.88 246.494 132.107 246.494C133.335 246.494 134.406 246.775 135.321 247.338C136.235 247.9 136.946 248.69 137.451 249.707C137.957 250.724 138.21 251.912 138.21 253.27C138.21 254.622 137.957 255.804 137.451 256.815C136.946 257.826 136.235 258.613 135.321 259.176C134.406 259.738 133.335 260.02 132.107 260.02ZM132.116 257.88C132.911 257.88 133.571 257.67 134.093 257.25C134.616 256.829 135.002 256.27 135.252 255.571C135.508 254.872 135.636 254.102 135.636 253.261C135.636 252.426 135.508 251.659 135.252 250.96C135.002 250.255 134.616 249.69 134.093 249.264C133.571 248.838 132.911 248.625 132.116 248.625C131.315 248.625 130.65 248.838 130.122 249.264C129.599 249.69 129.21 250.255 128.954 250.96C128.704 251.659 128.579 252.426 128.579 253.261C128.579 254.102 128.704 254.872 128.954 255.571C129.21 256.27 129.599 256.829 130.122 257.25C130.65 257.67 131.315 257.88 132.116 257.88ZM157.13 246.886C157.039 246.079 156.664 245.454 156.005 245.011C155.346 244.562 154.517 244.338 153.517 244.338C152.801 244.338 152.181 244.451 151.659 244.679C151.136 244.9 150.73 245.207 150.44 245.599C150.156 245.985 150.014 246.426 150.014 246.92C150.014 247.335 150.11 247.693 150.303 247.994C150.502 248.295 150.761 248.548 151.079 248.753C151.403 248.951 151.75 249.119 152.119 249.255C152.488 249.386 152.843 249.494 153.184 249.579L154.889 250.022C155.446 250.159 156.017 250.343 156.602 250.576C157.187 250.809 157.73 251.116 158.23 251.497C158.73 251.878 159.133 252.349 159.44 252.912C159.752 253.474 159.909 254.147 159.909 254.932C159.909 255.92 159.653 256.798 159.142 257.565C158.636 258.332 157.9 258.937 156.934 259.38C155.974 259.824 154.812 260.045 153.448 260.045C152.142 260.045 151.011 259.838 150.056 259.423C149.102 259.008 148.355 258.42 147.815 257.659C147.275 256.892 146.977 255.983 146.92 254.932H149.562C149.613 255.562 149.818 256.088 150.176 256.508C150.539 256.923 151.002 257.233 151.565 257.437C152.133 257.636 152.755 257.735 153.431 257.735C154.176 257.735 154.838 257.619 155.417 257.386C156.002 257.147 156.463 256.818 156.798 256.397C157.133 255.971 157.301 255.474 157.301 254.906C157.301 254.389 157.153 253.966 156.857 253.636C156.568 253.307 156.173 253.034 155.673 252.818C155.178 252.602 154.619 252.412 153.994 252.247L151.931 251.684C150.534 251.304 149.426 250.744 148.607 250.005C147.795 249.267 147.389 248.289 147.389 247.074C147.389 246.068 147.661 245.19 148.207 244.44C148.752 243.69 149.491 243.108 150.423 242.693C151.355 242.272 152.406 242.062 153.576 242.062C154.758 242.062 155.801 242.27 156.704 242.684C157.613 243.099 158.329 243.67 158.852 244.397C159.375 245.119 159.647 245.949 159.67 246.886H157.13ZM166.661 260.045C165.831 260.045 165.081 259.892 164.411 259.585C163.74 259.272 163.209 258.821 162.817 258.23C162.431 257.639 162.237 256.914 162.237 256.057C162.237 255.318 162.379 254.71 162.664 254.233C162.948 253.755 163.331 253.378 163.814 253.099C164.297 252.821 164.837 252.61 165.433 252.468C166.03 252.326 166.638 252.218 167.257 252.145C168.041 252.054 168.678 251.98 169.166 251.923C169.655 251.86 170.01 251.761 170.232 251.625C170.453 251.488 170.564 251.267 170.564 250.96V250.9C170.564 250.156 170.354 249.579 169.933 249.17C169.519 248.761 168.899 248.557 168.076 248.557C167.218 248.557 166.541 248.747 166.047 249.128C165.558 249.503 165.22 249.92 165.033 250.38L162.638 249.835C162.922 249.039 163.337 248.397 163.882 247.909C164.433 247.414 165.067 247.057 165.783 246.835C166.499 246.608 167.252 246.494 168.041 246.494C168.564 246.494 169.118 246.557 169.703 246.682C170.294 246.801 170.845 247.022 171.357 247.346C171.874 247.67 172.297 248.133 172.627 248.735C172.956 249.332 173.121 250.108 173.121 251.062V259.755H170.632V257.966H170.53C170.365 258.295 170.118 258.619 169.789 258.937C169.459 259.255 169.036 259.52 168.519 259.73C168.002 259.94 167.382 260.045 166.661 260.045ZM167.215 258C167.919 258 168.522 257.86 169.022 257.582C169.527 257.304 169.911 256.94 170.172 256.491C170.439 256.037 170.573 255.551 170.573 255.034V253.346C170.482 253.437 170.306 253.522 170.044 253.602C169.789 253.676 169.496 253.741 169.166 253.798C168.837 253.849 168.516 253.897 168.203 253.943C167.891 253.983 167.629 254.017 167.419 254.045C166.925 254.108 166.473 254.213 166.064 254.36C165.661 254.508 165.337 254.721 165.093 255C164.854 255.272 164.735 255.636 164.735 256.091C164.735 256.721 164.968 257.199 165.433 257.522C165.899 257.841 166.493 258 167.215 258ZM179.063 251.983V259.755H176.515V246.664H178.961V248.795H179.123C179.424 248.102 179.896 247.545 180.538 247.125C181.186 246.704 182.001 246.494 182.984 246.494C183.876 246.494 184.657 246.682 185.328 247.057C185.998 247.426 186.518 247.977 186.887 248.71C187.257 249.443 187.441 250.349 187.441 251.429V259.755H184.893V251.735C184.893 250.787 184.646 250.045 184.151 249.511C183.657 248.971 182.978 248.701 182.115 248.701C181.524 248.701 180.998 248.829 180.538 249.085C180.083 249.341 179.723 249.716 179.455 250.21C179.194 250.699 179.063 251.289 179.063 251.983ZM195.759 260.011C194.703 260.011 193.759 259.741 192.93 259.201C192.106 258.656 191.458 257.88 190.987 256.875C190.521 255.863 190.288 254.65 190.288 253.235C190.288 251.821 190.524 250.61 190.995 249.605C191.473 248.599 192.126 247.829 192.955 247.295C193.785 246.761 194.725 246.494 195.776 246.494C196.589 246.494 197.242 246.63 197.737 246.903C198.237 247.17 198.623 247.483 198.896 247.841C199.174 248.199 199.39 248.514 199.544 248.787H199.697V242.301H202.245V259.755H199.757V257.718H199.544C199.39 257.997 199.169 258.315 198.879 258.673C198.595 259.031 198.203 259.343 197.703 259.61C197.203 259.878 196.555 260.011 195.759 260.011ZM196.322 257.838C197.055 257.838 197.674 257.645 198.18 257.258C198.691 256.866 199.078 256.324 199.339 255.63C199.606 254.937 199.74 254.13 199.74 253.21C199.74 252.301 199.609 251.505 199.348 250.824C199.086 250.142 198.703 249.61 198.197 249.23C197.691 248.849 197.066 248.659 196.322 248.659C195.555 248.659 194.916 248.858 194.404 249.255C193.893 249.653 193.507 250.196 193.245 250.883C192.99 251.571 192.862 252.346 192.862 253.21C192.862 254.085 192.992 254.872 193.254 255.571C193.515 256.27 193.901 256.824 194.413 257.233C194.93 257.636 195.566 257.838 196.322 257.838ZM206.087 259.755V242.301H208.635V248.787H208.789C208.936 248.514 209.149 248.199 209.428 247.841C209.706 247.483 210.093 247.17 210.587 246.903C211.081 246.63 211.735 246.494 212.547 246.494C213.604 246.494 214.547 246.761 215.377 247.295C216.206 247.829 216.857 248.599 217.328 249.605C217.806 250.61 218.044 251.821 218.044 253.235C218.044 254.65 217.808 255.863 217.337 256.875C216.865 257.88 216.218 258.656 215.394 259.201C214.57 259.741 213.629 260.011 212.573 260.011C211.777 260.011 211.127 259.878 210.621 259.61C210.121 259.343 209.729 259.031 209.445 258.673C209.161 258.315 208.942 257.997 208.789 257.718H208.576V259.755H206.087ZM208.584 253.21C208.584 254.13 208.718 254.937 208.985 255.63C209.252 256.324 209.638 256.866 210.144 257.258C210.649 257.645 211.269 257.838 212.002 257.838C212.763 257.838 213.399 257.636 213.911 257.233C214.422 256.824 214.808 256.27 215.07 255.571C215.337 254.872 215.47 254.085 215.47 253.21C215.47 252.346 215.34 251.571 215.078 250.883C214.823 250.196 214.436 249.653 213.919 249.255C213.408 248.858 212.769 248.659 212.002 248.659C211.263 248.659 210.638 248.849 210.127 249.23C209.621 249.61 209.237 250.142 208.976 250.824C208.715 251.505 208.584 252.301 208.584 253.21ZM226.42 260.02C225.193 260.02 224.122 259.738 223.207 259.176C222.292 258.613 221.582 257.826 221.076 256.815C220.571 255.804 220.318 254.622 220.318 253.27C220.318 251.912 220.571 250.724 221.076 249.707C221.582 248.69 222.292 247.9 223.207 247.338C224.122 246.775 225.193 246.494 226.42 246.494C227.647 246.494 228.718 246.775 229.633 247.338C230.548 247.9 231.258 248.69 231.764 249.707C232.269 250.724 232.522 251.912 232.522 253.27C232.522 254.622 232.269 255.804 231.764 256.815C231.258 257.826 230.548 258.613 229.633 259.176C228.718 259.738 227.647 260.02 226.42 260.02ZM226.428 257.88C227.224 257.88 227.883 257.67 228.406 257.25C228.928 256.829 229.315 256.27 229.565 255.571C229.821 254.872 229.948 254.102 229.948 253.261C229.948 252.426 229.821 251.659 229.565 250.96C229.315 250.255 228.928 249.69 228.406 249.264C227.883 248.838 227.224 248.625 226.428 248.625C225.627 248.625 224.963 248.838 224.434 249.264C223.911 249.69 223.522 250.255 223.267 250.96C223.017 251.659 222.892 252.426 222.892 253.261C222.892 254.102 223.017 254.872 223.267 255.571C223.522 256.27 223.911 256.829 224.434 257.25C224.963 257.67 225.627 257.88 226.428 257.88ZM236.862 246.664L239.752 251.761L242.666 246.664H245.453L241.371 253.21L245.487 259.755H242.701L239.752 254.863L236.811 259.755H234.016L238.09 253.21L234.067 246.664H236.862ZM93.6785 280.511C93.6785 278.375 93.9597 276.409 94.5222 274.613C95.0847 272.818 95.9058 271.162 96.9853 269.645H99.3205C98.9001 270.207 98.508 270.897 98.1444 271.716C97.7808 272.534 97.4626 273.432 97.1899 274.409C96.9171 275.38 96.7041 276.389 96.5507 277.434C96.3972 278.474 96.3205 279.5 96.3205 280.511C96.3205 281.863 96.4541 283.233 96.7211 284.619C96.9882 286.005 97.3489 287.292 97.8035 288.48C98.258 289.667 98.7637 290.636 99.3205 291.386H96.9853C95.9058 289.869 95.0847 288.213 94.5222 286.417C93.9597 284.622 93.6785 282.653 93.6785 280.511ZM107.262 292.937C106.222 292.937 105.327 292.801 104.577 292.528C103.833 292.255 103.225 291.895 102.753 291.446C102.281 290.997 101.929 290.505 101.696 289.971L103.887 289.068C104.04 289.318 104.245 289.582 104.5 289.86C104.762 290.145 105.114 290.386 105.557 290.585C106.006 290.784 106.583 290.883 107.287 290.883C108.253 290.883 109.051 290.647 109.682 290.176C110.313 289.71 110.628 288.966 110.628 287.943V285.369H110.466C110.313 285.647 110.091 285.957 109.801 286.298C109.517 286.639 109.125 286.934 108.625 287.184C108.125 287.434 107.475 287.559 106.674 287.559C105.639 287.559 104.708 287.318 103.878 286.835C103.054 286.346 102.401 285.628 101.918 284.679C101.441 283.724 101.202 282.551 101.202 281.159C101.202 279.767 101.438 278.574 101.909 277.579C102.387 276.585 103.04 275.824 103.87 275.295C104.699 274.761 105.639 274.494 106.691 274.494C107.503 274.494 108.159 274.63 108.659 274.903C109.159 275.17 109.549 275.483 109.827 275.841C110.111 276.199 110.33 276.514 110.483 276.787H110.671V274.664H113.168V288.045C113.168 289.17 112.906 290.093 112.384 290.815C111.861 291.537 111.154 292.071 110.262 292.417C109.375 292.764 108.375 292.937 107.262 292.937ZM107.236 285.446C107.969 285.446 108.588 285.275 109.094 284.934C109.605 284.588 109.992 284.093 110.253 283.451C110.52 282.804 110.654 282.028 110.654 281.125C110.654 280.244 110.523 279.468 110.262 278.798C110 278.128 109.617 277.605 109.111 277.23C108.605 276.849 107.98 276.659 107.236 276.659C106.469 276.659 105.83 276.858 105.318 277.255C104.807 277.647 104.421 278.182 104.159 278.858C103.904 279.534 103.776 280.289 103.776 281.125C103.776 281.983 103.906 282.735 104.168 283.383C104.429 284.031 104.816 284.537 105.327 284.9C105.844 285.264 106.48 285.446 107.236 285.446ZM116.585 287.755V274.664H119.049V276.744H119.185C119.424 276.039 119.844 275.485 120.446 275.082C121.054 274.673 121.742 274.468 122.509 274.468C122.668 274.468 122.855 274.474 123.071 274.485C123.293 274.497 123.466 274.511 123.591 274.528V276.966C123.489 276.937 123.307 276.906 123.046 276.872C122.784 276.832 122.523 276.812 122.262 276.812C121.659 276.812 121.122 276.94 120.651 277.196C120.185 277.446 119.816 277.795 119.543 278.244C119.27 278.687 119.134 279.193 119.134 279.761V287.755H116.585ZM129.489 288.045C128.659 288.045 127.909 287.892 127.239 287.585C126.568 287.272 126.037 286.821 125.645 286.23C125.259 285.639 125.066 284.914 125.066 284.057C125.066 283.318 125.208 282.71 125.492 282.233C125.776 281.755 126.159 281.378 126.642 281.099C127.125 280.821 127.665 280.61 128.262 280.468C128.858 280.326 129.466 280.218 130.085 280.145C130.87 280.054 131.506 279.98 131.995 279.923C132.483 279.86 132.838 279.761 133.06 279.625C133.281 279.488 133.392 279.267 133.392 278.96V278.9C133.392 278.156 133.182 277.579 132.762 277.17C132.347 276.761 131.727 276.557 130.904 276.557C130.046 276.557 129.37 276.747 128.875 277.128C128.387 277.503 128.049 277.92 127.861 278.38L125.466 277.835C125.75 277.039 126.165 276.397 126.71 275.909C127.262 275.414 127.895 275.057 128.611 274.835C129.327 274.608 130.08 274.494 130.87 274.494C131.392 274.494 131.946 274.557 132.531 274.682C133.122 274.801 133.674 275.022 134.185 275.346C134.702 275.67 135.125 276.133 135.455 276.735C135.784 277.332 135.949 278.108 135.949 279.062V287.755H133.46V285.966H133.358C133.193 286.295 132.946 286.619 132.617 286.937C132.287 287.255 131.864 287.52 131.347 287.73C130.83 287.94 130.21 288.045 129.489 288.045ZM130.043 286C130.747 286 131.35 285.86 131.85 285.582C132.355 285.304 132.739 284.94 133 284.491C133.267 284.037 133.401 283.551 133.401 283.034V281.346C133.31 281.437 133.134 281.522 132.872 281.602C132.617 281.676 132.324 281.741 131.995 281.798C131.665 281.849 131.344 281.897 131.031 281.943C130.719 281.983 130.458 282.017 130.247 282.045C129.753 282.108 129.301 282.213 128.892 282.36C128.489 282.508 128.165 282.721 127.921 283C127.682 283.272 127.563 283.636 127.563 284.091C127.563 284.721 127.796 285.199 128.262 285.522C128.727 285.841 129.321 286 130.043 286ZM145.454 274.664V276.71H138.303V274.664H145.454ZM140.221 271.528H142.769V283.912C142.769 284.406 142.843 284.778 142.991 285.028C143.139 285.272 143.329 285.44 143.562 285.531C143.801 285.616 144.059 285.659 144.338 285.659C144.542 285.659 144.721 285.645 144.875 285.616C145.028 285.588 145.147 285.565 145.232 285.548L145.693 287.653C145.545 287.71 145.335 287.767 145.062 287.824C144.789 287.886 144.448 287.92 144.039 287.926C143.369 287.937 142.744 287.818 142.164 287.568C141.585 287.318 141.116 286.932 140.758 286.409C140.4 285.886 140.221 285.23 140.221 284.44V271.528ZM156.566 282.326V274.664H159.122V287.755H156.617V285.488H156.48C156.179 286.187 155.696 286.77 155.031 287.235C154.372 287.696 153.551 287.926 152.568 287.926C151.727 287.926 150.983 287.741 150.335 287.372C149.693 286.997 149.188 286.443 148.818 285.71C148.455 284.977 148.273 284.071 148.273 282.991V274.664H150.821V282.684C150.821 283.576 151.068 284.287 151.563 284.815C152.057 285.343 152.699 285.608 153.489 285.608C153.966 285.608 154.441 285.488 154.912 285.25C155.389 285.011 155.784 284.65 156.097 284.167C156.415 283.684 156.571 283.071 156.566 282.326ZM162.546 287.755V274.664H165.095V287.755H162.546ZM163.833 272.645C163.39 272.645 163.009 272.497 162.691 272.201C162.379 271.9 162.223 271.542 162.223 271.128C162.223 270.707 162.379 270.349 162.691 270.054C163.009 269.753 163.39 269.602 163.833 269.602C164.276 269.602 164.654 269.753 164.967 270.054C165.285 270.349 165.444 270.707 165.444 271.128C165.444 271.542 165.285 271.9 164.967 272.201C164.654 272.497 164.276 272.645 163.833 272.645ZM174.634 274.664V276.71H167.483V274.664H174.634ZM169.401 271.528H171.949V283.912C171.949 284.406 172.023 284.778 172.171 285.028C172.318 285.272 172.509 285.44 172.742 285.531C172.98 285.616 173.239 285.659 173.517 285.659C173.722 285.659 173.901 285.645 174.054 285.616C174.208 285.588 174.327 285.565 174.412 285.548L174.872 287.653C174.725 287.71 174.514 287.767 174.242 287.824C173.969 287.886 173.628 287.92 173.219 287.926C172.549 287.937 171.924 287.818 171.344 287.568C170.764 287.318 170.296 286.932 169.938 286.409C169.58 285.886 169.401 285.23 169.401 284.44V271.528ZM182.826 288.02C181.599 288.02 180.528 287.738 179.613 287.176C178.698 286.613 177.988 285.826 177.482 284.815C176.977 283.804 176.724 282.622 176.724 281.27C176.724 279.912 176.977 278.724 177.482 277.707C177.988 276.69 178.698 275.9 179.613 275.338C180.528 274.775 181.599 274.494 182.826 274.494C184.053 274.494 185.125 274.775 186.039 275.338C186.954 275.9 187.664 276.69 188.17 277.707C188.676 278.724 188.928 279.912 188.928 281.27C188.928 282.622 188.676 283.804 188.17 284.815C187.664 285.826 186.954 286.613 186.039 287.176C185.125 287.738 184.053 288.02 182.826 288.02ZM182.835 285.88C183.63 285.88 184.289 285.67 184.812 285.25C185.335 284.829 185.721 284.27 185.971 283.571C186.227 282.872 186.355 282.102 186.355 281.261C186.355 280.426 186.227 279.659 185.971 278.96C185.721 278.255 185.335 277.69 184.812 277.264C184.289 276.838 183.63 276.625 182.835 276.625C182.034 276.625 181.369 276.838 180.84 277.264C180.318 277.69 179.928 278.255 179.673 278.96C179.423 279.659 179.298 280.426 179.298 281.261C179.298 282.102 179.423 282.872 179.673 283.571C179.928 284.27 180.318 284.829 180.84 285.25C181.369 285.67 182.034 285.88 182.835 285.88ZM196.369 280.511C196.369 282.653 196.088 284.622 195.525 286.417C194.963 288.213 194.142 289.869 193.062 291.386H190.727C191.147 290.824 191.539 290.133 191.903 289.315C192.267 288.497 192.585 287.602 192.857 286.63C193.13 285.653 193.343 284.642 193.497 283.596C193.65 282.551 193.727 281.522 193.727 280.511C193.727 279.164 193.593 277.798 193.326 276.412C193.059 275.025 192.698 273.738 192.244 272.551C191.789 271.363 191.284 270.395 190.727 269.645H193.062C194.142 271.162 194.963 272.818 195.525 274.613C196.088 276.409 196.369 278.375 196.369 280.511Z" fill="white"/>
<path d="M80.8125 57.103L100.135 76.4252H189.915L209.237 57.103H80.8125Z" fill="#6DC135"/>
<path d="M96.7193 79.8402L77.3972 60.5181V188.942L96.7193 169.62V79.8402Z" fill="#6DC135"/>
<path d="M189.915 173.036H100.135L80.8125 192.358H209.237L189.915 173.036Z" fill="#6DC135"/>
<path d="M193.33 79.8402V169.62L212.652 188.942V60.5181L193.33 79.8402Z" fill="#6DC135"/>
<path d="M169.177 90.9165H120.872C112.869 90.9165 106.38 97.4046 106.38 105.408V129.561C106.38 137.564 112.869 144.052 120.872 144.052H140.194V148.883H135.364C132.694 148.883 130.533 151.046 130.533 153.714C130.533 156.381 132.694 158.544 135.364 158.544H154.686C157.356 158.544 159.516 156.381 159.516 153.714C159.516 151.046 157.356 148.883 154.686 148.883H149.855V144.052H169.177C177.181 144.052 183.669 137.564 183.669 129.561V105.408C183.669 97.4046 177.181 90.9165 169.177 90.9165ZM139.487 125.438C140.43 126.381 140.43 127.91 139.487 128.853C139.015 129.325 138.397 129.561 137.779 129.561C137.161 129.561 136.543 129.325 136.071 128.853L126.41 119.192C125.467 118.249 125.467 116.72 126.41 115.777L136.071 106.116C137.015 105.172 138.543 105.172 139.487 106.116C140.43 107.059 140.43 108.588 139.487 109.531L131.533 117.484L139.487 125.438ZM163.639 119.192L153.978 128.853C153.506 129.325 152.889 129.561 152.271 129.561C151.653 129.561 151.035 129.325 150.563 128.853C149.619 127.91 149.619 126.381 150.563 125.438L158.516 117.484L150.563 109.531C149.619 108.588 149.619 107.059 150.563 106.116C151.506 105.172 153.035 105.172 153.978 106.116L163.639 115.777C164.583 116.72 164.583 118.249 163.639 119.192Z" fill="#6DC135"/>
</svg>
