<svg width="291" height="337" viewBox="0 0 291 337" fill="none" xmlns="http://www.w3.org/2000/svg">
<rect width="290.918" height="336.944" rx="16" fill="#D9D9D9" fill-opacity="0.2"/>
<path d="M46.2783 260.076V242.622H52.4999C53.8579 242.622 54.9829 242.869 55.8749 243.363C56.7669 243.857 57.4346 244.534 57.8777 245.392C58.3209 246.244 58.5425 247.204 58.5425 248.272C58.5425 249.346 58.3181 250.312 57.8692 251.17C57.426 252.022 56.7556 252.698 55.8579 253.198C54.9658 253.693 53.8436 253.94 52.4914 253.94H48.213V251.707H52.2527C53.1107 251.707 53.8067 251.559 54.3408 251.264C54.8749 250.963 55.2669 250.553 55.5169 250.036C55.7669 249.519 55.8919 248.931 55.8919 248.272C55.8919 247.613 55.7669 247.028 55.5169 246.517C55.2669 246.005 54.8721 245.605 54.3323 245.315C53.7982 245.025 53.0936 244.88 52.2186 244.88H48.9118V260.076H46.2783ZM65.1178 260.366C64.2883 260.366 63.5383 260.213 62.8678 259.906C62.1973 259.593 61.6661 259.142 61.274 258.551C60.8877 257.96 60.6945 257.235 60.6945 256.377C60.6945 255.639 60.8365 255.031 61.1206 254.553C61.4047 254.076 61.7883 253.698 62.2712 253.42C62.7542 253.142 63.2939 252.931 63.8905 252.789C64.4871 252.647 65.0951 252.539 65.7144 252.465C66.4985 252.374 67.1348 252.301 67.6235 252.244C68.1121 252.181 68.4672 252.082 68.6888 251.945C68.9104 251.809 69.0212 251.588 69.0212 251.281V251.221C69.0212 250.477 68.811 249.9 68.3905 249.491C67.9758 249.082 67.3564 248.877 66.5326 248.877C65.6746 248.877 64.9985 249.068 64.5042 249.448C64.0155 249.823 63.6775 250.241 63.49 250.701L61.0951 250.156C61.3792 249.36 61.7939 248.718 62.3394 248.23C62.8905 247.735 63.524 247.377 64.24 247.156C64.9559 246.928 65.7087 246.815 66.4985 246.815C67.0212 246.815 67.5752 246.877 68.1604 247.002C68.7513 247.122 69.3025 247.343 69.8138 247.667C70.3309 247.991 70.7542 248.454 71.0837 249.056C71.4133 249.653 71.578 250.428 71.578 251.383V260.076H69.0894V258.286H68.9871C68.8223 258.616 68.5752 258.94 68.2456 259.258C67.9161 259.576 67.4928 259.84 66.9758 260.051C66.4587 260.261 65.8394 260.366 65.1178 260.366ZM65.6718 258.32C66.3763 258.32 66.9786 258.181 67.4786 257.903C67.9843 257.624 68.3678 257.261 68.6292 256.812C68.8962 256.357 69.0297 255.872 69.0297 255.355V253.667C68.9388 253.758 68.7627 253.843 68.5013 253.923C68.2456 253.997 67.953 254.062 67.6235 254.119C67.2939 254.17 66.9729 254.218 66.6604 254.264C66.3479 254.303 66.0865 254.338 65.8763 254.366C65.382 254.428 64.9303 254.534 64.5212 254.681C64.1178 254.829 63.7939 255.042 63.5496 255.32C63.311 255.593 63.1917 255.957 63.1917 256.411C63.1917 257.042 63.4246 257.519 63.8905 257.843C64.3564 258.161 64.9502 258.32 65.6718 258.32ZM84.7819 250.181L82.4722 250.59C82.3756 250.295 82.2222 250.014 82.012 249.747C81.8074 249.48 81.529 249.261 81.1767 249.09C80.8245 248.92 80.3841 248.835 79.8557 248.835C79.1341 248.835 78.5319 248.997 78.0489 249.32C77.566 249.639 77.3245 250.051 77.3245 250.556C77.3245 250.994 77.4864 251.346 77.8103 251.613C78.1341 251.88 78.6569 252.099 79.3785 252.269L81.458 252.747C82.6625 253.025 83.5603 253.454 84.1512 254.034C84.7421 254.613 85.0375 255.366 85.0375 256.292C85.0375 257.076 84.8103 257.775 84.3557 258.389C83.9069 258.997 83.279 259.474 82.4722 259.82C81.6711 260.167 80.7421 260.34 79.6853 260.34C78.2194 260.34 77.0233 260.028 76.0972 259.403C75.1711 258.772 74.6029 257.877 74.3927 256.718L76.8557 256.343C77.0091 256.985 77.3245 257.471 77.8017 257.801C78.279 258.124 78.9012 258.286 79.6682 258.286C80.5035 258.286 81.1711 258.113 81.6711 257.767C82.1711 257.414 82.4211 256.985 82.4211 256.48C82.4211 256.07 82.2677 255.727 81.9608 255.448C81.6597 255.17 81.1966 254.96 80.5716 254.818L78.3557 254.332C77.1341 254.053 76.2307 253.61 75.6455 253.002C75.066 252.394 74.7762 251.624 74.7762 250.693C74.7762 249.92 74.9921 249.244 75.4239 248.664C75.8557 248.085 76.4523 247.633 77.2137 247.309C77.975 246.98 78.8472 246.815 79.8302 246.815C81.2449 246.815 82.3586 247.122 83.1711 247.735C83.9836 248.343 84.5205 249.159 84.7819 250.181ZM97.649 250.181L95.3394 250.59C95.2428 250.295 95.0894 250.014 94.8792 249.747C94.6746 249.48 94.3962 249.261 94.0439 249.09C93.6917 248.92 93.2513 248.835 92.7229 248.835C92.0013 248.835 91.399 248.997 90.9161 249.32C90.4331 249.639 90.1917 250.051 90.1917 250.556C90.1917 250.994 90.3536 251.346 90.6775 251.613C91.0013 251.88 91.524 252.099 92.2456 252.269L94.3252 252.747C95.5297 253.025 96.4275 253.454 97.0184 254.034C97.6093 254.613 97.9047 255.366 97.9047 256.292C97.9047 257.076 97.6775 257.775 97.2229 258.389C96.774 258.997 96.1462 259.474 95.3394 259.82C94.5383 260.167 93.6093 260.34 92.5525 260.34C91.0865 260.34 89.8905 260.028 88.9644 259.403C88.0383 258.772 87.4701 257.877 87.2598 256.718L89.7229 256.343C89.8763 256.985 90.1917 257.471 90.6689 257.801C91.1462 258.124 91.7684 258.286 92.5354 258.286C93.3706 258.286 94.0383 258.113 94.5383 257.767C95.0383 257.414 95.2883 256.985 95.2883 256.48C95.2883 256.07 95.1348 255.727 94.828 255.448C94.5269 255.17 94.0638 254.96 93.4388 254.818L91.2229 254.332C90.0013 254.053 89.0979 253.61 88.5127 253.002C87.9331 252.394 87.6434 251.624 87.6434 250.693C87.6434 249.92 87.8593 249.244 88.2911 248.664C88.7229 248.085 89.3195 247.633 90.0809 247.309C90.8422 246.98 91.7144 246.815 92.6973 246.815C94.1121 246.815 95.2258 247.122 96.0383 247.735C96.8508 248.343 97.3877 249.159 97.649 250.181ZM104.516 260.366C103.687 260.366 102.937 260.213 102.266 259.906C101.596 259.593 101.065 259.142 100.672 258.551C100.286 257.96 100.093 257.235 100.093 256.377C100.093 255.639 100.235 255.031 100.519 254.553C100.803 254.076 101.187 253.698 101.67 253.42C102.153 253.142 102.692 252.931 103.289 252.789C103.886 252.647 104.494 252.539 105.113 252.465C105.897 252.374 106.533 252.301 107.022 252.244C107.511 252.181 107.866 252.082 108.087 251.945C108.309 251.809 108.42 251.588 108.42 251.281V251.221C108.42 250.477 108.209 249.9 107.789 249.491C107.374 249.082 106.755 248.877 105.931 248.877C105.073 248.877 104.397 249.068 103.903 249.448C103.414 249.823 103.076 250.241 102.888 250.701L100.494 250.156C100.778 249.36 101.192 248.718 101.738 248.23C102.289 247.735 102.922 247.377 103.638 247.156C104.354 246.928 105.107 246.815 105.897 246.815C106.42 246.815 106.974 246.877 107.559 247.002C108.15 247.122 108.701 247.343 109.212 247.667C109.729 247.991 110.153 248.454 110.482 249.056C110.812 249.653 110.976 250.428 110.976 251.383V260.076H108.488V258.286H108.386C108.221 258.616 107.974 258.94 107.644 259.258C107.315 259.576 106.891 259.84 106.374 260.051C105.857 260.261 105.238 260.366 104.516 260.366ZM105.07 258.32C105.775 258.32 106.377 258.181 106.877 257.903C107.383 257.624 107.766 257.261 108.028 256.812C108.295 256.357 108.428 255.872 108.428 255.355V253.667C108.337 253.758 108.161 253.843 107.9 253.923C107.644 253.997 107.351 254.062 107.022 254.119C106.692 254.17 106.371 254.218 106.059 254.264C105.746 254.303 105.485 254.338 105.275 254.366C104.78 254.428 104.329 254.534 103.92 254.681C103.516 254.829 103.192 255.042 102.948 255.32C102.709 255.593 102.59 255.957 102.59 256.411C102.59 257.042 102.823 257.519 103.289 257.843C103.755 258.161 104.349 258.32 105.07 258.32ZM120.722 264.985V246.985H123.211V249.107H123.424C123.572 248.835 123.785 248.519 124.063 248.161C124.342 247.803 124.728 247.491 125.222 247.224C125.717 246.951 126.37 246.815 127.182 246.815C128.239 246.815 129.182 247.082 130.012 247.616C130.842 248.15 131.492 248.92 131.964 249.926C132.441 250.931 132.68 252.142 132.68 253.556C132.68 254.971 132.444 256.184 131.972 257.195C131.501 258.201 130.853 258.977 130.029 259.522C129.205 260.062 128.265 260.332 127.208 260.332C126.413 260.332 125.762 260.198 125.256 259.931C124.756 259.664 124.364 259.352 124.08 258.994C123.796 258.636 123.577 258.318 123.424 258.039H123.27V264.985H120.722ZM123.219 253.531C123.219 254.451 123.353 255.258 123.62 255.951C123.887 256.644 124.273 257.187 124.779 257.579C125.285 257.965 125.904 258.159 126.637 258.159C127.398 258.159 128.035 257.957 128.546 257.553C129.057 257.144 129.444 256.59 129.705 255.892C129.972 255.193 130.106 254.406 130.106 253.531C130.106 252.667 129.975 251.892 129.714 251.204C129.458 250.517 129.072 249.974 128.555 249.576C128.043 249.178 127.404 248.98 126.637 248.98C125.898 248.98 125.273 249.17 124.762 249.551C124.256 249.931 123.873 250.463 123.611 251.144C123.35 251.826 123.219 252.622 123.219 253.531ZM139.344 260.366C138.515 260.366 137.765 260.213 137.094 259.906C136.424 259.593 135.893 259.142 135.501 258.551C135.114 257.96 134.921 257.235 134.921 256.377C134.921 255.639 135.063 255.031 135.347 254.553C135.631 254.076 136.015 253.698 136.498 253.42C136.981 253.142 137.52 252.931 138.117 252.789C138.714 252.647 139.322 252.539 139.941 252.465C140.725 252.374 141.361 252.301 141.85 252.244C142.339 252.181 142.694 252.082 142.915 251.945C143.137 251.809 143.248 251.588 143.248 251.281V251.221C143.248 250.477 143.038 249.9 142.617 249.491C142.202 249.082 141.583 248.877 140.759 248.877C139.901 248.877 139.225 249.068 138.731 249.448C138.242 249.823 137.904 250.241 137.717 250.701L135.322 250.156C135.606 249.36 136.02 248.718 136.566 248.23C137.117 247.735 137.751 247.377 138.467 247.156C139.182 246.928 139.935 246.815 140.725 246.815C141.248 246.815 141.802 246.877 142.387 247.002C142.978 247.122 143.529 247.343 144.04 247.667C144.557 247.991 144.981 248.454 145.31 249.056C145.64 249.653 145.805 250.428 145.805 251.383V260.076H143.316V258.286H143.214C143.049 258.616 142.802 258.94 142.472 259.258C142.143 259.576 141.719 259.84 141.202 260.051C140.685 260.261 140.066 260.366 139.344 260.366ZM139.898 258.32C140.603 258.32 141.205 258.181 141.705 257.903C142.211 257.624 142.594 257.261 142.856 256.812C143.123 256.357 143.256 255.872 143.256 255.355V253.667C143.165 253.758 142.989 253.843 142.728 253.923C142.472 253.997 142.18 254.062 141.85 254.119C141.52 254.17 141.199 254.218 140.887 254.264C140.574 254.303 140.313 254.338 140.103 254.366C139.609 254.428 139.157 254.534 138.748 254.681C138.344 254.829 138.02 255.042 137.776 255.32C137.538 255.593 137.418 255.957 137.418 256.411C137.418 257.042 137.651 257.519 138.117 257.843C138.583 258.161 139.177 258.32 139.898 258.32ZM149.199 260.076V246.985H151.662V249.065H151.798C152.037 248.36 152.457 247.806 153.06 247.403C153.668 246.994 154.355 246.789 155.122 246.789C155.281 246.789 155.469 246.795 155.685 246.806C155.906 246.818 156.079 246.832 156.204 246.849V249.286C156.102 249.258 155.92 249.227 155.659 249.193C155.398 249.153 155.136 249.133 154.875 249.133C154.273 249.133 153.736 249.261 153.264 249.517C152.798 249.767 152.429 250.116 152.156 250.565C151.883 251.008 151.747 251.514 151.747 252.082V260.076H149.199ZM162.102 260.366C161.273 260.366 160.523 260.213 159.852 259.906C159.182 259.593 158.65 259.142 158.258 258.551C157.872 257.96 157.679 257.235 157.679 256.377C157.679 255.639 157.821 255.031 158.105 254.553C158.389 254.076 158.773 253.698 159.256 253.42C159.739 253.142 160.278 252.931 160.875 252.789C161.471 252.647 162.079 252.539 162.699 252.465C163.483 252.374 164.119 252.301 164.608 252.244C165.096 252.181 165.452 252.082 165.673 251.945C165.895 251.809 166.006 251.588 166.006 251.281V251.221C166.006 250.477 165.795 249.9 165.375 249.491C164.96 249.082 164.341 248.877 163.517 248.877C162.659 248.877 161.983 249.068 161.489 249.448C161 249.823 160.662 250.241 160.474 250.701L158.079 250.156C158.364 249.36 158.778 248.718 159.324 248.23C159.875 247.735 160.508 247.377 161.224 247.156C161.94 246.928 162.693 246.815 163.483 246.815C164.006 246.815 164.56 246.877 165.145 247.002C165.736 247.122 166.287 247.343 166.798 247.667C167.315 247.991 167.739 248.454 168.068 249.056C168.398 249.653 168.562 250.428 168.562 251.383V260.076H166.074V258.286H165.971C165.807 258.616 165.56 258.94 165.23 259.258C164.9 259.576 164.477 259.84 163.96 260.051C163.443 260.261 162.824 260.366 162.102 260.366ZM162.656 258.32C163.361 258.32 163.963 258.181 164.463 257.903C164.969 257.624 165.352 257.261 165.614 256.812C165.881 256.357 166.014 255.872 166.014 255.355V253.667C165.923 253.758 165.747 253.843 165.486 253.923C165.23 253.997 164.937 254.062 164.608 254.119C164.278 254.17 163.957 254.218 163.645 254.264C163.332 254.303 163.071 254.338 162.861 254.366C162.366 254.428 161.915 254.534 161.506 254.681C161.102 254.829 160.778 255.042 160.534 255.32C160.295 255.593 160.176 255.957 160.176 256.411C160.176 257.042 160.409 257.519 160.875 257.843C161.341 258.161 161.935 258.32 162.656 258.32ZM182.118 260.366C181.288 260.366 180.538 260.213 179.868 259.906C179.197 259.593 178.666 259.142 178.274 258.551C177.888 257.96 177.694 257.235 177.694 256.377C177.694 255.639 177.837 255.031 178.121 254.553C178.405 254.076 178.788 253.698 179.271 253.42C179.754 253.142 180.294 252.931 180.891 252.789C181.487 252.647 182.095 252.539 182.714 252.465C183.498 252.374 184.135 252.301 184.623 252.244C185.112 252.181 185.467 252.082 185.689 251.945C185.91 251.809 186.021 251.588 186.021 251.281V251.221C186.021 250.477 185.811 249.9 185.391 249.491C184.976 249.082 184.356 248.877 183.533 248.877C182.675 248.877 181.998 249.068 181.504 249.448C181.016 249.823 180.677 250.241 180.49 250.701L178.095 250.156C178.379 249.36 178.794 248.718 179.339 248.23C179.891 247.735 180.524 247.377 181.24 247.156C181.956 246.928 182.709 246.815 183.498 246.815C184.021 246.815 184.575 246.877 185.16 247.002C185.751 247.122 186.302 247.343 186.814 247.667C187.331 247.991 187.754 248.454 188.084 249.056C188.413 249.653 188.578 250.428 188.578 251.383V260.076H186.089V258.286H185.987C185.822 258.616 185.575 258.94 185.246 259.258C184.916 259.576 184.493 259.84 183.976 260.051C183.459 260.261 182.839 260.366 182.118 260.366ZM182.672 258.32C183.376 258.32 183.979 258.181 184.479 257.903C184.984 257.624 185.368 257.261 185.629 256.812C185.896 256.357 186.03 255.872 186.03 255.355V253.667C185.939 253.758 185.763 253.843 185.501 253.923C185.246 253.997 184.953 254.062 184.623 254.119C184.294 254.17 183.973 254.218 183.66 254.264C183.348 254.303 183.087 254.338 182.876 254.366C182.382 254.428 181.93 254.534 181.521 254.681C181.118 254.829 180.794 255.042 180.55 255.32C180.311 255.593 180.192 255.957 180.192 256.411C180.192 257.042 180.425 257.519 180.891 257.843C181.356 258.161 181.95 258.32 182.672 258.32ZM204.554 246.985V249.031H197.156V246.985H204.554ZM199.185 260.076V245.468C199.185 244.65 199.364 243.971 199.721 243.431C200.079 242.886 200.554 242.48 201.145 242.213C201.736 241.94 202.378 241.803 203.071 241.803C203.582 241.803 204.02 241.846 204.383 241.931C204.747 242.011 205.017 242.085 205.193 242.153L204.596 244.215C204.477 244.181 204.324 244.142 204.136 244.096C203.949 244.045 203.721 244.019 203.454 244.019C202.835 244.019 202.392 244.173 202.125 244.48C201.864 244.786 201.733 245.23 201.733 245.809V260.076H199.185ZM210.594 260.366C209.765 260.366 209.015 260.213 208.344 259.906C207.674 259.593 207.143 259.142 206.751 258.551C206.364 257.96 206.171 257.235 206.171 256.377C206.171 255.639 206.313 255.031 206.597 254.553C206.881 254.076 207.265 253.698 207.748 253.42C208.231 253.142 208.77 252.931 209.367 252.789C209.964 252.647 210.572 252.539 211.191 252.465C211.975 252.374 212.611 252.301 213.1 252.244C213.589 252.181 213.944 252.082 214.165 251.945C214.387 251.809 214.498 251.588 214.498 251.281V251.221C214.498 250.477 214.288 249.9 213.867 249.491C213.452 249.082 212.833 248.877 212.009 248.877C211.151 248.877 210.475 249.068 209.981 249.448C209.492 249.823 209.154 250.241 208.967 250.701L206.572 250.156C206.856 249.36 207.27 248.718 207.816 248.23C208.367 247.735 209.001 247.377 209.717 247.156C210.432 246.928 211.185 246.815 211.975 246.815C212.498 246.815 213.052 246.877 213.637 247.002C214.228 247.122 214.779 247.343 215.29 247.667C215.807 247.991 216.231 248.454 216.56 249.056C216.89 249.653 217.055 250.428 217.055 251.383V260.076H214.566V258.286H214.464C214.299 258.616 214.052 258.94 213.722 259.258C213.393 259.576 212.969 259.84 212.452 260.051C211.935 260.261 211.316 260.366 210.594 260.366ZM211.148 258.32C211.853 258.32 212.455 258.181 212.955 257.903C213.461 257.624 213.844 257.261 214.106 256.812C214.373 256.357 214.506 255.872 214.506 255.355V253.667C214.415 253.758 214.239 253.843 213.978 253.923C213.722 253.997 213.43 254.062 213.1 254.119C212.77 254.17 212.449 254.218 212.137 254.264C211.824 254.303 211.563 254.338 211.353 254.366C210.859 254.428 210.407 254.534 209.998 254.681C209.594 254.829 209.27 255.042 209.026 255.32C208.788 255.593 208.668 255.957 208.668 256.411C208.668 257.042 208.901 257.519 209.367 257.843C209.833 258.161 210.427 258.32 211.148 258.32ZM230.258 250.181L227.949 250.59C227.852 250.295 227.699 250.014 227.489 249.747C227.284 249.48 227.006 249.261 226.653 249.09C226.301 248.92 225.861 248.835 225.332 248.835C224.611 248.835 224.008 248.997 223.525 249.32C223.043 249.639 222.801 250.051 222.801 250.556C222.801 250.994 222.963 251.346 223.287 251.613C223.611 251.88 224.133 252.099 224.855 252.269L226.935 252.747C228.139 253.025 229.037 253.454 229.628 254.034C230.219 254.613 230.514 255.366 230.514 256.292C230.514 257.076 230.287 257.775 229.832 258.389C229.383 258.997 228.756 259.474 227.949 259.82C227.148 260.167 226.219 260.34 225.162 260.34C223.696 260.34 222.5 260.028 221.574 259.403C220.648 258.772 220.079 257.877 219.869 256.718L222.332 256.343C222.486 256.985 222.801 257.471 223.278 257.801C223.756 258.124 224.378 258.286 225.145 258.286C225.98 258.286 226.648 258.113 227.148 257.767C227.648 257.414 227.898 256.985 227.898 256.48C227.898 256.07 227.744 255.727 227.437 255.448C227.136 255.17 226.673 254.96 226.048 254.818L223.832 254.332C222.611 254.053 221.707 253.61 221.122 253.002C220.543 252.394 220.253 251.624 220.253 250.693C220.253 249.92 220.469 249.244 220.9 248.664C221.332 248.085 221.929 247.633 222.69 247.309C223.452 246.98 224.324 246.815 225.307 246.815C226.721 246.815 227.835 247.122 228.648 247.735C229.46 248.343 229.997 249.159 230.258 250.181ZM238.958 260.34C237.668 260.34 236.557 260.065 235.626 259.514C234.699 258.957 233.984 258.176 233.478 257.17C232.978 256.159 232.728 254.974 232.728 253.616C232.728 252.275 232.978 251.093 233.478 250.07C233.984 249.048 234.688 248.249 235.592 247.676C236.501 247.102 237.563 246.815 238.779 246.815C239.518 246.815 240.234 246.937 240.927 247.181C241.62 247.426 242.242 247.809 242.793 248.332C243.344 248.855 243.779 249.534 244.097 250.369C244.415 251.198 244.574 252.207 244.574 253.394V254.298H234.168V252.389H242.077C242.077 251.718 241.941 251.124 241.668 250.607C241.395 250.085 241.012 249.673 240.518 249.372C240.029 249.07 239.455 248.92 238.796 248.92C238.08 248.92 237.455 249.096 236.921 249.448C236.393 249.795 235.984 250.249 235.694 250.812C235.41 251.369 235.268 251.974 235.268 252.627V254.119C235.268 254.994 235.421 255.738 235.728 256.352C236.04 256.965 236.475 257.434 237.032 257.758C237.589 258.076 238.239 258.235 238.984 258.235C239.467 258.235 239.907 258.167 240.305 258.031C240.702 257.889 241.046 257.678 241.336 257.4C241.626 257.122 241.847 256.778 242.001 256.369L244.413 256.803C244.219 257.514 243.873 258.136 243.373 258.67C242.878 259.198 242.256 259.61 241.506 259.906C240.762 260.195 239.913 260.34 238.958 260.34ZM112.47 275.207C112.379 274.4 112.004 273.775 111.345 273.332C110.686 272.883 109.856 272.659 108.856 272.659C108.141 272.659 107.521 272.772 106.998 272.999C106.476 273.221 106.07 273.528 105.78 273.92C105.496 274.306 105.354 274.747 105.354 275.241C105.354 275.656 105.45 276.014 105.643 276.315C105.842 276.616 106.101 276.869 106.419 277.073C106.743 277.272 107.089 277.44 107.459 277.576C107.828 277.707 108.183 277.815 108.524 277.9L110.229 278.343C110.785 278.48 111.356 278.664 111.942 278.897C112.527 279.13 113.07 279.437 113.57 279.818C114.07 280.198 114.473 280.67 114.78 281.232C115.092 281.795 115.248 282.468 115.248 283.252C115.248 284.241 114.993 285.119 114.481 285.886C113.976 286.653 113.24 287.258 112.274 287.701C111.314 288.144 110.152 288.366 108.788 288.366C107.481 288.366 106.351 288.159 105.396 287.744C104.442 287.329 103.695 286.741 103.155 285.98C102.615 285.213 102.317 284.303 102.26 283.252H104.902C104.953 283.883 105.158 284.409 105.516 284.829C105.879 285.244 106.342 285.553 106.905 285.758C107.473 285.957 108.095 286.056 108.771 286.056C109.516 286.056 110.177 285.94 110.757 285.707C111.342 285.468 111.802 285.139 112.138 284.718C112.473 284.292 112.641 283.795 112.641 283.227C112.641 282.71 112.493 282.286 112.197 281.957C111.908 281.627 111.513 281.355 111.013 281.139C110.518 280.923 109.959 280.732 109.334 280.568L107.271 280.005C105.873 279.624 104.766 279.065 103.947 278.326C103.135 277.588 102.729 276.61 102.729 275.394C102.729 274.389 103.001 273.511 103.547 272.761C104.092 272.011 104.831 271.428 105.763 271.014C106.695 270.593 107.746 270.383 108.916 270.383C110.098 270.383 111.141 270.59 112.044 271.005C112.953 271.42 113.669 271.991 114.192 272.718C114.714 273.44 114.987 274.269 115.01 275.207H112.47ZM124.302 274.985V277.031H117.151V274.985H124.302ZM119.069 271.849H121.617V284.232C121.617 284.727 121.691 285.099 121.839 285.349C121.986 285.593 122.177 285.761 122.41 285.852C122.648 285.937 122.907 285.98 123.185 285.98C123.39 285.98 123.569 285.965 123.722 285.937C123.876 285.909 123.995 285.886 124.08 285.869L124.54 287.974C124.393 288.031 124.182 288.088 123.91 288.144C123.637 288.207 123.296 288.241 122.887 288.247C122.217 288.258 121.592 288.139 121.012 287.889C120.432 287.639 119.964 287.252 119.606 286.73C119.248 286.207 119.069 285.551 119.069 284.761V271.849ZM130.93 288.366C130.101 288.366 129.351 288.213 128.68 287.906C128.01 287.593 127.479 287.142 127.087 286.551C126.7 285.96 126.507 285.235 126.507 284.377C126.507 283.639 126.649 283.031 126.933 282.553C127.217 282.076 127.601 281.698 128.084 281.42C128.567 281.142 129.106 280.931 129.703 280.789C130.3 280.647 130.908 280.539 131.527 280.465C132.311 280.374 132.947 280.301 133.436 280.244C133.925 280.181 134.28 280.082 134.501 279.945C134.723 279.809 134.834 279.588 134.834 279.281V279.221C134.834 278.477 134.623 277.9 134.203 277.491C133.788 277.082 133.169 276.877 132.345 276.877C131.487 276.877 130.811 277.068 130.317 277.448C129.828 277.823 129.49 278.241 129.302 278.701L126.908 278.156C127.192 277.36 127.606 276.718 128.152 276.23C128.703 275.735 129.337 275.377 130.052 275.156C130.768 274.928 131.521 274.815 132.311 274.815C132.834 274.815 133.388 274.877 133.973 275.002C134.564 275.122 135.115 275.343 135.626 275.667C136.143 275.991 136.567 276.454 136.896 277.056C137.226 277.653 137.391 278.428 137.391 279.383V288.076H134.902V286.286H134.8C134.635 286.616 134.388 286.94 134.058 287.258C133.729 287.576 133.305 287.84 132.788 288.051C132.271 288.261 131.652 288.366 130.93 288.366ZM131.484 286.32C132.189 286.32 132.791 286.181 133.291 285.903C133.797 285.624 134.18 285.261 134.442 284.812C134.709 284.357 134.842 283.872 134.842 283.355V281.667C134.751 281.758 134.575 281.843 134.314 281.923C134.058 281.997 133.766 282.062 133.436 282.119C133.106 282.17 132.785 282.218 132.473 282.264C132.16 282.303 131.899 282.338 131.689 282.366C131.195 282.428 130.743 282.534 130.334 282.681C129.93 282.829 129.606 283.042 129.362 283.32C129.123 283.593 129.004 283.957 129.004 284.411C129.004 285.042 129.237 285.519 129.703 285.843C130.169 286.161 130.763 286.32 131.484 286.32ZM146.273 293.258C145.234 293.258 144.339 293.122 143.589 292.849C142.844 292.576 142.236 292.215 141.765 291.767C141.293 291.318 140.941 290.826 140.708 290.292L142.898 289.389C143.052 289.639 143.256 289.903 143.512 290.181C143.773 290.465 144.126 290.707 144.569 290.906C145.018 291.105 145.594 291.204 146.299 291.204C147.265 291.204 148.063 290.968 148.694 290.497C149.324 290.031 149.64 289.286 149.64 288.264V285.69H149.478C149.324 285.968 149.103 286.278 148.813 286.619C148.529 286.96 148.137 287.255 147.637 287.505C147.137 287.755 146.486 287.88 145.685 287.88C144.651 287.88 143.719 287.639 142.89 287.156C142.066 286.667 141.413 285.948 140.93 284.999C140.452 284.045 140.214 282.872 140.214 281.48C140.214 280.088 140.449 278.894 140.921 277.9C141.398 276.906 142.052 276.144 142.881 275.616C143.711 275.082 144.651 274.815 145.702 274.815C146.515 274.815 147.171 274.951 147.671 275.224C148.171 275.491 148.56 275.803 148.839 276.161C149.123 276.519 149.342 276.835 149.495 277.107H149.682V274.985H152.18V288.366C152.18 289.491 151.918 290.414 151.395 291.136C150.873 291.857 150.165 292.392 149.273 292.738C148.387 293.085 147.387 293.258 146.273 293.258ZM146.248 285.767C146.981 285.767 147.6 285.596 148.106 285.255C148.617 284.909 149.003 284.414 149.265 283.772C149.532 283.124 149.665 282.349 149.665 281.445C149.665 280.565 149.535 279.789 149.273 279.119C149.012 278.448 148.628 277.926 148.123 277.551C147.617 277.17 146.992 276.98 146.248 276.98C145.481 276.98 144.842 277.178 144.33 277.576C143.819 277.968 143.432 278.502 143.171 279.178C142.915 279.855 142.788 280.61 142.788 281.445C142.788 282.303 142.918 283.056 143.18 283.704C143.441 284.352 143.827 284.857 144.339 285.221C144.856 285.585 145.492 285.767 146.248 285.767ZM155.597 288.076V274.985H158.145V288.076H155.597ZM156.884 272.965C156.441 272.965 156.06 272.818 155.742 272.522C155.43 272.221 155.273 271.863 155.273 271.448C155.273 271.028 155.43 270.67 155.742 270.374C156.06 270.073 156.441 269.923 156.884 269.923C157.327 269.923 157.705 270.073 158.018 270.374C158.336 270.67 158.495 271.028 158.495 271.448C158.495 271.863 158.336 272.221 158.018 272.522C157.705 272.818 157.327 272.965 156.884 272.965ZM164.122 280.303V288.076H161.574V274.985H164.02V277.116H164.182C164.483 276.423 164.954 275.866 165.596 275.445C166.244 275.025 167.06 274.815 168.043 274.815C168.935 274.815 169.716 275.002 170.386 275.377C171.057 275.747 171.577 276.298 171.946 277.031C172.315 277.764 172.5 278.67 172.5 279.749V288.076H169.952V280.056C169.952 279.107 169.704 278.366 169.21 277.832C168.716 277.292 168.037 277.022 167.173 277.022C166.582 277.022 166.057 277.15 165.596 277.406C165.142 277.661 164.781 278.036 164.514 278.531C164.253 279.019 164.122 279.61 164.122 280.303ZM181.406 293.258C180.366 293.258 179.471 293.122 178.721 292.849C177.977 292.576 177.369 292.215 176.898 291.767C176.426 291.318 176.074 290.826 175.841 290.292L178.031 289.389C178.185 289.639 178.389 289.903 178.645 290.181C178.906 290.465 179.258 290.707 179.702 290.906C180.15 291.105 180.727 291.204 181.432 291.204C182.398 291.204 183.196 290.968 183.827 290.497C184.457 290.031 184.773 289.286 184.773 288.264V285.69H184.611C184.457 285.968 184.236 286.278 183.946 286.619C183.662 286.96 183.27 287.255 182.77 287.505C182.27 287.755 181.619 287.88 180.818 287.88C179.784 287.88 178.852 287.639 178.023 287.156C177.199 286.667 176.545 285.948 176.062 284.999C175.585 284.045 175.346 282.872 175.346 281.48C175.346 280.088 175.582 278.894 176.054 277.9C176.531 276.906 177.185 276.144 178.014 275.616C178.844 275.082 179.784 274.815 180.835 274.815C181.648 274.815 182.304 274.951 182.804 275.224C183.304 275.491 183.693 275.803 183.971 276.161C184.256 276.519 184.474 276.835 184.628 277.107H184.815V274.985H187.312V288.366C187.312 289.491 187.051 290.414 186.528 291.136C186.006 291.857 185.298 292.392 184.406 292.738C183.52 293.085 182.52 293.258 181.406 293.258ZM181.381 285.767C182.114 285.767 182.733 285.596 183.239 285.255C183.75 284.909 184.136 284.414 184.398 283.772C184.665 283.124 184.798 282.349 184.798 281.445C184.798 280.565 184.668 279.789 184.406 279.119C184.145 278.448 183.761 277.926 183.256 277.551C182.75 277.17 182.125 276.98 181.381 276.98C180.614 276.98 179.974 277.178 179.463 277.576C178.952 277.968 178.565 278.502 178.304 279.178C178.048 279.855 177.92 280.61 177.92 281.445C177.92 282.303 178.051 283.056 178.312 283.704C178.574 284.352 178.96 284.857 179.471 285.221C179.989 285.585 180.625 285.767 181.381 285.767Z" fill="white"/>
<path fill-rule="evenodd" clip-rule="evenodd" d="M93.3621 135.823C93.6429 133.118 95.7442 131.037 98.4523 130.787L105.961 130.089C110.055 129.709 112.023 124.903 109.372 121.76L104.512 115.999C102.758 113.919 102.718 110.966 104.415 108.841C106.755 105.91 109.406 103.238 112.316 100.877C114.426 99.1618 117.382 99.1769 119.477 100.916L125.277 105.728C128.441 108.355 133.232 106.347 133.579 102.25L134.216 94.7359C134.446 92.0247 136.511 89.9053 139.213 89.6064C143.071 89.1777 146.981 89.1777 150.84 89.6064C153.545 89.9083 155.607 92.0247 155.836 94.7359L156.473 102.25C156.82 106.347 161.612 108.355 164.776 105.728L170.575 100.916C172.668 99.18 175.623 99.1618 177.737 100.877C180.647 103.241 183.298 105.913 185.637 108.841C187.334 110.966 187.295 113.922 185.541 115.999L180.68 121.76C178.029 124.903 179.998 129.709 184.092 130.089L191.6 130.787C194.308 131.037 196.41 133.118 196.69 135.823C197.062 139.397 197.062 143.05 196.69 146.625C196.41 149.33 194.308 151.41 191.6 151.661L184.092 152.358C179.998 152.739 178.029 157.545 180.68 160.688L185.541 166.448C187.295 168.528 187.334 171.481 185.637 173.606C183.298 176.538 180.647 179.21 177.737 181.571C175.626 183.286 172.671 183.271 170.575 181.532L164.776 176.719C161.612 174.093 156.82 176.1 156.473 180.197L155.836 187.712C155.607 190.423 153.542 192.542 150.84 192.841C146.981 193.27 143.071 193.27 139.213 192.841C136.508 192.539 134.446 190.423 134.216 187.712L133.579 180.197C133.232 176.1 128.441 174.093 125.277 176.719L119.477 181.532C117.385 183.268 114.429 183.286 112.316 181.571C109.406 179.207 106.755 176.535 104.415 173.606C102.718 171.481 102.758 168.525 104.512 166.448L109.372 160.688C112.023 157.545 110.055 152.739 105.961 152.358L98.4523 151.661C95.7442 151.41 93.6429 149.33 93.3621 146.625C92.9908 143.047 92.9908 139.4 93.3621 135.823ZM96.7193 48.251C83.381 48.251 72.5667 59.0653 72.5667 72.4037C72.5667 85.742 83.381 96.5564 96.7193 96.5564C110.058 96.5564 120.872 85.742 120.872 72.4037C120.872 59.0653 110.058 48.251 96.7193 48.251ZM182.422 65.7677C181.245 64.5903 181.245 62.6762 182.422 61.4987C183.6 60.3213 185.514 60.3213 186.691 61.4987L193.327 68.1347L199.963 61.4987C201.141 60.3213 203.055 60.3213 204.232 61.4987C205.41 62.6762 205.41 64.5903 204.232 65.7677L197.596 72.4037L204.232 79.0396C205.41 80.2171 205.41 82.1312 204.232 83.3086C203.055 84.4861 201.141 84.4861 199.963 83.3086L193.327 76.6727L186.691 83.3086C185.514 84.4861 183.6 84.4861 182.422 83.3086C181.245 82.1312 181.245 80.2171 182.422 79.0396L189.058 72.4037L182.422 65.7677ZM80.2472 71.8331C79.3022 70.4654 79.6464 68.5906 81.0141 67.6456C82.3817 66.7006 84.2566 67.0448 85.2015 68.4124L89.9989 75.3412L107.011 62.7818C108.346 61.7916 110.233 62.0724 111.223 63.4068C112.213 64.7412 111.933 66.6282 110.598 67.6184L91.0857 82.0255C89.6939 83.0218 87.7979 82.738 86.8167 81.319L80.2502 71.8361L80.2472 71.8331ZM193.33 48.251C179.992 48.251 169.177 59.0653 169.177 72.4037C169.177 85.742 179.992 96.5564 193.33 96.5564C206.668 96.5564 217.483 85.742 217.483 72.4037C217.483 59.0653 206.668 48.251 193.33 48.251ZM123.384 141.224C123.384 153.176 133.072 162.865 145.025 162.865C156.977 162.865 166.666 153.176 166.666 141.224C166.666 129.271 156.977 119.583 145.025 119.583C133.072 119.583 123.384 129.271 123.384 141.224Z" fill="#6DC135"/>
</svg>
