<svg clip-rule="evenodd" fill-rule="evenodd" stroke-linejoin="round" stroke-miterlimit="2" viewBox="0 0 510 510" xmlns="http://www.w3.org/2000/svg"><path d="m34.331 158.611c-11.139-3.069-19.331-13.28-19.331-25.389 0-14.533 11.799-26.331 26.331-26.331 14.533 0 26.331 11.798 26.331 26.331 0 12.109-8.191 22.32-19.331 25.389v36.879h71.835c-1.455 5.66-4.973 10.764-10.013 14h-68.822c-3.866 0-7-3.134-7-7zm105.657-110.28c-3.068 11.14-13.279 19.331-25.388 19.331-14.533 0-26.332-11.798-26.332-26.331 0-14.532 11.799-26.331 26.332-26.331 12.109 0 22.32 8.192 25.388 19.331h54.471c3.866 0 7 3.134 7 7v76.411c-4.201 2.404-9.116 3.53-14 3.069v-72.48zm230.024 0h-47.471v72.48c-4.884.461-9.799-.665-14-3.069v-76.411c0-3.866 3.134-7 7-7h54.471c3.068-11.139 13.279-19.331 25.388-19.331 14.533 0 26.332 11.799 26.332 26.331 0 14.533-11.799 26.331-26.332 26.331-12.109 0-22.32-8.191-25.388-19.331zm105.657 110.28v43.878c0 3.866-3.134 7-7 7h-68.818c-5.039-3.237-8.557-8.34-10.013-14h71.831v-36.878c-11.14-3.069-19.331-13.28-19.331-25.389 0-14.533 11.798-26.331 26.331-26.331 14.532 0 26.331 11.798 26.331 26.331 0 12.109-8.192 22.32-19.331 25.389zm-14 192.778v-36.878h-71.831c1.456-5.66 4.974-10.763 10.013-14h68.818c3.866 0 7 3.134 7 7v43.878c11.139 3.069 19.331 13.28 19.331 25.389 0 14.533-11.799 26.331-26.331 26.331-14.533 0-26.331-11.798-26.331-26.331 0-12.109 8.191-22.32 19.331-25.389zm-91.657 124.28h-54.471c-3.866 0-7-3.134-7-7v-76.406c4.201-2.405 9.116-3.532 14-3.072v72.478h47.471c3.068-11.14 13.279-19.331 25.388-19.331 14.533 0 26.332 11.798 26.332 26.331 0 14.532-11.799 26.331-26.332 26.331-12.109 0-22.32-8.192-25.388-19.331zm-230.024 0c-3.068 11.139-13.279 19.331-25.388 19.331-14.533 0-26.332-11.799-26.332-26.331 0-14.533 11.799-26.331 26.332-26.331 12.109 0 22.32 8.191 25.388 19.331h47.471v-72.487c4.884-.464 9.799.66 14 3.065v76.422c0 3.866-3.134 7-7 7zm-91.657-124.28c11.14 3.069 19.331 13.28 19.331 25.389 0 14.533-11.798 26.331-26.331 26.331-14.532 0-26.331-11.798-26.331-26.331 0-12.109 8.192-22.32 19.331-25.389v-43.879c0-3.866 3.134-7 7-7h68.822c5.04 3.236 8.558 8.34 10.013 14h-71.835zm364.079-68.481c-33.171 0-49.827 40.196-26.366 63.657 4.318 4.318 4.318 11.342 0 15.66l-23.819 23.819c-4.318 4.318-11.342 4.318-15.66 0-23.461-23.461-63.657-6.805-63.657 26.366 0 6.129-4.955 11.064-11.064 11.064h-33.688c-6.109 0-11.064-4.935-11.064-11.064 0-33.211-40.176-49.847-63.657-26.366-4.318 4.318-11.322 4.318-15.64 0l-23.839-23.819c-4.318-4.318-4.318-11.342 0-15.66 23.461-23.461 6.825-63.657-26.366-63.657-6.109 0-11.064-4.955-11.064-11.064v-33.688c0-6.109 4.955-11.064 11.064-11.064 33.191 0 49.827-40.196 26.366-63.657-4.318-4.318-4.318-11.322 0-15.64l23.839-23.839c4.318-4.318 11.322-4.318 15.64 0 23.461 23.461 63.657 6.825 63.657-26.366 0-6.109 4.955-11.064 11.064-11.064h33.688c6.109 0 11.064 4.955 11.064 11.064 0 33.191 40.196 49.827 63.657 26.366 4.318-4.318 11.342-4.318 15.66 0l23.819 23.839c4.318 4.318 4.318 11.322 0 15.64-23.461 23.461-6.805 63.657 26.366 63.657 6.129 0 11.064 4.955 11.064 11.064v33.688c0 6.109-4.935 11.064-11.064 11.064zm-157.4 60.051c48.428 0 87.949-39.521 87.949-87.949 0-48.45-39.521-87.949-87.949-87.949-48.45 0-87.949 39.499-87.949 87.949 0 48.428 39.499 87.949 87.949 87.949zm0-14c-40.737 0-73.949-33.23-73.949-73.949 0-40.737 33.212-73.949 73.949-73.949 40.719 0 73.949 33.212 73.949 73.949 0 40.719-33.23 73.949-73.949 73.949zm29.904-99.678-38.249 36.726-21.625-20.388c-2.811-2.65-7.245-2.519-9.895.292-2.651 2.811-2.52 7.245.291 9.895l26.472 24.957c2.714 2.559 6.959 2.54 9.65-.044l43.052-41.339c2.787-2.676 2.877-7.111.201-9.898-2.676-2.786-7.11-2.876-9.897-.201z"/></svg>