<svg enable-background="new 0 0 32 32" viewBox="0 0 32 32" xmlns="http://www.w3.org/2000/svg"><g id="Guides"/><g id="_x32_0"/><g id="_x31_9"/><g id="_x31_8"/><g id="_x31_7"/><g id="_x31_6"/><g id="_x31_5"/><g id="_x31_4"/><g id="_x31_3"/><g id="_x31_2"/><g id="_x31_1"/><g id="_x31_0"/><g id="_x30_9"/><g id="_x30_8"/><g id="_x30_7"/><g id="_x30_6"/><g id="_x30_5"><path d="m2.7070313 2 4 4h18.5859375l4-4z"/><path d="m6 6.7070313-4-4v26.5859375l4-4z"/><path d="m25.2929688 26h-18.5859375l-4 4h26.5859375z"/><path d="m26 6.7070313v18.5859375l4 4v-26.5859375z"/><path d="m21 9h-10c-1.6568546 0-3 1.3431454-3 3v5c0 1.6568546 1.3431454 3 3 3h4v1h-1c-.5527344 0-1 .4477539-1 1s.4472656 1 1 1h4c.5527344 0 1-.4477539 1-1s-.4472656-1-1-1h-1v-1h4c1.6568546 0 3-1.3431454 3-3v-5c0-1.6568546-1.3431454-3-3-3zm-6.1464844 7.1464844c.1953125.1953125.1953125.5117188 0 .7070313-.0976562.0976562-.2255859.1464843-.3535156.1464843s-.2558594-.0488281-.3535156-.1464844l-2-2c-.1953125-.1953125-.1953125-.5117188 0-.7070313l2-2c.1953125-.1953125.5117188-.1953125.7070313 0s.1953125.5117188 0 .7070313l-1.6464844 1.6464844zm5-1.2929688-2 2c-.0976562.0976563-.2255859.1464844-.3535156.1464844s-.2558594-.0488281-.3535156-.1464844c-.1953125-.1953125-.1953125-.5117188 0-.7070313l1.6464844-1.6464843-1.6464844-1.6464844c-.1953125-.1953125-.1953125-.5117188 0-.7070313s.5117188-.1953125.7070313 0l2 2c.1953124.1953126.1953124.5117188-.0000001.7070313z"/></g><g id="_x30_4"/><g id="_x30_3"/><g id="_x30_2"/><g id="_x30_1"/></svg>